<svg width="38" height="38" viewBox="0 0 38 38" fill="none" xmlns="http://www.w3.org/2000/svg">
<circle cx="19" cy="19" r="19" fill="#F4F0F0"/>
<path fill-rule="evenodd" clip-rule="evenodd" d="M19.5645 32.8831C16.006 32.8922 12.5886 31.4958 10.0586 28.999C7.5287 26.5022 6.09189 23.1078 6.06204 19.5573C6.05392 16.0063 7.45425 12.5964 9.95724 10.0721C12.4602 7.54778 15.8625 6.11417 19.4212 6.08431C22.98 6.07707 26.3971 7.47514 28.9262 9.97323C31.4554 12.4713 32.8912 15.8665 32.9201 19.4173C32.9273 22.9667 31.5269 26.3748 29.0247 28.8976C26.5224 31.4205 23.1216 32.8532 19.5645 32.8831Z" fill="#9F212C"/>
<path fill-rule="evenodd" clip-rule="evenodd" d="M19.5641 32.8837C16.4465 32.9073 13.4172 31.8509 10.993 29.8948C8.5688 27.9387 6.89982 25.204 6.27074 22.1571C5.64165 19.1103 6.09142 15.94 7.54334 13.187C8.99525 10.434 11.3594 8.26891 14.2325 7.06091C17.1056 5.8529 20.3097 5.67685 23.2983 6.56278C26.2869 7.44871 28.8749 9.34174 30.6209 11.919C32.3668 14.4963 33.1626 17.5981 32.8725 20.6955C32.5823 23.7928 31.2243 26.6939 29.0299 28.9037C27.7917 30.1554 26.3183 31.1511 24.6941 31.834C23.0699 32.517 21.3266 32.8736 19.5641 32.8837ZM19.5613 32.3548C22.5577 32.3433 25.4573 31.2947 27.7654 29.388C30.0734 27.4813 31.6469 24.8345 32.2173 21.8994C32.7877 18.9643 32.3198 15.9226 30.8933 13.2933C29.4668 10.6641 27.1701 8.61023 24.3952 7.48215C21.6203 6.35408 18.539 6.22171 15.6772 7.10763C12.8153 7.99354 10.3501 9.84285 8.70232 12.34C7.0545 14.8372 6.32613 17.8275 6.64148 20.8007C6.95683 23.7739 8.29635 26.5457 10.4315 28.6433C11.6333 29.8317 13.0584 30.7717 14.6252 31.4092C16.1919 32.0467 17.8694 32.3693 19.5614 32.3584" fill="#A0222C"/>
<mask id="mask0_1218_6856" style="mask-type:luminance" maskUnits="userSpaceOnUse" x="8" y="8" width="23" height="23">
<path d="M12.4237 16.2985C12.591 16.3012 12.7537 16.3531 12.8914 16.4477C13.0292 16.5423 13.1359 16.6754 13.1981 16.8303C13.2603 16.9852 13.2752 17.155 13.241 17.3184C13.2069 17.4817 13.1251 17.6313 13.0059 17.7485C12.8868 17.8656 12.7357 17.945 12.5715 17.9767C12.4073 18.0084 12.2373 17.991 12.083 17.9267C11.9287 17.8624 11.7969 17.754 11.7041 17.6151C11.6113 17.4763 11.5617 17.3132 11.5615 17.1463C11.561 16.99 11.6036 16.8365 11.6845 16.7026C11.6075 16.7373 11.5254 16.7594 11.4414 16.7682C11.0948 18.9854 13.3236 18.545 13.3236 18.545C14.139 18.3371 18.3112 13.5593 18.3112 13.5593L17.9874 13.2716C17.491 12.8382 17.7883 12.8653 17.7883 12.8653L19.947 14.7764L19.2879 14.7441C17.2225 17.6635 15.3328 18.5917 14.5643 18.8637C10.9873 19.6685 10.975 17.303 10.975 17.303L8.42521 19.3638C13.5201 23.2678 15.4904 25.4659 16.2519 26.5768C16.2531 26.4099 16.3037 26.2471 16.3974 26.1088C16.4911 25.9706 16.6236 25.863 16.7783 25.7996C16.933 25.7363 17.1031 25.7199 17.2671 25.7527C17.4311 25.7854 17.5817 25.8657 17.7001 25.9836C17.8185 26.1015 17.8993 26.2516 17.9324 26.4152C17.9656 26.5788 17.9496 26.7485 17.8864 26.903C17.8232 27.0575 17.7157 27.1899 17.5773 27.2837C17.4389 27.3774 17.2759 27.4283 17.1086 27.4299C16.9522 27.4316 16.7984 27.3904 16.6639 27.3107C16.7007 27.3856 16.723 27.4667 16.7296 27.5498C18.9552 27.8705 18.4889 25.6611 18.4889 25.6611C18.2734 24.8475 13.4494 20.7098 13.4494 20.7098L13.1611 21.0364C12.7268 21.5389 12.7539 21.2387 12.7539 21.2387L14.7125 19.1274L14.7123 19.0809L14.8664 19.1123L14.8698 19.7519C17.4584 21.7108 18.4702 23.4457 18.8327 24.2871C19.65 27.8811 17.2722 27.8935 17.2722 27.8935L19.3232 30.4485C23.2539 25.3611 25.4531 23.3807 26.5665 22.621C26.3993 22.6197 26.2361 22.5692 26.0975 22.4758C25.959 22.3823 25.8512 22.2501 25.7877 22.0957C25.7242 21.9413 25.7078 21.7717 25.7406 21.608C25.7734 21.4444 25.8539 21.2941 25.9721 21.176C26.0902 21.0578 26.2407 20.9772 26.4046 20.9441C26.5686 20.911 26.7386 20.927 26.8935 20.9901C27.0484 21.0531 27.1811 21.1604 27.275 21.2985C27.369 21.4365 27.4199 21.5992 27.4215 21.7661C27.4249 21.9212 27.3834 22.074 27.3021 22.2062C27.3791 22.1715 27.4612 22.1494 27.5452 22.1406C27.8667 19.9235 25.6524 20.3889 25.6524 20.3889C24.8334 20.604 20.69 25.4173 20.69 25.4173L21.0138 25.7051C21.5175 26.1348 21.2165 26.1114 21.2165 26.1114L19.3381 24.3738L19.2324 24.017L19.5916 24.2331C21.2661 21.8875 23.9398 20.2406 24.2647 20.0495L24.2968 20.0279C28.0168 19.1724 27.9864 21.5916 27.9864 21.5916L30.5615 19.5665C25.495 15.6194 23.5461 13.4105 22.7918 12.2925C22.7892 12.4593 22.7372 12.6217 22.6423 12.7591C22.5475 12.8966 22.4141 13.003 22.2589 13.0651C22.1036 13.1272 21.9335 13.1421 21.7697 13.108C21.606 13.0739 21.4561 12.9923 21.3387 12.8734C21.2213 12.7546 21.1417 12.6038 21.1099 12.4399C21.0782 12.2761 21.0956 12.1065 21.1601 11.9526C21.2246 11.7986 21.3332 11.667 21.4723 11.5745C21.6115 11.4819 21.7749 11.4324 21.9422 11.4322C22.1204 11.4267 22.2974 11.4638 22.4584 11.5402C22.4319 11.4543 22.3848 11.376 22.3212 11.3123C20.099 10.9665 20.5404 13.1904 20.5404 13.1904C20.7487 14.004 25.537 18.1669 25.537 18.1669L25.8254 17.8474C26.2597 17.3484 26.2326 17.6452 26.2326 17.6452L24.2595 19.7422L24.2031 19.2173C22.5249 18.0915 21.1476 16.574 20.1906 14.7966C18.9914 11.4547 22.0652 10.9884 22.0652 10.9884L19.7283 8.54578C15.7581 13.6084 13.5622 15.5458 12.4237 16.2985Z" fill="white"/>
</mask>
<g mask="url(#mask0_1218_6856)">
<path d="M30.5038 8.48962L8.36914 8.60498L8.48319 30.4871L30.6178 30.3717L30.5038 8.48962Z" fill="url(#paint0_linear_1218_6856)"/>
</g>
<mask id="mask1_1218_6856" style="mask-type:luminance" maskUnits="userSpaceOnUse" x="14" y="14" width="11" height="11">
<path d="M14.6962 18.8124C14.7907 18.9474 14.8556 19.1008 14.8867 19.2626C14.9178 19.4244 14.9143 19.5909 14.8766 19.7512C14.8766 19.7512 17.6876 21.7697 18.8395 24.2865C18.8395 24.2865 18.9336 23.7929 19.5985 24.2468C20.8702 22.5663 22.4544 21.1458 24.2645 20.0632L24.21 19.238C22.5494 18.0811 21.1748 16.562 20.1903 14.796L19.9538 14.7686L19.2876 14.7435C19.2876 14.7435 17.2444 17.82 14.689 18.8124" fill="white"/>
</mask>
<g mask="url(#mask1_1218_6856)">
<path d="M24.2337 14.7187L14.6758 14.7686L14.7255 24.3089L24.2834 24.2591L24.2337 14.7187Z" fill="url(#paint1_linear_1218_6856)"/>
</g>
<path d="M21.8198 19.7657C21.8242 19.7358 21.8177 19.7054 21.8014 19.68C21.6302 19.4655 21.4947 19.2249 21.4002 18.9674C21.3672 18.8282 21.3512 18.496 21.5586 18.4485C21.7661 18.4009 21.8677 18.6648 21.8257 18.8402C21.7836 19.0155 22.0418 19.0749 22.0803 18.9103C22.1248 18.8069 22.1367 18.6924 22.1144 18.5821C22.0921 18.4717 22.0366 18.3708 21.9553 18.2928C21.8823 18.2442 21.8004 18.2105 21.7142 18.1938C21.628 18.1771 21.5394 18.1776 21.4535 18.1953C21.2068 18.1337 20.9665 18.0488 20.7359 17.9418C20.585 17.8532 20.4411 17.7146 20.4974 17.5285C20.51 17.4665 20.5467 17.4119 20.5996 17.3768C20.6524 17.3417 20.7171 17.3289 20.7793 17.3413C20.9264 17.3834 20.9201 17.5478 20.9172 17.6764C20.9225 17.7082 20.9391 17.737 20.9638 17.7577C20.9885 17.7784 21.0198 17.7897 21.052 17.7896C21.0843 17.7894 21.1155 17.7778 21.14 17.7568C21.1645 17.7358 21.1807 17.7068 21.1857 17.675C21.1843 17.3963 21.1183 17.1037 20.7994 17.0732C20.6996 17.0635 20.5991 17.0821 20.5094 17.1268C20.4197 17.1715 20.3444 17.2405 20.2922 17.3259L20.26 17.3261C20.0328 17.4541 19.777 17.5231 19.5161 17.5265C19.4111 17.5339 19.306 17.5135 19.2114 17.4673C19.1801 17.4516 19.1527 17.4289 19.1313 17.4011C19.1099 17.3733 19.0952 17.341 19.0881 17.3066C19.081 17.2723 19.0818 17.2368 19.0905 17.2028C19.0991 17.1688 19.1153 17.1372 19.138 17.1104C19.2846 17.0811 19.36 17.1092 19.3642 17.2343C19.3739 17.2684 19.3967 17.2972 19.4277 17.3145C19.4431 17.323 19.4599 17.3284 19.4774 17.3305C19.4948 17.3325 19.5125 17.3311 19.5294 17.3263C19.5463 17.3216 19.5621 17.3135 19.5759 17.3026C19.5897 17.2918 19.6012 17.2783 19.6098 17.263C19.6183 17.2477 19.6238 17.2308 19.6258 17.2134C19.6279 17.196 19.6265 17.1783 19.6217 17.1615C19.5596 16.926 19.3648 16.6697 19.0898 16.8069C18.9994 16.859 18.927 16.9372 18.882 17.0312C18.8371 17.1252 18.8219 17.2306 18.8383 17.3335C18.6669 17.5036 18.5219 17.6983 18.408 17.911C18.3251 18.0659 18.1881 18.1849 18.023 18.2454C17.9791 18.2542 17.9337 18.2531 17.8903 18.2422C17.8469 18.2313 17.8065 18.2108 17.772 18.1824C17.7285 18.0975 17.7178 17.9996 17.7419 17.9074C17.7415 17.8288 17.8057 17.7784 17.9094 17.7636C18.0176 17.8952 18.2028 17.7084 18.0947 17.5768C17.7162 17.1107 17.1912 18.0675 17.6371 18.4117L17.6946 18.4543C17.7299 18.7043 17.7313 18.9579 17.6985 19.2083C17.6671 19.3692 17.6001 19.5661 17.3994 19.5421C17.2741 19.5428 17.0403 19.3403 17.1972 19.2252C17.3542 19.11 17.1955 18.8929 17.0635 18.9972C16.6819 19.285 17.007 19.8265 17.4259 19.8064L17.5226 19.8059C17.622 19.9808 17.7317 20.1497 17.8511 20.3116C17.9477 20.4353 18.0024 20.5864 18.0073 20.7432C18.0078 20.8361 17.937 20.9972 17.8044 20.9765C17.765 20.9767 17.6353 20.8201 17.7175 20.784C17.8711 20.7153 17.7374 20.4873 17.5802 20.556C17.423 20.6247 17.3853 20.9608 17.4864 21.1032C17.5619 21.1814 17.6613 21.2323 17.769 21.2479C17.8767 21.2635 17.9866 21.2429 18.0813 21.1894C18.1548 21.1445 18.2112 21.0763 18.2414 20.9956L18.2629 20.9955C18.5488 20.9926 18.8305 21.0638 19.0805 21.2021C19.1476 21.2588 19.1983 21.3323 19.2277 21.415C19.2571 21.4977 19.264 21.5867 19.2477 21.6729C19.2487 21.7305 19.2341 21.7874 19.2056 21.8375L19.0341 21.9277C18.9302 21.9104 18.9901 21.7243 19.0041 21.6706C19.057 21.5095 18.7988 21.4394 18.7495 21.604C18.6791 21.8331 18.6877 22.1082 18.9638 22.1818C19.0271 22.1931 19.0919 22.1912 19.1544 22.1762C19.2168 22.1611 19.2754 22.1332 19.3264 22.0943C19.3774 22.0553 19.4198 22.0062 19.4507 21.95C19.4816 21.8939 19.5005 21.8319 19.506 21.768C19.5058 21.7252 19.5056 21.6823 19.5054 21.643C19.5254 21.6362 19.5437 21.6252 19.5589 21.6105C19.7877 21.3917 20.0535 21.2149 20.3441 21.0883C20.5227 21.0123 20.8195 20.9322 20.9069 21.2069C20.9292 21.3013 20.9157 21.4007 20.869 21.4858C20.8017 21.6398 20.7015 21.651 20.5684 21.5231C20.5854 21.3551 20.3204 21.3564 20.3034 21.5245C20.2993 21.5849 20.3107 21.6455 20.3366 21.7003C20.3624 21.7552 20.4018 21.8026 20.451 21.838C20.5003 21.8735 20.5578 21.8959 20.6181 21.9031C20.6784 21.9103 20.7396 21.9021 20.7958 21.8792C20.9247 21.8264 21.0321 21.7321 21.1009 21.6113C21.1697 21.4904 21.196 21.3501 21.1755 21.2126C21.1686 21.1607 21.1539 21.1102 21.1318 21.0628C21.1373 21.0429 21.1372 21.0218 21.1315 21.002C21.126 20.7552 21.1774 20.5104 21.2817 20.2866C21.3419 20.1612 21.4522 20.0141 21.6062 20.0133C21.6562 20.0126 21.7047 20.0307 21.7421 20.0638C21.7796 20.097 21.8032 20.143 21.8084 20.1926C21.8136 20.2423 21.8 20.2921 21.7702 20.3323C21.7405 20.3725 21.6968 20.4001 21.6476 20.4097C21.4795 20.4464 21.5525 20.7032 21.7206 20.6666C21.8257 20.6549 21.9236 20.6078 21.9982 20.5331C22.0729 20.4584 22.1199 20.3606 22.1314 20.2557C22.1429 20.1509 22.1184 20.0452 22.0617 19.9561C22.0051 19.8671 21.9198 19.7999 21.8198 19.7657ZM21.0839 20.1268C20.9785 20.3424 20.913 20.5751 20.8905 20.8139C20.7781 20.7641 20.6541 20.7462 20.5322 20.7622C20.1307 20.8504 19.7642 21.0549 19.4788 21.3501C19.3226 20.9221 18.7596 20.7928 18.2795 20.7489C18.2794 20.6934 18.2719 20.6382 18.2572 20.5846C18.173 20.2278 17.896 20.0005 17.7404 19.6869C18.0006 19.4461 17.9799 18.9245 17.9494 18.5531C18.3683 18.5509 18.6622 17.9097 18.9328 17.6082C19.1995 17.9284 19.8077 17.8073 20.1936 17.6516C20.196 18.1018 20.777 18.2703 21.1824 18.4004C21.1055 18.5694 21.0768 18.7562 21.0992 18.9404C21.1711 19.2366 21.3084 19.513 21.501 19.7495C21.4058 19.7745 21.3172 19.8196 21.2409 19.8816C21.1647 19.9436 21.1026 20.0212 21.0588 20.1091" fill="#9F212C"/>
<path d="M21.6105 17.83C21.6107 17.8702 21.5989 17.9097 21.5767 17.9433C21.5544 17.9769 21.5227 18.0032 21.4855 18.0188C21.4482 18.0344 21.4072 18.0386 21.3676 18.031C21.3279 18.0233 21.2915 18.0041 21.2628 17.9758C21.2341 17.9475 21.2144 17.9113 21.2064 17.8718C21.1983 17.8323 21.2021 17.7914 21.2174 17.7541C21.2326 17.7168 21.2586 17.6848 21.2921 17.6623C21.3255 17.6397 21.3649 17.6276 21.4053 17.6274C21.4591 17.628 21.5106 17.6495 21.5489 17.6873C21.5872 17.7251 21.6093 17.7762 21.6105 17.83Z" fill="#9F212C"/>
<path d="M22.2156 19.5302C22.2162 19.5571 22.2114 19.5838 22.2014 19.6088C22.1915 19.6338 22.1766 19.6565 22.1576 19.6756C22.1387 19.6947 22.116 19.7098 22.0911 19.72C22.0662 19.7302 22.0395 19.7353 22.0125 19.7349C21.9837 19.7389 21.9544 19.7367 21.9265 19.7285C21.8986 19.7202 21.8728 19.7061 21.8508 19.6871C21.8288 19.6681 21.8112 19.6446 21.799 19.6183C21.7869 19.5919 21.7805 19.5633 21.7804 19.5342C21.7802 19.5052 21.7863 19.4765 21.7981 19.45C21.81 19.4235 21.8274 19.3999 21.8492 19.3806C21.871 19.3614 21.8967 19.347 21.9245 19.3385C21.9523 19.33 21.9816 19.3275 22.0104 19.3311C22.037 19.3305 22.0635 19.3352 22.0883 19.3449C22.1131 19.3547 22.1357 19.3692 22.1548 19.3877C22.1739 19.4063 22.1891 19.4284 22.1996 19.4529C22.21 19.4773 22.2154 19.5036 22.2156 19.5302Z" fill="#9F212C"/>
<path d="M21.5988 21.1532C21.5991 21.2072 21.5778 21.2591 21.5398 21.2975C21.5017 21.3359 21.4499 21.3577 21.3957 21.3579C21.3688 21.3586 21.342 21.3538 21.317 21.3438C21.2919 21.3339 21.2692 21.319 21.25 21.3001C21.2309 21.2812 21.2157 21.2586 21.2055 21.2338C21.1953 21.2089 21.1902 21.1822 21.1905 21.1553C21.1903 21.1013 21.2115 21.0494 21.2496 21.011C21.2877 20.9726 21.3395 20.9509 21.3936 20.9506C21.4475 20.9512 21.499 20.9727 21.5372 21.0105C21.5755 21.0483 21.5976 21.0995 21.5988 21.1532Z" fill="#9F212C"/>
<path d="M20.0675 22.0365C20.0677 22.0768 20.056 22.1162 20.0337 22.1498C20.0114 22.1834 19.9797 22.2097 19.9425 22.2253C19.9053 22.2409 19.8642 22.2452 19.8246 22.2375C19.785 22.2299 19.7485 22.2107 19.7198 22.1823C19.6911 22.154 19.6715 22.1178 19.6634 22.0783C19.6553 22.0389 19.6591 21.9979 19.6744 21.9606C19.6897 21.9233 19.7156 21.8914 19.7491 21.8688C19.7826 21.8463 19.822 21.8341 19.8623 21.8339C19.9165 21.8336 19.9685 21.8548 20.007 21.8928C20.0454 21.9308 20.0672 21.9825 20.0675 22.0365Z" fill="#9F212C"/>
<path d="M18.3429 21.6947C18.3432 21.7487 18.3219 21.8006 18.2839 21.839C18.2458 21.8774 18.194 21.8992 18.1398 21.8994C18.0857 21.8997 18.0337 21.8785 17.9952 21.8405C17.9567 21.8025 17.9349 21.7509 17.9347 21.6968C17.9344 21.6428 17.9556 21.5909 17.9937 21.5525C18.0318 21.5141 18.0836 21.4924 18.1377 21.4921C18.1919 21.4918 18.2439 21.513 18.2824 21.551C18.3208 21.589 18.3426 21.6407 18.3429 21.6947Z" fill="#9F212C"/>
<path d="M17.1671 20.3905C17.1673 20.431 17.1555 20.4706 17.133 20.5042C17.1106 20.5379 17.0787 20.5642 17.0412 20.5797C17.0038 20.5952 16.9626 20.5992 16.9229 20.5913C16.8831 20.5833 16.8467 20.5638 16.8181 20.5351C16.7896 20.5064 16.7702 20.4698 16.7626 20.4301C16.7549 20.3904 16.7592 20.3494 16.775 20.3121C16.7908 20.2749 16.8174 20.2432 16.8513 20.2211C16.8852 20.199 16.925 20.1874 16.9655 20.1879C17.019 20.1886 17.0702 20.2102 17.1079 20.2481C17.1456 20.286 17.1668 20.3371 17.1671 20.3905Z" fill="#9F212C"/>
<path d="M17.1867 18.6034C17.187 18.6574 17.1657 18.7093 17.1276 18.7477C17.0896 18.7861 17.0378 18.8079 16.9836 18.8081C16.9567 18.8088 16.9299 18.804 16.9049 18.794C16.8798 18.7841 16.857 18.7692 16.8379 18.7503C16.8187 18.7314 16.8036 18.7088 16.7934 18.684C16.7832 18.6591 16.7781 18.6324 16.7784 18.6055C16.7782 18.5515 16.7994 18.4996 16.8375 18.4612C16.8756 18.4228 16.9274 18.4011 16.9815 18.4008C17.0354 18.4014 17.0868 18.4229 17.1251 18.4607C17.1634 18.4985 17.1855 18.5497 17.1867 18.6034Z" fill="#9F212C"/>
<path d="M18.3331 17.2357C18.3333 17.276 18.3216 17.3154 18.2993 17.3491C18.2771 17.3827 18.2453 17.4089 18.2081 17.4245C18.1709 17.4402 18.1299 17.4444 18.0902 17.4368C18.0506 17.4291 18.0141 17.4099 17.9854 17.3816C17.9567 17.3532 17.9371 17.317 17.929 17.2776C17.9209 17.2381 17.9248 17.1971 17.94 17.1598C17.9553 17.1225 17.9813 17.0906 18.0147 17.068C18.0482 17.0455 18.0876 17.0333 18.1279 17.0331C18.1821 17.0328 18.2341 17.054 18.2726 17.092C18.3111 17.13 18.3329 17.1817 18.3331 17.2357Z" fill="#9F212C"/>
<path d="M20.0871 16.9184C20.0864 16.9721 20.0649 17.0235 20.027 17.0617C19.9891 17.0999 19.9379 17.1219 19.884 17.1231C19.8299 17.1234 19.7778 17.1022 19.7394 17.0642C19.7009 17.0262 19.6791 16.9745 19.6788 16.9205C19.6782 16.8936 19.683 16.8669 19.693 16.8419C19.7029 16.8169 19.7178 16.7942 19.7368 16.7751C19.7557 16.756 19.7783 16.7409 19.8033 16.7307C19.8282 16.7205 19.8549 16.7154 19.8819 16.7158C19.936 16.7155 19.9881 16.7367 20.0265 16.7747C20.065 16.8127 20.0868 16.8644 20.0871 16.9184Z" fill="#9F212C"/>
<defs>
<linearGradient id="paint0_linear_1218_6856" x1="8.53262" y1="20.1424" x2="30.6672" y2="20.027" gradientUnits="userSpaceOnUse">
<stop stop-color="#C4843E"/>
<stop offset="0.18" stop-color="#E7B164"/>
<stop offset="0.32" stop-color="#FFD17F"/>
<stop offset="0.68" stop-color="#FCEB9E"/>
<stop offset="1" stop-color="#F9CE6E"/>
</linearGradient>
<linearGradient id="paint1_linear_1218_6856" x1="14.8521" y1="20.3328" x2="24.41" y2="20.283" gradientUnits="userSpaceOnUse">
<stop stop-color="#ECBE62"/>
<stop offset="0.13" stop-color="#FFF7D1"/>
<stop offset="0.23" stop-color="#ECBE62"/>
<stop offset="0.35" stop-color="#FEE58B"/>
<stop offset="0.47" stop-color="#FFDAA6"/>
<stop offset="0.59" stop-color="#ECBE62"/>
<stop offset="0.73" stop-color="#FEE58B"/>
<stop offset="0.86" stop-color="#ECBE62"/>
<stop offset="1" stop-color="#FFF7D1"/>
</linearGradient>
</defs>
</svg>
