<svg width="38" height="38" viewBox="0 0 38 38" fill="none" xmlns="http://www.w3.org/2000/svg">
<circle cx="19" cy="19" r="19" fill="#F4F0F0"/>
<path fill-rule="evenodd" clip-rule="evenodd" d="M18.6211 31.9347C15.3284 31.9432 12.1662 30.6511 9.82525 28.3407C7.48426 26.0303 6.15475 22.8895 6.12714 19.6041C6.11962 16.3184 7.41537 13.1631 9.73143 10.8273C12.0475 8.49156 15.1957 7.16501 18.4886 7.13739C21.7816 7.13069 24.9435 8.42435 27.2837 10.7359C29.624 13.0474 30.9526 16.189 30.9793 19.4746C30.9859 22.7589 29.6902 25.9125 27.3748 28.2469C25.0595 30.5814 21.9126 31.9071 18.6211 31.9347Z" fill="#9F212C"/>
<path fill-rule="evenodd" clip-rule="evenodd" d="M18.6216 31.9348C15.7368 31.9567 12.9337 30.9792 10.6906 29.1692C8.44743 27.3592 6.9031 24.8287 6.321 22.0094C5.7389 19.1901 6.15508 16.2566 7.49856 13.7092C8.84204 11.1618 11.0296 9.15841 13.6881 8.04062C16.3466 6.92283 19.3114 6.75993 22.0769 7.57969C24.8423 8.39946 27.237 10.1511 28.8525 12.5359C30.4681 14.9207 31.2045 17.7909 30.936 20.6569C30.6675 23.5229 29.4109 26.2073 27.3804 28.2521C26.2347 29.4103 24.8714 30.3317 23.3684 30.9636C21.8655 31.5955 20.2524 31.9255 18.6216 31.9348ZM18.619 31.4455C21.3916 31.4348 24.0747 30.4646 26.2103 28.7002C28.346 26.9359 29.8019 24.4868 30.3297 21.7709C30.8576 19.055 30.4246 16.2405 29.1046 13.8076C27.7847 11.3747 25.6596 9.47423 23.0919 8.43041C20.5242 7.38659 17.673 7.2641 15.0249 8.08385C12.3768 8.9036 10.0957 10.6148 8.57098 12.9255C7.04623 15.2361 6.37226 18.0031 6.66406 20.7542C6.95585 23.5054 8.19533 26.0702 10.171 28.0112C11.2831 29.1108 12.6018 29.9806 14.0515 30.5705C15.5012 31.1604 17.0534 31.4589 18.619 31.4488" fill="#A0222C"/>
<mask id="mask0_1886_6550" style="mask-type:luminance" maskUnits="userSpaceOnUse" x="8" y="9" width="21" height="21">
<path d="M12.0174 16.5882C12.1721 16.5907 12.3227 16.6387 12.4502 16.7262C12.5776 16.8138 12.6764 16.9369 12.7339 17.0803C12.7915 17.2236 12.8053 17.3807 12.7737 17.5319C12.742 17.683 12.6664 17.8215 12.5561 17.9299C12.4459 18.0382 12.306 18.1117 12.1541 18.1411C12.0022 18.1704 11.8449 18.1543 11.7021 18.0948C11.5594 18.0352 11.4374 17.9349 11.3515 17.8065C11.2657 17.678 11.2198 17.5271 11.2196 17.3727C11.2191 17.228 11.2585 17.086 11.3334 16.9621C11.2621 16.9942 11.1862 17.0147 11.1084 17.0228C10.7877 19.0744 12.85 18.6669 12.85 18.6669C13.6046 18.4745 17.4652 14.0536 17.4652 14.0536L17.1656 13.7873C16.7062 13.3863 16.9814 13.4113 16.9814 13.4113L18.9788 15.1798L18.3689 15.1499C16.4577 17.8513 14.7093 18.7101 13.9981 18.9618C10.6883 19.7065 10.6769 17.5177 10.6769 17.5177L8.31751 19.4245C13.0319 23.037 14.8551 25.0709 15.5596 26.0988C15.5608 25.9444 15.6076 25.7938 15.6943 25.6658C15.781 25.5379 15.9036 25.4384 16.0467 25.3797C16.1899 25.3211 16.3473 25.306 16.499 25.3362C16.6508 25.3665 16.7902 25.4409 16.8997 25.55C17.0092 25.659 17.084 25.798 17.1147 25.9493C17.1454 26.1007 17.1305 26.2577 17.0721 26.4007C17.0136 26.5437 16.9141 26.6662 16.7861 26.7529C16.658 26.8397 16.5072 26.8867 16.3524 26.8882C16.2077 26.8898 16.0653 26.8517 15.9409 26.7779C15.9749 26.8472 15.9955 26.9223 16.0017 26.9991C18.0611 27.2959 17.6296 25.2515 17.6296 25.2515C17.4302 24.4987 12.9665 20.67 12.9665 20.67L12.6997 20.9722C12.2978 21.4372 12.3229 21.1594 12.3229 21.1594L14.1353 19.2058L14.135 19.1628L14.2777 19.1918L14.2808 19.7836C16.6761 21.5963 17.6123 23.2016 17.9477 23.9802C18.704 27.3058 16.5038 27.3173 16.5038 27.3173L18.4016 29.6814C22.0387 24.9739 24.0737 23.1415 25.1039 22.4385C24.9492 22.4373 24.7982 22.3906 24.67 22.3041C24.5418 22.2176 24.442 22.0953 24.3833 21.9524C24.3245 21.8096 24.3093 21.6526 24.3397 21.5012C24.3701 21.3498 24.4446 21.2107 24.5539 21.1014C24.6632 20.9921 24.8025 20.9174 24.9542 20.8868C25.1058 20.8562 25.2632 20.871 25.4065 20.9293C25.5498 20.9877 25.6726 21.087 25.7595 21.2147C25.8465 21.3425 25.8936 21.493 25.8951 21.6474C25.8982 21.7909 25.8598 21.9323 25.7846 22.0547C25.8558 22.0226 25.9318 22.0021 26.0096 21.994C26.307 19.9425 24.2581 20.3731 24.2581 20.3731C23.5003 20.5721 19.6664 25.026 19.6664 25.026L19.966 25.2922C20.432 25.6899 20.1535 25.6682 20.1535 25.6682L18.4154 24.0604L18.3175 23.7303L18.65 23.9302C20.1994 21.7598 22.6734 20.2358 22.9741 20.059L23.0038 20.039C26.4459 19.2474 26.4178 21.486 26.4178 21.486L28.8006 19.6121C24.1125 15.9598 22.3091 13.9159 21.6112 12.8813C21.6087 13.0357 21.5606 13.1859 21.4728 13.3131C21.3851 13.4403 21.2617 13.5388 21.118 13.5963C20.9744 13.6537 20.8169 13.6675 20.6654 13.6359C20.5139 13.6044 20.3752 13.5289 20.2665 13.4189C20.1579 13.3089 20.0843 13.1694 20.0549 13.0178C20.0255 12.8662 20.0416 12.7093 20.1013 12.5668C20.161 12.4243 20.2615 12.3026 20.3902 12.2169C20.519 12.1313 20.6702 12.0855 20.825 12.0853C20.9899 12.0802 21.1537 12.1145 21.3027 12.1853C21.2781 12.1057 21.2345 12.0333 21.1757 11.9743C19.1195 11.6544 19.5279 13.7122 19.5279 13.7122C19.7207 14.465 24.1513 18.317 24.1513 18.317L24.4182 18.0214C24.82 17.5597 24.7949 17.8343 24.7949 17.8343L22.9693 19.7747L22.917 19.2889C21.3642 18.2473 20.0897 16.8431 19.2042 15.1984C18.0946 12.1061 20.9388 11.6747 20.9388 11.6747L18.7764 9.41446C15.1027 14.0989 13.0708 15.8917 12.0174 16.5882Z" fill="white"/>
</mask>
<g mask="url(#mask0_1886_6550)">
<path d="M28.7471 9.36249L8.26562 9.46924L8.37115 29.7171L28.8527 29.6104L28.7471 9.36249Z" fill="url(#paint0_linear_1886_6550)"/>
</g>
<mask id="mask1_1886_6550" style="mask-type:luminance" maskUnits="userSpaceOnUse" x="14" y="15" width="9" height="9">
<path d="M14.116 18.9151C14.2034 19.04 14.2635 19.182 14.2922 19.3317C14.321 19.4814 14.3178 19.6354 14.2829 19.7838C14.2829 19.7838 16.8839 21.6516 17.9498 23.9803C17.9498 23.9803 18.0369 23.5236 18.6522 23.9436C19.8289 22.3886 21.2947 21.0743 22.9696 20.0725L22.9193 19.3089C21.3827 18.2384 20.1107 16.8328 19.1997 15.1986L18.9809 15.1733L18.3644 15.1501C18.3644 15.1501 16.4739 17.9968 14.1094 18.9151" fill="white"/>
</mask>
<g mask="url(#mask1_1886_6550)">
<path d="M22.9417 15.1272L14.0977 15.1733L14.1437 24.0012L22.9877 23.9551L22.9417 15.1272Z" fill="url(#paint1_linear_1886_6550)"/>
</g>
<path d="M20.7107 19.7966C20.7148 19.769 20.7087 19.7409 20.6937 19.7174C20.5352 19.5189 20.4099 19.2963 20.3224 19.058C20.2919 18.9292 20.2771 18.6218 20.469 18.5778C20.661 18.5339 20.7551 18.778 20.7161 18.9403C20.6772 19.1025 20.9161 19.1574 20.9518 19.0052C20.993 18.9095 21.004 18.8035 20.9833 18.7014C20.9626 18.5994 20.9113 18.506 20.8361 18.4337C20.7686 18.3888 20.6927 18.3576 20.613 18.3422C20.5333 18.3267 20.4513 18.3272 20.3717 18.3436C20.1435 18.2865 19.9211 18.208 19.7078 18.109C19.5682 18.0271 19.4349 17.8988 19.4871 17.7266C19.4987 17.6692 19.5327 17.6187 19.5816 17.5862C19.6305 17.5537 19.6903 17.5419 19.7479 17.5533C19.884 17.5923 19.8782 17.7444 19.8755 17.8634C19.8805 17.8928 19.8958 17.9195 19.9186 17.9387C19.9415 17.9578 19.9704 17.9683 20.0003 17.9681C20.0302 17.968 20.059 17.9572 20.0817 17.9378C20.1043 17.9184 20.1193 17.8916 20.124 17.8621C20.1227 17.6043 20.0616 17.3334 19.7665 17.3052C19.6742 17.2963 19.5812 17.3135 19.4982 17.3548C19.4152 17.3962 19.3455 17.4601 19.2972 17.5391L19.2674 17.5393C19.0572 17.6578 18.8205 17.7215 18.5791 17.7247C18.4819 17.7315 18.3847 17.7127 18.2971 17.67C18.2681 17.6554 18.2428 17.6344 18.223 17.6087C18.2032 17.5829 18.1896 17.553 18.183 17.5213C18.1765 17.4895 18.1772 17.4566 18.1852 17.4252C18.1932 17.3938 18.2082 17.3645 18.2291 17.3397C18.3649 17.3125 18.4346 17.3386 18.4385 17.4543C18.4475 17.4858 18.4686 17.5125 18.4973 17.5285C18.5115 17.5364 18.5271 17.5414 18.5432 17.5433C18.5594 17.5452 18.5757 17.5439 18.5914 17.5395C18.607 17.5351 18.6216 17.5276 18.6344 17.5176C18.6472 17.5075 18.6578 17.495 18.6657 17.4809C18.6737 17.4667 18.6787 17.4511 18.6806 17.435C18.6825 17.4189 18.6812 17.4026 18.6767 17.387C18.6193 17.169 18.4391 16.9319 18.1846 17.0589C18.1009 17.107 18.0339 17.1794 17.9924 17.2664C17.9508 17.3534 17.9367 17.451 17.9519 17.5461C17.7933 17.7036 17.6591 17.8837 17.5537 18.0805C17.477 18.2238 17.3502 18.3339 17.1974 18.3899C17.1568 18.398 17.1149 18.397 17.0747 18.3869C17.0345 18.3769 16.9971 18.3579 16.9652 18.3316C16.925 18.253 16.9151 18.1625 16.9373 18.0771C16.937 18.0044 16.9964 17.9578 17.0924 17.9441C17.1924 18.0659 17.3638 17.8931 17.2638 17.7712C16.9136 17.3399 16.4278 18.2253 16.8404 18.5438L16.8936 18.5832C16.9263 18.8146 16.9275 19.0492 16.8972 19.2809C16.8682 19.4298 16.8062 19.612 16.6205 19.5898C16.5045 19.5904 16.2881 19.4031 16.4334 19.2965C16.5786 19.19 16.4318 18.989 16.3097 19.0856C15.9565 19.3519 16.2573 19.8529 16.6449 19.8344L16.7344 19.8339C16.8264 19.9957 16.9279 20.152 17.0384 20.3018C17.1278 20.4163 17.1784 20.5561 17.183 20.7011C17.1834 20.7871 17.1179 20.9362 16.9952 20.917C16.9588 20.9172 16.8387 20.7724 16.9148 20.7389C17.0569 20.6753 16.9332 20.4644 16.7877 20.528C16.6423 20.5915 16.6074 20.9025 16.7009 21.0343C16.7708 21.1066 16.8628 21.1537 16.9625 21.1682C17.0621 21.1826 17.1638 21.1636 17.2514 21.1141C17.3194 21.0725 17.3716 21.0094 17.3996 20.9348L17.4195 20.9347C17.684 20.9319 17.9446 20.9978 18.176 21.1258C18.238 21.1783 18.285 21.2463 18.3122 21.3228C18.3394 21.3993 18.3458 21.4817 18.3307 21.5614C18.3316 21.6148 18.3181 21.6674 18.2917 21.7137L18.1331 21.7972C18.0369 21.7812 18.0923 21.609 18.1053 21.5593C18.1543 21.4103 17.9153 21.3454 17.8697 21.4977C17.8046 21.7097 17.8125 21.9642 18.068 22.0323C18.1265 22.0428 18.1866 22.0411 18.2443 22.0271C18.3021 22.0132 18.3563 21.9874 18.4035 21.9513C18.4508 21.9153 18.4899 21.8699 18.5185 21.8179C18.5471 21.7659 18.5646 21.7085 18.5697 21.6495C18.5695 21.6098 18.5693 21.5701 18.5691 21.5337C18.5877 21.5275 18.6046 21.5173 18.6187 21.5037C18.8304 21.3012 19.0764 21.1376 19.3452 21.0205C19.5105 20.9502 19.7851 20.876 19.866 21.1302C19.8866 21.2176 19.8741 21.3095 19.8309 21.3883C19.7687 21.5308 19.6759 21.5412 19.5527 21.4228C19.5685 21.2673 19.3233 21.2686 19.3075 21.4241C19.3038 21.4801 19.3143 21.536 19.3382 21.5868C19.3621 21.6376 19.3986 21.6814 19.4442 21.7142C19.4897 21.7471 19.5429 21.7678 19.5987 21.7745C19.6546 21.7811 19.7111 21.7735 19.7632 21.7524C19.8824 21.7035 19.9818 21.6162 20.0455 21.5044C20.1092 21.3926 20.1335 21.2627 20.1146 21.1355C20.1082 21.0875 20.0945 21.0408 20.0741 20.9969C20.0792 20.9785 20.0791 20.959 20.0738 20.9407C20.0687 20.7123 20.1163 20.4858 20.2128 20.2787C20.2685 20.1626 20.3706 20.0266 20.513 20.0258C20.5594 20.0252 20.6042 20.0418 20.6389 20.0726C20.6735 20.1033 20.6953 20.1458 20.7001 20.1917C20.705 20.2377 20.6924 20.2838 20.6648 20.321C20.6373 20.3581 20.5969 20.3837 20.5514 20.3926C20.3958 20.4265 20.4633 20.6642 20.6189 20.6303C20.7161 20.6194 20.8067 20.5758 20.8758 20.5067C20.9449 20.4376 20.9884 20.3471 20.999 20.2501C21.0097 20.1531 20.987 20.0553 20.9346 19.9729C20.8822 19.8905 20.8032 19.8283 20.7107 19.7966ZM20.0298 20.1308C19.9322 20.3303 19.8716 20.5456 19.8508 20.7666C19.7468 20.7206 19.6321 20.704 19.5192 20.7187C19.1477 20.8004 18.8087 20.9896 18.5445 21.2627C18.4 20.8667 17.8791 20.7471 17.4348 20.7064C17.4347 20.6551 17.4277 20.604 17.4142 20.5545C17.3362 20.2242 17.08 20.0139 16.936 19.7237C17.1767 19.501 17.1576 19.0183 17.1293 18.6746C17.517 18.6726 17.789 18.0793 18.0394 17.8003C18.2861 18.0966 18.8489 17.9845 19.206 17.8405C19.2082 18.2571 19.7458 18.413 20.1209 18.5334C20.0498 18.6897 20.0232 18.8626 20.0439 19.033C20.1105 19.3071 20.2375 19.5628 20.4157 19.7816C20.3277 19.8049 20.2456 19.8466 20.1751 19.9039C20.1045 19.9613 20.047 20.0331 20.0065 20.1144" fill="#9F212C"/>
<path d="M20.5155 18.0058C20.5156 18.0431 20.5048 18.0796 20.4842 18.1107C20.4636 18.1418 20.4342 18.1661 20.3998 18.1805C20.3653 18.195 20.3274 18.1989 20.2907 18.1918C20.254 18.1848 20.2203 18.167 20.1937 18.1408C20.1672 18.1145 20.149 18.0811 20.1415 18.0445C20.134 18.008 20.1376 17.9701 20.1517 17.9356C20.1658 17.9011 20.1899 17.8715 20.2208 17.8507C20.2518 17.8298 20.2882 17.8185 20.3256 17.8184C20.3754 17.8189 20.4231 17.8388 20.4585 17.8738C20.4939 17.9088 20.5143 17.9561 20.5155 18.0058Z" fill="#9F212C"/>
<path d="M21.0756 19.5787C21.0761 19.6036 21.0717 19.6284 21.0625 19.6515C21.0533 19.6746 21.0395 19.6956 21.0219 19.7133C21.0044 19.731 20.9835 19.745 20.9604 19.7544C20.9373 19.7638 20.9126 19.7685 20.8877 19.7682C20.861 19.7719 20.8339 19.7698 20.8081 19.7622C20.7823 19.7546 20.7584 19.7415 20.7381 19.724C20.7177 19.7064 20.7014 19.6847 20.6901 19.6603C20.6789 19.6359 20.673 19.6094 20.6729 19.5825C20.6727 19.5556 20.6783 19.5291 20.6893 19.5046C20.7003 19.4801 20.7164 19.4582 20.7366 19.4404C20.7567 19.4226 20.7805 19.4093 20.8062 19.4014C20.8319 19.3935 20.859 19.3912 20.8857 19.3946C20.9104 19.394 20.9349 19.3984 20.9578 19.4073C20.9808 19.4163 21.0017 19.4298 21.0194 19.4469C21.037 19.4641 21.0511 19.4846 21.0608 19.5072C21.0704 19.5298 21.0754 19.5542 21.0756 19.5787Z" fill="#9F212C"/>
<path d="M20.5038 21.0805C20.504 21.1305 20.4844 21.1786 20.4491 21.2141C20.4139 21.2496 20.366 21.2697 20.3159 21.27C20.2909 21.2706 20.2662 21.2661 20.243 21.2569C20.2198 21.2477 20.1988 21.234 20.181 21.2165C20.1633 21.199 20.1493 21.1781 20.1399 21.1551C20.1304 21.1321 20.1257 21.1074 20.126 21.0825C20.1258 21.0325 20.1454 20.9845 20.1806 20.949C20.2159 20.9134 20.2638 20.8933 20.3139 20.8931C20.3637 20.8936 20.4114 20.9135 20.4468 20.9485C20.4822 20.9835 20.5027 21.0308 20.5038 21.0805Z" fill="#9F212C"/>
<path d="M19.0897 21.8979C19.0899 21.9352 19.079 21.9717 19.0584 22.0028C19.0378 22.0339 19.0084 22.0582 18.974 22.0726C18.9395 22.0871 18.9016 22.091 18.8649 22.0839C18.8282 22.0769 18.7945 22.0591 18.7679 22.0329C18.7414 22.0066 18.7232 21.9732 18.7157 21.9366C18.7083 21.9001 18.7118 21.8622 18.7259 21.8277C18.74 21.7932 18.7641 21.7636 18.795 21.7427C18.826 21.7219 18.8625 21.7106 18.8998 21.7104C18.9499 21.7102 18.9981 21.7298 19.0337 21.7649C19.0693 21.8001 19.0894 21.8479 19.0897 21.8979Z" fill="#9F212C"/>
<path d="M17.492 21.5815C17.4923 21.6315 17.4726 21.6795 17.4374 21.7151C17.4022 21.7506 17.3542 21.7707 17.3041 21.771C17.254 21.7712 17.2059 21.7516 17.1703 21.7165C17.1347 21.6813 17.1145 21.6335 17.1143 21.5835C17.114 21.5335 17.1337 21.4855 17.1689 21.4499C17.2041 21.4144 17.2521 21.3943 17.3022 21.394C17.3523 21.3938 17.4004 21.4134 17.436 21.4485C17.4716 21.4837 17.4918 21.5315 17.492 21.5815Z" fill="#9F212C"/>
<path d="M16.4022 20.375C16.4024 20.4124 16.3914 20.449 16.3706 20.4802C16.3499 20.5114 16.3203 20.5357 16.2857 20.55C16.2511 20.5644 16.2129 20.5681 16.1762 20.5607C16.1394 20.5534 16.1057 20.5353 16.0793 20.5087C16.0528 20.4822 16.0349 20.4484 16.0278 20.4116C16.0207 20.3749 16.0248 20.3369 16.0394 20.3024C16.054 20.268 16.0786 20.2387 16.11 20.2182C16.1414 20.1977 16.1781 20.187 16.2156 20.1875C16.2651 20.1881 16.3124 20.2081 16.3473 20.2432C16.3822 20.2782 16.4019 20.3256 16.4022 20.375Z" fill="#9F212C"/>
<path d="M16.4217 18.7212C16.422 18.7711 16.4023 18.8192 16.3671 18.8547C16.3319 18.8902 16.2839 18.9103 16.2338 18.9106C16.2089 18.9112 16.1841 18.9067 16.161 18.8976C16.1378 18.8884 16.1167 18.8746 16.099 18.8571C16.0813 18.8396 16.0673 18.8187 16.0578 18.7957C16.0484 18.7727 16.0437 18.748 16.044 18.7231C16.0437 18.6731 16.0634 18.6251 16.0986 18.5896C16.1338 18.5541 16.1818 18.5339 16.2319 18.5337C16.2817 18.5343 16.3294 18.5542 16.3648 18.5891C16.4002 18.6241 16.4206 18.6714 16.4217 18.7212Z" fill="#9F212C"/>
<path d="M17.4803 17.456C17.4805 17.4933 17.4696 17.5298 17.449 17.5609C17.4284 17.592 17.399 17.6163 17.3646 17.6307C17.3302 17.6452 17.2922 17.6491 17.2555 17.642C17.2189 17.635 17.1851 17.6172 17.1586 17.591C17.132 17.5647 17.1138 17.5313 17.1064 17.4947C17.0989 17.4582 17.1024 17.4203 17.1165 17.3858C17.1307 17.3513 17.1547 17.3217 17.1857 17.3009C17.2166 17.28 17.2531 17.2687 17.2904 17.2685C17.3405 17.2683 17.3887 17.2879 17.4243 17.323C17.4599 17.3582 17.48 17.406 17.4803 17.456Z" fill="#9F212C"/>
<path d="M19.1053 17.1621C19.1047 17.2118 19.0848 17.2594 19.0498 17.2947C19.0147 17.3301 18.9673 17.3504 18.9174 17.3516C18.8673 17.3518 18.8192 17.3322 18.7836 17.297C18.748 17.2619 18.7278 17.2141 18.7276 17.1641C18.727 17.1392 18.7314 17.1145 18.7407 17.0914C18.7499 17.0682 18.7637 17.0472 18.7812 17.0295C18.7987 17.0119 18.8197 16.9979 18.8427 16.9884C18.8658 16.979 18.8905 16.9743 18.9155 16.9746C18.9656 16.9744 19.0137 16.994 19.0493 17.0291C19.0849 17.0643 19.1051 17.1121 19.1053 17.1621Z" fill="#9F212C"/>
<defs>
<linearGradient id="paint0_linear_1886_6550" x1="8.4169" y1="20.145" x2="28.8984" y2="20.0382" gradientUnits="userSpaceOnUse">
<stop stop-color="#C4843E"/>
<stop offset="0.18" stop-color="#E7B164"/>
<stop offset="0.32" stop-color="#FFD17F"/>
<stop offset="0.68" stop-color="#FCEB9E"/>
<stop offset="1" stop-color="#F9CE6E"/>
</linearGradient>
<linearGradient id="paint1_linear_1886_6550" x1="14.2608" y1="20.322" x2="23.1049" y2="20.276" gradientUnits="userSpaceOnUse">
<stop stop-color="#ECBE62"/>
<stop offset="0.13" stop-color="#FFF7D1"/>
<stop offset="0.23" stop-color="#ECBE62"/>
<stop offset="0.35" stop-color="#FEE58B"/>
<stop offset="0.47" stop-color="#FFDAA6"/>
<stop offset="0.59" stop-color="#ECBE62"/>
<stop offset="0.73" stop-color="#FEE58B"/>
<stop offset="0.86" stop-color="#ECBE62"/>
<stop offset="1" stop-color="#FFF7D1"/>
</linearGradient>
</defs>
</svg>
