<svg width="29" height="29" viewBox="0 0 29 29" fill="none" xmlns="http://www.w3.org/2000/svg">
<circle cx="14.5041" cy="14.5041" r="13.887" fill="#9F212C"/>
<path d="M14.5037 0C22.5183 0 29.0078 6.48948 29.0078 14.5041C29.0078 22.5188 22.5183 29.0083 14.5037 29.0083C6.48899 29.0083 -0.000488281 22.5188 -0.000488281 14.5041C-0.000488281 6.48948 6.48899 0 14.5037 0ZM8.25342 15.3116L16.0587 23.1169C16.2083 23.2665 16.4175 23.3562 16.627 23.3562C16.8365 23.3562 17.0457 23.2665 17.1953 23.1169C17.5242 22.788 17.5242 22.2796 17.1953 21.9805L9.95814 14.7433L17.1953 7.47631C17.5242 7.14734 17.5242 6.63896 17.1953 6.33985C16.8663 6.01088 16.3579 6.01088 16.0588 6.33985L8.25347 14.1452C8.1039 14.2947 8.0142 14.534 8.0142 14.7432C8.01441 14.9228 8.10411 15.1621 8.25368 15.3117L8.25342 15.3116Z" fill="white"/>
</svg>
