<svg width="37" height="37" viewBox="0 0 37 37" fill="none" xmlns="http://www.w3.org/2000/svg">
<circle cx="18.4999" cy="18.5" r="17.7128" fill="black"/>
<path d="M18.5 0C28.7227 0 37 8.27732 37 18.5C37 28.7227 28.7227 37 18.5 37C8.27732 37 0 28.7227 0 18.5C0 8.27732 8.27732 0 18.5 0ZM10.5278 19.5299L20.4835 29.4856C20.6743 29.6763 20.9412 29.7908 21.2083 29.7908C21.4755 29.7908 21.7423 29.6763 21.9331 29.4856C22.3527 29.066 22.3527 28.4175 21.9331 28.036L12.7022 18.8051L21.9331 9.53602C22.3527 9.11641 22.3527 8.46797 21.9331 8.08646C21.5135 7.66686 20.8651 7.66686 20.4836 8.08646L10.5279 18.0421C10.3371 18.2329 10.2227 18.5381 10.2227 18.805C10.223 19.034 10.3374 19.3392 10.5282 19.53L10.5278 19.5299Z" fill="white"/>
</svg>
