<svg width="406" height="254" viewBox="0 0 406 254" fill="none" xmlns="http://www.w3.org/2000/svg">
<rect x="0.5" y="0.5" width="511" height="253" rx="11.5" fill="#F8F8FB" stroke="#D0D0D0"/>
<path d="M99 24L99 254" stroke="#CECECE"/>
<path d="M181 24L181 254" stroke="#CECECE"/>
<path d="M263 24L263 254" stroke="#CECECE"/>
<path d="M345 24L345 254" stroke="#CECECE"/>
<path d="M108.936 60.144C107.508 60.144 106.236 59.664 105.276 58.776L106.296 57.564C107.076 58.236 107.964 58.644 109.008 58.644C109.896 58.644 110.352 58.236 110.352 57.72C110.352 57.132 109.872 56.952 108.612 56.664C106.872 56.268 105.636 55.776 105.636 54.18C105.636 52.656 106.884 51.612 108.684 51.612C110.028 51.612 111.072 52.032 111.912 52.752L110.988 54.024C110.256 53.436 109.428 53.112 108.636 53.112C107.88 53.112 107.424 53.508 107.424 54C107.424 54.6 107.916 54.792 109.188 55.08C110.964 55.476 112.14 56.004 112.14 57.528C112.14 59.1 110.952 60.144 108.936 60.144ZM116.398 60.144C114.562 60.144 113.014 58.656 113.014 56.892C113.014 55.128 114.574 53.652 116.41 53.652C117.418 53.652 118.246 54.06 118.846 54.708L117.682 55.704C117.37 55.356 116.878 55.128 116.398 55.128C115.486 55.128 114.718 55.932 114.718 56.88C114.718 57.852 115.486 58.668 116.41 58.668C116.89 58.668 117.394 58.428 117.718 58.068L118.882 59.052C118.27 59.724 117.43 60.144 116.398 60.144ZM122.864 58.596C123.356 58.596 123.956 58.368 124.292 58.044L125.408 59.184C124.856 59.76 123.788 60.144 122.876 60.144C121.028 60.144 119.588 58.788 119.588 56.88C119.588 55.008 120.968 53.652 122.78 53.652C124.724 53.652 125.864 55.128 125.864 57.468H121.388C121.592 58.14 122.132 58.596 122.864 58.596ZM122.852 55.2C122.192 55.2 121.64 55.584 121.412 56.208H124.184C124.016 55.596 123.56 55.2 122.852 55.2ZM130.637 53.652C131.981 53.652 132.941 54.648 132.941 56.052V60H131.249V56.424C131.249 55.656 130.769 55.128 130.073 55.128C129.341 55.128 128.777 55.656 128.777 56.328L128.765 56.292V60H127.013V53.796H128.765V54.576C129.137 54.012 129.833 53.652 130.637 53.652ZM137.192 53.652C138.812 53.652 139.916 54.672 139.916 56.292V60H138.224V59.376C137.78 59.88 137.072 60.144 136.4 60.144C135.08 60.144 134.06 59.352 134.06 58.164C134.06 56.94 135.2 56.1 136.64 56.1C137.144 56.1 137.696 56.208 138.224 56.412V56.292C138.224 55.632 137.816 55.056 136.796 55.056C136.22 55.056 135.68 55.248 135.188 55.5L134.6 54.336C135.476 53.892 136.328 53.652 137.192 53.652ZM136.796 58.932C137.468 58.932 138.104 58.62 138.224 58.044V57.468C137.828 57.324 137.372 57.24 136.892 57.24C136.256 57.24 135.752 57.612 135.752 58.116C135.752 58.62 136.196 58.932 136.796 58.932ZM143.145 54.948C143.553 54.144 144.321 53.652 145.269 53.652V55.128C143.973 55.128 143.145 55.872 143.145 57.036V60H141.393V53.796H143.145V54.948ZM147.156 52.944C146.616 52.944 146.196 52.512 146.196 51.984C146.196 51.492 146.616 51.048 147.156 51.048C147.672 51.048 148.092 51.492 148.092 51.984C148.092 52.512 147.672 52.944 147.156 52.944ZM146.268 60V53.796H148.02V60H146.268ZM152.597 60.144C150.749 60.144 149.201 58.656 149.201 56.892C149.201 55.128 150.749 53.652 152.597 53.652C154.433 53.652 155.969 55.128 155.969 56.892C155.969 58.656 154.433 60.144 152.597 60.144ZM152.597 58.668C153.521 58.668 154.301 57.852 154.301 56.892C154.301 55.932 153.521 55.128 152.597 55.128C151.661 55.128 150.881 55.932 150.881 56.892C150.881 57.852 151.661 58.668 152.597 58.668ZM162.018 60V53.784L160.614 54.66L159.906 53.412L162.378 51.756H163.794V60H162.018ZM108.216 86L105.948 82.04V81.512H106.212C106.844 81.512 107.332 81.42 107.676 81.236C108.02 81.052 108.22 80.72 108.276 80.24H105.948V79.472H108.264C108.184 79.024 107.972 78.7 107.628 78.5C107.292 78.3 106.82 78.2 106.212 78.2H105.948V77.432H110.916V78.2H108.648C109.032 78.512 109.26 78.936 109.332 79.472H110.916V80.24H109.356C109.3 80.832 109.076 81.288 108.684 81.608C108.3 81.928 107.788 82.132 107.148 82.22L109.44 86H108.216ZM114.027 86V78.896L112.587 79.832L112.179 79.136L114.207 77.756H114.963V86H114.027ZM117.49 87.596L117.046 87.26C117.37 86.888 117.574 86.516 117.67 86.144C117.31 86.144 117.022 85.844 117.022 85.484C117.022 85.148 117.298 84.848 117.682 84.848C118.138 84.848 118.414 85.256 118.414 85.808C118.414 86.288 118.21 86.696 117.49 87.596ZM121.422 86V78.896L119.982 79.832L119.574 79.136L121.602 77.756H122.358V86H121.422ZM127.632 86.144C125.616 86.144 124.2 84.38 124.2 81.872C124.2 79.376 125.616 77.612 127.632 77.612C129.636 77.612 131.052 79.376 131.052 81.872C131.052 84.38 129.636 86.144 127.632 86.144ZM127.632 85.28C129.084 85.28 130.104 83.864 130.104 81.872C130.104 79.88 129.084 78.476 127.632 78.476C126.18 78.476 125.148 79.88 125.148 81.872C125.148 83.864 126.18 85.28 127.632 85.28ZM133.158 87.596L132.714 87.26C133.038 86.888 133.242 86.516 133.338 86.144C132.978 86.144 132.69 85.844 132.69 85.484C132.69 85.148 132.966 84.848 133.35 84.848C133.806 84.848 134.082 85.256 134.082 85.808C134.082 86.288 133.878 86.696 133.158 87.596ZM139.07 86.144C137.054 86.144 135.638 84.38 135.638 81.872C135.638 79.376 137.054 77.612 139.07 77.612C141.074 77.612 142.49 79.376 142.49 81.872C142.49 84.38 141.074 86.144 139.07 86.144ZM139.07 85.28C140.522 85.28 141.542 83.864 141.542 81.872C141.542 79.88 140.522 78.476 139.07 78.476C137.618 78.476 136.586 79.88 136.586 81.872C136.586 83.864 137.618 85.28 139.07 85.28ZM147.343 86.144C145.327 86.144 143.911 84.38 143.911 81.872C143.911 79.376 145.327 77.612 147.343 77.612C149.347 77.612 150.763 79.376 150.763 81.872C150.763 84.38 149.347 86.144 147.343 86.144ZM147.343 85.28C148.795 85.28 149.815 83.864 149.815 81.872C149.815 79.88 148.795 78.476 147.343 78.476C145.891 78.476 144.859 79.88 144.859 81.872C144.859 83.864 145.891 85.28 147.343 85.28ZM155.617 86.144C153.601 86.144 152.185 84.38 152.185 81.872C152.185 79.376 153.601 77.612 155.617 77.612C157.621 77.612 159.037 79.376 159.037 81.872C159.037 84.38 157.621 86.144 155.617 86.144ZM155.617 85.28C157.069 85.28 158.089 83.864 158.089 81.872C158.089 79.88 157.069 78.476 155.617 78.476C154.165 78.476 153.133 79.88 153.133 81.872C153.133 83.864 154.165 85.28 155.617 85.28ZM109.14 112.144C107.124 112.144 105.708 110.38 105.708 107.872C105.708 105.376 107.124 103.612 109.14 103.612C111.144 103.612 112.56 105.376 112.56 107.872C112.56 110.38 111.144 112.144 109.14 112.144ZM109.14 111.28C110.592 111.28 111.612 109.864 111.612 107.872C111.612 105.88 110.592 104.476 109.14 104.476C107.688 104.476 106.656 105.88 106.656 107.872C106.656 109.864 107.688 111.28 109.14 111.28ZM115.433 112V104.896L113.993 105.832L113.585 105.136L115.613 103.756H116.369V112H115.433ZM117.312 112.888L121.524 103.084H122.544L118.332 112.888H117.312ZM126.624 112.144C124.608 112.144 123.192 110.38 123.192 107.872C123.192 105.376 124.608 103.612 126.624 103.612C128.628 103.612 130.044 105.376 130.044 107.872C130.044 110.38 128.628 112.144 126.624 112.144ZM126.624 111.28C128.076 111.28 129.096 109.864 129.096 107.872C129.096 105.88 128.076 104.476 126.624 104.476C125.172 104.476 124.14 105.88 124.14 107.872C124.14 109.864 125.172 111.28 126.624 111.28ZM135.474 112V109.996H131.358L131.238 109.216L135.33 103.756H136.41V109.144H137.646V109.996H136.41V112H135.474ZM132.306 109.144H135.474V104.884L132.306 109.144ZM138.042 112.888L142.254 103.084H143.274L139.062 112.888H138.042ZM143.803 112V111.22L146.815 108.652C147.979 107.656 148.459 106.864 148.459 106.048C148.459 105.04 147.619 104.452 146.743 104.452C145.783 104.452 145.099 104.968 144.535 105.736L143.875 105.196C144.559 104.224 145.483 103.612 146.779 103.612C148.207 103.612 149.407 104.56 149.407 106.036C149.407 107.152 148.855 108.04 147.463 109.24L145.303 111.112H149.491V112H143.803ZM154.421 112.144C152.405 112.144 150.989 110.38 150.989 107.872C150.989 105.376 152.405 103.612 154.421 103.612C156.425 103.612 157.841 105.376 157.841 107.872C157.841 110.38 156.425 112.144 154.421 112.144ZM154.421 111.28C155.873 111.28 156.893 109.864 156.893 107.872C156.893 105.88 155.873 104.476 154.421 104.476C152.969 104.476 151.937 105.88 151.937 107.872C151.937 109.864 152.969 111.28 154.421 111.28ZM159.143 112V111.22L162.155 108.652C163.319 107.656 163.799 106.864 163.799 106.048C163.799 105.04 162.959 104.452 162.083 104.452C161.123 104.452 160.439 104.968 159.875 105.736L159.215 105.196C159.899 104.224 160.823 103.612 162.119 103.612C163.547 103.612 164.747 104.56 164.747 106.036C164.747 107.152 164.195 108.04 162.803 109.24L160.643 111.112H164.831V112H159.143ZM166.209 112V111.22L169.221 108.652C170.385 107.656 170.865 106.864 170.865 106.048C170.865 105.04 170.025 104.452 169.149 104.452C168.189 104.452 167.505 104.968 166.941 105.736L166.281 105.196C166.965 104.224 167.889 103.612 169.185 103.612C170.613 103.612 171.813 104.56 171.813 106.036C171.813 107.152 171.261 108.04 169.869 109.24L167.709 111.112H171.897V112H166.209ZM105.588 138V137.22L108.6 134.652C109.764 133.656 110.244 132.864 110.244 132.048C110.244 131.04 109.404 130.452 108.528 130.452C107.568 130.452 106.884 130.968 106.32 131.736L105.66 131.196C106.344 130.224 107.268 129.612 108.564 129.612C109.992 129.612 111.192 130.56 111.192 132.036C111.192 133.152 110.64 134.04 109.248 135.24L107.088 137.112H111.276V138H105.588ZM116.782 138V135.996H112.666L112.546 135.216L116.638 129.756H117.718V135.144H118.954V135.996H117.718V138H116.782ZM113.614 135.144H116.782V130.884L113.614 135.144ZM119.351 138.888L123.563 129.084H124.583L120.371 138.888H119.351ZM128.663 138.144C126.647 138.144 125.231 136.38 125.231 133.872C125.231 131.376 126.647 129.612 128.663 129.612C130.667 129.612 132.083 131.376 132.083 133.872C132.083 136.38 130.667 138.144 128.663 138.144ZM128.663 137.28C130.115 137.28 131.135 135.864 131.135 133.872C131.135 131.88 130.115 130.476 128.663 130.476C127.211 130.476 126.179 131.88 126.179 133.872C126.179 135.864 127.211 137.28 128.663 137.28ZM133.385 138V137.22L136.397 134.652C137.561 133.656 138.041 132.864 138.041 132.048C138.041 131.04 137.201 130.452 136.325 130.452C135.365 130.452 134.681 130.968 134.117 131.736L133.457 131.196C134.141 130.224 135.065 129.612 136.361 129.612C137.789 129.612 138.989 130.56 138.989 132.036C138.989 133.152 138.437 134.04 137.045 135.24L134.885 137.112H139.073V138H133.385ZM139.671 138.888L143.883 129.084H144.903L140.691 138.888H139.671ZM145.432 138V137.22L148.444 134.652C149.608 133.656 150.088 132.864 150.088 132.048C150.088 131.04 149.248 130.452 148.372 130.452C147.412 130.452 146.728 130.968 146.164 131.736L145.504 131.196C146.188 130.224 147.112 129.612 148.408 129.612C149.836 129.612 151.036 130.56 151.036 132.036C151.036 133.152 150.484 134.04 149.092 135.24L146.932 137.112H151.12V138H145.432ZM156.05 138.144C154.034 138.144 152.618 136.38 152.618 133.872C152.618 131.376 154.034 129.612 156.05 129.612C158.054 129.612 159.47 131.376 159.47 133.872C159.47 136.38 158.054 138.144 156.05 138.144ZM156.05 137.28C157.502 137.28 158.522 135.864 158.522 133.872C158.522 131.88 157.502 130.476 156.05 130.476C154.598 130.476 153.566 131.88 153.566 133.872C153.566 135.864 154.598 137.28 156.05 137.28ZM160.772 138V137.22L163.784 134.652C164.948 133.656 165.428 132.864 165.428 132.048C165.428 131.04 164.588 130.452 163.712 130.452C162.752 130.452 162.068 130.968 161.504 131.736L160.844 131.196C161.528 130.224 162.452 129.612 163.748 129.612C165.176 129.612 166.376 130.56 166.376 132.036C166.376 133.152 165.824 134.04 164.432 135.24L162.272 137.112H166.46V138H160.772ZM170.73 138.144C169.374 138.144 168.33 137.52 167.73 136.728L168.378 136.116C168.918 136.812 169.722 137.292 170.73 137.292C171.882 137.292 172.65 136.656 172.65 135.72C172.65 134.748 171.822 134.256 170.526 134.256H169.65V133.392L170.538 133.404C171.642 133.416 172.47 132.888 172.47 131.952C172.47 131.088 171.678 130.464 170.646 130.464C169.734 130.464 169.086 130.92 168.498 131.628L167.874 131.064C168.498 130.236 169.41 129.612 170.694 129.612C172.266 129.612 173.418 130.524 173.418 131.844C173.418 132.9 172.674 133.524 171.822 133.776C172.662 133.968 173.598 134.58 173.598 135.768C173.598 137.148 172.446 138.144 170.73 138.144ZM108.48 164.144C107.124 164.144 106.08 163.52 105.48 162.728L106.128 162.116C106.668 162.812 107.472 163.292 108.48 163.292C109.632 163.292 110.4 162.656 110.4 161.72C110.4 160.748 109.572 160.256 108.276 160.256H107.4V159.392L108.288 159.404C109.392 159.416 110.22 158.888 110.22 157.952C110.22 157.088 109.428 156.464 108.396 156.464C107.484 156.464 106.836 156.92 106.248 157.628L105.624 157.064C106.248 156.236 107.16 155.612 108.444 155.612C110.016 155.612 111.168 156.524 111.168 157.844C111.168 158.9 110.424 159.524 109.572 159.776C110.412 159.968 111.348 160.58 111.348 161.768C111.348 163.148 110.196 164.144 108.48 164.144ZM115.511 164.144C114.155 164.144 113.111 163.52 112.511 162.728L113.159 162.116C113.699 162.812 114.503 163.292 115.511 163.292C116.663 163.292 117.431 162.656 117.431 161.72C117.431 160.748 116.603 160.256 115.307 160.256H114.431V159.392L115.319 159.404C116.423 159.416 117.251 158.888 117.251 157.952C117.251 157.088 116.459 156.464 115.427 156.464C114.515 156.464 113.867 156.92 113.279 157.628L112.655 157.064C113.279 156.236 114.191 155.612 115.475 155.612C117.047 155.612 118.199 156.524 118.199 157.844C118.199 158.9 117.455 159.524 116.603 159.776C117.443 159.968 118.379 160.58 118.379 161.768C118.379 163.148 117.227 164.144 115.511 164.144ZM123.203 164.144C121.187 164.144 119.771 162.38 119.771 159.872C119.771 157.376 121.187 155.612 123.203 155.612C125.207 155.612 126.623 157.376 126.623 159.872C126.623 162.38 125.207 164.144 123.203 164.144ZM123.203 163.28C124.655 163.28 125.674 161.864 125.674 159.872C125.674 157.88 124.655 156.476 123.203 156.476C121.751 156.476 120.719 157.88 120.719 159.872C120.719 161.864 121.751 163.28 123.203 163.28ZM107.16 190V182.896L105.72 183.832L105.312 183.136L107.34 181.756H108.096V190H107.16ZM112.866 190.144C111.162 190.144 109.854 189.232 109.854 187.84C109.854 186.808 110.67 186.064 111.678 185.74C110.742 185.38 110.07 184.744 110.07 183.796C110.07 182.428 111.438 181.612 112.866 181.612C114.342 181.612 115.674 182.452 115.674 183.808C115.674 184.816 114.918 185.428 114.066 185.74C115.062 186.076 115.878 186.808 115.878 187.84C115.878 189.244 114.558 190.144 112.866 190.144ZM112.866 185.368C113.67 185.32 114.726 184.828 114.726 183.892C114.726 183.064 113.898 182.464 112.866 182.464C111.834 182.464 111.018 183.064 111.018 183.892C111.018 184.852 112.086 185.32 112.866 185.368ZM112.866 189.292C114.006 189.292 114.93 188.68 114.93 187.78C114.93 186.784 113.73 186.208 112.866 186.184C112.014 186.208 110.802 186.784 110.802 187.78C110.802 188.68 111.726 189.292 112.866 189.292ZM118.98 185.812C117.84 185.812 117.072 184.888 117.072 183.772C117.072 182.584 117.876 181.684 118.992 181.684C120.132 181.684 120.9 182.608 120.9 183.748C120.9 184.912 120.108 185.812 118.98 185.812ZM118.08 190L123.72 181.756H124.512L118.872 190H118.08ZM118.992 185.164C119.664 185.164 120.144 184.564 120.144 183.76C120.144 182.944 119.652 182.332 118.98 182.332C118.308 182.332 117.828 182.932 117.828 183.76C117.828 184.552 118.332 185.164 118.992 185.164ZM123.564 190.12C122.46 190.12 121.656 189.232 121.656 188.056C121.656 186.928 122.436 185.992 123.576 185.992C124.716 185.992 125.484 186.928 125.484 188.044C125.484 189.22 124.68 190.12 123.564 190.12ZM123.576 189.472C124.26 189.472 124.728 188.872 124.728 188.056C124.728 187.252 124.236 186.64 123.564 186.64C122.88 186.64 122.412 187.264 122.412 188.044C122.412 188.86 122.892 189.472 123.576 189.472Z" fill="#2D2D2D"/>
<path d="M107.94 216L105.78 212.232V211.344H106.5C106.924 211.344 107.28 211.252 107.568 211.068C107.856 210.876 108.04 210.612 108.12 210.276H105.78V209.388H108.108C108.036 209.084 107.888 208.832 107.664 208.632C107.44 208.424 107.128 208.32 106.728 208.32H105.78V207.432H111.192V208.32H109.308C109.588 208.624 109.764 208.98 109.836 209.388H111.192V210.276H109.86C109.78 210.868 109.548 211.332 109.164 211.668C108.788 211.996 108.308 212.22 107.724 212.34L110.076 216H107.94ZM114.147 216V209.784L112.743 210.66L112.035 209.412L114.507 207.756H115.923V216H114.147ZM120.592 216.144C118.768 216.144 117.28 215.28 117.28 213.792C117.28 212.82 117.952 212.1 118.9 211.74C118.084 211.392 117.496 210.792 117.496 209.856C117.496 208.404 118.984 207.612 120.592 207.612C122.236 207.612 123.7 208.44 123.7 209.856C123.7 210.78 123.112 211.38 122.284 211.74C123.256 212.124 123.904 212.844 123.904 213.792C123.904 215.292 122.404 216.144 120.592 216.144ZM120.592 211.128C121.24 211.08 121.936 210.696 121.936 210.084C121.936 209.52 121.384 209.1 120.592 209.1C119.8 209.1 119.26 209.52 119.26 210.084C119.26 210.72 119.944 211.08 120.592 211.128ZM120.592 214.656C121.468 214.656 122.116 214.224 122.116 213.6C122.116 212.952 121.3 212.544 120.592 212.52C119.884 212.544 119.08 212.952 119.08 213.6C119.08 214.224 119.716 214.656 120.592 214.656ZM125.956 217.752L125.332 217.272C125.704 216.936 125.956 216.528 126.064 216.144C125.488 216.144 125.008 215.652 125.008 215.064C125.008 214.464 125.488 213.96 126.088 213.96C126.76 213.96 127.228 214.584 127.228 215.46C127.228 216.168 126.82 216.924 125.956 217.752ZM132.088 216.144C129.916 216.144 128.392 214.38 128.392 211.872C128.392 209.376 129.916 207.612 132.088 207.612C134.26 207.612 135.796 209.376 135.796 211.872C135.796 214.38 134.26 216.144 132.088 216.144ZM132.088 214.536C133.204 214.536 133.972 213.42 133.972 211.872C133.972 210.324 133.204 209.22 132.088 209.22C130.984 209.22 130.204 210.324 130.204 211.872C130.204 213.42 130.984 214.536 132.088 214.536ZM140.56 216.144C138.388 216.144 136.864 214.38 136.864 211.872C136.864 209.376 138.388 207.612 140.56 207.612C142.732 207.612 144.268 209.376 144.268 211.872C144.268 214.38 142.732 216.144 140.56 216.144ZM140.56 214.536C141.676 214.536 142.444 213.42 142.444 211.872C142.444 210.324 141.676 209.22 140.56 209.22C139.456 209.22 138.676 210.324 138.676 211.872C138.676 213.42 139.456 214.536 140.56 214.536ZM149.033 216.144C146.861 216.144 145.337 214.38 145.337 211.872C145.337 209.376 146.861 207.612 149.033 207.612C151.205 207.612 152.741 209.376 152.741 211.872C152.741 214.38 151.205 216.144 149.033 216.144ZM149.033 214.536C150.149 214.536 150.917 213.42 150.917 211.872C150.917 210.324 150.149 209.22 149.033 209.22C147.929 209.22 147.149 210.324 147.149 211.872C147.149 213.42 147.929 214.536 149.033 214.536Z" fill="#9F212C"/>
<path d="M190.936 60.144C189.508 60.144 188.236 59.664 187.276 58.776L188.296 57.564C189.076 58.236 189.964 58.644 191.008 58.644C191.896 58.644 192.352 58.236 192.352 57.72C192.352 57.132 191.872 56.952 190.612 56.664C188.872 56.268 187.636 55.776 187.636 54.18C187.636 52.656 188.884 51.612 190.684 51.612C192.028 51.612 193.072 52.032 193.912 52.752L192.988 54.024C192.256 53.436 191.428 53.112 190.636 53.112C189.88 53.112 189.424 53.508 189.424 54C189.424 54.6 189.916 54.792 191.188 55.08C192.964 55.476 194.14 56.004 194.14 57.528C194.14 59.1 192.952 60.144 190.936 60.144ZM198.398 60.144C196.562 60.144 195.014 58.656 195.014 56.892C195.014 55.128 196.574 53.652 198.41 53.652C199.418 53.652 200.246 54.06 200.846 54.708L199.682 55.704C199.37 55.356 198.878 55.128 198.398 55.128C197.486 55.128 196.718 55.932 196.718 56.88C196.718 57.852 197.486 58.668 198.41 58.668C198.89 58.668 199.394 58.428 199.718 58.068L200.882 59.052C200.27 59.724 199.43 60.144 198.398 60.144ZM204.864 58.596C205.356 58.596 205.956 58.368 206.292 58.044L207.408 59.184C206.856 59.76 205.788 60.144 204.876 60.144C203.028 60.144 201.588 58.788 201.588 56.88C201.588 55.008 202.968 53.652 204.78 53.652C206.724 53.652 207.864 55.128 207.864 57.468H203.388C203.592 58.14 204.132 58.596 204.864 58.596ZM204.852 55.2C204.192 55.2 203.64 55.584 203.412 56.208H206.184C206.016 55.596 205.56 55.2 204.852 55.2ZM212.637 53.652C213.981 53.652 214.941 54.648 214.941 56.052V60H213.249V56.424C213.249 55.656 212.769 55.128 212.073 55.128C211.341 55.128 210.777 55.656 210.777 56.328L210.765 56.292V60H209.013V53.796H210.765V54.576C211.137 54.012 211.833 53.652 212.637 53.652ZM219.192 53.652C220.812 53.652 221.916 54.672 221.916 56.292V60H220.224V59.376C219.78 59.88 219.072 60.144 218.4 60.144C217.08 60.144 216.06 59.352 216.06 58.164C216.06 56.94 217.2 56.1 218.64 56.1C219.144 56.1 219.696 56.208 220.224 56.412V56.292C220.224 55.632 219.816 55.056 218.796 55.056C218.22 55.056 217.68 55.248 217.188 55.5L216.6 54.336C217.476 53.892 218.328 53.652 219.192 53.652ZM218.796 58.932C219.468 58.932 220.104 58.62 220.224 58.044V57.468C219.828 57.324 219.372 57.24 218.892 57.24C218.256 57.24 217.752 57.612 217.752 58.116C217.752 58.62 218.196 58.932 218.796 58.932ZM225.145 54.948C225.553 54.144 226.321 53.652 227.269 53.652V55.128C225.973 55.128 225.145 55.872 225.145 57.036V60H223.393V53.796H225.145V54.948ZM229.156 52.944C228.616 52.944 228.196 52.512 228.196 51.984C228.196 51.492 228.616 51.048 229.156 51.048C229.672 51.048 230.092 51.492 230.092 51.984C230.092 52.512 229.672 52.944 229.156 52.944ZM228.268 60V53.796H230.02V60H228.268ZM234.597 60.144C232.749 60.144 231.201 58.656 231.201 56.892C231.201 55.128 232.749 53.652 234.597 53.652C236.433 53.652 237.969 55.128 237.969 56.892C237.969 58.656 236.433 60.144 234.597 60.144ZM234.597 58.668C235.521 58.668 236.301 57.852 236.301 56.892C236.301 55.932 235.521 55.128 234.597 55.128C233.661 55.128 232.881 55.932 232.881 56.892C232.881 57.852 233.661 58.668 234.597 58.668ZM242.266 60V58.56L245.302 56.208C246.286 55.428 246.598 54.888 246.598 54.312C246.598 53.628 246.022 53.22 245.35 53.22C244.546 53.22 243.934 53.628 243.334 54.312L242.206 53.22C243.022 52.188 244.066 51.612 245.398 51.612C247.15 51.612 248.422 52.692 248.422 54.24C248.422 55.344 247.942 56.196 246.502 57.24L245.002 58.404H248.494V60H242.266ZM190.216 86L187.948 82.04V81.512H188.212C188.844 81.512 189.332 81.42 189.676 81.236C190.02 81.052 190.22 80.72 190.276 80.24H187.948V79.472H190.264C190.184 79.024 189.972 78.7 189.628 78.5C189.292 78.3 188.82 78.2 188.212 78.2H187.948V77.432H192.916V78.2H190.648C191.032 78.512 191.26 78.936 191.332 79.472H192.916V80.24H191.356C191.3 80.832 191.076 81.288 190.684 81.608C190.3 81.928 189.788 82.132 189.148 82.22L191.44 86H190.216ZM196.027 86V78.896L194.587 79.832L194.179 79.136L196.207 77.756H196.963V86H196.027ZM199.49 87.596L199.046 87.26C199.37 86.888 199.574 86.516 199.67 86.144C199.31 86.144 199.022 85.844 199.022 85.484C199.022 85.148 199.298 84.848 199.682 84.848C200.138 84.848 200.414 85.256 200.414 85.808C200.414 86.288 200.21 86.696 199.49 87.596ZM203.422 86V78.896L201.982 79.832L201.574 79.136L203.602 77.756H204.358V86H203.422ZM209.632 86.144C207.616 86.144 206.2 84.38 206.2 81.872C206.2 79.376 207.616 77.612 209.632 77.612C211.636 77.612 213.052 79.376 213.052 81.872C213.052 84.38 211.636 86.144 209.632 86.144ZM209.632 85.28C211.084 85.28 212.104 83.864 212.104 81.872C212.104 79.88 211.084 78.476 209.632 78.476C208.18 78.476 207.148 79.88 207.148 81.872C207.148 83.864 208.18 85.28 209.632 85.28ZM215.158 87.596L214.714 87.26C215.038 86.888 215.242 86.516 215.338 86.144C214.978 86.144 214.69 85.844 214.69 85.484C214.69 85.148 214.966 84.848 215.35 84.848C215.806 84.848 216.082 85.256 216.082 85.808C216.082 86.288 215.878 86.696 215.158 87.596ZM221.07 86.144C219.054 86.144 217.638 84.38 217.638 81.872C217.638 79.376 219.054 77.612 221.07 77.612C223.074 77.612 224.49 79.376 224.49 81.872C224.49 84.38 223.074 86.144 221.07 86.144ZM221.07 85.28C222.522 85.28 223.542 83.864 223.542 81.872C223.542 79.88 222.522 78.476 221.07 78.476C219.618 78.476 218.586 79.88 218.586 81.872C218.586 83.864 219.618 85.28 221.07 85.28ZM229.343 86.144C227.327 86.144 225.911 84.38 225.911 81.872C225.911 79.376 227.327 77.612 229.343 77.612C231.347 77.612 232.763 79.376 232.763 81.872C232.763 84.38 231.347 86.144 229.343 86.144ZM229.343 85.28C230.795 85.28 231.815 83.864 231.815 81.872C231.815 79.88 230.795 78.476 229.343 78.476C227.891 78.476 226.859 79.88 226.859 81.872C226.859 83.864 227.891 85.28 229.343 85.28ZM237.617 86.144C235.601 86.144 234.185 84.38 234.185 81.872C234.185 79.376 235.601 77.612 237.617 77.612C239.621 77.612 241.037 79.376 241.037 81.872C241.037 84.38 239.621 86.144 237.617 86.144ZM237.617 85.28C239.069 85.28 240.089 83.864 240.089 81.872C240.089 79.88 239.069 78.476 237.617 78.476C236.165 78.476 235.133 79.88 235.133 81.872C235.133 83.864 236.165 85.28 237.617 85.28ZM191.14 112.144C189.124 112.144 187.708 110.38 187.708 107.872C187.708 105.376 189.124 103.612 191.14 103.612C193.144 103.612 194.56 105.376 194.56 107.872C194.56 110.38 193.144 112.144 191.14 112.144ZM191.14 111.28C192.592 111.28 193.612 109.864 193.612 107.872C193.612 105.88 192.592 104.476 191.14 104.476C189.688 104.476 188.656 105.88 188.656 107.872C188.656 109.864 189.688 111.28 191.14 111.28ZM197.433 112V104.896L195.993 105.832L195.585 105.136L197.613 103.756H198.369V112H197.433ZM199.312 112.888L203.524 103.084H204.544L200.332 112.888H199.312ZM208.624 112.144C206.608 112.144 205.192 110.38 205.192 107.872C205.192 105.376 206.608 103.612 208.624 103.612C210.628 103.612 212.044 105.376 212.044 107.872C212.044 110.38 210.628 112.144 208.624 112.144ZM208.624 111.28C210.076 111.28 211.096 109.864 211.096 107.872C211.096 105.88 210.076 104.476 208.624 104.476C207.172 104.476 206.14 105.88 206.14 107.872C206.14 109.864 207.172 111.28 208.624 111.28ZM217.474 112V109.996H213.358L213.238 109.216L217.33 103.756H218.41V109.144H219.646V109.996H218.41V112H217.474ZM214.306 109.144H217.474V104.884L214.306 109.144ZM220.042 112.888L224.254 103.084H225.274L221.062 112.888H220.042ZM225.803 112V111.22L228.815 108.652C229.979 107.656 230.459 106.864 230.459 106.048C230.459 105.04 229.619 104.452 228.743 104.452C227.783 104.452 227.099 104.968 226.535 105.736L225.875 105.196C226.559 104.224 227.483 103.612 228.779 103.612C230.207 103.612 231.407 104.56 231.407 106.036C231.407 107.152 230.855 108.04 229.463 109.24L227.303 111.112H231.491V112H225.803ZM236.421 112.144C234.405 112.144 232.989 110.38 232.989 107.872C232.989 105.376 234.405 103.612 236.421 103.612C238.425 103.612 239.841 105.376 239.841 107.872C239.841 110.38 238.425 112.144 236.421 112.144ZM236.421 111.28C237.873 111.28 238.893 109.864 238.893 107.872C238.893 105.88 237.873 104.476 236.421 104.476C234.969 104.476 233.937 105.88 233.937 107.872C233.937 109.864 234.969 111.28 236.421 111.28ZM241.143 112V111.22L244.155 108.652C245.319 107.656 245.799 106.864 245.799 106.048C245.799 105.04 244.959 104.452 244.083 104.452C243.123 104.452 242.439 104.968 241.875 105.736L241.215 105.196C241.899 104.224 242.823 103.612 244.119 103.612C245.547 103.612 246.747 104.56 246.747 106.036C246.747 107.152 246.195 108.04 244.803 109.24L242.643 111.112H246.831V112H241.143ZM248.209 112V111.22L251.221 108.652C252.385 107.656 252.865 106.864 252.865 106.048C252.865 105.04 252.025 104.452 251.149 104.452C250.189 104.452 249.505 104.968 248.941 105.736L248.281 105.196C248.965 104.224 249.889 103.612 251.185 103.612C252.613 103.612 253.813 104.56 253.813 106.036C253.813 107.152 253.261 108.04 251.869 109.24L249.709 111.112H253.897V112H248.209ZM187.588 138V137.22L190.6 134.652C191.764 133.656 192.244 132.864 192.244 132.048C192.244 131.04 191.404 130.452 190.528 130.452C189.568 130.452 188.884 130.968 188.32 131.736L187.66 131.196C188.344 130.224 189.268 129.612 190.564 129.612C191.992 129.612 193.192 130.56 193.192 132.036C193.192 133.152 192.64 134.04 191.248 135.24L189.088 137.112H193.276V138H187.588ZM194.654 138V137.22L197.666 134.652C198.83 133.656 199.31 132.864 199.31 132.048C199.31 131.04 198.47 130.452 197.594 130.452C196.634 130.452 195.95 130.968 195.386 131.736L194.726 131.196C195.41 130.224 196.334 129.612 197.63 129.612C199.058 129.612 200.258 130.56 200.258 132.036C200.258 133.152 199.706 134.04 198.314 135.24L196.154 137.112H200.342V138H194.654ZM200.941 138.888L205.153 129.084H206.173L201.961 138.888H200.941ZM210.253 138.144C208.237 138.144 206.821 136.38 206.821 133.872C206.821 131.376 208.237 129.612 210.253 129.612C212.257 129.612 213.673 131.376 213.673 133.872C213.673 136.38 212.257 138.144 210.253 138.144ZM210.253 137.28C211.705 137.28 212.725 135.864 212.725 133.872C212.725 131.88 211.705 130.476 210.253 130.476C208.801 130.476 207.769 131.88 207.769 133.872C207.769 135.864 208.801 137.28 210.253 137.28ZM214.975 138V137.22L217.987 134.652C219.151 133.656 219.631 132.864 219.631 132.048C219.631 131.04 218.791 130.452 217.915 130.452C216.955 130.452 216.271 130.968 215.707 131.736L215.047 131.196C215.731 130.224 216.655 129.612 217.951 129.612C219.379 129.612 220.579 130.56 220.579 132.036C220.579 133.152 220.027 134.04 218.635 135.24L216.475 137.112H220.663V138H214.975ZM221.261 138.888L225.473 129.084H226.493L222.281 138.888H221.261ZM227.022 138V137.22L230.034 134.652C231.198 133.656 231.678 132.864 231.678 132.048C231.678 131.04 230.838 130.452 229.962 130.452C229.002 130.452 228.318 130.968 227.754 131.736L227.094 131.196C227.778 130.224 228.702 129.612 229.998 129.612C231.426 129.612 232.626 130.56 232.626 132.036C232.626 133.152 232.074 134.04 230.682 135.24L228.522 137.112H232.71V138H227.022ZM237.64 138.144C235.624 138.144 234.208 136.38 234.208 133.872C234.208 131.376 235.624 129.612 237.64 129.612C239.644 129.612 241.06 131.376 241.06 133.872C241.06 136.38 239.644 138.144 237.64 138.144ZM237.64 137.28C239.092 137.28 240.112 135.864 240.112 133.872C240.112 131.88 239.092 130.476 237.64 130.476C236.188 130.476 235.156 131.88 235.156 133.872C235.156 135.864 236.188 137.28 237.64 137.28ZM242.361 138V137.22L245.373 134.652C246.537 133.656 247.017 132.864 247.017 132.048C247.017 131.04 246.177 130.452 245.301 130.452C244.341 130.452 243.657 130.968 243.093 131.736L242.433 131.196C243.117 130.224 244.041 129.612 245.337 129.612C246.765 129.612 247.965 130.56 247.965 132.036C247.965 133.152 247.413 134.04 246.021 135.24L243.861 137.112H248.049V138H242.361ZM252.32 138.144C250.964 138.144 249.92 137.52 249.32 136.728L249.968 136.116C250.508 136.812 251.312 137.292 252.32 137.292C253.472 137.292 254.24 136.656 254.24 135.72C254.24 134.748 253.412 134.256 252.116 134.256H251.24V133.392L252.128 133.404C253.232 133.416 254.06 132.888 254.06 131.952C254.06 131.088 253.268 130.464 252.236 130.464C251.324 130.464 250.676 130.92 250.088 131.628L249.464 131.064C250.088 130.236 251 129.612 252.284 129.612C253.856 129.612 255.008 130.524 255.008 131.844C255.008 132.9 254.264 133.524 253.412 133.776C254.252 133.968 255.188 134.58 255.188 135.768C255.188 137.148 254.036 138.144 252.32 138.144ZM190.48 164.144C189.124 164.144 188.08 163.52 187.48 162.728L188.128 162.116C188.668 162.812 189.472 163.292 190.48 163.292C191.632 163.292 192.4 162.656 192.4 161.72C192.4 160.748 191.572 160.256 190.276 160.256H189.4V159.392L190.288 159.404C191.392 159.416 192.22 158.888 192.22 157.952C192.22 157.088 191.428 156.464 190.396 156.464C189.484 156.464 188.836 156.92 188.248 157.628L187.624 157.064C188.248 156.236 189.16 155.612 190.444 155.612C192.016 155.612 193.168 156.524 193.168 157.844C193.168 158.9 192.424 159.524 191.572 159.776C192.412 159.968 193.348 160.58 193.348 161.768C193.348 163.148 192.196 164.144 190.48 164.144ZM194.619 164V163.22L197.631 160.652C198.795 159.656 199.275 158.864 199.275 158.048C199.275 157.04 198.435 156.452 197.559 156.452C196.599 156.452 195.915 156.968 195.351 157.736L194.691 157.196C195.375 156.224 196.299 155.612 197.595 155.612C199.023 155.612 200.223 156.56 200.223 158.036C200.223 159.152 199.671 160.04 198.279 161.24L196.119 163.112H200.307V164H194.619ZM204.734 164.144C203.03 164.144 201.722 163.232 201.722 161.84C201.722 160.808 202.538 160.064 203.546 159.74C202.61 159.38 201.938 158.744 201.938 157.796C201.938 156.428 203.306 155.612 204.734 155.612C206.21 155.612 207.542 156.452 207.542 157.808C207.542 158.816 206.786 159.428 205.934 159.74C206.93 160.076 207.746 160.808 207.746 161.84C207.746 163.244 206.426 164.144 204.734 164.144ZM204.734 159.368C205.538 159.32 206.594 158.828 206.594 157.892C206.594 157.064 205.766 156.464 204.734 156.464C203.702 156.464 202.886 157.064 202.886 157.892C202.886 158.852 203.954 159.32 204.734 159.368ZM204.734 163.292C205.874 163.292 206.798 162.68 206.798 161.78C206.798 160.784 205.598 160.208 204.734 160.184C203.882 160.208 202.67 160.784 202.67 161.78C202.67 162.68 203.594 163.292 204.734 163.292ZM189.16 190V182.896L187.72 183.832L187.312 183.136L189.34 181.756H190.096V190H189.16ZM195.37 190.144C193.354 190.144 191.938 188.38 191.938 185.872C191.938 183.376 193.354 181.612 195.37 181.612C197.374 181.612 198.79 183.376 198.79 185.872C198.79 188.38 197.374 190.144 195.37 190.144ZM195.37 189.28C196.822 189.28 197.842 187.864 197.842 185.872C197.842 183.88 196.822 182.476 195.37 182.476C193.918 182.476 192.886 183.88 192.886 185.872C192.886 187.864 193.918 189.28 195.37 189.28ZM201.976 185.812C200.836 185.812 200.068 184.888 200.068 183.772C200.068 182.584 200.872 181.684 201.988 181.684C203.128 181.684 203.896 182.608 203.896 183.748C203.896 184.912 203.104 185.812 201.976 185.812ZM201.076 190L206.716 181.756H207.508L201.868 190H201.076ZM201.988 185.164C202.66 185.164 203.14 184.564 203.14 183.76C203.14 182.944 202.648 182.332 201.976 182.332C201.304 182.332 200.824 182.932 200.824 183.76C200.824 184.552 201.328 185.164 201.988 185.164ZM206.56 190.12C205.456 190.12 204.652 189.232 204.652 188.056C204.652 186.928 205.432 185.992 206.572 185.992C207.712 185.992 208.48 186.928 208.48 188.044C208.48 189.22 207.676 190.12 206.56 190.12ZM206.572 189.472C207.256 189.472 207.724 188.872 207.724 188.056C207.724 187.252 207.232 186.64 206.56 186.64C205.876 186.64 205.408 187.264 205.408 188.044C205.408 188.86 205.888 189.472 206.572 189.472Z" fill="#2D2D2D"/>
<path d="M189.94 216L187.78 212.232V211.344H188.5C188.924 211.344 189.28 211.252 189.568 211.068C189.856 210.876 190.04 210.612 190.12 210.276H187.78V209.388H190.108C190.036 209.084 189.888 208.832 189.664 208.632C189.44 208.424 189.128 208.32 188.728 208.32H187.78V207.432H193.192V208.32H191.308C191.588 208.624 191.764 208.98 191.836 209.388H193.192V210.276H191.86C191.78 210.868 191.548 211.332 191.164 211.668C190.788 211.996 190.308 212.22 189.724 212.34L192.076 216H189.94ZM196.147 216V209.784L194.743 210.66L194.035 209.412L196.507 207.756H197.923V216H196.147ZM203.084 216.144C200.912 216.144 199.388 214.38 199.388 211.872C199.388 209.376 200.912 207.612 203.084 207.612C205.256 207.612 206.792 209.376 206.792 211.872C206.792 214.38 205.256 216.144 203.084 216.144ZM203.084 214.536C204.2 214.536 204.968 213.42 204.968 211.872C204.968 210.324 204.2 209.22 203.084 209.22C201.98 209.22 201.2 210.324 201.2 211.872C201.2 213.42 201.98 214.536 203.084 214.536ZM208.94 217.752L208.316 217.272C208.688 216.936 208.94 216.528 209.048 216.144C208.472 216.144 207.992 215.652 207.992 215.064C207.992 214.464 208.472 213.96 209.072 213.96C209.744 213.96 210.212 214.584 210.212 215.46C210.212 216.168 209.804 216.924 208.94 217.752ZM215.072 216.144C212.9 216.144 211.376 214.38 211.376 211.872C211.376 209.376 212.9 207.612 215.072 207.612C217.244 207.612 218.78 209.376 218.78 211.872C218.78 214.38 217.244 216.144 215.072 216.144ZM215.072 214.536C216.188 214.536 216.956 213.42 216.956 211.872C216.956 210.324 216.188 209.22 215.072 209.22C213.968 209.22 213.188 210.324 213.188 211.872C213.188 213.42 213.968 214.536 215.072 214.536ZM223.545 216.144C221.373 216.144 219.849 214.38 219.849 211.872C219.849 209.376 221.373 207.612 223.545 207.612C225.717 207.612 227.253 209.376 227.253 211.872C227.253 214.38 225.717 216.144 223.545 216.144ZM223.545 214.536C224.661 214.536 225.429 213.42 225.429 211.872C225.429 210.324 224.661 209.22 223.545 209.22C222.441 209.22 221.661 210.324 221.661 211.872C221.661 213.42 222.441 214.536 223.545 214.536ZM232.017 216.144C229.845 216.144 228.321 214.38 228.321 211.872C228.321 209.376 229.845 207.612 232.017 207.612C234.189 207.612 235.725 209.376 235.725 211.872C235.725 214.38 234.189 216.144 232.017 216.144ZM232.017 214.536C233.133 214.536 233.901 213.42 233.901 211.872C233.901 210.324 233.133 209.22 232.017 209.22C230.913 209.22 230.133 210.324 230.133 211.872C230.133 213.42 230.913 214.536 232.017 214.536Z" fill="#9F212C"/>
<path d="M272.936 60.144C271.508 60.144 270.236 59.664 269.276 58.776L270.296 57.564C271.076 58.236 271.964 58.644 273.008 58.644C273.896 58.644 274.352 58.236 274.352 57.72C274.352 57.132 273.872 56.952 272.612 56.664C270.872 56.268 269.636 55.776 269.636 54.18C269.636 52.656 270.884 51.612 272.684 51.612C274.028 51.612 275.072 52.032 275.912 52.752L274.988 54.024C274.256 53.436 273.428 53.112 272.636 53.112C271.88 53.112 271.424 53.508 271.424 54C271.424 54.6 271.916 54.792 273.188 55.08C274.964 55.476 276.14 56.004 276.14 57.528C276.14 59.1 274.952 60.144 272.936 60.144ZM280.398 60.144C278.562 60.144 277.014 58.656 277.014 56.892C277.014 55.128 278.574 53.652 280.41 53.652C281.418 53.652 282.246 54.06 282.846 54.708L281.682 55.704C281.37 55.356 280.878 55.128 280.398 55.128C279.486 55.128 278.718 55.932 278.718 56.88C278.718 57.852 279.486 58.668 280.41 58.668C280.89 58.668 281.394 58.428 281.718 58.068L282.882 59.052C282.27 59.724 281.43 60.144 280.398 60.144ZM286.864 58.596C287.356 58.596 287.956 58.368 288.292 58.044L289.408 59.184C288.856 59.76 287.788 60.144 286.876 60.144C285.028 60.144 283.588 58.788 283.588 56.88C283.588 55.008 284.968 53.652 286.78 53.652C288.724 53.652 289.864 55.128 289.864 57.468H285.388C285.592 58.14 286.132 58.596 286.864 58.596ZM286.852 55.2C286.192 55.2 285.64 55.584 285.412 56.208H288.184C288.016 55.596 287.56 55.2 286.852 55.2ZM294.637 53.652C295.981 53.652 296.941 54.648 296.941 56.052V60H295.249V56.424C295.249 55.656 294.769 55.128 294.073 55.128C293.341 55.128 292.777 55.656 292.777 56.328L292.765 56.292V60H291.013V53.796H292.765V54.576C293.137 54.012 293.833 53.652 294.637 53.652ZM301.192 53.652C302.812 53.652 303.916 54.672 303.916 56.292V60H302.224V59.376C301.78 59.88 301.072 60.144 300.4 60.144C299.08 60.144 298.06 59.352 298.06 58.164C298.06 56.94 299.2 56.1 300.64 56.1C301.144 56.1 301.696 56.208 302.224 56.412V56.292C302.224 55.632 301.816 55.056 300.796 55.056C300.22 55.056 299.68 55.248 299.188 55.5L298.6 54.336C299.476 53.892 300.328 53.652 301.192 53.652ZM300.796 58.932C301.468 58.932 302.104 58.62 302.224 58.044V57.468C301.828 57.324 301.372 57.24 300.892 57.24C300.256 57.24 299.752 57.612 299.752 58.116C299.752 58.62 300.196 58.932 300.796 58.932ZM307.145 54.948C307.553 54.144 308.321 53.652 309.269 53.652V55.128C307.973 55.128 307.145 55.872 307.145 57.036V60H305.393V53.796H307.145V54.948ZM311.156 52.944C310.616 52.944 310.196 52.512 310.196 51.984C310.196 51.492 310.616 51.048 311.156 51.048C311.672 51.048 312.092 51.492 312.092 51.984C312.092 52.512 311.672 52.944 311.156 52.944ZM310.268 60V53.796H312.02V60H310.268ZM316.597 60.144C314.749 60.144 313.201 58.656 313.201 56.892C313.201 55.128 314.749 53.652 316.597 53.652C318.433 53.652 319.969 55.128 319.969 56.892C319.969 58.656 318.433 60.144 316.597 60.144ZM316.597 58.668C317.521 58.668 318.301 57.852 318.301 56.892C318.301 55.932 317.521 55.128 316.597 55.128C315.661 55.128 314.881 55.932 314.881 56.892C314.881 57.852 315.661 58.668 316.597 58.668ZM327.362 60.156C325.874 60.156 324.746 59.568 324.05 58.764L325.094 57.588C325.67 58.212 326.45 58.56 327.278 58.56C328.19 58.56 328.718 58.14 328.718 57.552C328.718 56.916 328.226 56.592 327.11 56.604H326.162V55.092L327.11 55.104C328.01 55.104 328.55 54.768 328.55 54.18C328.55 53.58 327.986 53.196 327.17 53.196C326.39 53.196 325.778 53.58 325.226 54.156L324.206 53.076C324.89 52.248 325.874 51.612 327.338 51.612C329.198 51.612 330.362 52.56 330.362 53.868C330.362 54.816 329.714 55.5 328.814 55.764C329.714 55.968 330.542 56.604 330.542 57.696C330.542 59.124 329.282 60.156 327.362 60.156ZM272.216 86L269.948 82.04V81.512H270.212C270.844 81.512 271.332 81.42 271.676 81.236C272.02 81.052 272.22 80.72 272.276 80.24H269.948V79.472H272.264C272.184 79.024 271.972 78.7 271.628 78.5C271.292 78.3 270.82 78.2 270.212 78.2H269.948V77.432H274.916V78.2H272.648C273.032 78.512 273.26 78.936 273.332 79.472H274.916V80.24H273.356C273.3 80.832 273.076 81.288 272.684 81.608C272.3 81.928 271.788 82.132 271.148 82.22L273.44 86H272.216ZM278.027 86V78.896L276.587 79.832L276.179 79.136L278.207 77.756H278.963V86H278.027ZM281.49 87.596L281.046 87.26C281.37 86.888 281.574 86.516 281.67 86.144C281.31 86.144 281.022 85.844 281.022 85.484C281.022 85.148 281.298 84.848 281.682 84.848C282.138 84.848 282.414 85.256 282.414 85.808C282.414 86.288 282.21 86.696 281.49 87.596ZM285.422 86V78.896L283.982 79.832L283.574 79.136L285.602 77.756H286.358V86H285.422ZM291.632 86.144C289.616 86.144 288.2 84.38 288.2 81.872C288.2 79.376 289.616 77.612 291.632 77.612C293.636 77.612 295.052 79.376 295.052 81.872C295.052 84.38 293.636 86.144 291.632 86.144ZM291.632 85.28C293.084 85.28 294.104 83.864 294.104 81.872C294.104 79.88 293.084 78.476 291.632 78.476C290.18 78.476 289.148 79.88 289.148 81.872C289.148 83.864 290.18 85.28 291.632 85.28ZM297.158 87.596L296.714 87.26C297.038 86.888 297.242 86.516 297.338 86.144C296.978 86.144 296.69 85.844 296.69 85.484C296.69 85.148 296.966 84.848 297.35 84.848C297.806 84.848 298.082 85.256 298.082 85.808C298.082 86.288 297.878 86.696 297.158 87.596ZM303.07 86.144C301.054 86.144 299.638 84.38 299.638 81.872C299.638 79.376 301.054 77.612 303.07 77.612C305.074 77.612 306.49 79.376 306.49 81.872C306.49 84.38 305.074 86.144 303.07 86.144ZM303.07 85.28C304.522 85.28 305.542 83.864 305.542 81.872C305.542 79.88 304.522 78.476 303.07 78.476C301.618 78.476 300.586 79.88 300.586 81.872C300.586 83.864 301.618 85.28 303.07 85.28ZM311.343 86.144C309.327 86.144 307.911 84.38 307.911 81.872C307.911 79.376 309.327 77.612 311.343 77.612C313.347 77.612 314.763 79.376 314.763 81.872C314.763 84.38 313.347 86.144 311.343 86.144ZM311.343 85.28C312.795 85.28 313.815 83.864 313.815 81.872C313.815 79.88 312.795 78.476 311.343 78.476C309.891 78.476 308.859 79.88 308.859 81.872C308.859 83.864 309.891 85.28 311.343 85.28ZM319.617 86.144C317.601 86.144 316.185 84.38 316.185 81.872C316.185 79.376 317.601 77.612 319.617 77.612C321.621 77.612 323.037 79.376 323.037 81.872C323.037 84.38 321.621 86.144 319.617 86.144ZM319.617 85.28C321.069 85.28 322.089 83.864 322.089 81.872C322.089 79.88 321.069 78.476 319.617 78.476C318.165 78.476 317.133 79.88 317.133 81.872C317.133 83.864 318.165 85.28 319.617 85.28ZM273.14 112.144C271.124 112.144 269.708 110.38 269.708 107.872C269.708 105.376 271.124 103.612 273.14 103.612C275.144 103.612 276.56 105.376 276.56 107.872C276.56 110.38 275.144 112.144 273.14 112.144ZM273.14 111.28C274.592 111.28 275.612 109.864 275.612 107.872C275.612 105.88 274.592 104.476 273.14 104.476C271.688 104.476 270.656 105.88 270.656 107.872C270.656 109.864 271.688 111.28 273.14 111.28ZM279.433 112V104.896L277.993 105.832L277.585 105.136L279.613 103.756H280.369V112H279.433ZM281.312 112.888L285.524 103.084H286.544L282.332 112.888H281.312ZM290.624 112.144C288.608 112.144 287.192 110.38 287.192 107.872C287.192 105.376 288.608 103.612 290.624 103.612C292.628 103.612 294.044 105.376 294.044 107.872C294.044 110.38 292.628 112.144 290.624 112.144ZM290.624 111.28C292.076 111.28 293.096 109.864 293.096 107.872C293.096 105.88 292.076 104.476 290.624 104.476C289.172 104.476 288.14 105.88 288.14 107.872C288.14 109.864 289.172 111.28 290.624 111.28ZM299.474 112V109.996H295.358L295.238 109.216L299.33 103.756H300.41V109.144H301.646V109.996H300.41V112H299.474ZM296.306 109.144H299.474V104.884L296.306 109.144ZM302.042 112.888L306.254 103.084H307.274L303.062 112.888H302.042ZM307.803 112V111.22L310.815 108.652C311.979 107.656 312.459 106.864 312.459 106.048C312.459 105.04 311.619 104.452 310.743 104.452C309.783 104.452 309.099 104.968 308.535 105.736L307.875 105.196C308.559 104.224 309.483 103.612 310.779 103.612C312.207 103.612 313.407 104.56 313.407 106.036C313.407 107.152 312.855 108.04 311.463 109.24L309.303 111.112H313.491V112H307.803ZM318.421 112.144C316.405 112.144 314.989 110.38 314.989 107.872C314.989 105.376 316.405 103.612 318.421 103.612C320.425 103.612 321.841 105.376 321.841 107.872C321.841 110.38 320.425 112.144 318.421 112.144ZM318.421 111.28C319.873 111.28 320.893 109.864 320.893 107.872C320.893 105.88 319.873 104.476 318.421 104.476C316.969 104.476 315.937 105.88 315.937 107.872C315.937 109.864 316.969 111.28 318.421 111.28ZM323.143 112V111.22L326.155 108.652C327.319 107.656 327.799 106.864 327.799 106.048C327.799 105.04 326.959 104.452 326.083 104.452C325.123 104.452 324.439 104.968 323.875 105.736L323.215 105.196C323.899 104.224 324.823 103.612 326.119 103.612C327.547 103.612 328.747 104.56 328.747 106.036C328.747 107.152 328.195 108.04 326.803 109.24L324.643 111.112H328.831V112H323.143ZM330.209 112V111.22L333.221 108.652C334.385 107.656 334.865 106.864 334.865 106.048C334.865 105.04 334.025 104.452 333.149 104.452C332.189 104.452 331.505 104.968 330.941 105.736L330.281 105.196C330.965 104.224 331.889 103.612 333.185 103.612C334.613 103.612 335.813 104.56 335.813 106.036C335.813 107.152 335.261 108.04 333.869 109.24L331.709 111.112H335.897V112H330.209ZM269.588 138V137.22L272.6 134.652C273.764 133.656 274.244 132.864 274.244 132.048C274.244 131.04 273.404 130.452 272.528 130.452C271.568 130.452 270.884 130.968 270.32 131.736L269.66 131.196C270.344 130.224 271.268 129.612 272.564 129.612C273.992 129.612 275.192 130.56 275.192 132.036C275.192 133.152 274.64 134.04 273.248 135.24L271.088 137.112H275.276V138H269.588ZM277.722 138L281.238 130.644H276.774V129.756H282.354V130.464L278.802 138H277.722ZM283.07 138.888L287.282 129.084H288.302L284.09 138.888H283.07ZM290.402 138V130.896L288.962 131.832L288.554 131.136L290.582 129.756H291.338V138H290.402ZM294.633 138V130.896L293.193 131.832L292.785 131.136L294.813 129.756H295.569V138H294.633ZM296.511 138.888L300.723 129.084H301.743L297.531 138.888H296.511ZM302.272 138V137.22L305.284 134.652C306.448 133.656 306.928 132.864 306.928 132.048C306.928 131.04 306.088 130.452 305.212 130.452C304.252 130.452 303.568 130.968 303.004 131.736L302.344 131.196C303.028 130.224 303.952 129.612 305.248 129.612C306.676 129.612 307.876 130.56 307.876 132.036C307.876 133.152 307.324 134.04 305.932 135.24L303.772 137.112H307.96V138H302.272ZM312.89 138.144C310.874 138.144 309.458 136.38 309.458 133.872C309.458 131.376 310.874 129.612 312.89 129.612C314.894 129.612 316.31 131.376 316.31 133.872C316.31 136.38 314.894 138.144 312.89 138.144ZM312.89 137.28C314.342 137.28 315.362 135.864 315.362 133.872C315.362 131.88 314.342 130.476 312.89 130.476C311.438 130.476 310.406 131.88 310.406 133.872C310.406 135.864 311.438 137.28 312.89 137.28ZM317.611 138V137.22L320.623 134.652C321.787 133.656 322.267 132.864 322.267 132.048C322.267 131.04 321.427 130.452 320.551 130.452C319.591 130.452 318.907 130.968 318.343 131.736L317.683 131.196C318.367 130.224 319.291 129.612 320.587 129.612C322.015 129.612 323.215 130.56 323.215 132.036C323.215 133.152 322.663 134.04 321.271 135.24L319.111 137.112H323.299V138H317.611ZM324.678 138V137.22L327.69 134.652C328.854 133.656 329.334 132.864 329.334 132.048C329.334 131.04 328.494 130.452 327.618 130.452C326.658 130.452 325.974 130.968 325.41 131.736L324.75 131.196C325.434 130.224 326.358 129.612 327.654 129.612C329.082 129.612 330.282 130.56 330.282 132.036C330.282 133.152 329.73 134.04 328.338 135.24L326.178 137.112H330.366V138H324.678ZM269.588 164V163.22L272.6 160.652C273.764 159.656 274.244 158.864 274.244 158.048C274.244 157.04 273.404 156.452 272.528 156.452C271.568 156.452 270.884 156.968 270.32 157.736L269.66 157.196C270.344 156.224 271.268 155.612 272.564 155.612C273.992 155.612 275.192 156.56 275.192 158.036C275.192 159.152 274.64 160.04 273.248 161.24L271.088 163.112H275.276V164H269.588ZM276.654 164V163.22L279.666 160.652C280.83 159.656 281.31 158.864 281.31 158.048C281.31 157.04 280.47 156.452 279.594 156.452C278.634 156.452 277.95 156.968 277.386 157.736L276.726 157.196C277.41 156.224 278.334 155.612 279.63 155.612C281.058 155.612 282.258 156.56 282.258 158.036C282.258 159.152 281.706 160.04 280.314 161.24L278.154 163.112H282.342V164H276.654ZM287.849 164V161.996H283.733L283.613 161.216L287.705 155.756H288.785V161.144H290.021V161.996H288.785V164H287.849ZM284.681 161.144H287.849V156.884L284.681 161.144ZM272.636 190.144C270.932 190.144 269.624 189.232 269.624 187.84C269.624 186.808 270.44 186.064 271.448 185.74C270.512 185.38 269.84 184.744 269.84 183.796C269.84 182.428 271.208 181.612 272.636 181.612C274.112 181.612 275.444 182.452 275.444 183.808C275.444 184.816 274.688 185.428 273.836 185.74C274.832 186.076 275.648 186.808 275.648 187.84C275.648 189.244 274.328 190.144 272.636 190.144ZM272.636 185.368C273.44 185.32 274.496 184.828 274.496 183.892C274.496 183.064 273.668 182.464 272.636 182.464C271.604 182.464 270.788 183.064 270.788 183.892C270.788 184.852 271.856 185.32 272.636 185.368ZM272.636 189.292C273.776 189.292 274.7 188.68 274.7 187.78C274.7 186.784 273.5 186.208 272.636 186.184C271.784 186.208 270.572 186.784 270.572 187.78C270.572 188.68 271.496 189.292 272.636 189.292ZM278.749 185.812C277.609 185.812 276.841 184.888 276.841 183.772C276.841 182.584 277.645 181.684 278.761 181.684C279.901 181.684 280.669 182.608 280.669 183.748C280.669 184.912 279.877 185.812 278.749 185.812ZM277.849 190L283.489 181.756H284.281L278.641 190H277.849ZM278.761 185.164C279.433 185.164 279.913 184.564 279.913 183.76C279.913 182.944 279.421 182.332 278.749 182.332C278.077 182.332 277.597 182.932 277.597 183.76C277.597 184.552 278.101 185.164 278.761 185.164ZM283.333 190.12C282.229 190.12 281.425 189.232 281.425 188.056C281.425 186.928 282.205 185.992 283.345 185.992C284.485 185.992 285.253 186.928 285.253 188.044C285.253 189.22 284.449 190.12 283.333 190.12ZM283.345 189.472C284.029 189.472 284.497 188.872 284.497 188.056C284.497 187.252 284.005 186.64 283.333 186.64C282.649 186.64 282.181 187.264 282.181 188.044C282.181 188.86 282.661 189.472 283.345 189.472Z" fill="#2D2D2D"/>
<path d="M271.94 216L269.78 212.232V211.344H270.5C270.924 211.344 271.28 211.252 271.568 211.068C271.856 210.876 272.04 210.612 272.12 210.276H269.78V209.388H272.108C272.036 209.084 271.888 208.832 271.664 208.632C271.44 208.424 271.128 208.32 270.728 208.32H269.78V207.432H275.192V208.32H273.308C273.588 208.624 273.764 208.98 273.836 209.388H275.192V210.276H273.86C273.78 210.868 273.548 211.332 273.164 211.668C272.788 211.996 272.308 212.22 271.724 212.34L274.076 216H271.94ZM279.611 216.144C277.787 216.144 276.299 215.28 276.299 213.792C276.299 212.82 276.971 212.1 277.919 211.74C277.103 211.392 276.515 210.792 276.515 209.856C276.515 208.404 278.003 207.612 279.611 207.612C281.255 207.612 282.719 208.44 282.719 209.856C282.719 210.78 282.131 211.38 281.303 211.74C282.275 212.124 282.923 212.844 282.923 213.792C282.923 215.292 281.423 216.144 279.611 216.144ZM279.611 211.128C280.259 211.08 280.955 210.696 280.955 210.084C280.955 209.52 280.403 209.1 279.611 209.1C278.819 209.1 278.279 209.52 278.279 210.084C278.279 210.72 278.963 211.08 279.611 211.128ZM279.611 214.656C280.487 214.656 281.135 214.224 281.135 213.6C281.135 212.952 280.319 212.544 279.611 212.52C278.903 212.544 278.099 212.952 278.099 213.6C278.099 214.224 278.735 214.656 279.611 214.656ZM284.975 217.752L284.351 217.272C284.723 216.936 284.975 216.528 285.083 216.144C284.507 216.144 284.027 215.652 284.027 215.064C284.027 214.464 284.507 213.96 285.107 213.96C285.779 213.96 286.247 214.584 286.247 215.46C286.247 216.168 285.839 216.924 284.975 217.752ZM291.107 216.144C288.935 216.144 287.411 214.38 287.411 211.872C287.411 209.376 288.935 207.612 291.107 207.612C293.279 207.612 294.815 209.376 294.815 211.872C294.815 214.38 293.279 216.144 291.107 216.144ZM291.107 214.536C292.223 214.536 292.991 213.42 292.991 211.872C292.991 210.324 292.223 209.22 291.107 209.22C290.003 209.22 289.223 210.324 289.223 211.872C289.223 213.42 290.003 214.536 291.107 214.536ZM299.58 216.144C297.408 216.144 295.884 214.38 295.884 211.872C295.884 209.376 297.408 207.612 299.58 207.612C301.752 207.612 303.288 209.376 303.288 211.872C303.288 214.38 301.752 216.144 299.58 216.144ZM299.58 214.536C300.696 214.536 301.464 213.42 301.464 211.872C301.464 210.324 300.696 209.22 299.58 209.22C298.476 209.22 297.696 210.324 297.696 211.872C297.696 213.42 298.476 214.536 299.58 214.536ZM308.052 216.144C305.88 216.144 304.356 214.38 304.356 211.872C304.356 209.376 305.88 207.612 308.052 207.612C310.224 207.612 311.76 209.376 311.76 211.872C311.76 214.38 310.224 216.144 308.052 216.144ZM308.052 214.536C309.168 214.536 309.936 213.42 309.936 211.872C309.936 210.324 309.168 209.22 308.052 209.22C306.948 209.22 306.168 210.324 306.168 211.872C306.168 213.42 306.948 214.536 308.052 214.536Z" fill="#9F212C"/>
<path d="M355.936 60.144C354.508 60.144 353.236 59.664 352.276 58.776L353.296 57.564C354.076 58.236 354.964 58.644 356.008 58.644C356.896 58.644 357.352 58.236 357.352 57.72C357.352 57.132 356.872 56.952 355.612 56.664C353.872 56.268 352.636 55.776 352.636 54.18C352.636 52.656 353.884 51.612 355.684 51.612C357.028 51.612 358.072 52.032 358.912 52.752L357.988 54.024C357.256 53.436 356.428 53.112 355.636 53.112C354.88 53.112 354.424 53.508 354.424 54C354.424 54.6 354.916 54.792 356.188 55.08C357.964 55.476 359.14 56.004 359.14 57.528C359.14 59.1 357.952 60.144 355.936 60.144ZM363.398 60.144C361.562 60.144 360.014 58.656 360.014 56.892C360.014 55.128 361.574 53.652 363.41 53.652C364.418 53.652 365.246 54.06 365.846 54.708L364.682 55.704C364.37 55.356 363.878 55.128 363.398 55.128C362.486 55.128 361.718 55.932 361.718 56.88C361.718 57.852 362.486 58.668 363.41 58.668C363.89 58.668 364.394 58.428 364.718 58.068L365.882 59.052C365.27 59.724 364.43 60.144 363.398 60.144ZM369.864 58.596C370.356 58.596 370.956 58.368 371.292 58.044L372.408 59.184C371.856 59.76 370.788 60.144 369.876 60.144C368.028 60.144 366.588 58.788 366.588 56.88C366.588 55.008 367.968 53.652 369.78 53.652C371.724 53.652 372.864 55.128 372.864 57.468H368.388C368.592 58.14 369.132 58.596 369.864 58.596ZM369.852 55.2C369.192 55.2 368.64 55.584 368.412 56.208H371.184C371.016 55.596 370.56 55.2 369.852 55.2ZM377.637 53.652C378.981 53.652 379.941 54.648 379.941 56.052V60H378.249V56.424C378.249 55.656 377.769 55.128 377.073 55.128C376.341 55.128 375.777 55.656 375.777 56.328L375.765 56.292V60H374.013V53.796H375.765V54.576C376.137 54.012 376.833 53.652 377.637 53.652ZM384.192 53.652C385.812 53.652 386.916 54.672 386.916 56.292V60H385.224V59.376C384.78 59.88 384.072 60.144 383.4 60.144C382.08 60.144 381.06 59.352 381.06 58.164C381.06 56.94 382.2 56.1 383.64 56.1C384.144 56.1 384.696 56.208 385.224 56.412V56.292C385.224 55.632 384.816 55.056 383.796 55.056C383.22 55.056 382.68 55.248 382.188 55.5L381.6 54.336C382.476 53.892 383.328 53.652 384.192 53.652ZM383.796 58.932C384.468 58.932 385.104 58.62 385.224 58.044V57.468C384.828 57.324 384.372 57.24 383.892 57.24C383.256 57.24 382.752 57.612 382.752 58.116C382.752 58.62 383.196 58.932 383.796 58.932ZM390.145 54.948C390.553 54.144 391.321 53.652 392.269 53.652V55.128C390.973 55.128 390.145 55.872 390.145 57.036V60H388.393V53.796H390.145V54.948ZM394.156 52.944C393.616 52.944 393.196 52.512 393.196 51.984C393.196 51.492 393.616 51.048 394.156 51.048C394.672 51.048 395.092 51.492 395.092 51.984C395.092 52.512 394.672 52.944 394.156 52.944ZM393.268 60V53.796H395.02V60H393.268ZM399.597 60.144C397.749 60.144 396.201 58.656 396.201 56.892C396.201 55.128 397.749 53.652 399.597 53.652C401.433 53.652 402.969 55.128 402.969 56.892C402.969 58.656 401.433 60.144 399.597 60.144ZM399.597 58.668C400.521 58.668 401.301 57.852 401.301 56.892C401.301 55.932 400.521 55.128 399.597 55.128C398.661 55.128 397.881 55.932 397.881 56.892C397.881 57.852 398.661 58.668 399.597 58.668ZM411.226 60V58.32H407.206L407.038 56.952L410.854 51.768H413.002V56.832H414.094V58.32H413.002V60H411.226ZM408.898 56.832H411.226V53.64L408.898 56.832ZM355.216 86L352.948 82.04V81.512H353.212C353.844 81.512 354.332 81.42 354.676 81.236C355.02 81.052 355.22 80.72 355.276 80.24H352.948V79.472H355.264C355.184 79.024 354.972 78.7 354.628 78.5C354.292 78.3 353.82 78.2 353.212 78.2H352.948V77.432H357.916V78.2H355.648C356.032 78.512 356.26 78.936 356.332 79.472H357.916V80.24H356.356C356.3 80.832 356.076 81.288 355.684 81.608C355.3 81.928 354.788 82.132 354.148 82.22L356.44 86H355.216ZM361.027 86V78.896L359.587 79.832L359.179 79.136L361.207 77.756H361.963V86H361.027ZM364.49 87.596L364.046 87.26C364.37 86.888 364.574 86.516 364.67 86.144C364.31 86.144 364.022 85.844 364.022 85.484C364.022 85.148 364.298 84.848 364.682 84.848C365.138 84.848 365.414 85.256 365.414 85.808C365.414 86.288 365.21 86.696 364.49 87.596ZM368.422 86V78.896L366.982 79.832L366.574 79.136L368.602 77.756H369.358V86H368.422ZM374.632 86.144C372.616 86.144 371.2 84.38 371.2 81.872C371.2 79.376 372.616 77.612 374.632 77.612C376.636 77.612 378.052 79.376 378.052 81.872C378.052 84.38 376.636 86.144 374.632 86.144ZM374.632 85.28C376.084 85.28 377.104 83.864 377.104 81.872C377.104 79.88 376.084 78.476 374.632 78.476C373.18 78.476 372.148 79.88 372.148 81.872C372.148 83.864 373.18 85.28 374.632 85.28ZM380.158 87.596L379.714 87.26C380.038 86.888 380.242 86.516 380.338 86.144C379.978 86.144 379.69 85.844 379.69 85.484C379.69 85.148 379.966 84.848 380.35 84.848C380.806 84.848 381.082 85.256 381.082 85.808C381.082 86.288 380.878 86.696 380.158 87.596ZM386.07 86.144C384.054 86.144 382.638 84.38 382.638 81.872C382.638 79.376 384.054 77.612 386.07 77.612C388.074 77.612 389.49 79.376 389.49 81.872C389.49 84.38 388.074 86.144 386.07 86.144ZM386.07 85.28C387.522 85.28 388.542 83.864 388.542 81.872C388.542 79.88 387.522 78.476 386.07 78.476C384.618 78.476 383.586 79.88 383.586 81.872C383.586 83.864 384.618 85.28 386.07 85.28ZM394.343 86.144C392.327 86.144 390.911 84.38 390.911 81.872C390.911 79.376 392.327 77.612 394.343 77.612C396.347 77.612 397.763 79.376 397.763 81.872C397.763 84.38 396.347 86.144 394.343 86.144ZM394.343 85.28C395.795 85.28 396.815 83.864 396.815 81.872C396.815 79.88 395.795 78.476 394.343 78.476C392.891 78.476 391.859 79.88 391.859 81.872C391.859 83.864 392.891 85.28 394.343 85.28ZM402.617 86.144C400.601 86.144 399.185 84.38 399.185 81.872C399.185 79.376 400.601 77.612 402.617 77.612C404.621 77.612 406.037 79.376 406.037 81.872C406.037 84.38 404.621 86.144 402.617 86.144ZM402.617 85.28C404.069 85.28 405.089 83.864 405.089 81.872C405.089 79.88 404.069 78.476 402.617 78.476C401.165 78.476 400.133 79.88 400.133 81.872C400.133 83.864 401.165 85.28 402.617 85.28ZM356.14 112.144C354.124 112.144 352.708 110.38 352.708 107.872C352.708 105.376 354.124 103.612 356.14 103.612C358.144 103.612 359.56 105.376 359.56 107.872C359.56 110.38 358.144 112.144 356.14 112.144ZM356.14 111.28C357.592 111.28 358.612 109.864 358.612 107.872C358.612 105.88 357.592 104.476 356.14 104.476C354.688 104.476 353.656 105.88 353.656 107.872C353.656 109.864 354.688 111.28 356.14 111.28ZM362.433 112V104.896L360.993 105.832L360.585 105.136L362.613 103.756H363.369V112H362.433ZM364.312 112.888L368.524 103.084H369.544L365.332 112.888H364.312ZM373.624 112.144C371.608 112.144 370.192 110.38 370.192 107.872C370.192 105.376 371.608 103.612 373.624 103.612C375.628 103.612 377.044 105.376 377.044 107.872C377.044 110.38 375.628 112.144 373.624 112.144ZM373.624 111.28C375.076 111.28 376.096 109.864 376.096 107.872C376.096 105.88 375.076 104.476 373.624 104.476C372.172 104.476 371.14 105.88 371.14 107.872C371.14 109.864 372.172 111.28 373.624 111.28ZM382.474 112V109.996H378.358L378.238 109.216L382.33 103.756H383.41V109.144H384.646V109.996H383.41V112H382.474ZM379.306 109.144H382.474V104.884L379.306 109.144ZM385.042 112.888L389.254 103.084H390.274L386.062 112.888H385.042ZM390.803 112V111.22L393.815 108.652C394.979 107.656 395.459 106.864 395.459 106.048C395.459 105.04 394.619 104.452 393.743 104.452C392.783 104.452 392.099 104.968 391.535 105.736L390.875 105.196C391.559 104.224 392.483 103.612 393.779 103.612C395.207 103.612 396.407 104.56 396.407 106.036C396.407 107.152 395.855 108.04 394.463 109.24L392.303 111.112H396.491V112H390.803ZM401.421 112.144C399.405 112.144 397.989 110.38 397.989 107.872C397.989 105.376 399.405 103.612 401.421 103.612C403.425 103.612 404.841 105.376 404.841 107.872C404.841 110.38 403.425 112.144 401.421 112.144ZM401.421 111.28C402.873 111.28 403.893 109.864 403.893 107.872C403.893 105.88 402.873 104.476 401.421 104.476C399.969 104.476 398.937 105.88 398.937 107.872C398.937 109.864 399.969 111.28 401.421 111.28ZM406.143 112V111.22L409.155 108.652C410.319 107.656 410.799 106.864 410.799 106.048C410.799 105.04 409.959 104.452 409.083 104.452C408.123 104.452 407.439 104.968 406.875 105.736L406.215 105.196C406.899 104.224 407.823 103.612 409.119 103.612C410.547 103.612 411.747 104.56 411.747 106.036C411.747 107.152 411.195 108.04 409.803 109.24L407.643 111.112H411.831V112H406.143ZM413.209 112V111.22L416.221 108.652C417.385 107.656 417.865 106.864 417.865 106.048C417.865 105.04 417.025 104.452 416.149 104.452C415.189 104.452 414.505 104.968 413.941 105.736L413.281 105.196C413.965 104.224 414.889 103.612 416.185 103.612C417.613 103.612 418.813 104.56 418.813 106.036C418.813 107.152 418.261 108.04 416.869 109.24L414.709 111.112H418.897V112H413.209ZM356.14 138.144C354.124 138.144 352.708 136.38 352.708 133.872C352.708 131.376 354.124 129.612 356.14 129.612C358.144 129.612 359.56 131.376 359.56 133.872C359.56 136.38 358.144 138.144 356.14 138.144ZM356.14 137.28C357.592 137.28 358.612 135.864 358.612 133.872C358.612 131.88 357.592 130.476 356.14 130.476C354.688 130.476 353.656 131.88 353.656 133.872C353.656 135.864 354.688 137.28 356.14 137.28ZM363.849 138.144C362.577 138.144 361.617 137.604 360.945 136.836L361.557 136.152C362.193 136.848 362.973 137.304 363.885 137.304C365.025 137.304 365.829 136.512 365.829 135.468C365.829 134.412 365.013 133.692 363.861 133.692C363.153 133.692 362.541 133.944 362.025 134.328L361.341 133.992L361.461 129.756H366.333V130.644H362.373L362.289 133.416C362.733 133.116 363.297 132.864 364.053 132.864C365.541 132.864 366.777 133.8 366.777 135.432C366.777 137.064 365.541 138.144 363.849 138.144ZM367.265 138.888L371.477 129.084H372.497L368.285 138.888H367.265ZM376.578 138.144C374.562 138.144 373.146 136.38 373.146 133.872C373.146 131.376 374.562 129.612 376.578 129.612C378.582 129.612 379.998 131.376 379.998 133.872C379.998 136.38 378.582 138.144 376.578 138.144ZM376.578 137.28C378.03 137.28 379.049 135.864 379.049 133.872C379.049 131.88 378.03 130.476 376.578 130.476C375.126 130.476 374.094 131.88 374.094 133.872C374.094 135.864 375.126 137.28 376.578 137.28ZM382.367 138L385.883 130.644H381.419V129.756H386.999V130.464L383.447 138H382.367ZM387.714 138.888L391.926 129.084H392.946L388.734 138.888H387.714ZM393.475 138V137.22L396.487 134.652C397.651 133.656 398.131 132.864 398.131 132.048C398.131 131.04 397.291 130.452 396.415 130.452C395.455 130.452 394.771 130.968 394.207 131.736L393.547 131.196C394.231 130.224 395.155 129.612 396.451 129.612C397.879 129.612 399.079 130.56 399.079 132.036C399.079 133.152 398.527 134.04 397.135 135.24L394.975 137.112H399.163V138H393.475ZM404.093 138.144C402.077 138.144 400.661 136.38 400.661 133.872C400.661 131.376 402.077 129.612 404.093 129.612C406.097 129.612 407.513 131.376 407.513 133.872C407.513 136.38 406.097 138.144 404.093 138.144ZM404.093 137.28C405.545 137.28 406.565 135.864 406.565 133.872C406.565 131.88 405.545 130.476 404.093 130.476C402.641 130.476 401.609 131.88 401.609 133.872C401.609 135.864 402.641 137.28 404.093 137.28ZM408.815 138V137.22L411.827 134.652C412.991 133.656 413.471 132.864 413.471 132.048C413.471 131.04 412.631 130.452 411.755 130.452C410.795 130.452 410.111 130.968 409.547 131.736L408.887 131.196C409.571 130.224 410.495 129.612 411.791 129.612C413.219 129.612 414.419 130.56 414.419 132.036C414.419 133.152 413.867 134.04 412.475 135.24L410.315 137.112H414.503V138H408.815ZM415.881 138V137.22L418.893 134.652C420.057 133.656 420.537 132.864 420.537 132.048C420.537 131.04 419.697 130.452 418.821 130.452C417.861 130.452 417.177 130.968 416.613 131.736L415.953 131.196C416.637 130.224 417.561 129.612 418.857 129.612C420.285 129.612 421.485 130.56 421.485 132.036C421.485 133.152 420.933 134.04 419.541 135.24L417.381 137.112H421.569V138H415.881ZM355.624 155.612C357.856 155.612 358.756 157.424 358.756 159.752C358.756 162.212 357.292 164.144 355.42 164.144C354.412 164.144 353.692 163.748 353.08 163.16L353.596 162.428C354.112 162.932 354.652 163.292 355.444 163.292C356.764 163.292 357.808 161.732 357.808 159.752V159.644C357.304 160.436 356.452 160.904 355.48 160.904C353.98 160.904 352.72 159.968 352.72 158.336C352.72 156.812 353.908 155.612 355.624 155.612ZM355.648 160.1C356.692 160.1 357.496 159.476 357.7 158.564C357.46 157.316 356.788 156.416 355.636 156.416C354.4 156.416 353.668 157.376 353.668 158.288C353.668 159.416 354.544 160.1 355.648 160.1ZM363.473 158.852C364.973 158.852 366.233 159.788 366.233 161.42C366.233 162.944 365.045 164.144 363.329 164.144C361.097 164.144 360.197 162.332 360.197 160.004C360.197 157.544 361.661 155.612 363.533 155.612C364.541 155.612 365.261 156.008 365.873 156.596L365.357 157.328C364.841 156.824 364.301 156.464 363.509 156.464C362.189 156.464 361.145 158.024 361.145 160.004V160.112C361.649 159.32 362.501 158.852 363.473 158.852ZM363.317 163.34C364.553 163.34 365.285 162.38 365.285 161.468C365.285 160.34 364.409 159.656 363.305 159.656C362.261 159.656 361.457 160.28 361.253 161.192C361.493 162.44 362.165 163.34 363.317 163.34ZM355.48 190.144C354.124 190.144 353.08 189.52 352.48 188.728L353.128 188.116C353.668 188.812 354.472 189.292 355.48 189.292C356.632 189.292 357.4 188.656 357.4 187.72C357.4 186.748 356.572 186.256 355.276 186.256H354.4V185.392L355.288 185.404C356.392 185.416 357.22 184.888 357.22 183.952C357.22 183.088 356.428 182.464 355.396 182.464C354.484 182.464 353.836 182.92 353.248 183.628L352.624 183.064C353.248 182.236 354.16 181.612 355.444 181.612C357.016 181.612 358.168 182.524 358.168 183.844C358.168 184.9 357.424 185.524 356.572 185.776C357.412 185.968 358.348 186.58 358.348 187.768C358.348 189.148 357.196 190.144 355.48 190.144ZM361.503 185.812C360.363 185.812 359.595 184.888 359.595 183.772C359.595 182.584 360.399 181.684 361.515 181.684C362.655 181.684 363.423 182.608 363.423 183.748C363.423 184.912 362.631 185.812 361.503 185.812ZM360.603 190L366.243 181.756H367.035L361.395 190H360.603ZM361.515 185.164C362.187 185.164 362.667 184.564 362.667 183.76C362.667 182.944 362.175 182.332 361.503 182.332C360.831 182.332 360.351 182.932 360.351 183.76C360.351 184.552 360.855 185.164 361.515 185.164ZM366.087 190.12C364.983 190.12 364.179 189.232 364.179 188.056C364.179 186.928 364.959 185.992 366.099 185.992C367.239 185.992 368.007 186.928 368.007 188.044C368.007 189.22 367.203 190.12 366.087 190.12ZM366.099 189.472C366.783 189.472 367.251 188.872 367.251 188.056C367.251 187.252 366.759 186.64 366.087 186.64C365.403 186.64 364.935 187.264 364.935 188.044C364.935 188.86 365.415 189.472 366.099 189.472Z" fill="#2D2D2D"/>
<path d="M354.94 216L352.78 212.232V211.344H353.5C353.924 211.344 354.28 211.252 354.568 211.068C354.856 210.876 355.04 210.612 355.12 210.276H352.78V209.388H355.108C355.036 209.084 354.888 208.832 354.664 208.632C354.44 208.424 354.128 208.32 353.728 208.32H352.78V207.432H358.192V208.32H356.308C356.588 208.624 356.764 208.98 356.836 209.388H358.192V210.276H356.86C356.78 210.868 356.548 211.332 356.164 211.668C355.788 211.996 355.308 212.22 354.724 212.34L357.076 216H354.94ZM362.491 216.156C361.003 216.156 359.875 215.568 359.179 214.764L360.223 213.588C360.799 214.212 361.579 214.56 362.407 214.56C363.319 214.56 363.847 214.14 363.847 213.552C363.847 212.916 363.355 212.592 362.239 212.604H361.291V211.092L362.239 211.104C363.139 211.104 363.679 210.768 363.679 210.18C363.679 209.58 363.115 209.196 362.299 209.196C361.519 209.196 360.907 209.58 360.355 210.156L359.335 209.076C360.019 208.248 361.003 207.612 362.467 207.612C364.327 207.612 365.491 208.56 365.491 209.868C365.491 210.816 364.843 211.5 363.943 211.764C364.843 211.968 365.671 212.604 365.671 213.696C365.671 215.124 364.411 216.156 362.491 216.156ZM367.765 217.752L367.141 217.272C367.513 216.936 367.765 216.528 367.873 216.144C367.297 216.144 366.817 215.652 366.817 215.064C366.817 214.464 367.297 213.96 367.897 213.96C368.569 213.96 369.037 214.584 369.037 215.46C369.037 216.168 368.629 216.924 367.765 217.752ZM373.896 216.144C371.724 216.144 370.2 214.38 370.2 211.872C370.2 209.376 371.724 207.612 373.896 207.612C376.068 207.612 377.604 209.376 377.604 211.872C377.604 214.38 376.068 216.144 373.896 216.144ZM373.896 214.536C375.012 214.536 375.78 213.42 375.78 211.872C375.78 210.324 375.012 209.22 373.896 209.22C372.792 209.22 372.012 210.324 372.012 211.872C372.012 213.42 372.792 214.536 373.896 214.536ZM382.369 216.144C380.197 216.144 378.673 214.38 378.673 211.872C378.673 209.376 380.197 207.612 382.369 207.612C384.541 207.612 386.077 209.376 386.077 211.872C386.077 214.38 384.541 216.144 382.369 216.144ZM382.369 214.536C383.485 214.536 384.253 213.42 384.253 211.872C384.253 210.324 383.485 209.22 382.369 209.22C381.265 209.22 380.485 210.324 380.485 211.872C380.485 213.42 381.265 214.536 382.369 214.536ZM390.841 216.144C388.669 216.144 387.145 214.38 387.145 211.872C387.145 209.376 388.669 207.612 390.841 207.612C393.013 207.612 394.549 209.376 394.549 211.872C394.549 214.38 393.013 216.144 390.841 216.144ZM390.841 214.536C391.957 214.536 392.725 213.42 392.725 211.872C392.725 210.324 391.957 209.22 390.841 209.22C389.737 209.22 388.957 210.324 388.957 211.872C388.957 213.42 389.737 214.536 390.841 214.536Z" fill="#9F212C"/>
<path d="M15.164 53.352H10.592V54.996H14.732V56.592H10.592V58.404H15.164V60H8.816V51.756H15.164V53.352ZM22.2995 60H20.4155L19.0715 58.128L17.7155 60H15.8675L18.1475 56.844L15.9635 53.796H17.8595L19.0955 55.524L20.3435 53.796H22.1915L20.0195 56.808L22.2995 60ZM26.0244 53.652C27.6444 53.652 28.7484 54.672 28.7484 56.292V60H27.0564V59.376C26.6124 59.88 25.9044 60.144 25.2324 60.144C23.9124 60.144 22.8924 59.352 22.8924 58.164C22.8924 56.94 24.0324 56.1 25.4724 56.1C25.9764 56.1 26.5284 56.208 27.0564 56.412V56.292C27.0564 55.632 26.6484 55.056 25.6284 55.056C25.0524 55.056 24.5124 55.248 24.0204 55.5L23.4324 54.336C24.3084 53.892 25.1604 53.652 26.0244 53.652ZM25.6284 58.932C26.3004 58.932 26.9364 58.62 27.0564 58.044V57.468C26.6604 57.324 26.2044 57.24 25.7244 57.24C25.0884 57.24 24.5844 57.612 24.5844 58.116C24.5844 58.62 25.0284 58.932 25.6284 58.932ZM37.605 53.652C38.901 53.652 39.897 54.648 39.897 56.052V60.012H38.217V56.352C38.217 55.632 37.761 55.128 37.113 55.128C36.417 55.128 35.913 55.596 35.913 56.256V60.012H34.233V56.352C34.233 55.632 33.777 55.128 33.141 55.128C32.433 55.128 31.941 55.596 31.941 56.256V60H30.189V53.796H31.941V54.612C32.241 54.024 32.853 53.652 33.621 53.652C34.473 53.652 35.205 54.084 35.589 54.78C35.913 54.096 36.681 53.652 37.605 53.652ZM45.1976 53.652C46.8536 53.652 48.0536 54.996 48.0536 56.892C48.0536 58.8 46.8536 60.144 45.1976 60.144C44.3336 60.144 43.6136 59.772 43.1216 59.124V62.064H41.3696V53.796H43.1216V54.66C43.6136 54.024 44.3336 53.652 45.1976 53.652ZM44.6936 58.668C45.6656 58.668 46.3496 57.936 46.3496 56.892C46.3496 55.86 45.6656 55.128 44.6936 55.128C43.8416 55.128 43.2176 55.752 43.1216 56.652V57.132C43.2176 58.044 43.8416 58.668 44.6936 58.668ZM49.2914 60V51.612H51.0434V60H49.2914ZM55.5007 58.596C55.9927 58.596 56.5927 58.368 56.9287 58.044L58.0447 59.184C57.4927 59.76 56.4247 60.144 55.5127 60.144C53.6647 60.144 52.2247 58.788 52.2247 56.88C52.2247 55.008 53.6047 53.652 55.4167 53.652C57.3607 53.652 58.5007 55.128 58.5007 57.468H54.0247C54.2287 58.14 54.7687 58.596 55.5007 58.596ZM55.4887 55.2C54.8287 55.2 54.2767 55.584 54.0487 56.208H56.8207C56.6527 55.596 56.1967 55.2 55.4887 55.2ZM11.804 86.132C10.448 86.132 9.38 85.64 8.552 84.824L9.14 84.092C9.836 84.788 10.688 85.28 11.84 85.28C13.112 85.28 13.76 84.584 13.76 83.84C13.76 82.964 12.98 82.616 11.54 82.28C9.884 81.896 8.84 81.38 8.84 79.952C8.84 78.632 10.016 77.6 11.6 77.6C12.824 77.6 13.736 78.08 14.492 78.776L13.916 79.508C13.232 78.848 12.416 78.452 11.552 78.452C10.532 78.452 9.788 79.124 9.788 79.88C9.788 80.732 10.604 81.032 12.008 81.368C13.58 81.74 14.708 82.304 14.708 83.756C14.708 85.064 13.724 86.132 11.804 86.132ZM19.1514 86.144C17.4114 86.144 15.9354 84.656 15.9354 82.892C15.9354 81.128 17.4114 79.652 19.1514 79.652C19.9914 79.652 20.7714 80 21.3594 80.564L20.7354 81.176C20.3274 80.732 19.7634 80.456 19.1514 80.456C17.9154 80.456 16.8834 81.572 16.8834 82.892C16.8834 84.224 17.9154 85.34 19.1514 85.34C19.7754 85.34 20.3514 85.052 20.7714 84.584L21.3954 85.196C20.8074 85.784 20.0154 86.144 19.1514 86.144ZM25.7273 79.652C27.0953 79.652 28.0553 80.648 28.0553 82.052V86H27.1553V82.172C27.1553 81.164 26.5193 80.456 25.6073 80.456C24.5633 80.456 23.6873 81.188 23.6873 82.052V86H22.7873V77.612H23.6873V80.792C24.0473 80.132 24.8513 79.652 25.7273 79.652ZM32.6728 85.34C33.4048 85.34 34.2448 85.016 34.6288 84.596L35.1808 85.184C34.6408 85.772 33.5488 86.144 32.6848 86.144C31.0288 86.144 29.5408 84.788 29.5408 82.88C29.5408 81.032 30.9328 79.652 32.6008 79.652C34.4728 79.652 35.5408 81.068 35.5408 83.24H30.4648C30.5968 84.452 31.4488 85.34 32.6728 85.34ZM32.6368 80.456C31.5328 80.456 30.6448 81.236 30.4768 82.436H34.6528C34.5328 81.32 33.8728 80.456 32.6368 80.456ZM43.7216 79.652C45.0176 79.652 45.9296 80.648 45.9296 82.052V86H45.0296V82.172C45.0296 81.164 44.4416 80.456 43.6016 80.456C42.6176 80.456 41.9216 81.116 41.9216 82.052V86H41.0216V82.172C41.0216 81.164 40.4336 80.456 39.5936 80.456C38.6096 80.456 37.9136 81.116 37.9136 82.052V86H37.0136V79.796H37.9136V80.708C38.2256 80.06 38.8976 79.652 39.7136 79.652C40.6496 79.652 41.3816 80.168 41.7176 80.972C41.9696 80.168 42.7856 79.652 43.7216 79.652ZM50.5439 85.34C51.2759 85.34 52.1159 85.016 52.4999 84.596L53.0519 85.184C52.5119 85.772 51.4199 86.144 50.5559 86.144C48.8999 86.144 47.4119 84.788 47.4119 82.88C47.4119 81.032 48.8039 79.652 50.4719 79.652C52.3439 79.652 53.4119 81.068 53.4119 83.24H48.3359C48.4679 84.452 49.3199 85.34 50.5439 85.34ZM50.5079 80.456C49.4039 80.456 48.5159 81.236 48.3479 82.436H52.5239C52.4039 81.32 51.7439 80.456 50.5079 80.456ZM65.1091 77.756H66.1291L62.4931 86H61.4731L57.8371 77.756H58.8571L61.9891 84.848L65.1091 77.756ZM69.5804 79.652C71.2724 79.652 72.1004 80.72 72.1004 82.22V86H71.2004V85.028C70.7564 85.76 69.8324 86.144 69.0164 86.144C67.7084 86.144 66.7484 85.388 66.7484 84.164C66.7484 82.928 67.8524 82.1 69.1844 82.1C69.8564 82.1 70.5644 82.244 71.2004 82.448V82.22C71.2004 81.38 70.8644 80.42 69.5204 80.42C68.8964 80.42 68.2724 80.696 67.7084 80.984L67.3484 80.252C68.2364 79.808 68.9804 79.652 69.5804 79.652ZM69.1724 85.352C69.9884 85.352 70.9604 84.932 71.2004 84.056V83.108C70.6364 82.952 70.0004 82.856 69.3284 82.856C68.4044 82.856 67.6244 83.384 67.6244 84.128C67.6244 84.896 68.2964 85.352 69.1724 85.352ZM73.9393 86V77.612H74.8393V86H73.9393ZM81.0261 79.796H81.9261V86H81.0261V85.004C80.6661 85.664 79.8621 86.144 78.9861 86.144C77.6181 86.144 76.6581 85.148 76.6581 83.744V79.796H77.5581V83.624C77.5581 84.632 78.1941 85.34 79.1061 85.34C80.1501 85.34 81.0261 84.608 81.0261 83.744V79.796ZM86.5557 85.34C87.2877 85.34 88.1277 85.016 88.5117 84.596L89.0637 85.184C88.5237 85.772 87.4317 86.144 86.5677 86.144C84.9117 86.144 83.4237 84.788 83.4237 82.88C83.4237 81.032 84.8157 79.652 86.4837 79.652C88.3557 79.652 89.4237 81.068 89.4237 83.24H84.3477C84.4797 84.452 85.3317 85.34 86.5557 85.34ZM86.5197 80.456C85.4157 80.456 84.5277 81.236 84.3597 82.436H88.5357C88.4157 81.32 87.7557 80.456 86.5197 80.456ZM12.848 112.144C10.568 112.144 8.624 110.188 8.624 107.872C8.624 105.556 10.568 103.612 12.848 103.612C15.14 103.612 17.06 105.556 17.06 107.872C17.06 110.188 15.14 112.144 12.848 112.144ZM12.848 111.28C14.624 111.28 16.112 109.72 16.112 107.872C16.112 106.036 14.624 104.476 12.848 104.476C11.072 104.476 9.572 106.036 9.572 107.872C9.572 109.72 11.072 111.28 12.848 111.28ZM21.8317 105.652C23.4637 105.652 24.6877 106.996 24.6877 108.892C24.6877 110.8 23.4637 112.144 21.8317 112.144C20.8357 112.144 20.0437 111.652 19.5757 110.836V114.064H18.6757V105.796H19.5757V106.96C20.0437 106.144 20.8357 105.652 21.8317 105.652ZM21.6637 111.34C22.8757 111.34 23.7397 110.32 23.7397 108.892C23.7397 107.464 22.8757 106.456 21.6637 106.456C20.4397 106.456 19.5757 107.464 19.5757 108.892C19.5757 110.32 20.4397 111.34 21.6637 111.34ZM29.04 111.34C29.772 111.34 30.612 111.016 30.996 110.596L31.548 111.184C31.008 111.772 29.916 112.144 29.052 112.144C27.396 112.144 25.908 110.788 25.908 108.88C25.908 107.032 27.3 105.652 28.968 105.652C30.84 105.652 31.908 107.068 31.908 109.24H26.832C26.964 110.452 27.816 111.34 29.04 111.34ZM29.004 106.456C27.9 106.456 27.012 107.236 26.844 108.436H31.02C30.9 107.32 30.24 106.456 29.004 106.456ZM36.3328 105.652C37.7008 105.652 38.6608 106.648 38.6608 108.052V112H37.7608V108.172C37.7608 107.164 37.1248 106.456 36.2128 106.456C35.1688 106.456 34.2928 107.188 34.2928 108.052V112H33.3928V105.796H34.2928V106.792C34.6528 106.132 35.4568 105.652 36.3328 105.652ZM44.1788 112V103.756H46.9628C49.5788 103.756 51.4268 105.46 51.4268 107.872C51.4268 110.284 49.5788 112 46.9628 112H44.1788ZM45.1148 111.148H46.9628C49.0268 111.148 50.4788 109.792 50.4788 107.872C50.4788 105.964 49.0268 104.608 46.9628 104.608H45.1148V111.148ZM55.6234 105.652C57.3154 105.652 58.1434 106.72 58.1434 108.22V112H57.2434V111.028C56.7994 111.76 55.8754 112.144 55.0594 112.144C53.7514 112.144 52.7914 111.388 52.7914 110.164C52.7914 108.928 53.8954 108.1 55.2274 108.1C55.8994 108.1 56.6074 108.244 57.2434 108.448V108.22C57.2434 107.38 56.9074 106.42 55.5634 106.42C54.9394 106.42 54.3154 106.696 53.7514 106.984L53.3914 106.252C54.2794 105.808 55.0234 105.652 55.6234 105.652ZM55.2154 111.352C56.0314 111.352 57.0034 110.932 57.2434 110.056V109.108C56.6794 108.952 56.0434 108.856 55.3714 108.856C54.4474 108.856 53.6674 109.384 53.6674 110.128C53.6674 110.896 54.3394 111.352 55.2154 111.352ZM62.7063 111.088L63.1503 111.748C62.8263 112 62.4183 112.144 61.9983 112.144C61.1103 112.144 60.4863 111.484 60.4863 110.56V106.6H59.5143V105.796H60.4863V104.092H61.3863V105.796H62.9103V106.6H61.3863V110.56C61.3863 111.016 61.6983 111.34 62.0583 111.34C62.3343 111.34 62.5743 111.232 62.7063 111.088ZM67.2197 111.34C67.9517 111.34 68.7917 111.016 69.1757 110.596L69.7277 111.184C69.1877 111.772 68.0957 112.144 67.2317 112.144C65.5757 112.144 64.0877 110.788 64.0877 108.88C64.0877 107.032 65.4797 105.652 67.1477 105.652C69.0197 105.652 70.0877 107.068 70.0877 109.24H65.0117C65.1437 110.452 65.9957 111.34 67.2197 111.34ZM67.1837 106.456C66.0797 106.456 65.1917 107.236 65.0237 108.436H69.1997C69.0797 107.32 68.4197 106.456 67.1837 106.456ZM12.848 138.144C10.568 138.144 8.624 136.188 8.624 133.872C8.624 131.556 10.568 129.612 12.848 129.612C13.988 129.612 15.044 130.092 15.812 130.872L15.176 131.52C14.576 130.884 13.748 130.476 12.848 130.476C11.072 130.476 9.572 132.036 9.572 133.872C9.572 135.72 11.072 137.28 12.848 137.28C13.748 137.28 14.576 136.872 15.176 136.236L15.812 136.884C15.044 137.652 13.988 138.144 12.848 138.144ZM17.0683 138V129.612H17.9683V138H17.0683ZM22.667 138.144C20.927 138.144 19.451 136.656 19.451 134.892C19.451 133.128 20.927 131.652 22.667 131.652C24.407 131.652 25.871 133.128 25.871 134.892C25.871 136.656 24.407 138.144 22.667 138.144ZM22.667 137.34C23.891 137.34 24.923 136.224 24.923 134.892C24.923 133.572 23.891 132.456 22.667 132.456C21.431 132.456 20.399 133.572 20.399 134.892C20.399 136.224 21.431 137.34 22.667 137.34ZM29.5533 138.144C28.6893 138.144 27.7293 137.82 26.9853 137.22L27.4533 136.56C28.1613 137.076 28.8693 137.34 29.5533 137.34C30.3693 137.34 30.9213 136.956 30.9213 136.368C30.9213 135.696 30.2013 135.48 29.3613 135.24C27.8613 134.808 27.2853 134.364 27.2853 133.476C27.2853 132.348 28.2213 131.652 29.4573 131.652C30.2253 131.652 31.0173 131.916 31.6773 132.348L31.2453 133.044C30.6213 132.648 30.0093 132.456 29.4573 132.456C28.7613 132.456 28.1853 132.768 28.1853 133.368C28.1853 133.908 28.6413 134.076 29.7933 134.448C30.7893 134.76 31.8213 135.096 31.8213 136.272C31.8213 137.412 30.8373 138.144 29.5533 138.144ZM37.6784 131.796H38.5784V138H37.6784V137.004C37.3184 137.664 36.5144 138.144 35.6384 138.144C34.2704 138.144 33.3104 137.148 33.3104 135.744V131.796H34.2104V135.624C34.2104 136.632 34.8464 137.34 35.7584 137.34C36.8024 137.34 37.6784 136.608 37.6784 135.744V131.796ZM41.396 133.008C41.768 132.18 42.656 131.652 43.796 131.652V132.456C42.392 132.456 41.396 133.32 41.396 134.532V138H40.496V131.796H41.396V133.008ZM47.8369 137.34C48.5689 137.34 49.4089 137.016 49.7929 136.596L50.3449 137.184C49.8049 137.772 48.7129 138.144 47.8489 138.144C46.1929 138.144 44.7049 136.788 44.7049 134.88C44.7049 133.032 46.0969 131.652 47.7649 131.652C49.6369 131.652 50.7049 133.068 50.7049 135.24H45.6289C45.7609 136.452 46.6129 137.34 47.8369 137.34ZM47.8009 132.456C46.6969 132.456 45.8089 133.236 45.6409 134.436H49.8169C49.6969 133.32 49.0369 132.456 47.8009 132.456ZM55.8741 138V129.756H58.6581C61.2741 129.756 63.1221 131.46 63.1221 133.872C63.1221 136.284 61.2741 138 58.6581 138H55.8741ZM56.8101 137.148H58.6581C60.7221 137.148 62.1741 135.792 62.1741 133.872C62.1741 131.964 60.7221 130.608 58.6581 130.608H56.8101V137.148ZM67.3187 131.652C69.0107 131.652 69.8387 132.72 69.8387 134.22V138H68.9387V137.028C68.4947 137.76 67.5707 138.144 66.7547 138.144C65.4467 138.144 64.4867 137.388 64.4867 136.164C64.4867 134.928 65.5907 134.1 66.9227 134.1C67.5947 134.1 68.3027 134.244 68.9387 134.448V134.22C68.9387 133.38 68.6027 132.42 67.2587 132.42C66.6347 132.42 66.0107 132.696 65.4467 132.984L65.0867 132.252C65.9747 131.808 66.7187 131.652 67.3187 131.652ZM66.9107 137.352C67.7267 137.352 68.6987 136.932 68.9387 136.056V135.108C68.3747 134.952 67.7387 134.856 67.0667 134.856C66.1427 134.856 65.3627 135.384 65.3627 136.128C65.3627 136.896 66.0347 137.352 66.9107 137.352ZM74.4016 137.088L74.8456 137.748C74.5216 138 74.1136 138.144 73.6936 138.144C72.8056 138.144 72.1816 137.484 72.1816 136.56V132.6H71.2096V131.796H72.1816V130.092H73.0816V131.796H74.6056V132.6H73.0816V136.56C73.0816 137.016 73.3936 137.34 73.7536 137.34C74.0296 137.34 74.2696 137.232 74.4016 137.088ZM78.915 137.34C79.647 137.34 80.487 137.016 80.871 136.596L81.423 137.184C80.883 137.772 79.791 138.144 78.927 138.144C77.271 138.144 75.783 136.788 75.783 134.88C75.783 133.032 77.175 131.652 78.843 131.652C80.715 131.652 81.783 133.068 81.783 135.24H76.707C76.839 136.452 77.691 137.34 78.915 137.34ZM78.879 132.456C77.775 132.456 76.887 133.236 76.719 134.436H80.895C80.775 133.32 80.115 132.456 78.879 132.456ZM9.128 164V155.756H11.912C14.528 155.756 16.376 157.46 16.376 159.872C16.376 162.284 14.528 164 11.912 164H9.128ZM10.064 163.148H11.912C13.976 163.148 15.428 161.792 15.428 159.872C15.428 157.964 13.976 156.608 11.912 156.608H10.064V163.148ZM20.5726 157.652C22.2646 157.652 23.0926 158.72 23.0926 160.22V164H22.1926V163.028C21.7486 163.76 20.8246 164.144 20.0086 164.144C18.7006 164.144 17.7406 163.388 17.7406 162.164C17.7406 160.928 18.8446 160.1 20.1766 160.1C20.8486 160.1 21.5566 160.244 22.1926 160.448V160.22C22.1926 159.38 21.8566 158.42 20.5126 158.42C19.8886 158.42 19.2646 158.696 18.7006 158.984L18.3406 158.252C19.2286 157.808 19.9726 157.652 20.5726 157.652ZM20.1646 163.352C20.9806 163.352 21.9526 162.932 22.1926 162.056V161.108C21.6286 160.952 20.9926 160.856 20.3206 160.856C19.3966 160.856 18.6166 161.384 18.6166 162.128C18.6166 162.896 19.2886 163.352 20.1646 163.352ZM25.8555 166.16C25.4955 166.16 25.1595 166.088 24.8715 165.956L25.0875 165.188C25.3035 165.296 25.5555 165.344 25.8195 165.344C26.2155 165.344 26.4795 165.212 26.7195 164.792L27.0795 164.024L24.3795 157.796H25.3755L27.5475 162.956L29.5995 157.796H30.5715L27.7395 164.696C27.3075 165.752 26.7075 166.148 25.8555 166.16ZM34.2408 164.144C33.3768 164.144 32.4168 163.82 31.6728 163.22L32.1408 162.56C32.8488 163.076 33.5568 163.34 34.2408 163.34C35.0568 163.34 35.6088 162.956 35.6088 162.368C35.6088 161.696 34.8888 161.48 34.0488 161.24C32.5488 160.808 31.9728 160.364 31.9728 159.476C31.9728 158.348 32.9088 157.652 34.1448 157.652C34.9128 157.652 35.7048 157.916 36.3648 158.348L35.9328 159.044C35.3088 158.648 34.6968 158.456 34.1448 158.456C33.4488 158.456 32.8728 158.768 32.8728 159.368C32.8728 159.908 33.3288 160.076 34.4808 160.448C35.4768 160.76 36.5088 161.096 36.5088 162.272C36.5088 163.412 35.5248 164.144 34.2408 164.144ZM9.128 190V181.756H12.908C14.24 181.756 15.176 182.608 15.176 183.808C15.176 184.684 14.744 185.188 14 185.62C14.948 186.1 15.5 186.844 15.5 187.744C15.5 189.064 14.48 190 13.052 190H9.128ZM10.064 185.248H12.668C13.58 185.248 14.228 184.696 14.228 183.928C14.228 183.16 13.58 182.608 12.668 182.608H10.064V185.248ZM10.064 189.148H12.812C13.832 189.148 14.552 188.512 14.552 187.624C14.552 186.736 13.832 186.1 12.812 186.1H10.064V189.148ZM19.8877 189.34C20.6197 189.34 21.4597 189.016 21.8437 188.596L22.3957 189.184C21.8557 189.772 20.7637 190.144 19.8997 190.144C18.2437 190.144 16.7557 188.788 16.7557 186.88C16.7557 185.032 18.1477 183.652 19.8157 183.652C21.6877 183.652 22.7557 185.068 22.7557 187.24H17.6797C17.8117 188.452 18.6637 189.34 19.8877 189.34ZM19.8517 184.456C18.7477 184.456 17.8597 185.236 17.6917 186.436H21.8677C21.7477 185.32 21.0877 184.456 19.8517 184.456ZM27.1804 183.652C28.5484 183.652 29.5084 184.648 29.5084 186.052V190H28.6084V186.172C28.6084 185.164 27.9724 184.456 27.0604 184.456C26.0164 184.456 25.1404 185.188 25.1404 186.052V190H24.2404V183.796H25.1404V184.792C25.5004 184.132 26.3044 183.652 27.1804 183.652ZM34.126 189.34C34.858 189.34 35.698 189.016 36.082 188.596L36.634 189.184C36.094 189.772 35.002 190.144 34.138 190.144C32.482 190.144 30.994 188.788 30.994 186.88C30.994 185.032 32.386 183.652 34.054 183.652C35.926 183.652 36.994 185.068 36.994 187.24H31.918C32.05 188.452 32.902 189.34 34.126 189.34ZM34.09 184.456C32.986 184.456 32.098 185.236 31.93 186.436H36.106C35.986 185.32 35.326 184.456 34.09 184.456ZM39.8707 182.944V183.796H41.3947V184.6H39.8707V190H38.9707V184.6H37.9987V183.796H38.9707V182.944C38.9707 182.02 39.5947 181.36 40.4827 181.36C40.9027 181.36 41.3107 181.504 41.6347 181.756L41.1907 182.416C41.0587 182.272 40.8187 182.164 40.5427 182.164C40.1827 182.164 39.8707 182.488 39.8707 182.944ZM43.1177 182.668C42.7817 182.668 42.5177 182.392 42.5177 182.068C42.5177 181.756 42.7817 181.48 43.1177 181.48C43.4417 181.48 43.7057 181.756 43.7057 182.068C43.7057 182.392 43.4417 182.668 43.1177 182.668ZM42.6617 190V183.796H43.5617V190H42.6617ZM48.093 189.088L48.537 189.748C48.213 190 47.805 190.144 47.385 190.144C46.497 190.144 45.873 189.484 45.873 188.56V184.6H44.901V183.796H45.873V182.092H46.773V183.796H48.297V184.6H46.773V188.56C46.773 189.016 47.085 189.34 47.445 189.34C47.721 189.34 47.961 189.232 48.093 189.088ZM55.6309 192.04C54.0229 190.696 53.1229 188.884 53.1229 186.82C53.1229 184.744 54.0229 182.944 55.6309 181.6L56.1109 182.104C54.8029 183.448 54.0829 184.852 54.0829 186.82C54.0829 188.776 54.8029 190.192 56.1109 191.524L55.6309 192.04ZM64.324 181.756H65.344L61.708 190H60.688L57.052 181.756H58.072L61.204 188.848L64.324 181.756ZM72.3162 190L71.4882 188.128H66.8922L66.0642 190H65.0442L68.6802 181.756H69.7002L73.3362 190H72.3162ZM67.2762 187.24H71.1042L69.1962 182.908L67.2762 187.24ZM74.7508 192.04L74.2708 191.524C75.5788 190.192 76.2988 188.776 76.2988 186.82C76.2988 184.852 75.5788 183.448 74.2708 182.104L74.7508 181.6C76.3588 182.944 77.2588 184.744 77.2588 186.82C77.2588 188.884 76.3588 190.696 74.7508 192.04Z" fill="#2D2D2D"/>
<path d="M14.876 207.756H16.856L13.496 216H11.516L8.156 207.756H10.148L12.512 213.564L14.876 207.756ZM22.8328 216L22.3047 214.704H18.6328L18.1048 216H16.1248L19.4848 207.756H21.4648L24.8248 216H22.8328ZM19.2448 213.204H21.6928L20.4688 210.192L19.2448 213.204ZM29.22 216V207.756H33.396C34.872 207.756 35.892 208.62 35.892 209.82C35.892 210.66 35.472 211.272 34.74 211.656C35.7 212.088 36.252 212.856 36.252 213.768C36.252 215.088 35.124 216 33.552 216H29.22ZM30.984 211.08H32.952C33.612 211.08 34.08 210.696 34.08 210.168C34.08 209.652 33.612 209.268 32.952 209.268H30.984V211.08ZM30.984 214.488H33.228C33.936 214.488 34.44 214.068 34.44 213.48C34.44 212.892 33.936 212.472 33.228 212.472H30.984V214.488ZM40.4187 214.596C40.9107 214.596 41.5107 214.368 41.8467 214.044L42.9627 215.184C42.4107 215.76 41.3427 216.144 40.4307 216.144C38.5827 216.144 37.1427 214.788 37.1427 212.88C37.1427 211.008 38.5227 209.652 40.3347 209.652C42.2787 209.652 43.4187 211.128 43.4187 213.468H38.9427C39.1467 214.14 39.6867 214.596 40.4187 214.596ZM40.4067 211.2C39.7467 211.2 39.1947 211.584 38.9667 212.208H41.7387C41.5707 211.596 41.1147 211.2 40.4067 211.2ZM48.1919 209.652C49.5359 209.652 50.4959 210.648 50.4959 212.052V216H48.8039V212.424C48.8039 211.656 48.3239 211.128 47.6279 211.128C46.8959 211.128 46.3319 211.656 46.3319 212.328L46.3199 212.292V216H44.5679V209.796H46.3199V210.576C46.6919 210.012 47.3879 209.652 48.1919 209.652ZM54.903 214.596C55.395 214.596 55.995 214.368 56.331 214.044L57.447 215.184C56.895 215.76 55.827 216.144 54.915 216.144C53.067 216.144 51.627 214.788 51.627 212.88C51.627 211.008 53.007 209.652 54.819 209.652C56.763 209.652 57.903 211.128 57.903 213.468H53.427C53.631 214.14 54.171 214.596 54.903 214.596ZM54.891 211.2C54.231 211.2 53.679 211.584 53.451 212.208H56.223C56.055 211.596 55.599 211.2 54.891 211.2ZM61.1643 209.46V209.796H62.5083V211.212H61.1643V216H59.4843V211.212H58.6323V209.796H59.4843V209.256C59.4843 208.14 60.2523 207.36 61.3443 207.36C61.8483 207.36 62.4123 207.576 62.7723 207.9L62.3523 208.968C62.2323 208.848 61.9923 208.764 61.7523 208.764C61.4283 208.764 61.1643 209.052 61.1643 209.46ZM64.5112 208.944C63.9712 208.944 63.5512 208.512 63.5512 207.984C63.5512 207.492 63.9712 207.048 64.5112 207.048C65.0272 207.048 65.4472 207.492 65.4472 207.984C65.4472 208.512 65.0272 208.944 64.5112 208.944ZM63.6232 216V209.796H65.3752V216H63.6232ZM70.1687 214.464L70.5887 215.604C70.2287 215.928 69.6647 216.144 69.1607 216.144C68.0687 216.144 67.3007 215.364 67.3007 214.248V211.212H66.4487V209.796H67.3007V208.092H68.9807V209.796H70.3247V211.212H68.9807V213.972C68.9807 214.38 69.2447 214.668 69.5687 214.668C69.8087 214.668 70.0487 214.584 70.1687 214.464ZM8.888 232V223.756H10.652L13.208 228.412L15.752 223.756H17.528V232H15.752V226.864L13.208 231.52L10.652 226.864V232H8.888ZM21.9463 225.652C23.5663 225.652 24.6703 226.672 24.6703 228.292V232H22.9783V231.376C22.5343 231.88 21.8263 232.144 21.1543 232.144C19.8343 232.144 18.8143 231.352 18.8143 230.164C18.8143 228.94 19.9543 228.1 21.3943 228.1C21.8983 228.1 22.4503 228.208 22.9783 228.412V228.292C22.9783 227.632 22.5703 227.056 21.5503 227.056C20.9743 227.056 20.4343 227.248 19.9423 227.5L19.3543 226.336C20.2303 225.892 21.0823 225.652 21.9463 225.652ZM21.5503 230.932C22.2223 230.932 22.8583 230.62 22.9783 230.044V229.468C22.5823 229.324 22.1263 229.24 21.6463 229.24C21.0103 229.24 20.5063 229.612 20.5063 230.116C20.5063 230.62 20.9503 230.932 21.5503 230.932ZM31.9909 232H30.1069L28.7629 230.128L27.4069 232H25.5589L27.8389 228.844L25.6549 225.796H27.5509L28.7869 227.524L30.0349 225.796H31.8829L29.7109 228.808L31.9909 232ZM33.8198 224.944C33.2798 224.944 32.8598 224.512 32.8598 223.984C32.8598 223.492 33.2798 223.048 33.8198 223.048C34.3358 223.048 34.7558 223.492 34.7558 223.984C34.7558 224.512 34.3358 224.944 33.8198 224.944ZM32.9318 232V225.796H34.6838V232H32.9318ZM43.5933 225.652C44.8893 225.652 45.8853 226.648 45.8853 228.052V232.012H44.2053V228.352C44.2053 227.632 43.7493 227.128 43.1013 227.128C42.4053 227.128 41.9013 227.596 41.9013 228.256V232.012H40.2213V228.352C40.2213 227.632 39.7653 227.128 39.1293 227.128C38.4213 227.128 37.9293 227.596 37.9293 228.256V232H36.1773V225.796H37.9293V226.612C38.2293 226.024 38.8413 225.652 39.6093 225.652C40.4613 225.652 41.1933 226.084 41.5773 226.78C41.9013 226.096 42.6693 225.652 43.5933 225.652ZM51.4738 225.796H53.2258V232H51.4738V231.22C51.1018 231.784 50.4058 232.144 49.6018 232.144C48.2578 232.144 47.2978 231.148 47.2978 229.744V225.796H48.9898V229.372C48.9898 230.14 49.4698 230.668 50.1658 230.668C50.8978 230.668 51.4618 230.14 51.4618 229.468L51.4738 229.504V225.796ZM62.1089 225.652C63.4049 225.652 64.4009 226.648 64.4009 228.052V232.012H62.7209V228.352C62.7209 227.632 62.2649 227.128 61.6169 227.128C60.9209 227.128 60.4169 227.596 60.4169 228.256V232.012H58.7369V228.352C58.7369 227.632 58.2809 227.128 57.6449 227.128C56.9369 227.128 56.4449 227.596 56.4449 228.256V232H54.6929V225.796H56.4449V226.612C56.7449 226.024 57.3569 225.652 58.1249 225.652C58.9769 225.652 59.7089 226.084 60.0929 226.78C60.4169 226.096 61.1849 225.652 62.1089 225.652Z" fill="#9F212C"/>
<path d="M0 12C0 5.37258 5.37258 0 12 0H500C506.627 0 512 5.37258 512 12V38H0V12Z" fill="#9F212C"/>
<path d="M182.468 22.9453V13.3273H184.218L187.382 19.1933L190.56 13.3273H192.296V22.9453H190.56V16.5193L187.382 22.3853L184.218 16.5193V22.9453H182.468ZM201.75 22.9453L201.022 21.2093H196.374L195.646 22.9453H193.7L197.718 13.3273H199.664L203.682 22.9453H201.75ZM197.004 19.6973H200.392L198.698 15.6513L197.004 19.6973ZM206.643 22.9453V14.9233H203.563V13.3273H211.459V14.9233H208.379V22.9453H206.643ZM217.223 23.1133C214.745 23.1133 212.981 21.3493 212.981 18.8433V13.3273H214.731V18.7873C214.731 20.3833 215.767 21.5313 217.223 21.5313C218.693 21.5313 219.729 20.3833 219.729 18.7873V13.3273H221.465V18.8433C221.465 21.3493 219.715 23.1133 217.223 23.1133ZM231.348 22.9453H229.36L227.092 19.7113H225.23V22.9453H223.48V13.3273H227.666C229.724 13.3273 231.264 14.6433 231.264 16.5193C231.264 17.9753 230.326 19.0953 228.94 19.5293L231.348 22.9453ZM225.23 14.9373V18.1013H227.47C228.66 18.1013 229.486 17.4993 229.486 16.5193C229.486 15.5393 228.66 14.9373 227.47 14.9373H225.23ZM232.874 22.9453V13.3273H234.61V22.9453H232.874ZM239.209 22.9453V14.9233H236.129V13.3273H244.025V14.9233H240.945V22.9453H239.209ZM248.445 22.9453V19.3333L244.637 13.3273H246.695L249.341 17.6813L252.029 13.3273H254.017L250.223 19.3333V22.9453H248.445ZM259.208 22.9453V13.3273H263.926C265.592 13.3273 266.768 14.3353 266.768 15.7353C266.768 16.7153 266.264 17.4013 265.41 17.8633C266.516 18.3953 267.174 19.2773 267.174 20.3273C267.174 21.8673 265.9 22.9453 264.108 22.9453H259.208ZM260.944 17.2613H263.506C264.36 17.2613 264.976 16.7573 264.976 16.0573C264.976 15.3433 264.36 14.8393 263.506 14.8393H260.944V17.2613ZM260.944 21.4333H263.758C264.71 21.4333 265.382 20.8593 265.382 20.0613C265.382 19.2633 264.71 18.6893 263.758 18.6893H260.944V21.4333ZM276.041 14.9233H270.553V17.2473H275.523V18.8433H270.553V21.3493H276.041V22.9453H268.803V13.3273H276.041V14.9233ZM277.843 22.9453V13.3273H279.593L284.675 20.0893V13.3273H286.411V22.9453H284.675L279.593 16.1833V22.9453H277.843ZM295.769 14.9233H290.281V17.2473H295.251V18.8433H290.281V21.3493H295.769V22.9453H288.531V13.3273H295.769V14.9233ZM304.683 14.9233H299.195V17.3593H304.165V18.9553H299.195V22.9453H297.445V13.3273H304.683V14.9233ZM306.237 22.9453V13.3273H307.973V22.9453H306.237ZM312.572 22.9453V14.9233H309.492V13.3273H317.388V14.9233H314.308V22.9453H312.572ZM322.439 23.0993C320.787 23.0993 319.387 22.5393 318.323 21.5453L319.331 20.2993C320.213 21.0973 321.235 21.6013 322.495 21.6013C323.685 21.6013 324.301 21.0133 324.301 20.3273C324.301 19.5293 323.615 19.2633 322.075 18.8993C320.087 18.4373 318.701 17.8633 318.701 16.0573C318.701 14.3773 320.129 13.1453 322.159 13.1453C323.685 13.1453 324.833 13.6633 325.799 14.4893L324.847 15.7773C324.007 15.0493 323.041 14.6433 322.089 14.6433C321.123 14.6433 320.465 15.2313 320.465 15.9033C320.465 16.6873 321.179 16.9673 322.705 17.3173C324.707 17.7653 326.051 18.4093 326.051 20.1593C326.051 21.8813 324.735 23.0993 322.439 23.0993Z" fill="#F7C676"/>
</svg>
