<svg width="18" height="18" viewBox="0 0 18 18" fill="none" xmlns="http://www.w3.org/2000/svg">
<path d="M15.3 1.8H14.4V0.9C14.4 0.36 14.04 0 13.5 0C12.96 0 12.6 0.36 12.6 0.9V1.8H5.4V0.9C5.4 0.36 5.04 0 4.5 0C3.96 0 3.6 0.36 3.6 0.9V1.8H2.7C1.17 1.8 0 2.97 0 4.5V15.3C0 16.83 1.17 18 2.7 18H15.3C16.83 18 18 16.83 18 15.3V4.5C18 2.97 16.83 1.8 15.3 1.8ZM2.7 3.6H3.6C3.6 4.14 3.96 4.5 4.5 4.5C5.04 4.5 5.4 4.14 5.4 3.6H12.6C12.6 4.14 12.96 4.5 13.5 4.5C14.04 4.5 14.4 4.14 14.4 3.6H15.3C15.84 3.6 16.2 3.96 16.2 4.5V5.4H1.8V4.5C1.8 3.96 2.16 3.6 2.7 3.6ZM15.3 16.2H2.7C2.16 16.2 1.8 15.84 1.8 15.3V7.2H16.2V15.3C16.2 15.84 15.84 16.2 15.3 16.2ZM5.85 9C5.85 9.54 5.49 9.9 4.95 9.9H4.05C3.51 9.9 3.15 9.54 3.15 9C3.15 8.46 3.51 8.1 4.05 8.1H4.95C5.49 8.1 5.85 8.46 5.85 9ZM10.35 9C10.35 9.54 9.99 9.9 9.45 9.9H8.55C8.01 9.9 7.65 9.54 7.65 9C7.65 8.46 8.01 8.1 8.55 8.1H9.45C9.99 8.1 10.35 8.46 10.35 9ZM14.85 9C14.85 9.54 14.49 9.9 13.95 9.9H13.05C12.51 9.9 12.15 9.54 12.15 9C12.15 8.46 12.51 8.1 13.05 8.1H13.95C14.49 8.1 14.85 8.46 14.85 9ZM5.85 14.4C5.85 14.94 5.49 15.3 4.95 15.3H4.05C3.51 15.3 3.15 14.94 3.15 14.4C3.15 13.86 3.51 13.5 4.05 13.5H4.95C5.49 13.5 5.85 13.86 5.85 14.4ZM5.85 11.7C5.85 12.24 5.49 12.6 4.95 12.6H4.05C3.51 12.6 3.15 12.24 3.15 11.7C3.15 11.16 3.51 10.8 4.05 10.8H4.95C5.49 10.8 5.85 11.16 5.85 11.7ZM10.35 14.4C10.35 14.94 9.99 15.3 9.45 15.3H8.55C8.01 15.3 7.65 14.94 7.65 14.4C7.65 13.86 8.01 13.5 8.55 13.5H9.45C9.99 13.5 10.35 13.86 10.35 14.4ZM14.85 14.4C14.85 14.94 14.49 15.3 13.95 15.3H13.05C12.51 15.3 12.15 14.94 12.15 14.4C12.15 13.86 12.51 13.5 13.05 13.5H13.95C14.49 13.5 14.85 13.86 14.85 14.4ZM14.85 11.7C14.85 12.24 14.49 12.6 13.95 12.6H13.05C12.51 12.6 12.15 12.24 12.15 11.7C12.15 11.16 12.51 10.8 13.05 10.8H13.95C14.49 10.8 14.85 11.16 14.85 11.7ZM10.35 11.7C10.35 12.24 9.99 12.6 9.45 12.6H8.55C8.01 12.6 7.65 12.24 7.65 11.7C7.65 11.16 8.01 10.8 8.55 10.8H9.45C9.99 10.8 10.35 11.16 10.35 11.7Z" fill="#8D8D8D"/>
</svg>
