<svg width="29" height="29" viewBox="0 0 29 29" fill="none" xmlns="http://www.w3.org/2000/svg">
<circle cx="14.5" cy="14.5" r="14.5" fill="white"/>
<path d="M20.235 8.55706H19.4565V7.77853C19.4565 7.31141 19.1451 7 18.678 7C18.2108 7 17.8994 7.31141 17.8994 7.77853V8.55706H11.6712V7.77853C11.6712 7.31141 11.3598 7 10.8927 7C10.4255 7 10.1141 7.31141 10.1141 7.77853V8.55706H9.33559C8.01209 8.55706 7 9.56915 7 10.8927V20.235C7 21.5585 8.01209 22.5706 9.33559 22.5706H20.235C21.5585 22.5706 22.5706 21.5585 22.5706 20.235V10.8927C22.5706 9.56915 21.5585 8.55706 20.235 8.55706ZM9.33559 10.1141H10.1141C10.1141 10.5812 10.4255 10.8927 10.8927 10.8927C11.3598 10.8927 11.6712 10.5812 11.6712 10.1141H17.8994C17.8994 10.5812 18.2108 10.8927 18.678 10.8927C19.1451 10.8927 19.4565 10.5812 19.4565 10.1141H20.235C20.7021 10.1141 21.0136 10.4255 21.0136 10.8927V11.6712H8.55706V10.8927C8.55706 10.4255 8.86847 10.1141 9.33559 10.1141ZM20.235 21.0136H9.33559C8.86847 21.0136 8.55706 20.7021 8.55706 20.235V13.2282H21.0136V20.235C21.0136 20.7021 20.7021 21.0136 20.235 21.0136ZM12.0604 14.7853C12.0604 15.2524 11.749 15.5638 11.2819 15.5638H10.5034C10.0363 15.5638 9.72486 15.2524 9.72486 14.7853C9.72486 14.3182 10.0363 14.0068 10.5034 14.0068H11.2819C11.749 14.0068 12.0604 14.3182 12.0604 14.7853ZM15.9531 14.7853C15.9531 15.2524 15.6417 15.5638 15.1746 15.5638H14.396C13.9289 15.5638 13.6175 15.2524 13.6175 14.7853C13.6175 14.3182 13.9289 14.0068 14.396 14.0068H15.1746C15.6417 14.0068 15.9531 14.3182 15.9531 14.7853ZM19.8458 14.7853C19.8458 15.2524 19.5343 15.5638 19.0672 15.5638H18.2887C17.8216 15.5638 17.5102 15.2524 17.5102 14.7853C17.5102 14.3182 17.8216 14.0068 18.2887 14.0068H19.0672C19.5343 14.0068 19.8458 14.3182 19.8458 14.7853ZM12.0604 19.4565C12.0604 19.9236 11.749 20.235 11.2819 20.235H10.5034C10.0363 20.235 9.72486 19.9236 9.72486 19.4565C9.72486 18.9894 10.0363 18.678 10.5034 18.678H11.2819C11.749 18.678 12.0604 18.9894 12.0604 19.4565ZM12.0604 17.1209C12.0604 17.588 11.749 17.8994 11.2819 17.8994H10.5034C10.0363 17.8994 9.72486 17.588 9.72486 17.1209C9.72486 16.6538 10.0363 16.3424 10.5034 16.3424H11.2819C11.749 16.3424 12.0604 16.6538 12.0604 17.1209ZM15.9531 19.4565C15.9531 19.9236 15.6417 20.235 15.1746 20.235H14.396C13.9289 20.235 13.6175 19.9236 13.6175 19.4565C13.6175 18.9894 13.9289 18.678 14.396 18.678H15.1746C15.6417 18.678 15.9531 18.9894 15.9531 19.4565ZM19.8458 19.4565C19.8458 19.9236 19.5343 20.235 19.0672 20.235H18.2887C17.8216 20.235 17.5102 19.9236 17.5102 19.4565C17.5102 18.9894 17.8216 18.678 18.2887 18.678H19.0672C19.5343 18.678 19.8458 18.9894 19.8458 19.4565ZM19.8458 17.1209C19.8458 17.588 19.5343 17.8994 19.0672 17.8994H18.2887C17.8216 17.8994 17.5102 17.588 17.5102 17.1209C17.5102 16.6538 17.8216 16.3424 18.2887 16.3424H19.0672C19.5343 16.3424 19.8458 16.6538 19.8458 17.1209ZM15.9531 17.1209C15.9531 17.588 15.6417 17.8994 15.1746 17.8994H14.396C13.9289 17.8994 13.6175 17.588 13.6175 17.1209C13.6175 16.6538 13.9289 16.3424 14.396 16.3424H15.1746C15.6417 16.3424 15.9531 16.6538 15.9531 17.1209Z" fill="#D99A26"/>
</svg>
