<svg width="38" height="38" viewBox="0 0 38 38" fill="none" xmlns="http://www.w3.org/2000/svg">
<circle cx="19" cy="19" r="19" fill="#F4F0F0"/>
<path fill-rule="evenodd" clip-rule="evenodd" d="M19.2303 8C16.7069 8 14.2869 8.6379 12.5026 9.77336C10.7183 10.9088 9.71592 12.4488 9.71592 14.0546V15.7845C9.02773 15.7845 8.36772 16.149 7.8811 16.7978C7.39448 17.4466 7.12109 18.3267 7.12109 19.2442C7.12109 20.1618 7.39448 21.0418 7.8811 21.6907C8.36772 22.3395 9.02773 22.704 9.71592 22.704H11.4458V14.0546C11.4458 12.9076 12.2659 11.8076 13.7258 10.9966C15.1857 10.1855 17.1657 9.72989 19.2303 9.72989C21.2948 9.72989 23.2748 10.1855 24.7347 10.9966C26.1946 11.8076 27.0147 12.9076 27.0147 14.0546V22.704L24.4199 27.8936H26.1505L28.7453 22.704C29.4334 22.7038 30.0932 22.3391 30.5797 21.6903C31.0661 21.0415 31.3394 20.1617 31.3394 19.2442C31.3394 18.3267 31.066 17.4466 30.5794 16.7978C30.0928 16.149 29.4328 15.7845 28.7446 15.7845V14.0546C28.7446 12.4488 27.7422 10.9088 25.9579 9.77336C24.1736 8.6379 21.7536 8 19.2303 8ZM19.16 10.5948C17.337 10.6134 15.595 11.3505 14.3125 12.6462C13.03 13.9419 12.3106 15.6913 12.3107 17.5143C12.3107 19.9263 11.9607 22.2629 11.3208 24.1227C10.6809 25.9825 9.79116 27.2494 8.80435 27.7058C9.82874 28.9533 11.0542 29.6235 12.3107 29.6235C13.5272 29.6234 14.7154 28.9951 15.7205 27.8207C15.7359 27.8411 15.7564 27.8771 15.7705 27.8936C16.2483 28.451 17.9562 29.6234 19.2303 29.6235C20.5043 29.6234 22.2123 28.451 22.69 27.8936C22.7041 27.8771 22.7246 27.8411 22.74 27.8207C23.7452 28.9951 24.9334 29.6234 26.1498 29.6235C27.4064 29.6235 28.6318 28.9533 29.6562 27.7058C28.9556 27.3817 28.2994 26.6468 27.7459 25.5664L26.366 28.3261H23.7712L26.6823 22.5033C26.333 20.9741 26.1498 19.2583 26.1498 17.5143C26.1498 16.6057 25.9708 15.7059 25.6231 14.8664C25.2753 14.0269 24.7656 13.2641 24.1231 12.6215C23.4806 11.979 22.7178 11.4693 21.8783 11.1216C21.0387 10.7738 20.139 10.5948 19.2303 10.5948C19.2068 10.5947 19.1834 10.5947 19.16 10.5948Z" fill="url(#paint0_linear_1218_6863)"/>
<defs>
<linearGradient id="paint0_linear_1218_6863" x1="19.2303" y1="8" x2="19.2303" y2="29.6235" gradientUnits="userSpaceOnUse">
<stop stop-color="#9F212C"/>
<stop offset="1" stop-color="#FFBD38"/>
</linearGradient>
</defs>
</svg>
