<svg width="18" height="18" viewBox="0 0 18 18" fill="none" xmlns="http://www.w3.org/2000/svg">
<path d="M7.19844 9.6C4.55184 9.6 2.39844 7.4466 2.39844 4.8C2.39844 2.1534 4.55184 0 7.19844 0C9.84504 0 11.9984 2.1534 11.9984 4.8C11.9984 7.4466 9.84504 9.6 7.19844 9.6ZM7.19844 1.2C5.21304 1.2 3.59844 2.8146 3.59844 4.8C3.59844 6.7854 5.21304 8.4 7.19844 8.4C9.18384 8.4 10.7984 6.7854 10.7984 4.8C10.7984 2.8146 9.18384 1.2 7.19844 1.2Z" fill="#FF0000"/>
<path d="M13.8 17.9994H0V15.5994C0 11.6292 3.2298 8.39941 7.2 8.39941C9.0726 8.39941 10.842 9.11101 12.183 10.4034L12.7146 10.9158L12.1044 11.3316C11.2872 11.8872 10.8 12.8106 10.8 13.7994C10.8 15.4536 12.1458 16.7994 13.8 16.7994V17.9994ZM1.2 16.7994H10.863C10.0842 16.0368 9.6 14.9736 9.6 13.7994C9.6 12.6714 10.0524 11.6052 10.8372 10.8264C9.801 10.0308 8.532 9.59941 7.2 9.59941C3.8916 9.59941 1.2 12.291 1.2 15.5994V16.7994Z" fill="#FF0000"/>
<path d="M13.8016 18.0006C11.4862 18.0006 9.60156 16.1166 9.60156 13.8006C9.60156 12.414 10.2856 11.121 11.4298 10.3404C12.1216 9.85799 12.9436 9.60059 13.8016 9.60059C16.117 9.60059 18.0016 11.4846 18.0016 13.8006C18.0016 16.1166 16.117 18.0006 13.8016 18.0006ZM13.8016 10.8006C13.1902 10.8006 12.6064 10.983 12.1114 11.3286C11.2888 11.8884 10.8016 12.8118 10.8016 13.8006C10.8016 15.4548 12.1474 16.8006 13.8016 16.8006C15.4558 16.8006 16.8016 15.4548 16.8016 13.8006C16.8016 12.1464 15.4558 10.8006 13.8016 10.8006Z" fill="#FF0000"/>
<path d="M15.4952 12.9519L14.6468 12.1035L13.7984 12.9519L12.95 12.1035L12.1016 12.9519L12.95 13.8003L12.1016 14.6487L12.95 15.4971L13.7984 14.6487L14.6468 15.4971L15.4952 14.6487L14.6468 13.8003L15.4952 12.9519Z" fill="#FF0000"/>
</svg>
