<svg width="38" height="38" viewBox="0 0 38 38" fill="none" xmlns="http://www.w3.org/2000/svg">
<circle cx="19" cy="19" r="19" fill="#F4F0F0"/>
<path d="M19.8899 22.7336L20.9963 21.7321L12.7426 12.6206L11.6369 13.6221L15.7576 18.1717L9 30.9028H17.0175V28.7039H12.3529L16.7158 19.2295L19.8899 22.7336Z" fill="url(#paint0_linear_1847_4510)"/>
<path d="M20.8056 12.0338C19.7147 11.8154 19.0054 10.7421 19.2256 9.63963C19.4475 8.53505 20.515 7.8209 21.6057 8.03927C22.6989 8.25833 23.4047 9.32701 23.1836 10.4321C22.9634 11.5341 21.8984 12.2524 20.8056 12.0338Z" fill="url(#paint1_linear_1847_4510)"/>
<path d="M29.6941 15.9836L25.2892 11.6083C25.0051 11.3055 24.6612 11.1533 24.2557 11.1533C23.8306 11.1533 23.1227 11.4641 22.914 12.1134L21.944 15.5827L21.3901 13.7763C21.215 13.2539 20.6509 12.9709 20.1262 13.1457C19.6024 13.3206 19.3206 13.8863 19.495 14.4094L20.9534 18.7703C21.0898 19.1776 21.4711 19.4522 21.9007 19.4522C21.9021 19.4522 21.9035 19.4522 21.9046 19.4522C22.3354 19.4506 22.717 19.1725 22.8501 18.7628L23.7417 16.0241L26.6564 18.9618V29.2616C26.6564 29.7275 26.819 30.117 27.1427 30.4324C27.4664 30.7455 27.8612 30.9023 28.3272 30.9023C28.7732 30.9023 29.158 30.7453 29.4817 30.4324C29.8052 30.1173 29.9673 29.7275 29.9673 29.2616V16.6526C29.9671 16.3888 29.8766 16.1665 29.6941 15.9836Z" fill="url(#paint2_linear_1847_4510)"/>
<defs>
<linearGradient id="paint0_linear_1847_4510" x1="14.9982" y1="12.6206" x2="14.9982" y2="30.9028" gradientUnits="userSpaceOnUse">
<stop stop-color="#9F212C"/>
<stop offset="1" stop-color="#FFBD38"/>
</linearGradient>
<linearGradient id="paint1_linear_1847_4510" x1="21.2048" y1="8" x2="21.2048" y2="12.073" gradientUnits="userSpaceOnUse">
<stop stop-color="#9F212C"/>
<stop offset="1" stop-color="#FFBD38"/>
</linearGradient>
<linearGradient id="paint2_linear_1847_4510" x1="24.7054" y1="11.1533" x2="24.7054" y2="30.9023" gradientUnits="userSpaceOnUse">
<stop stop-color="#9F212C"/>
<stop offset="1" stop-color="#FFBD38"/>
</linearGradient>
</defs>
</svg>
