<svg width="79" height="14" viewBox="0 0 79 14" fill="none" xmlns="http://www.w3.org/2000/svg">
<path d="M26.3388 2.698H20.6968V5.442H25.7928V6.758H20.6968V9.684H26.3388V11H19.2688V1.382H26.3388V2.698ZM33.6445 1.214H35.0165V11H33.6445V9.74C33.0845 10.636 32.1885 11.168 31.0685 11.168C29.1645 11.168 27.7365 9.6 27.7365 7.374C27.7365 5.162 29.1645 3.594 31.0685 3.594C32.1885 3.594 33.0845 4.126 33.6445 5.008V1.214ZM31.4045 9.964C32.7065 9.964 33.6445 8.886 33.6445 7.374C33.6445 5.862 32.7065 4.798 31.4045 4.798C30.0745 4.798 29.1365 5.862 29.1365 7.374C29.1365 8.886 30.0745 9.964 31.4045 9.964ZM37.7819 2.558C37.3059 2.558 36.9419 2.166 36.9419 1.718C36.9419 1.284 37.3059 0.891999 37.7819 0.891999C38.2299 0.891999 38.6079 1.284 38.6079 1.718C38.6079 2.166 38.2299 2.558 37.7819 2.558ZM37.0819 11V3.762H38.4679V11H37.0819ZM43.8608 9.698L44.3648 10.65C43.9728 10.972 43.4408 11.168 42.9228 11.168C41.8028 11.168 41.0188 10.356 41.0188 9.194V4.938H39.9268V3.762H41.0188V1.774H42.3768V3.762H44.0848V4.938H42.3768V9.096C42.3768 9.6 42.7128 9.964 43.1188 9.964C43.4268 9.964 43.7068 9.852 43.8608 9.698ZM49.9794 11V1.382H51.3934V6.394L55.9294 1.382H57.7354L53.7874 5.708L58.0014 11H56.2234L52.7934 6.688L51.3934 8.186V11H49.9794ZM62.2273 11V7.234L58.3773 1.382H60.0853L62.9553 5.89L65.8673 1.382H67.5053L63.6833 7.234V11H62.2273ZM73.3673 11.168C70.6653 11.168 68.3693 8.886 68.3693 6.184C68.3693 3.482 70.6653 1.214 73.3673 1.214C74.7393 1.214 75.9993 1.788 76.9093 2.726L75.9153 3.678C75.2713 2.978 74.3613 2.516 73.3673 2.516C71.4493 2.516 69.8253 4.196 69.8253 6.184C69.8253 8.186 71.4493 9.866 73.3673 9.866C74.3613 9.866 75.2713 9.404 75.9153 8.704L76.9093 9.656C75.9993 10.58 74.7393 11.168 73.3673 11.168Z" fill="#2D2D2D"/>
<path d="M1.42797 8.72578C1.27679 8.87697 1.1928 9.06174 1.176 9.26332L0.90723 12.4885C0.890432 12.7237 1.09201 12.9253 1.32718 12.9085L4.55239 12.6397C4.75397 12.6229 4.95555 12.5389 5.08993 12.3877L10.2637 7.21396L6.61855 3.552L1.42797 8.72578Z" fill="#2D2D2D"/>
<path d="M12.6289 3.97353L9.85207 1.18873C9.60116 0.93709 9.21642 0.93709 8.96551 1.18873L7.71094 2.44692L11.3576 6.10407L12.6121 4.84588C12.8798 4.61101 12.8798 4.20839 12.6289 3.97353Z" fill="#2D2D2D"/>
</svg>
