<svg width="45" height="15" viewBox="0 0 45 15" fill="none" xmlns="http://www.w3.org/2000/svg">
<path d="M26.12 3.698H20.478V6.442H25.574V7.758H20.478V10.684H26.12V12H19.05V2.382H26.12V3.698ZM33.4257 2.214H34.7977V12H33.4257V10.74C32.8657 11.636 31.9697 12.168 30.8497 12.168C28.9457 12.168 27.5177 10.6 27.5177 8.374C27.5177 6.162 28.9457 4.594 30.8497 4.594C31.9697 4.594 32.8657 5.126 33.4257 6.008V2.214ZM31.1857 10.964C32.4877 10.964 33.4257 9.886 33.4257 8.374C33.4257 6.862 32.4877 5.798 31.1857 5.798C29.8557 5.798 28.9177 6.862 28.9177 8.374C28.9177 9.886 29.8557 10.964 31.1857 10.964ZM37.5631 3.558C37.0871 3.558 36.7231 3.166 36.7231 2.718C36.7231 2.284 37.0871 1.892 37.5631 1.892C38.0111 1.892 38.3891 2.284 38.3891 2.718C38.3891 3.166 38.0111 3.558 37.5631 3.558ZM36.8631 12V4.762H38.2491V12H36.8631ZM43.6421 10.698L44.1461 11.65C43.7541 11.972 43.2221 12.168 42.7041 12.168C41.5841 12.168 40.8001 11.356 40.8001 10.194V5.938H39.7081V4.762H40.8001V2.774H42.1581V4.762H43.8661V5.938H42.1581V10.096C42.1581 10.6 42.4941 10.964 42.9001 10.964C43.2081 10.964 43.4881 10.852 43.6421 10.698Z" fill="#2D2D2D"/>
<path d="M0.613296 9.08195C0.435577 9.25967 0.336844 9.47688 0.317097 9.71384L0.0011519 13.5052C-0.0185947 13.7816 0.218364 14.0186 0.494817 13.9988L4.28616 13.6829C4.52312 13.6632 4.76008 13.5644 4.91805 13.3867L11 7.30476L6.71499 3L0.613296 9.08195Z" fill="#2D2D2D"/>
<path d="M13.7812 3.49548L10.517 0.221857C10.222 -0.0739523 9.76975 -0.0739523 9.47479 0.221857L8 1.7009L12.2867 6L13.7615 4.52095C14.0761 4.24486 14.0761 3.77157 13.7812 3.49548Z" fill="#2D2D2D"/>
</svg>
