<svg width="38" height="38" viewBox="0 0 38 38" fill="none" xmlns="http://www.w3.org/2000/svg">
<circle cx="19" cy="19" r="19" fill="#F4F0F0"/>
<path fill-rule="evenodd" clip-rule="evenodd" d="M29.2863 15.5714H8.71484V25.2857C8.71484 26.232 9.48284 27 10.4291 27H27.572C28.5183 27 29.2863 26.232 29.2863 25.2857V15.5714ZM25.8577 23.5714H23.0006C22.6851 23.5714 22.4291 23.8274 22.4291 24.1429C22.4291 24.4583 22.6851 24.7143 23.0006 24.7143H25.8577C26.1731 24.7143 26.4291 24.4583 26.4291 24.1429C26.4291 23.8274 26.1731 23.5714 25.8577 23.5714ZM8.71484 14.4286H29.2863V12.7143C29.2863 11.768 28.5183 11 27.572 11H10.4291C9.48284 11 8.71484 11.768 8.71484 12.7143V14.4286Z" fill="url(#paint0_linear_1218_6873)"/>
<defs>
<linearGradient id="paint0_linear_1218_6873" x1="18.5005" y1="9.5" x2="18.5005" y2="30" gradientUnits="userSpaceOnUse">
<stop stop-color="#9F212C"/>
<stop offset="1" stop-color="#EEB64F"/>
</linearGradient>
</defs>
</svg>
