<svg width="28" height="19" viewBox="0 0 28 19" fill="none" xmlns="http://www.w3.org/2000/svg">
<path d="M13.6115 14.9545C14.4781 14.9491 15.3293 14.7249 16.086 14.3026C16.8428 13.8803 17.4806 13.2737 17.9402 12.539C18.3999 11.8044 18.6665 10.9655 18.7152 10.1003C18.764 9.23503 18.5934 8.3715 18.2192 7.58984L11.3906 14.4354C12.0815 14.7758 12.8413 14.9534 13.6115 14.9545Z" fill="#A8A8A8"/>
<path d="M17.2394 6.18589L19.1965 4.2288L20.4729 2.95244L22.0386 1.38251C22.1691 1.2194 22.235 1.01399 22.2238 0.805392C22.2127 0.5968 22.1251 0.399605 21.978 0.251372C21.8308 0.103138 21.6342 0.0142235 21.4257 0.00156482C21.2172 -0.0110939 21.0113 0.0533878 20.8473 0.182727L18.8051 2.22491C17.1434 1.61129 15.386 1.29726 13.6146 1.29742C10.7768 1.30189 7.99711 2.10147 5.59071 3.60547C3.18431 5.10947 1.24752 7.2577 0 9.80651C1.19604 12.2189 3.00693 14.2734 5.25011 15.7629L3.97375 17.0392C3.8895 17.1178 3.82206 17.2125 3.77553 17.3179C3.72899 17.4232 3.70431 17.5369 3.70299 17.652C3.70168 17.7672 3.72374 17.8814 3.76786 17.9878C3.81198 18.0941 3.87723 18.1904 3.95966 18.2709C4.04209 18.3513 4.13999 18.4141 4.24742 18.4556C4.35485 18.4971 4.46957 18.5163 4.58465 18.5121C4.69973 18.5079 4.81277 18.4805 4.91692 18.4313C5.02106 18.3822 5.11415 18.3124 5.19055 18.2263L6.76048 16.6563L8.03684 15.38L9.99393 13.4229L17.2394 6.18589ZM6.47542 14.5418C4.5939 13.3617 3.03305 11.7351 1.93156 9.80651C3.43166 7.16685 5.78207 5.11351 8.59929 3.98152C11.4165 2.84954 14.5342 2.70574 17.4436 3.5736L15.8354 5.18182C15.1446 4.84129 14.3848 4.66372 13.6146 4.66277C12.7503 4.66948 11.9016 4.89388 11.1469 5.31525C10.3923 5.73661 9.75593 6.34135 9.29674 7.0736C8.83754 7.80586 8.57027 8.64203 8.5196 9.50487C8.46894 10.3677 8.63653 11.2294 9.00688 12.0104L6.47542 14.5418Z" fill="#A8A8A8"/>
<path d="M21.9886 3.8418L20.759 5.07136C22.6381 6.2531 24.1972 7.87942 25.2986 9.80667C24.1282 11.873 22.4295 13.5911 20.3767 14.785C18.3238 15.9789 15.9904 16.6057 13.6156 16.6012C12.3191 16.6004 11.0295 16.4126 9.78654 16.0438L8.43359 17.3968C10.0935 18.0051 11.8477 18.3162 13.6156 18.3158C16.4534 18.3113 19.2331 17.5117 21.6395 16.0077C24.0459 14.5037 25.9827 12.3555 27.2302 9.80667C26.0364 7.39307 24.2287 5.33595 21.9886 3.8418Z" fill="#A8A8A8"/>
</svg>
