<svg width="25" height="25" viewBox="0 0 25 25" fill="none" xmlns="http://www.w3.org/2000/svg">
<path fill-rule="evenodd" clip-rule="evenodd" d="M16.5688 13.4051C16.6333 13.1137 16.6673 12.8108 16.6673 12.5C16.6673 10.1989 14.8018 8.33337 12.5007 8.33337C12.1899 8.33337 11.887 8.3674 11.5956 8.43194L12.4971 9.33338C12.4983 9.33337 12.4995 9.33337 12.5007 9.33337C14.2496 9.33337 15.6673 10.7511 15.6673 12.5C15.6673 12.5012 15.6673 12.5024 15.6673 12.5036L16.5688 13.4051ZM9.78739 10.8663C9.49958 11.3433 9.33398 11.9023 9.33398 12.5C9.33398 14.2489 10.7517 15.6667 12.5007 15.6667C13.0984 15.6667 13.6574 15.5011 14.1344 15.2133L14.8576 15.9365C14.1873 16.3971 13.3754 16.6667 12.5007 16.6667C10.1995 16.6667 8.33398 14.8012 8.33398 12.5C8.33398 11.6253 8.60356 10.8134 9.06418 10.1431L9.78739 10.8663Z" fill="#222222"/>
<path fill-rule="evenodd" clip-rule="evenodd" d="M16.8669 17.9471L16.1337 17.2139C15.0061 17.8372 13.776 18.25 12.4995 18.25C10.7377 18.25 9.06445 17.4638 7.62696 16.4228C6.1936 15.3848 5.03781 14.1245 4.32155 13.25C3.89771 12.7326 3.85352 12.6427 3.85352 12.5C3.85352 12.3573 3.89771 12.2674 4.32155 11.75C5.02525 10.8909 6.15319 9.65929 7.5518 8.63199L6.83702 7.9172C5.40336 8.99286 4.26037 10.2465 3.54794 11.1163L3.48898 11.1881C3.15937 11.5886 2.85352 11.9602 2.85352 12.5C2.85352 13.0398 3.15937 13.4114 3.48898 13.8119L3.54794 13.8837C4.29375 14.7942 5.5114 16.1254 7.04042 17.2327C8.56532 18.3371 10.4434 19.25 12.4995 19.25C14.0886 19.25 15.5713 18.7047 16.8669 17.9471ZM9.52527 6.36281C10.4554 5.98585 11.4544 5.75 12.4995 5.75C14.5555 5.75 16.4336 6.66293 17.9585 7.76725C19.4875 8.87455 20.7052 10.2058 21.451 11.1163L21.51 11.1881C21.8396 11.5886 22.1454 11.9602 22.1454 12.5C22.1454 13.0398 21.8396 13.4114 21.51 13.8119L21.451 13.8837C20.9398 14.5078 20.2069 15.3296 19.3039 16.1415L18.5958 15.4333C19.4664 14.6554 20.1785 13.8591 20.6774 13.25C21.1012 12.7326 21.1454 12.6427 21.1454 12.5C21.1454 12.3573 21.1012 12.2674 20.6774 11.75C19.9611 10.8755 18.8053 9.6152 17.372 8.57717C15.9345 7.53616 14.2613 6.75 12.4995 6.75C11.7468 6.75 11.0103 6.89348 10.3015 7.13901L9.52527 6.36281Z" fill="#222222"/>
<path d="M5.20898 2.08337L21.8757 18.75" stroke="#222222"/>
</svg>
