<svg width="38" height="38" viewBox="0 0 38 38" fill="none" xmlns="http://www.w3.org/2000/svg">
<circle cx="19" cy="19" r="19" fill="#F4F0F0"/>
<path d="M23.7576 9H10.6481C9.1879 9 8 10.1879 8 11.6481V19.3794C8 20.8396 9.1879 22.0275 10.6481 22.0275H11.9078V25.5982C11.9078 25.7853 12.0208 25.9543 12.1935 26.0261C12.251 26.0497 12.3112 26.0613 12.3709 26.0613C12.4913 26.0613 12.6099 26.0141 12.6983 25.9256L16.5964 22.0275H23.7576C25.2174 22.0275 26.4057 20.8396 26.4057 19.3794V11.6481C26.4057 10.1879 25.2178 9 23.7576 9ZM17.6884 19.3873C17.5588 19.517 17.3782 19.5911 17.1975 19.5911C17.0123 19.5911 16.8363 19.517 16.7066 19.3873C16.577 19.2576 16.5029 19.0816 16.5029 18.8964C16.5029 18.7158 16.577 18.5351 16.7066 18.4055C16.966 18.1461 17.4291 18.1461 17.6884 18.4055C17.8181 18.5351 17.8922 18.7158 17.8922 18.8964C17.8922 19.077 17.8181 19.2576 17.6884 19.3873ZM17.8366 15.8505C17.7329 15.9009 17.6662 16.0084 17.6662 16.1237V16.8591C17.6662 17.1148 17.4587 17.3222 17.2031 17.3222C16.9475 17.3222 16.74 17.1148 16.74 16.8591V16.1237C16.74 15.6573 17.0109 15.2234 17.43 15.0182C18.0932 14.694 18.5221 14.0072 18.5221 13.2686C18.5221 12.5415 17.9302 11.9496 17.2031 11.9496C16.476 11.9496 15.8841 12.5415 15.8841 13.2686C15.8841 13.5242 15.6767 13.7317 15.421 13.7317C15.1654 13.7317 14.9579 13.5242 14.9579 13.2686C14.9579 12.0306 15.9652 11.0234 17.2031 11.0234C18.441 11.0234 19.4483 12.0306 19.4483 13.2686C19.4483 14.3583 18.8157 15.372 17.8366 15.8505Z" fill="url(#paint0_linear_1218_6861)"/>
<path d="M27.4621 11.7788H27.3315V19.3795C27.3315 21.3501 25.7282 22.9539 23.7572 22.9539H16.9794L15.127 24.8063H21.5138L25.4119 28.7044C25.5003 28.7929 25.6189 28.8401 25.7393 28.8401C25.7991 28.8401 25.8593 28.8285 25.9167 28.8049C26.0899 28.7331 26.2024 28.5641 26.2024 28.377V24.8063H27.4621C28.9223 24.8063 30.1102 23.6184 30.1102 22.1582V14.4269C30.1102 12.9667 28.9223 11.7788 27.4621 11.7788Z" fill="url(#paint1_linear_1218_6861)"/>
<defs>
<linearGradient id="paint0_linear_1218_6861" x1="17.2029" y1="9" x2="17.2029" y2="26.0613" gradientUnits="userSpaceOnUse">
<stop stop-color="#9F212C"/>
<stop offset="1" stop-color="#FFBD38"/>
</linearGradient>
<linearGradient id="paint1_linear_1218_6861" x1="22.6186" y1="11.7788" x2="22.6186" y2="28.8401" gradientUnits="userSpaceOnUse">
<stop stop-color="#9F212C"/>
<stop offset="1" stop-color="#FFBD38"/>
</linearGradient>
</defs>
</svg>
