<svg width="13" height="13" viewBox="0 0 13 13" fill="none" xmlns="http://www.w3.org/2000/svg">
<path d="M3.58613 2.91382C3.58613 2.14103 3.89311 1.39986 4.43955 0.853422C4.98599 0.306982 5.72717 0 6.49995 0C7.27273 0 8.0139 0.306982 8.56034 0.853422C9.10678 1.39986 9.41376 2.14103 9.41376 2.91382C9.41376 3.6866 9.10678 4.42777 8.56034 4.97421C8.0139 5.52065 7.27273 5.82763 6.49995 5.82763C5.72758 5.82643 4.9871 5.51904 4.44086 4.9729C3.89473 4.42667 3.58734 3.68621 3.58613 2.91382ZM6.49995 6.27591C4.77676 6.27831 3.12479 6.96383 1.90649 8.18241C0.687942 9.40085 0.0024079 11.0527 0 12.7759C0 12.8353 0.0236148 12.8923 0.0656409 12.9344C0.107667 12.9764 0.164703 13 0.22414 13H12.776C12.8354 13 12.8924 12.9764 12.9345 12.9344C12.9765 12.8923 13.0001 12.8353 13.0001 12.7759C12.9977 11.0527 12.3122 9.4007 11.0936 8.18241C9.87516 6.96385 8.22334 6.27832 6.50015 6.27591H6.49995Z" fill="#B3B3B3"/>
</svg>
