<svg width="16" height="14" viewBox="0 0 16 14" fill="none" xmlns="http://www.w3.org/2000/svg">
<path d="M9.00912 6.86934L15.8424 2.57026C15.4745 1.53601 14.4891 0.79248 13.3288 0.79248H2.66984C1.50952 0.79248 0.524155 1.53601 0.15625 2.57026L6.9895 6.86934C7.60182 7.25783 8.39423 7.25526 9.00912 6.86934Z" fill="#B3B3B3"/>
<path d="M2.67053 13.4711H13.3295C14.8011 13.4711 16 12.2722 16 10.8006V4.29663L9.83052 8.17635C9.2748 8.52625 8.63676 8.7012 7.99871 8.7012C7.36067 8.7012 6.72262 8.52625 6.16691 8.17635L0 4.29663V10.8031C0 12.2748 1.19633 13.4711 2.67053 13.4711Z" fill="#B3B3B3"/>
</svg>
