<svg width="10" height="17" viewBox="0 0 10 17" fill="none" xmlns="http://www.w3.org/2000/svg">
<path d="M9.6611 1.1217C9.66083 0.824351 9.54251 0.53926 9.33225 0.328986C9.12185 0.118591 8.83675 0.000403181 8.53939 0H1.45374C1.15639 0.000403836 0.871295 0.118591 0.660883 0.328986C0.450622 0.539247 0.3323 0.824347 0.332031 1.1217V12.979H9.66103L9.6611 1.1217Z" fill="#B3B3B3"/>
<path d="M1.45367 16.46H8.53932C8.83667 16.4596 9.12177 16.3415 9.33218 16.1311C9.54244 15.9208 9.66076 15.6357 9.66103 15.3383V13.6443H0.332031V15.3383C0.3323 15.6357 0.450622 15.9208 0.660883 16.1311C0.871278 16.3415 1.15638 16.4596 1.45374 16.46H1.45367ZM4.19699 14.5544H5.79586C5.9796 14.5544 6.12848 14.7032 6.12848 14.887C6.12848 15.0707 5.9796 15.2197 5.79586 15.2197H4.19699C4.01325 15.2197 3.86437 15.0707 3.86437 14.887C3.86437 14.7032 4.01325 14.5544 4.19699 14.5544Z" fill="#B3B3B3"/>
</svg>
