<svg width="38" height="38" viewBox="0 0 38 38" fill="none" xmlns="http://www.w3.org/2000/svg">
<circle cx="19" cy="19" r="19" fill="#F4F0F0"/>
<path d="M24.0723 14.7559C27.2355 14.7559 29.7795 17.3 29.7795 20.4632C29.7795 23.6265 27.2355 26.1705 24.0723 26.1705C20.9087 26.1705 18.3653 23.6265 18.3653 20.4632C18.3653 17.3 20.9087 14.7559 24.0723 14.7559ZM24.0723 12.8535C19.8807 12.8535 16.4629 16.2719 16.4629 20.4632C16.4629 24.6548 19.8807 28.0732 24.0723 28.0732C28.2635 28.0732 31.682 24.6548 31.682 20.4632C31.682 16.2719 28.2635 12.8535 24.0723 12.8535Z" fill="url(#paint0_linear_1218_6871)"/>
<path d="M23.1215 16.6587C22.8691 16.6587 22.6273 16.7587 22.4486 16.9374C22.2703 17.1157 22.1699 17.3578 22.1699 17.6102V21.8904C22.1699 22.1427 22.2703 22.3845 22.4486 22.5632C22.6273 22.7415 22.8691 22.8419 23.1215 22.8419H25.9751C26.2275 22.8419 26.4692 22.7415 26.6479 22.5632C26.8263 22.3848 26.9266 22.1427 26.9263 21.8904C26.9263 21.638 26.8259 21.3962 26.6476 21.2178C26.4692 21.0395 26.2271 20.9391 25.9751 20.9395H24.0727V17.6102C24.0727 17.3578 23.9723 17.1157 23.794 16.9374C23.6156 16.759 23.3738 16.6587 23.1215 16.6587Z" fill="url(#paint1_linear_1218_6871)"/>
<path d="M6.95089 10C6.42575 10.0003 6 10.4261 6 10.9512C6 11.2033 6.10004 11.4454 6.27839 11.6237C6.45674 11.8021 6.69851 11.9024 6.95089 11.9024H19.3166C19.569 11.9027 19.8111 11.8024 19.9895 11.624C20.1678 11.4454 20.2682 11.2036 20.2682 10.9512C20.2682 10.6988 20.1678 10.4571 19.9895 10.2787C19.8108 10.1004 19.569 10 19.3166 10H6.95089Z" fill="#A1242E"/>
<path d="M6.95089 15.7075C6.42575 15.7075 6 16.1333 6 16.6584C6 16.9108 6.10004 17.1526 6.27839 17.3309C6.45674 17.5096 6.69851 17.6099 6.95089 17.6099H13.6094C13.8618 17.6099 14.1035 17.5096 14.2822 17.3312C14.4606 17.1529 14.5609 16.9108 14.5609 16.6584C14.5606 16.406 14.4602 16.1643 14.2819 15.9859C14.1035 15.8076 13.8614 15.7072 13.6094 15.7075H6.95089Z" fill="#A1242E"/>
<path d="M6.95089 21.4141C6.69851 21.4144 6.45674 21.5147 6.27839 21.6931C6.10004 21.8714 6 22.1133 6 22.3656C6 22.8907 6.42575 23.3165 6.95089 23.3168H13.6094C13.8614 23.3168 14.1035 23.2165 14.2819 23.0381C14.4602 22.8597 14.5606 22.6179 14.5609 22.3656C14.5609 22.1132 14.4606 21.8714 14.2822 21.6928C14.1035 21.5144 13.8618 21.4141 13.6094 21.4141H6.95089Z" fill="url(#paint2_linear_1218_6871)"/>
<defs>
<linearGradient id="paint0_linear_1218_6871" x1="24.0724" y1="12.8535" x2="24.0724" y2="28.0732" gradientUnits="userSpaceOnUse">
<stop stop-color="#9F212C"/>
<stop offset="1" stop-color="#CB8E24"/>
</linearGradient>
<linearGradient id="paint1_linear_1218_6871" x1="24.5481" y1="16.6587" x2="24.5481" y2="22.8419" gradientUnits="userSpaceOnUse">
<stop stop-color="#9F212C"/>
<stop offset="1" stop-color="#CB8E24"/>
</linearGradient>
<linearGradient id="paint2_linear_1218_6871" x1="10.2805" y1="21.4141" x2="10.2805" y2="23.3168" gradientUnits="userSpaceOnUse">
<stop stop-color="#9F212C"/>
<stop offset="1" stop-color="#CB8E24"/>
</linearGradient>
</defs>
</svg>
