<svg width="53" height="53" viewBox="0 0 53 53" fill="none" xmlns="http://www.w3.org/2000/svg">
<g filter="url(#filter0_d_1639_12565)">
<ellipse cx="26.4716" cy="26.5035" rx="16.4716" ry="16.5037" fill="white"/>
<path d="M42.4971 26.5035C42.4971 35.3726 35.3214 42.561 26.4716 42.561C17.6218 42.561 10.4461 35.3726 10.4461 26.5035C10.4461 17.6343 17.6218 10.4459 26.4716 10.4459C35.3214 10.4459 42.4971 17.6343 42.4971 26.5035Z" stroke="#E8DBD1" stroke-width="0.892272"/>
</g>
<g filter="url(#filter1_d_1639_12565)">
<circle cx="26.5022" cy="26.5034" r="13.2835" stroke="#D99A26" stroke-width="0.892272" shape-rendering="crispEdges"/>
</g>
<path d="M27.4958 27.397H26.1393C25.2731 27.397 24.5703 28.0998 24.5703 28.966V33.9345H29.0648V28.966C29.0648 28.0998 28.362 27.397 27.4958 27.397Z" fill="#D99A26"/>
<path d="M33.4506 21.5376L28.2757 18.3751C27.3768 17.8255 26.2614 17.8255 25.3625 18.3751L20.1877 21.5376C19.3643 22.0422 18.8516 22.9554 18.8516 23.9217V31.1395C18.8516 32.6799 20.1059 33.9343 21.6463 33.9343H23.3461V28.9658C23.3461 27.4254 24.6005 26.171 26.1409 26.171H27.4974C29.0378 26.171 30.2922 27.4254 30.2922 28.9658V33.9343H31.9919C33.5323 33.9343 34.7867 32.6799 34.7867 31.1395V23.9217C34.7867 22.9554 34.2739 22.0422 33.4506 21.5376Z" fill="#9F212C"/>
<defs>
<filter id="filter0_d_1639_12565" x="0.541922" y="0.541677" width="51.8576" height="51.9235" filterUnits="userSpaceOnUse" color-interpolation-filters="sRGB">
<feFlood flood-opacity="0" result="BackgroundImageFix"/>
<feColorMatrix in="SourceAlpha" type="matrix" values="0 0 0 0 0 0 0 0 0 0 0 0 0 0 0 0 0 0 127 0" result="hardAlpha"/>
<feOffset/>
<feGaussianBlur stdDeviation="4.72904"/>
<feComposite in2="hardAlpha" operator="out"/>
<feColorMatrix type="matrix" values="0 0 0 0 0.611686 0 0 0 0 0.611686 0 0 0 0 0.611686 0 0 0 0.25 0"/>
<feBlend mode="normal" in2="BackgroundImageFix" result="effect1_dropShadow_1639_12565"/>
<feBlend mode="normal" in="SourceGraphic" in2="effect1_dropShadow_1639_12565" result="shape"/>
</filter>
<filter id="filter1_d_1639_12565" x="3.31536" y="3.31585" width="46.3732" height="46.3754" filterUnits="userSpaceOnUse" color-interpolation-filters="sRGB">
<feFlood flood-opacity="0" result="BackgroundImageFix"/>
<feColorMatrix in="SourceAlpha" type="matrix" values="0 0 0 0 0 0 0 0 0 0 0 0 0 0 0 0 0 0 127 0" result="hardAlpha"/>
<feOffset/>
<feGaussianBlur stdDeviation="4.72904"/>
<feComposite in2="hardAlpha" operator="out"/>
<feColorMatrix type="matrix" values="0 0 0 0 0.611686 0 0 0 0 0.611686 0 0 0 0 0.611686 0 0 0 0.25 0"/>
<feBlend mode="normal" in2="BackgroundImageFix" result="effect1_dropShadow_1639_12565"/>
<feBlend mode="normal" in="SourceGraphic" in2="effect1_dropShadow_1639_12565" result="shape"/>
</filter>
</defs>
</svg>
