<svg width="20" height="20" viewBox="0 0 20 20" fill="none" xmlns="http://www.w3.org/2000/svg">
<path d="M10 0C8.02219 0 6.08879 0.586489 4.4443 1.6853C2.79981 2.78412 1.51809 4.3459 0.761209 6.17316C0.00433286 8.00043 -0.1937 10.0111 0.192152 11.9509C0.578004 13.8907 1.53041 15.6725 2.92894 17.0711C4.32746 18.4696 6.10929 19.422 8.0491 19.8078C9.98891 20.1937 11.9996 19.9957 13.8268 19.2388C15.6541 18.4819 17.2159 17.2002 18.3147 15.5557C19.4135 13.9112 20 11.9778 20 10C20 7.34783 18.9464 4.80429 17.0711 2.92893C15.1957 1.05357 12.6522 0 10 0ZM10.0355 16.4886C8.91846 17.0285 7.19141 16.564 7.49279 15.4393L9.1218 9.35978C9.69162 7.23307 8.12447 7.93039 7.42253 8.23846C7.85182 7.59312 8.44612 7.07453 9.14366 6.73659C10.2607 6.19673 11.9877 6.66117 11.6864 7.78588L10.0574 13.8654C9.48752 15.9921 11.0547 15.2948 11.7566 14.9867C11.3274 15.6321 10.733 16.1507 10.0355 16.4886ZM12.5441 4.58671C12.4911 4.7844 12.3807 4.96194 12.2269 5.09688C12.073 5.23182 11.8826 5.31811 11.6797 5.34482C11.4768 5.37154 11.2705 5.33749 11.0869 5.24697C10.9034 5.15646 10.7508 5.01355 10.6485 4.83631C10.5461 4.65907 10.4987 4.45547 10.512 4.25125C10.5254 4.04703 10.5991 3.85136 10.7236 3.68899C10.8482 3.52663 11.0182 3.40485 11.212 3.33906C11.4058 3.27327 11.6147 3.26642 11.8124 3.31939C12.0775 3.39043 12.3035 3.56385 12.4407 3.80152C12.5779 4.03918 12.6151 4.32162 12.5441 4.58671Z" fill="#9F212C"/>
</svg>
