<svg width="17" height="17" viewBox="0 0 17 17" fill="none" xmlns="http://www.w3.org/2000/svg">
<path d="M9.44848 2.72174C8.98436 2.89467 8.69922 3.37884 8.69922 3.99622C8.69922 4.44425 8.80177 4.73544 9.03544 4.9394C9.29144 5.16304 9.55993 5.18877 9.89218 5.02568C10.2188 4.86277 10.4076 4.60753 10.519 4.17918C10.7535 3.26759 10.1618 2.46707 9.44848 2.72174Z" fill="#2D2D2D"/>
<path d="M8.65285 5.81049C8.08693 5.92742 7.46519 6.40629 6.90419 7.16122C6.50685 7.69137 6.33392 8.06278 6.41017 8.20619C6.44063 8.26257 6.49645 8.30798 6.53807 8.30798C6.57402 8.30798 6.78253 8.0431 7.00163 7.7171C7.22055 7.39564 7.46519 7.07475 7.54693 7.00304C7.85269 6.74364 8.0928 6.91658 7.98003 7.3245C7.95505 7.43197 7.67919 8.34374 7.37835 9.35296C6.72596 11.5203 6.59313 12.0898 6.58859 12.7166C6.58859 13.109 6.60354 13.2008 6.70533 13.359C6.94033 13.7408 7.45517 13.7873 8.07161 13.4876C8.91283 13.0689 10.12 11.6268 10.0689 11.0967C10.0598 10.9941 10.0292 10.9334 9.98356 10.9334C9.90636 10.9334 9.83579 11.0204 9.30562 11.7549C8.84642 12.3863 8.55182 12.4898 8.55182 12.0149C8.55182 11.9027 8.81633 10.8726 9.13723 9.72058C9.45813 8.56927 9.74932 7.48438 9.77997 7.30066C9.85736 6.87798 9.8163 6.3728 9.68783 6.159C9.50921 5.85117 9.1166 5.71835 8.65285 5.81049Z" fill="#2D2D2D"/>
<path d="M8.49981 17C3.81255 17 0 13.1862 0 8.49943C0 3.81265 3.81255 0 8.49981 0C13.1863 0 17 3.81247 17 8.49943C17 13.1864 13.1861 17 8.49981 17ZM8.49981 0.611508C4.15048 0.611508 0.611522 4.15038 0.611522 8.49943C0.611522 12.8483 4.14991 16.3877 8.49981 16.3877C12.8493 16.3877 16.3877 12.8494 16.3877 8.49943C16.3877 4.14982 12.8493 0.611508 8.49981 0.611508Z" fill="#2D2D2D"/>
</svg>
