<svg width="22" height="22" viewBox="0 0 22 22" fill="none" xmlns="http://www.w3.org/2000/svg">
<path d="M16.3525 0.899414H6.0289C4.69244 0.90068 3.41107 1.43215 2.46604 2.37718C1.52102 3.3222 0.989547 4.60357 0.988281 5.94004V16.2636C0.989547 17.6001 1.52102 18.8814 2.46604 19.8265C3.41107 20.7715 4.69244 21.3029 6.0289 21.3042H16.3525C17.6888 21.3024 18.9698 20.7708 19.9148 19.8259C20.8597 18.881 21.3913 17.5999 21.3931 16.2636V5.94004C21.3913 4.60372 20.8597 3.32265 19.9148 2.37773C18.9698 1.43282 17.6888 0.901186 16.3525 0.899414ZM16.2472 7.33968C15.9909 7.33936 15.7404 7.26304 15.5275 7.12037C15.3145 6.9777 15.1487 6.77509 15.0509 6.53815C14.9531 6.30121 14.9277 6.04059 14.978 5.78925C15.0283 5.53791 15.1521 5.30713 15.3335 5.1261C15.515 4.94507 15.7461 4.82192 15.9976 4.77223C16.249 4.72253 16.5096 4.74851 16.7463 4.8469C16.983 4.94528 17.1852 5.11164 17.3273 5.32495C17.4695 5.53825 17.5452 5.78892 17.5449 6.04525C17.5447 6.21545 17.5109 6.38393 17.4456 6.54109C17.3803 6.69826 17.2846 6.84101 17.1641 6.96121C17.0436 7.08141 16.9007 7.1767 16.7433 7.24163C16.586 7.30657 16.4174 7.33989 16.2472 7.33968ZM11.1907 6.24292C12.1517 6.24292 13.0911 6.52789 13.8901 7.06179C14.6892 7.59569 15.312 8.35455 15.6797 9.2424C16.0475 10.1302 16.1437 11.1072 15.9562 12.0497C15.7687 12.9923 15.306 13.858 14.6264 14.5376C13.9469 15.2171 13.0811 15.6799 12.1386 15.8673C11.1961 16.0548 10.2191 15.9586 9.33126 15.5908C8.44342 15.2231 7.68456 14.6003 7.15066 13.8013C6.61676 13.0022 6.33179 12.0628 6.33179 11.1018C6.33364 9.81372 6.84616 8.57892 7.75697 7.66811C8.66779 6.75729 9.90259 6.24478 11.1907 6.24292Z" fill="#9F212C"/>
<path d="M11.1892 14.026C11.7675 14.026 12.3327 13.8545 12.8135 13.5332C13.2943 13.212 13.669 12.7554 13.8903 12.2212C14.1116 11.6869 14.1695 11.0991 14.0567 10.532C13.9439 9.96484 13.6654 9.4439 13.2566 9.03502C12.8477 8.62615 12.3267 8.3477 11.7596 8.23489C11.1925 8.12208 10.6046 8.17998 10.0704 8.40126C9.5362 8.62254 9.0796 8.99727 8.75834 9.47806C8.43709 9.95885 8.26562 10.5241 8.26562 11.1023C8.26647 11.8775 8.57476 12.6206 9.12287 13.1687C9.67097 13.7168 10.4141 14.0251 11.1892 14.026Z" fill="#9F212C"/>
</svg>
