<svg width="38" height="38" viewBox="0 0 38 38" fill="none" xmlns="http://www.w3.org/2000/svg">
<circle cx="19" cy="19" r="19" fill="#F4F0F0"/>
<path d="M23.1026 17.8507C20.2708 17.8507 17.9744 20.1232 17.9744 22.9254C17.9744 25.7276 20.2708 28 23.1026 28C25.9344 28 28.2308 25.7276 28.2308 22.9254C28.2308 20.1232 25.9344 17.8507 23.1026 17.8507ZM25.6164 22.5184L22.881 24.5584C22.7436 24.6609 22.5815 24.7116 22.4185 24.7116C22.2554 24.7116 22.0913 24.6599 21.9538 24.5574L20.5867 23.5323C20.2482 23.2786 20.1815 22.8005 20.438 22.4656C20.6933 22.1317 21.1744 22.0637 21.5159 22.3184L22.4195 22.9954L24.6913 21.3025C25.0297 21.0478 25.5128 21.1147 25.7682 21.4517C26.0246 21.7876 25.9569 22.2647 25.6174 22.5174L25.6164 22.5184ZM15.9231 19.6269C16.3621 19.6269 16.7897 19.7213 17.1918 19.8897C16.8708 20.4977 16.6472 21.1614 16.5313 21.8607L16.4164 22.1642H13.0205C12.8954 22.1642 12.8246 22.085 12.8 22.0515C12.7703 22.0109 12.7385 21.946 12.7641 21.8719C13.2277 20.5291 14.4974 19.6269 15.9231 19.6269ZM17.2051 16.8358C17.2051 17.5351 16.6297 18.1045 15.9231 18.1045C15.2164 18.1045 14.641 17.5351 14.641 16.8358C14.641 16.1365 15.2164 15.5672 15.9231 15.5672C16.6297 15.5672 17.2051 16.1365 17.2051 16.8358ZM29 13.791V19.8603C27.8923 17.7696 25.6564 16.3284 23.1026 16.3284C21.1138 16.3284 19.3292 17.2022 18.1056 18.5754C18.4964 18.0964 18.7436 17.4976 18.7436 16.8358C18.7436 15.2962 17.479 14.0448 15.9231 14.0448C14.3672 14.0448 13.1026 15.2962 13.1026 16.8358C13.1026 17.5128 13.3569 18.1258 13.7631 18.6089C12.6338 19.1641 11.7344 20.1435 11.3056 21.3847C11.1272 21.9145 11.2174 22.4819 11.5508 22.9406C11.8913 23.4075 12.44 23.6856 13.0205 23.6856H16.4964C16.6277 24.8131 17.0297 25.8585 17.6667 26.7303H11.8205C10.2615 26.7303 9 25.482 9 23.9393V13.791C9 12.2484 10.2615 11 11.8205 11H26.1795C27.7385 11 29 12.2484 29 13.791Z" fill="url(#paint0_linear_1855_6059)"/>
<defs>
<linearGradient id="paint0_linear_1855_6059" x1="19" y1="11" x2="19" y2="28" gradientUnits="userSpaceOnUse">
<stop stop-color="#9F212C"/>
<stop offset="1" stop-color="#D99A26"/>
</linearGradient>
</defs>
</svg>
