<svg width="38" height="38" viewBox="0 0 38 38" fill="none" xmlns="http://www.w3.org/2000/svg">
<circle cx="19" cy="19" r="19" fill="#F4F0F0"/>
<path d="M15.4134 15.5056H14.4575V12.7718C14.463 12.0384 14.7632 11.3365 15.2932 10.8179C15.8232 10.2992 16.5404 10.0054 17.2899 10H20.6818C21.4343 10.0055 22.1542 10.3016 22.6847 10.824C23.2151 11.3464 23.5133 12.0527 23.5142 12.7892V15.5229H22.5583V12.7545C22.5564 12.2392 22.3466 11.7455 21.9747 11.3809C21.6027 11.0162 21.0985 10.81 20.572 10.8073H17.3855C16.8614 10.8137 16.3609 11.0214 15.992 11.3857C15.623 11.75 15.4152 12.2416 15.4134 12.7545V15.5056ZM25.9997 16.8915V27.331C25.9992 27.4207 25.9804 27.5095 25.9444 27.592C25.9083 27.6746 25.8558 27.7492 25.7898 27.8115C25.7238 27.8738 25.6457 27.9226 25.5601 27.9549C25.4746 27.9872 25.3832 28.0025 25.2916 27.9997H12.6907C12.6005 28.0001 12.5111 27.9832 12.4276 27.9498C12.3441 27.9165 12.2681 27.8674 12.204 27.8053C12.1399 27.7432 12.0889 27.6693 12.054 27.5879C12.019 27.5066 12.0008 27.4192 12.0003 27.331V16.9123C11.9975 16.822 12.0132 16.7321 12.0467 16.6479C12.0802 16.5637 12.1306 16.4869 12.1951 16.4222C12.2595 16.3576 12.3366 16.3063 12.4218 16.2714C12.507 16.2365 12.5984 16.2188 12.6907 16.2193H25.3093C25.4016 16.2188 25.493 16.2365 25.5782 16.2714C25.6634 16.3063 25.7405 16.3576 25.8049 16.4222C25.8694 16.4869 25.9198 16.5637 25.9533 16.6479C25.9868 16.7321 26.0025 16.822 25.9997 16.9123V16.8915ZM20.3348 20.682C20.334 20.4506 20.271 20.2234 20.1521 20.0233C20.0333 19.8232 19.8628 19.6572 19.6577 19.5419C19.4526 19.4266 19.2202 19.3662 18.9837 19.3665C18.7472 19.3669 18.5149 19.4281 18.3102 19.5441C18.1055 19.66 17.9356 19.8265 17.8174 20.027C17.6992 20.2275 17.637 20.4548 17.6369 20.6863C17.6368 20.9177 17.699 21.1451 17.817 21.3457C17.9351 21.5462 18.105 21.7128 18.3096 21.8289C18.3665 21.8606 18.4138 21.9065 18.4467 21.9618C18.4797 22.0172 18.4971 22.0801 18.4972 22.1442V24.3686C18.4972 24.4954 18.5487 24.617 18.6403 24.7067C18.732 24.7963 18.8563 24.8467 18.9858 24.8467C19.1154 24.8467 19.2397 24.7963 19.3313 24.7067C19.423 24.617 19.4744 24.4954 19.4744 24.3686V22.1511C19.4746 22.087 19.492 22.0241 19.5249 21.9687C19.5579 21.9134 19.6052 21.8675 19.6621 21.8358C19.87 21.7212 20.0431 21.5546 20.1638 21.3531C20.2845 21.1517 20.3484 20.9225 20.349 20.6889L20.3348 20.682Z" fill="url(#paint0_linear_1855_5986)"/>
<defs>
<linearGradient id="paint0_linear_1855_5986" x1="19" y1="10" x2="19" y2="29.5" gradientUnits="userSpaceOnUse">
<stop offset="0.344423" stop-color="#9F212C"/>
<stop offset="1" stop-color="#D99A26"/>
</linearGradient>
</defs>
</svg>
