<svg width="194" height="95" viewBox="0 0 194 95" fill="none" xmlns="http://www.w3.org/2000/svg">
<path d="M71.2212 81.3391C74.8478 81.3391 78.7053 79.0787 80.5186 74.3496V75.787C80.5186 77.6413 81.2 81.5366 86.64 81.5366C90.0469 81.5366 91.8602 79.6932 92.3108 78.4643L91.8602 78.0473C91.6906 78.4372 91.4038 78.7648 91.0396 78.985C90.6754 79.2051 90.2517 79.3069 89.8271 79.2762C88.4973 79.2762 88.4973 77.4329 88.4973 75.1725V58.9552C88.4973 50.5393 83.9695 46.6331 74.8918 46.6331C65.3635 46.6331 63.5502 58.9552 71.7157 58.9552C74.661 58.9552 76.7051 55.6634 76.7051 53.4689L76.0237 53.052C75.793 53.8749 74.661 54.2809 73.529 54.2809C68.3088 54.2809 68.9902 47.3024 74.8918 47.3024C79.8812 47.3024 80.3867 53.2604 80.5626 55.9268C80.101 64.5511 63.0996 61.8848 63.0996 73.5925C63.0996 78.5191 66.9461 81.3939 71.2651 81.3939M71.4849 73.5925C71.4849 65.3741 78.0789 65.1656 80.5626 60.0305V71.3212C79.8812 75.2164 76.9249 77.4767 74.661 77.4767C73.0784 77.4767 71.4849 76.2478 71.4849 73.5815" fill="#911A1D"/>
<path d="M193.451 81.5365V81.339C191.637 81.339 190.274 78.6617 190.274 76.8183V46.0185H190.044C188.945 47.4559 184.373 49.7163 180.515 49.7163V49.9138C182.109 49.9138 182.329 51.5596 182.329 53.2055V76.8074C182.329 78.6507 180.966 81.328 178.922 81.328V81.5255L193.451 81.5365ZM180.515 39.6545C180.606 41.0293 181.232 42.3142 182.258 43.2348C183.285 44.1553 184.632 44.6385 186.01 44.5811C186.677 44.6001 187.341 44.4877 187.965 44.2504C188.588 44.013 189.158 43.6554 189.643 43.1978C190.128 42.7403 190.518 42.1919 190.79 41.5839C191.062 40.9759 191.212 40.3203 191.231 39.6545C191.208 38.9986 191.055 38.3538 190.778 37.7584C190.502 37.163 190.109 36.6289 189.622 36.1879C189.135 35.747 188.565 35.408 187.944 35.1911C187.324 34.9742 186.666 34.8839 186.01 34.9253C183.054 34.9253 180.515 36.9772 180.515 39.6545Z" fill="#911A1D"/>
<path d="M125.531 49.1346H127.345C128.938 49.1346 129.158 51.5705 129.158 53.4468V75.6222C129.158 81.1743 132.334 82.6117 136.422 82.6117C137.94 82.664 139.435 82.2373 140.696 81.3922C141.957 80.5472 142.919 79.3267 143.445 77.9045L142.763 77.707C142.445 78.3477 141.964 78.8938 141.368 79.2905C140.772 79.6872 140.082 79.9206 139.368 79.9673C136.862 79.9673 137.093 77.0925 137.093 74.0092V49.1346H142.763V48.1141H138.675C137.323 48.1141 137.093 47.4997 137.093 46.2598V43.1875H136.631C135.68 44.7785 134.311 46.0789 132.672 46.9474C131.032 47.816 129.186 48.2195 127.334 48.1141H125.531V49.1346Z" fill="#911A1D"/>
<path d="M93.6289 81.3391V81.5366H108.147V81.3391C106.102 81.3391 104.74 78.6618 104.74 76.8185V67.1627L107.927 63.0589L116.543 80.3077C121.302 89.3381 129.016 94.4732 136.962 94.4732C150.15 94.4732 148.754 85.0259 143.314 85.0259C141.829 85.0365 140.39 85.5424 139.226 86.4633V86.8802C142.402 87.7032 141.501 93.6503 136.962 93.6503C130.148 93.6503 125.862 82.1621 122.444 75.3811L113.136 55.872L115.862 51.9658V52.1742C117.455 50.3309 119.939 47.4561 121.752 47.4561V47.2476H112.455V47.4561C114.268 47.4561 115.861 50.3309 114.719 52.1742L104.74 65.5278V33.7075H104.52C103.421 35.1449 98.8381 37.4053 95.2115 37.4053C96.5742 37.4053 96.805 39.2486 96.805 40.697V76.8075C96.805 78.6509 95.4422 81.3282 93.6289 81.3282" fill="#911A1D"/>
<path d="M26.9531 72.8354C26.9531 80.0224 34.2065 83.7201 42.1522 83.7201C50.9441 83.7201 60.2965 79.0019 60.2965 69.1376C60.2965 54.5662 33.7559 50.4844 33.7559 40.8067C33.7559 36.7029 38.5145 34.4426 43.2841 34.4426C48.0538 34.4426 53.0432 36.7029 53.0432 41.0261C53.0279 41.4533 52.9269 41.8731 52.7461 42.2606C52.5653 42.6481 52.3085 42.9954 51.9908 43.2819C51.673 43.5684 51.3009 43.7883 50.8965 43.9286C50.492 44.0688 50.0635 44.1266 49.6363 44.0984C49.1529 44.142 48.6687 44.0246 48.2592 43.7646C47.8497 43.5046 47.5378 43.1165 47.3724 42.661L46.9108 42.8695C44.1963 46.3587 46.691 48.6191 49.6363 48.6191C52.131 48.6191 54.8565 46.7757 54.8565 42.255C54.8565 36.7688 49.1857 33.6306 43.2841 33.6306C36.4814 33.6197 29.4478 37.3064 29.4478 45.1188C29.4478 57.1886 54.8565 61.1387 54.8565 72.6379C54.8565 79.6164 48.0538 82.8972 41.6686 82.8972C35.767 82.8972 30.0962 80.0224 30.0962 74.2728C30.0724 73.6119 30.1867 72.9533 30.4318 72.3389C30.677 71.7246 31.0476 71.1679 31.52 70.7044C31.9925 70.241 32.5565 69.8808 33.1761 69.647C33.7957 69.4131 34.4572 69.3106 35.1186 69.3461C35.8303 69.3201 36.5368 69.4758 37.1714 69.7983C37.806 70.1209 38.3477 70.5997 38.7453 71.1895H39.2069C40.7894 66.9322 37.6133 64.211 33.9867 64.211C30.5798 64.211 26.9531 66.6798 26.9531 72.8354Z" fill="#911A1D"/>
<path d="M159.403 81.5365V81.339C157.59 81.339 156.227 78.6617 156.227 76.8183V57.9237C156.227 53.82 159.634 48.4764 162.821 48.4764C166.228 48.4764 166.678 52.3826 166.678 58.7466V76.8074C166.678 78.6507 165.315 81.328 163.502 81.328V81.5255H178.02V81.328C175.976 81.328 174.624 78.6507 174.624 76.8074V59.5696C174.624 50.5392 170.986 46.8415 164.414 46.8415C160.326 46.8415 157.601 50.1332 156.238 53.6115V33.6964H156.018C154.919 35.1338 150.347 37.3941 146.49 37.3941C148.072 37.3941 148.303 39.2375 148.303 40.8834V76.8074C148.303 78.6507 146.94 81.328 145.127 81.328V81.5255L159.403 81.5365Z" fill="#911A1D"/>
<path d="M67.7484 31.6228C68.7334 31.6002 69.6866 31.2707 70.4748 30.6805C71.263 30.0902 71.8468 29.2688 72.1444 28.3311V29.0004C72.1182 29.3755 72.176 29.7517 72.3135 30.1018C72.451 30.4518 72.6648 30.767 72.9394 31.0243C73.214 31.2817 73.5425 31.4748 73.9011 31.5897C74.2597 31.7046 74.6394 31.7384 75.0127 31.6887C75.5485 31.7366 76.0864 31.6258 76.5595 31.3701C77.0325 31.1145 77.4195 30.7253 77.6723 30.2513L77.4525 30.0538C77.3738 30.2359 77.2409 30.3894 77.0718 30.4934C76.9027 30.5975 76.7056 30.647 76.5074 30.6353C75.8589 30.6353 75.8589 29.7685 75.8589 28.7042V21.1551C75.8589 17.216 73.7379 15.3835 69.4958 15.3835C65.0339 15.3835 64.1877 21.1551 68.0122 21.1551C68.6486 21.0734 69.2344 20.7657 69.6623 20.2881C70.0901 19.8106 70.3314 19.1952 70.342 18.5546L70.0233 18.3681C69.9134 18.7521 69.3859 18.9386 68.8584 18.9386C66.4186 18.9386 66.7373 15.6469 69.4958 15.6469C71.8257 15.6469 72.0454 18.4339 72.1444 19.6738C71.9355 23.7117 63.9789 22.4608 63.9789 27.9361C63.9721 28.4309 64.0673 28.9219 64.2586 29.3784C64.4498 29.835 64.7331 30.2474 65.0907 30.59C65.4483 30.9327 65.8727 31.1983 66.3375 31.3703C66.8022 31.5423 67.2974 31.617 67.7924 31.5899M67.9023 27.9361C67.9023 24.0957 70.9794 23.997 72.1444 21.594V26.8827C72.0643 27.5989 71.7511 28.269 71.2528 28.7903C70.7545 29.3116 70.0987 29.6552 69.3859 29.7685C68.6496 29.7685 67.9023 29.1869 67.9023 27.9361Z" fill="#911A1D"/>
<path d="M108.916 31.82C109.901 31.7941 110.852 31.4634 111.64 30.8737C112.427 30.2839 113.012 29.4643 113.312 28.5283V29.1976C113.297 29.5632 113.362 29.9277 113.501 30.2661C113.641 30.6044 113.852 30.9087 114.12 31.1578C114.388 31.407 114.708 31.5952 115.056 31.7095C115.404 31.8238 115.773 31.8615 116.137 31.82C116.671 31.8686 117.208 31.758 117.679 31.5022C118.151 31.2463 118.536 30.8567 118.785 30.3826L118.577 30.1851C118.497 30.3691 118.363 30.5239 118.191 30.6281C118.02 30.7323 117.821 30.7807 117.62 30.7667C116.983 30.7667 116.983 29.8998 116.983 28.8355V21.2974C116.983 17.3583 114.862 15.5259 110.609 15.5259C106.147 15.5259 105.312 21.2974 109.125 21.2974C109.771 21.2172 110.366 20.9042 110.797 20.4172C111.228 19.9303 111.466 19.3029 111.466 18.653L111.147 18.4665C111.037 18.8505 110.51 19.0371 109.971 19.0371C107.532 19.0371 107.85 15.7453 110.609 15.7453C112.95 15.7453 113.159 18.5323 113.268 19.7722C113.049 23.8101 105.092 22.5592 105.092 28.0455C105.068 28.5513 105.151 29.0565 105.335 29.5282C105.519 30 105.801 30.4277 106.162 30.7837C106.522 31.1397 106.954 31.4159 107.429 31.5944C107.903 31.773 108.41 31.8498 108.916 31.82ZM109.026 28.1772C109.026 24.3258 112.104 24.2271 113.268 21.8241V27.1128C113.175 27.8239 112.853 28.4851 112.349 28.9961C111.845 29.5071 111.188 29.8398 110.477 29.9437C109.73 29.9437 108.993 29.3622 108.993 28.1223" fill="#911A1D"/>
<path d="M85.8909 32.0067C84.9348 32.0067 84.2974 30.6681 84.2974 29.8122V21.539C84.5062 19.136 85.2535 16.2502 87.6933 16.2502C89.1769 16.2502 89.067 18.5544 87.5834 18.5544C87.3737 18.5482 87.1732 18.4674 87.0181 18.3266C86.8629 18.1857 86.7633 17.9941 86.7371 17.7864L86.4184 17.8851C86.2341 18.1828 86.1338 18.5247 86.1282 18.8747C86.1225 19.2246 86.2116 19.5696 86.3861 19.8731C86.5606 20.1766 86.8141 20.4274 87.1196 20.599C87.4251 20.7705 87.7714 20.8565 88.1219 20.8477C90.0231 20.8477 90.9792 19.6956 90.9792 18.5435C90.9792 17.1939 89.8143 15.8552 87.5834 15.8552C85.781 15.8552 84.8249 17.1939 84.2864 18.8288V15.3615H84.1765C82.9573 16.4315 81.403 17.0444 79.7805 17.0951V17.1829C80.4179 17.1829 80.5278 18.0497 80.5278 18.73V29.8013C80.5278 30.6681 79.8904 31.9958 79.0332 31.9958L85.8909 32.0067Z" fill="#911A1D"/>
<path d="M43.2617 15.6688V15.7676C44.1079 15.7676 45.0641 16.9197 45.3828 17.8853L50.1634 31.7216H50.592L54.3066 20.1895L58.23 31.7216H58.6586L63.1205 17.8853C63.4392 16.788 64.3843 15.7676 65.2415 15.7676V15.6688H61.8457V15.7676C62.6919 15.7676 63.0106 16.7332 62.582 17.8853L60.0323 26.0488L57.2739 17.8853C56.8562 16.7332 57.1749 15.7676 58.0212 15.7676V15.6688H51.4272V15.7676C52.1635 15.7676 53.1197 16.9197 53.5483 17.8853L54.0758 19.5202L51.9547 26.0488L49.2073 17.8853C48.7787 16.7332 49.0974 15.7676 49.9546 15.7676V15.6688H43.2617Z" fill="#911A1D"/>
<path d="M29.6221 27.3213C29.6221 30.6789 33.018 32.4126 36.7326 32.4126C40.8758 32.4126 45.2278 30.2181 45.2278 25.5877C45.2278 18.7628 32.7982 16.8097 32.7982 12.3329C32.7982 10.4018 34.9962 9.34839 37.2601 9.34839C39.524 9.34839 41.8319 10.4456 41.8319 12.4207C41.8249 12.621 41.7778 12.818 41.6935 12.9999C41.6092 13.1818 41.4892 13.3451 41.3407 13.4801C41.1922 13.615 41.0182 13.719 40.8289 13.7858C40.6396 13.8526 40.4388 13.8809 40.2383 13.8691C40.005 13.8974 39.7689 13.8455 39.5691 13.7218C39.3692 13.5981 39.2177 13.4101 39.1393 13.1888L38.9305 13.2875C37.6557 14.9224 38.8206 15.9758 40.2054 15.9758C41.3703 15.9758 42.6451 15.1199 42.6451 13.0022C42.6451 10.4018 39.9856 8.96436 37.2271 8.96436C34.051 8.96436 30.754 10.698 30.754 14.3519C30.754 20.0137 42.6451 21.8351 42.6451 27.2226C42.6451 30.5143 39.4581 32.0285 36.4908 32.0285C33.7213 32.0285 31.0728 30.6789 31.0728 27.9907C31.0565 27.681 31.1062 27.3714 31.2186 27.0823C31.331 26.7932 31.5034 26.5311 31.7246 26.3134C31.9458 26.0957 32.2107 25.9272 32.5018 25.8192C32.7929 25.7111 33.1037 25.6659 33.4136 25.6864C33.7464 25.6742 34.0768 25.7474 34.3732 25.8992C34.6695 26.051 34.9219 26.2762 35.1061 26.5533H35.3149C36.0622 24.5343 34.5785 23.2615 32.8751 23.2615C31.1717 23.2615 29.5781 24.4136 29.5781 27.2994" fill="#911A1D"/>
<path d="M97.4425 31.4802V31.3814C96.6403 31.3814 96.0358 30.1964 96.0358 29.3735V20.9685C96.0358 19.1471 97.4425 16.7661 98.9591 16.7661C100.476 16.7661 100.674 18.5107 100.674 21.3416V29.4613C100.674 30.1964 100.069 31.3814 99.2669 31.3814V31.4802H105.619V31.3814C104.817 31.3814 104.212 30.1964 104.212 29.3735V21.6927C104.212 17.6768 102.597 16.0309 99.6625 16.0309C98.8186 16.089 98.0143 16.4106 97.3635 16.9501C96.7126 17.4896 96.2482 18.2198 96.0358 19.0374V15.6688H95.9369C94.7594 16.6962 93.2582 17.2786 91.6948 17.3147V17.4135C92.3982 17.4135 92.4971 18.1376 92.4971 18.8728V29.3735C92.4971 30.1964 91.8926 31.3814 90.9805 31.3814V31.4802H97.4425Z" fill="#911A1D"/>
<path fill-rule="evenodd" clip-rule="evenodd" d="M154.908 7.09921C154.045 4.59825 152.875 2.21368 151.424 0C149.958 2.20616 148.783 4.59233 147.93 7.09921C149.232 8.51103 150.402 10.0389 151.424 11.6638C152.447 10.0416 153.613 8.51403 154.908 7.09921Z" fill="#AE8656"/>
<path fill-rule="evenodd" clip-rule="evenodd" d="M140.084 9.09614C138.02 7.33603 135.755 5.82595 133.336 4.59741C133.223 7.22117 133.459 9.84833 134.04 12.4098C135.913 13.0187 137.729 13.7897 139.469 14.7141C139.493 12.826 139.699 10.9447 140.084 9.09614Z" fill="#AE8656"/>
<path fill-rule="evenodd" clip-rule="evenodd" d="M130.72 23.0422C129.756 21.3981 128.946 19.668 128.302 17.8742C125.599 17.3268 122.839 17.1021 120.082 17.2049C121.378 19.5214 122.95 21.673 124.764 23.6128C126.728 23.246 128.722 23.0551 130.72 23.0422Z" fill="#AE8656"/>
<path fill-rule="evenodd" clip-rule="evenodd" d="M172.105 23.0424C174.09 23.0609 176.068 23.2556 178.018 23.624C179.848 21.6832 181.435 19.5278 182.744 17.2051C179.987 17.1027 177.227 17.3274 174.523 17.8744C173.88 19.6682 173.07 21.3983 172.105 23.0424Z" fill="#AE8656"/>
<path fill-rule="evenodd" clip-rule="evenodd" d="M163.382 14.7141C165.111 13.7859 166.921 13.0147 168.789 12.4098C169.37 9.84849 169.606 7.22119 169.492 4.59741C167.073 5.82595 164.808 7.33603 162.744 9.09614C163.126 10.9458 163.339 12.8261 163.382 14.7141Z" fill="#AE8656"/>
<path fill-rule="evenodd" clip-rule="evenodd" d="M158.724 17.1392C158.631 15.3671 158.306 13.6149 157.757 11.9272C156.397 13.1215 155.193 14.4818 154.174 15.9761C154.758 17.115 155.236 18.305 155.603 19.5312C156.57 18.6438 157.615 17.8434 158.724 17.1392Z" fill="#AE8656"/>
<path fill-rule="evenodd" clip-rule="evenodd" d="M148.677 15.9761C147.656 14.4763 146.445 13.1153 145.073 11.9272C144.529 13.6164 144.204 15.3679 144.105 17.1392C145.214 17.8443 146.258 18.6446 147.227 19.5312C147.596 18.3028 148.082 17.1124 148.677 15.9761Z" fill="#AE8656"/>
<path fill-rule="evenodd" clip-rule="evenodd" d="M139.984 23.514C139.664 22.2804 139.454 21.0209 139.357 19.7504C137.688 18.9423 135.928 18.3346 134.115 17.9399C134.539 19.6731 135.177 21.3465 136.016 22.9215C137.353 23.0065 138.681 23.2047 139.984 23.514Z" fill="#AE8656"/>
<path fill-rule="evenodd" clip-rule="evenodd" d="M135.753 30.4049C134.839 29.4919 134.011 28.4965 133.28 27.4314C131.418 27.5187 129.573 27.8281 127.785 28.3531C129.058 29.6843 130.494 30.8493 132.06 31.8204C133.244 31.2348 134.481 30.7609 135.753 30.4049Z" fill="#AE8656"/>
<path fill-rule="evenodd" clip-rule="evenodd" d="M132.06 36.9993C130.498 37.949 129.061 39.0918 127.785 40.4007C129.574 40.9239 131.418 41.2369 133.28 41.3334C134.007 40.2792 134.835 39.298 135.753 38.4037C134.472 38.0534 133.222 37.5984 132.016 37.0432" fill="#AE8656"/>
<path fill-rule="evenodd" clip-rule="evenodd" d="M167.043 38.4038C167.972 39.3157 168.814 40.3111 169.56 41.3773C171.421 41.2809 173.266 40.9679 175.055 40.4447C173.783 39.1354 172.35 37.9924 170.791 37.0432C169.585 37.5984 168.335 38.0535 167.054 38.4038" fill="#AE8656"/>
<path fill-rule="evenodd" clip-rule="evenodd" d="M167.04 30.4049C168.326 30.7442 169.577 31.2034 170.777 31.7765C172.34 30.8231 173.773 29.6724 175.041 28.3531C173.253 27.8282 171.408 27.5188 169.546 27.4314C168.795 28.4933 167.953 29.4882 167.029 30.4049" fill="#AE8656"/>
<path fill-rule="evenodd" clip-rule="evenodd" d="M162.842 23.514C164.145 23.2055 165.472 23.0073 166.809 22.9215C167.652 21.3471 168.295 19.6736 168.721 17.9399C166.905 18.3337 165.141 18.9415 163.468 19.7504C163.382 21.0222 163.172 22.2827 162.842 23.514Z" fill="#AE8656"/>
<path fill-rule="evenodd" clip-rule="evenodd" d="M159.261 24.4798C159.51 23.3193 159.617 22.1329 159.579 20.9467C158.489 21.502 157.467 22.1833 156.535 22.9766C156.706 23.8109 156.794 24.6598 156.799 25.5112C157.587 25.0938 158.411 24.7485 159.261 24.4798Z" fill="#AE8656"/>
<path fill-rule="evenodd" clip-rule="evenodd" d="M152.987 22.0656C152.601 20.9443 152.077 19.8753 151.426 18.8835C150.764 19.8722 150.233 20.9416 149.844 22.0656C150.428 22.7115 150.958 23.4052 151.426 24.1394C151.88 23.4044 152.403 22.7137 152.987 22.0765" fill="#AE8656"/>
<path fill-rule="evenodd" clip-rule="evenodd" d="M146.03 25.5112C146.032 24.6584 146.128 23.8084 146.316 22.9766C145.381 22.1882 144.359 21.5072 143.272 20.9467C143.212 22.1334 143.32 23.3227 143.59 24.4798C144.432 24.7526 145.248 25.0977 146.03 25.5112Z" fill="#AE8656"/>
<path fill-rule="evenodd" clip-rule="evenodd" d="M142.083 29.2635C141.644 28.5246 141.276 27.7457 140.984 26.9373C139.764 26.6814 138.516 26.5782 137.27 26.6301C137.858 27.6763 138.574 28.6456 139.402 29.5159C140.282 29.3493 141.176 29.2649 142.072 29.2635" fill="#AE8656"/>
<path fill-rule="evenodd" clip-rule="evenodd" d="M138.457 32.9176C137.303 33.2884 136.197 33.7929 135.16 34.4208C136.201 35.0367 137.307 35.5371 138.457 35.9131C139.141 35.348 139.877 34.8484 140.655 34.4208C139.884 33.9777 139.149 33.4751 138.457 32.9176Z" fill="#AE8656"/>
<path fill-rule="evenodd" clip-rule="evenodd" d="M139.413 39.2487C138.595 40.1221 137.879 41.0867 137.281 42.1235C138.526 42.1717 139.773 42.076 140.996 41.8382C141.283 41.0245 141.651 40.2415 142.095 39.501C141.199 39.4997 140.305 39.4152 139.424 39.2487" fill="#AE8656"/>
<path fill-rule="evenodd" clip-rule="evenodd" d="M160.744 39.501C161.188 40.2415 161.556 41.0245 161.843 41.8382C163.066 42.076 164.313 42.1717 165.558 42.1235C164.971 41.0797 164.254 40.1138 163.426 39.2487C162.545 39.4152 161.651 39.4997 160.755 39.501" fill="#AE8656"/>
<path fill-rule="evenodd" clip-rule="evenodd" d="M162.195 34.3879C162.973 34.8155 163.709 35.3151 164.393 35.8802C165.544 35.5057 166.649 35.0052 167.69 34.3879C166.634 33.7606 165.505 33.2667 164.327 32.9176C163.635 33.4751 162.9 33.9777 162.129 34.4208" fill="#AE8656"/>
<path fill-rule="evenodd" clip-rule="evenodd" d="M160.743 29.2635C161.639 29.2649 162.534 29.3493 163.414 29.5159C164.248 28.6513 164.965 27.6811 165.546 26.6301C164.3 26.5782 163.052 26.6814 161.831 26.9373C161.54 27.7457 161.172 28.5246 160.732 29.2635" fill="#AE8656"/>
<path fill-rule="evenodd" clip-rule="evenodd" d="M158.095 29.4064C158.471 28.7156 158.752 27.9775 158.931 27.2119C158.14 27.3895 157.373 27.6583 156.645 28.0129C156.608 28.5613 156.52 29.105 156.381 29.6368C156.945 29.5083 157.518 29.4239 158.095 29.3845" fill="#AE8656"/>
<path fill-rule="evenodd" clip-rule="evenodd" d="M154.591 26.8828C154.55 26.1146 154.409 25.355 154.174 24.6224C153.582 25.1403 153.058 25.7301 152.613 26.378C152.873 26.8756 153.083 27.3975 153.24 27.9361C153.66 27.5347 154.112 27.1678 154.591 26.8389" fill="#AE8656"/>
<path fill-rule="evenodd" clip-rule="evenodd" d="M149.59 27.9361C149.756 27.3989 149.969 26.8775 150.227 26.378C149.782 25.7273 149.254 25.1372 148.656 24.6224C148.431 25.3576 148.291 26.1159 148.238 26.8828C148.718 27.2117 149.17 27.5786 149.59 27.98" fill="#AE8656"/>
<path fill-rule="evenodd" clip-rule="evenodd" d="M146.444 29.6258C146.306 29.094 146.217 28.5503 146.18 28.0019C145.453 27.6457 144.686 27.3768 143.895 27.2009C144.083 27.9636 144.363 28.7005 144.73 29.3954C145.307 29.4333 145.88 29.5177 146.444 29.6478" fill="#AE8656"/>
<path fill-rule="evenodd" clip-rule="evenodd" d="M143.533 31.3595C142.726 31.4073 141.926 31.5435 141.148 31.7655C141.697 32.3366 142.318 32.8345 142.995 33.2468C143.523 33.0042 144.071 32.806 144.632 32.6543C144.228 32.2562 143.86 31.8229 143.533 31.3595Z" fill="#AE8656"/>
<path fill-rule="evenodd" clip-rule="evenodd" d="M142.995 35.5068C142.318 35.923 141.697 36.4245 141.148 36.9991C141.925 37.2229 142.726 37.3555 143.533 37.3941C143.857 36.9319 144.225 36.502 144.632 36.1103C144.067 35.9646 143.519 35.7624 142.995 35.5068Z" fill="#AE8656"/>
<path fill-rule="evenodd" clip-rule="evenodd" d="M146.444 39.0951C145.881 39.2289 145.307 39.317 144.73 39.3584C144.359 40.0516 144.079 40.7891 143.895 41.5529C144.686 41.3771 145.453 41.1082 146.18 40.7519C146.219 40.2002 146.307 39.653 146.444 39.117" fill="#AE8656"/>
<path fill-rule="evenodd" clip-rule="evenodd" d="M158.195 36.1105C158.602 36.5021 158.97 36.932 159.294 37.3942C160.102 37.3556 160.902 37.223 161.679 36.9992C161.13 36.4281 160.51 35.9302 159.833 35.5179C159.306 35.7653 158.758 35.9636 158.195 36.1105Z" fill="#AE8656"/>
<path fill-rule="evenodd" clip-rule="evenodd" d="M158.195 32.654C158.755 32.8106 159.302 33.0087 159.833 33.2465C160.506 32.8512 161.127 32.3719 161.679 31.82C160.901 31.598 160.102 31.4619 159.294 31.4141C158.967 31.8775 158.6 32.3108 158.195 32.7088" fill="#AE8656"/>
<path d="M27.3269 91.5764L28.0523 91.0717C28.1752 91.3243 28.3676 91.5369 28.6069 91.6845C28.8462 91.8322 29.1227 91.9089 29.404 91.9056C30.2393 91.9056 30.6569 91.4557 30.6569 90.3255V85.1794H31.646V90.4353C31.688 90.7392 31.6612 91.0487 31.5676 91.341C31.474 91.6332 31.3159 91.9008 31.1051 92.124C30.8942 92.3472 30.6358 92.5203 30.349 92.6306C30.0623 92.741 29.7543 92.7857 29.448 92.7614C29.0067 92.7926 28.5657 92.6977 28.1765 92.4879C27.7873 92.278 27.4659 91.9619 27.25 91.5764" fill="#232323"/>
<path d="M33.2292 89.8756C33.2039 89.5125 33.2521 89.148 33.371 88.8039C33.4898 88.4598 33.6769 88.1432 33.921 87.8728C34.1651 87.6025 34.4613 87.384 34.7918 87.2304C35.1223 87.0768 35.4804 86.9913 35.8448 86.9789C37.3174 86.9789 38.1527 87.9884 38.1527 89.5684C38.1708 89.7435 38.1708 89.92 38.1527 90.0951H34.2073C34.1997 90.3493 34.2442 90.6024 34.3382 90.8388C34.4322 91.0752 34.5736 91.2899 34.7537 91.4698C34.9338 91.6496 35.1489 91.7908 35.3856 91.8846C35.6224 91.9784 35.8759 92.0229 36.1305 92.0153C36.6428 92.0111 37.1429 91.8586 37.5702 91.5764L37.9439 92.1689C37.3758 92.5412 36.7111 92.7395 36.0316 92.7394C35.6539 92.7511 35.2779 92.6836 34.9279 92.5412C34.578 92.3988 34.2618 92.1847 33.9998 91.9128C33.7378 91.6409 33.5358 91.3171 33.4069 90.9625C33.2779 90.6078 33.2249 90.2301 33.2512 89.8537M37.2845 89.4258C37.2845 88.3285 36.768 87.714 35.8558 87.714C35.4125 87.7336 34.9936 87.9219 34.6849 88.2402C34.3763 88.5586 34.2015 88.9828 34.1963 89.4258H37.2845Z" fill="#232323"/>
<path d="M38.7246 87.1107H39.7247L40.5929 90.2927C40.7138 90.8194 40.8237 91.3132 40.9336 91.8289C41.0655 91.3132 41.1863 90.8085 41.3292 90.2927L42.2304 87.1107H43.1865L44.0877 90.2927C44.2306 90.8194 44.3624 91.3132 44.4943 91.8289C44.6262 91.3132 44.7361 90.8194 44.857 90.2927L45.7032 87.1107H46.7363L45.1757 92.597H43.9778L43.1426 89.6234C42.9997 89.1077 42.8898 88.603 42.7469 88.0434C42.615 88.603 42.4941 89.1406 42.3403 89.6454L41.527 92.597H40.428L38.7246 87.1107Z" fill="#232323"/>
<path d="M47.2839 89.8756C47.2586 89.5134 47.3065 89.1498 47.4247 88.8064C47.5429 88.463 47.7289 88.1468 47.9719 87.8766C48.2148 87.6064 48.5097 87.3877 48.8389 87.2335C49.1682 87.0793 49.5251 86.9927 49.8885 86.9789C51.3722 86.9789 52.2074 87.9884 52.2074 89.5684C52.2078 89.7454 52.1894 89.922 52.1524 90.0951H48.251C48.245 90.3489 48.2906 90.6013 48.3852 90.837C48.4797 91.0726 48.6211 91.2867 48.8009 91.4662C48.9807 91.6458 49.1952 91.787 49.4312 91.8813C49.6673 91.9757 49.9201 92.0213 50.1743 92.0153C50.6899 92.0107 51.1935 91.8583 51.6249 91.5764L51.9766 92.1908C51.4038 92.5617 50.7361 92.7598 50.0534 92.7614C49.6766 92.7715 49.3018 92.7028 48.9531 92.5597C48.6045 92.4166 48.2896 92.2023 48.0288 91.9306C47.768 91.6588 47.567 91.3356 47.4388 90.9817C47.3105 90.6278 47.2577 90.2511 47.2839 89.8756ZM51.3392 89.4258C51.3392 88.3285 50.8117 87.714 49.9105 87.714C49.4653 87.7309 49.0436 87.918 48.7327 88.2366C48.4217 88.5552 48.2454 88.9809 48.24 89.4258H51.3392Z" fill="#232323"/>
<path d="M53.4043 91.5107V84.5432H54.4264V91.5876C54.4264 91.8728 54.5582 91.9826 54.7011 91.9826H54.9209L55.0528 92.6958C54.8719 92.7551 54.6827 92.7848 54.4923 92.7836C53.756 92.7836 53.4483 92.3337 53.4483 91.5327" fill="#232323"/>
<path d="M56.2168 91.5107V84.5432H57.2059V91.5876C57.2059 91.8728 57.3378 91.9826 57.4806 91.9826H57.6894L57.8213 92.6958C57.6407 92.7561 57.4513 92.7858 57.2608 92.7836C56.5245 92.7836 56.2168 92.3337 56.2168 91.5327" fill="#232323"/>
<path d="M58.6042 89.8756C58.5789 89.5125 58.6271 89.148 58.746 88.8039C58.8648 88.4598 59.0519 88.1432 59.296 87.8728C59.5401 87.6025 59.8363 87.384 60.1668 87.2304C60.4973 87.0768 60.8555 86.9913 61.2198 86.9789C62.6925 86.9789 63.5277 87.9884 63.5277 89.5684C63.5458 89.7435 63.5458 89.92 63.5277 90.0951H59.5823C59.5763 90.3489 59.6219 90.6013 59.7164 90.837C59.811 91.0726 59.9524 91.2867 60.1322 91.4662C60.312 91.6458 60.5264 91.787 60.7625 91.8813C60.9986 91.9757 61.2513 92.0213 61.5055 92.0153C62.021 92.0095 62.5242 91.8572 62.9562 91.5764L63.2969 92.1908C62.7289 92.5631 62.0642 92.7615 61.3847 92.7614C61.0069 92.773 60.6309 92.7055 60.281 92.5631C59.931 92.4207 59.6148 92.2067 59.3528 91.9347C59.0908 91.6628 58.8888 91.3391 58.7599 90.9844C58.6309 90.6297 58.5779 90.252 58.6042 89.8756ZM62.6595 89.4258C62.6595 88.3285 62.143 87.714 61.2308 87.714C60.7875 87.7336 60.3686 87.9219 60.06 88.2402C59.7513 88.5586 59.5765 88.9828 59.5713 89.4258H62.6595Z" fill="#232323"/>
<path d="M64.7361 87.1104H65.5493L65.6263 88.1199C65.782 87.8098 66.0158 87.5455 66.3049 87.3531C66.5939 87.1607 66.9282 87.0468 67.2748 87.0226C67.4893 87.0094 67.704 87.047 67.9012 87.1324L67.7144 87.9443C67.5333 87.8859 67.3442 87.8563 67.1539 87.8565C66.6593 87.8565 66.0549 88.1967 65.6812 89.1293V92.6735H64.7031L64.7361 87.1104Z" fill="#232323"/>
<path d="M68.3641 94.8902L68.5619 94.1441C68.7037 94.1933 68.8516 94.2229 69.0015 94.2319C69.6609 94.2319 70.1005 93.7271 70.3093 93.0468L70.4412 92.6409L68.1113 87.1546H69.1224L70.3093 90.205L70.9138 91.7192C71.0786 91.2144 71.2435 90.6219 71.3973 90.1611L72.4304 87.1107H73.3975L71.1995 93.0798C70.7929 94.177 70.1884 94.9999 69.0015 94.9999C68.7698 95.002 68.5394 94.9649 68.3201 94.8902" fill="#232323"/>
<path d="M76.5525 85.1794H78.7505C80.5089 85.1794 81.6958 85.739 81.6958 87.3739C81.6958 89.0088 80.5199 89.6672 78.8054 89.6672H77.5086V92.6188H76.5195L76.5525 85.1794ZM78.7505 88.8991C80.1242 88.8991 80.7726 88.4273 80.7726 87.3739C80.7726 86.3206 80.0803 85.9475 78.7065 85.9475H77.5086V88.8772L78.7505 88.8991Z" fill="#232323"/>
<path d="M82.9023 90.6V87.1107H83.8914V90.4793C83.8914 91.5107 84.2211 91.9496 84.9904 91.9496C85.2999 91.9362 85.6017 91.8497 85.8711 91.697C86.1405 91.5444 86.3698 91.3301 86.54 91.0718V87.1107H87.5181V92.597H86.7049L86.6279 91.7411C86.4044 92.0399 86.1165 92.2847 85.7855 92.4575C85.4546 92.6303 85.089 92.7267 84.7157 92.7396C83.4848 92.7396 82.9353 91.9935 82.9353 90.5451" fill="#232323"/>
<path d="M89.2556 87.1104H90.0689L90.1458 88.1199C90.3015 87.8098 90.5354 87.5455 90.8244 87.3531C91.1135 87.1607 91.4477 87.0468 91.7943 87.0226C92.0088 87.0094 92.2235 87.047 92.4207 87.1324L92.2339 87.9443C92.0528 87.8859 91.8637 87.8563 91.6734 87.8565C91.1789 87.8565 90.5744 88.1967 90.2008 89.1293V92.6735H89.2227L89.2556 87.1104Z" fill="#232323"/>
<path d="M92.6167 89.8759C92.5938 89.4989 92.6495 89.1212 92.7802 88.7667C92.9109 88.4122 93.1138 88.0886 93.3762 87.8164C93.6385 87.5442 93.9545 87.3292 94.3042 87.1851C94.654 87.041 95.0298 86.9709 95.4081 86.9792C96.0338 86.9744 96.6382 87.2056 97.1005 87.6266L96.606 88.241C96.292 87.9496 95.8807 87.7853 95.4521 87.7802C95.1888 87.7905 94.9305 87.855 94.6934 87.9697C94.4563 88.0844 94.2455 88.2468 94.0742 88.4466C93.9029 88.6465 93.7748 88.8796 93.698 89.1312C93.6212 89.3828 93.5972 89.6476 93.6277 89.9088C93.5938 90.1678 93.6147 90.431 93.6891 90.6814C93.7635 90.9318 93.8897 91.1638 94.0596 91.3624C94.2295 91.561 94.4393 91.7218 94.6754 91.8343C94.9115 91.9468 95.1686 92.0085 95.4301 92.0156C95.9321 92.0009 96.412 91.8062 96.7818 91.4669L97.2104 92.0924C96.691 92.5405 96.0287 92.7895 95.3422 92.7946C94.9666 92.8071 94.5927 92.7396 94.2453 92.5968C93.8979 92.4539 93.5849 92.2388 93.3271 91.9659C93.0693 91.6929 92.8726 91.3683 92.7501 91.0137C92.6277 90.659 92.5822 90.2824 92.6167 89.9088" fill="#232323"/>
<path d="M98.2656 84.5432H99.2437V86.7377V87.835C99.4887 87.5645 99.7846 87.3448 100.115 87.1886C100.445 87.0323 100.802 86.9425 101.167 86.9242C102.387 86.9242 102.936 87.6704 102.936 89.1187V92.608H101.958V89.2504C101.958 88.219 101.629 87.7801 100.859 87.7801C100.55 87.8032 100.249 87.8914 99.9762 88.0389C99.7035 88.1864 99.4651 88.3899 99.2767 88.6359V92.619H98.2986L98.2656 84.5432Z" fill="#232323"/>
<path d="M104.168 91.1923C104.168 89.9963 105.267 89.3928 107.74 89.1405C107.74 88.4273 107.487 87.747 106.542 87.747C105.92 87.7773 105.319 87.9785 104.805 88.3285L104.421 87.6921C105.103 87.2508 105.894 87.0042 106.707 86.9789C108.113 86.9789 108.718 87.8677 108.718 89.2392V92.6188H107.905L107.828 91.9604C107.299 92.4357 106.625 92.7181 105.915 92.7614C105.697 92.7831 105.477 92.7585 105.27 92.6892C105.062 92.6198 104.871 92.5073 104.71 92.3591C104.55 92.2108 104.422 92.0302 104.336 91.829C104.25 91.6279 104.208 91.4109 104.212 91.1923M107.784 91.2801V89.744C105.838 89.9634 105.179 90.4243 105.179 91.1265C105.179 91.8287 105.63 92.0043 106.19 92.0043C106.792 91.966 107.359 91.7083 107.784 91.2801Z" fill="#232323"/>
<path d="M109.674 91.9935L110.158 91.379C110.635 91.7907 111.242 92.0235 111.872 92.0374C112.631 92.0374 112.971 91.6424 112.971 91.1815C112.971 90.7207 112.29 90.3586 111.642 90.0843C110.993 89.81 109.916 89.4259 109.916 88.4933C109.916 87.5606 110.652 86.9352 111.916 86.9352C112.568 86.9399 113.2 87.1555 113.719 87.5496L113.246 88.1531C112.873 87.8486 112.409 87.6751 111.927 87.6594C111.191 87.6594 110.828 88.0215 110.828 88.4494C110.828 88.8773 111.455 89.1736 112.114 89.404C112.949 89.7002 113.883 90.0294 113.883 91.0828C113.883 92.1361 113.136 92.7177 111.762 92.7177C110.964 92.714 110.191 92.4436 109.564 91.9496" fill="#232323"/>
<path d="M114.663 89.8756C114.638 89.5134 114.685 89.1498 114.804 88.8064C114.922 88.463 115.108 88.1468 115.351 87.8766C115.594 87.6064 115.889 87.3877 116.218 87.2335C116.547 87.0793 116.904 86.9927 117.267 86.9789C118.751 86.9789 119.586 87.9884 119.586 89.5684C119.599 89.7437 119.599 89.9197 119.586 90.0951H115.63C115.625 90.3494 115.672 90.602 115.768 90.8378C115.864 91.0735 116.006 91.2874 116.187 91.4668C116.368 91.6462 116.583 91.7872 116.82 91.8815C117.056 91.9757 117.309 92.0212 117.564 92.0153C118.076 92.0092 118.576 91.8569 119.004 91.5764L119.356 92.1908C118.787 92.5631 118.123 92.7615 117.443 92.7614C117.066 92.773 116.69 92.7055 116.34 92.5631C115.99 92.4207 115.673 92.2067 115.411 91.9347C115.149 91.6628 114.947 91.3391 114.819 90.9844C114.69 90.6297 114.637 90.252 114.663 89.8756ZM118.718 89.4258C118.718 88.3285 118.191 87.714 117.289 87.714C116.846 87.7336 116.427 87.9219 116.119 88.2402C115.81 88.5586 115.635 88.9828 115.63 89.4258H118.718Z" fill="#232323"/>
<path d="M150.601 85.1794H152.799C154.557 85.1794 155.733 85.739 155.733 87.3739C155.733 89.0088 154.557 89.6672 152.843 89.6672H151.557V92.6188H150.557L150.601 85.1794ZM152.799 88.8991C154.161 88.8991 154.821 88.4273 154.821 87.3739C154.821 86.3206 154.128 85.9475 152.755 85.9475H151.656V88.8772L152.799 88.8991Z" fill="#232323"/>
<path d="M157.041 91.5107V84.5432H158.03V91.5876C158.03 91.8728 158.151 91.9826 158.294 91.9826C158.367 91.9914 158.441 91.9914 158.514 91.9826L158.646 92.6958C158.465 92.7551 158.275 92.7848 158.085 92.7836C157.349 92.7836 157.041 92.3337 157.041 91.5327" fill="#232323"/>
<path d="M159.504 91.1923C159.504 89.9963 160.603 89.3928 163.065 89.1405C163.065 88.4273 162.812 87.747 161.867 87.747C161.248 87.7752 160.65 87.9768 160.141 88.3285L159.757 87.6921C160.435 87.2496 161.222 87.0028 162.032 86.9789C163.449 86.9789 164.043 87.8677 164.043 89.2392V92.6188H163.229L163.153 91.9604C162.621 92.438 161.943 92.7205 161.229 92.7614C161.012 92.7833 160.792 92.7587 160.585 92.6893C160.378 92.6198 160.188 92.5071 160.028 92.3587C159.868 92.2102 159.741 92.0294 159.657 91.8283C159.572 91.6272 159.531 91.4104 159.537 91.1923M163.098 91.2801V89.744C161.152 89.9634 160.493 90.4243 160.493 91.1265C160.493 91.8287 160.944 92.0043 161.515 92.0043C162.114 91.9675 162.678 91.7093 163.098 91.2801Z" fill="#232323"/>
<path d="M165.646 87.1106H166.459L166.547 87.9006C166.794 87.626 167.093 87.4032 167.427 87.2449C167.761 87.0867 168.123 86.9963 168.492 86.9789C169.712 86.9789 170.261 87.725 170.261 89.1734V92.6736H169.272V89.2502C169.272 88.2188 168.953 87.7799 168.173 87.7799C167.864 87.803 167.563 87.8912 167.29 88.0387C167.017 88.1862 166.779 88.3897 166.591 88.6357V92.6297H165.602L165.646 87.1106Z" fill="#232323"/>
<path fill-rule="evenodd" clip-rule="evenodd" d="M7.99861 15.4299C8.01271 15.4211 8.02592 15.411 8.03805 15.3997C8.23234 15.2376 8.38464 15.031 8.48199 14.7973C8.57934 14.5637 8.61885 14.31 8.59718 14.0579C8.57063 13.5069 8.41655 12.9697 8.14709 12.4885C8.09178 12.386 8.03058 12.2868 7.96381 12.1914L7.7318 11.8478L8.10997 11.6667L8.18421 11.7247C8.42462 11.9158 8.64535 12.1305 8.84311 12.3655C9.0623 12.6141 9.25948 12.8813 9.4324 13.1641C9.5847 13.4258 9.69877 13.708 9.77113 14.0021C9.85033 14.3092 9.88932 14.6252 9.88713 14.9423C9.89263 15.2688 9.84962 15.5943 9.75953 15.9081C9.68152 16.176 9.54525 16.4234 9.36048 16.6324C9.2007 16.8077 9.02081 16.9635 8.82455 17.0967C8.63592 17.2265 8.43069 17.3304 8.21437 17.4054C7.54094 17.6315 6.81787 17.6653 6.12633 17.503C5.4376 17.3565 4.8059 17.0139 4.30741 16.5163C3.97467 16.1784 3.71002 15.7796 3.52787 15.3416C3.3517 14.9067 3.26263 14.4413 3.2657 13.972C3.26561 13.5544 3.37608 13.1443 3.58587 12.7834C3.80225 12.4269 4.06088 12.098 4.35613 11.8037L4.47213 11.683L7.99861 15.4299ZM7.25619 15.7038L5.96392 14.3457C5.80148 14.1834 5.58881 14.0811 5.36071 14.0555C5.22594 14.0364 5.08872 14.0443 4.95702 14.0787C4.84147 14.1102 4.73599 14.171 4.65077 14.2552C4.56459 14.3505 4.51097 14.4709 4.49765 14.5988C4.48435 14.7049 4.49465 14.8127 4.52781 14.9145C4.63348 15.1511 4.82506 15.3386 5.06374 15.4391C5.37471 15.579 5.70601 15.6684 6.04512 15.7038C6.44665 15.7629 6.85467 15.7629 7.25619 15.7038Z" fill="#A0222C"/>
<path fill-rule="evenodd" clip-rule="evenodd" d="M4.94106 20.7088C4.94106 20.9526 5.22643 21.2242 5.39115 21.3635C5.82555 21.7098 6.30086 22.0014 6.80638 22.2317L8.4861 22.2178C8.68131 22.2033 8.87736 22.2302 9.06148 22.2967C9.25271 22.3986 9.413 22.5502 9.52549 22.7355C9.62435 22.8785 9.70246 23.0348 9.75749 23.1998C9.81893 23.3877 9.86091 23.5814 9.88277 23.7778L9.90597 23.9682L4.88538 23.9682C4.84336 23.9649 4.80151 23.9764 4.76706 24.0007C4.7454 24.0296 4.73324 24.0645 4.73226 24.1005L4.73226 24.1261C4.74066 24.2544 4.78223 24.3784 4.8529 24.4859L4.26825 24.674C3.9601 24.2917 3.67351 23.8926 3.40983 23.4784C3.36554 23.4046 3.32826 23.3269 3.29847 23.2462C3.27145 23.1718 3.25733 23.0933 3.2567 23.0141C3.25486 22.8714 3.29967 22.732 3.38431 22.6171C3.47008 22.5082 3.58642 22.4273 3.71839 22.3849C4.03337 22.3016 4.35594 22.2503 4.68122 22.2317C4.89234 22.2178 5.10115 22.2085 5.31227 22.2062C5.19163 22.1273 5.08027 22.0437 4.9573 21.9601C4.83434 21.8765 4.69514 21.7581 4.56289 21.649C4.43529 21.5399 4.31233 21.4169 4.18936 21.3101C4.0664 21.2033 3.95736 21.0779 3.83904 20.941C3.7253 20.8148 3.62283 20.6788 3.53279 20.5347C3.45148 20.4022 3.38459 20.2613 3.33327 20.1145L3.30311 20.0054L3.27526 19.8917C3.26094 19.8151 3.25317 19.7374 3.25206 19.6595C3.24997 19.5269 3.27764 19.3954 3.33305 19.2749C3.38847 19.1543 3.4702 19.0478 3.57223 18.9631C3.76433 18.8098 3.99159 18.7069 4.23345 18.6636C4.41186 18.6254 4.59389 18.6067 4.77634 18.6079L8.61139 18.6079C8.75755 18.6079 8.80395 18.5545 8.75059 18.4082C8.64699 18.185 8.51181 17.9778 8.34922 17.793L8.79467 17.5771C9.25868 18.0043 9.87581 18.5893 9.87581 19.2881C9.87654 19.4309 9.84692 19.5722 9.78893 19.7027C9.73093 19.8331 9.64588 19.9498 9.53941 20.0449C9.31608 20.2448 9.02705 20.3555 8.72739 20.356L5.57676 20.356C5.42597 20.3549 5.27741 20.3925 5.14523 20.4651C5.05157 20.5135 4.98073 20.5969 4.94802 20.6972L4.94106 20.7088Z" fill="#A0222C"/>
<path fill-rule="evenodd" clip-rule="evenodd" d="M8.68566 26.3251C9.72272 27.3604 10.0777 28.8253 10.0777 30.2855C10.0777 31.5972 9.72272 32.9877 8.89911 33.9999C8.52028 34.4575 8.04826 34.829 7.51457 35.0897C6.98087 35.3503 6.39776 35.494 5.80416 35.5112C5.64871 35.5228 5.48863 35.5275 5.34015 35.5275C3.93651 35.5275 2.55608 35.1073 1.52598 34.0742C0.610702 33.1283 0.0769452 31.8774 0.0272251 30.5618C0.0272251 30.4387 0.0156248 30.3134 0.0156248 30.188C0.0156246 26.9263 1.54686 24.9507 4.74853 24.9507C6.16144 24.9507 7.63236 25.2711 8.69262 26.3251M5.04782 33.6169C7.16603 33.6169 9.19143 32.2008 9.19143 30.1555C9.19143 28.1103 7.16603 26.6942 5.04782 26.6942C2.92961 26.6942 0.904205 28.108 0.904205 30.1555C0.904205 32.2031 2.92961 33.6169 5.04782 33.6169Z" fill="#A0222C"/>
<path fill-rule="evenodd" clip-rule="evenodd" d="M7.99972 60.8786L8.04148 60.8484C8.23554 60.6857 8.38749 60.4786 8.48443 60.2446C8.58137 60.0106 8.62043 59.7566 8.59829 59.5043C8.57047 58.9543 8.41646 58.4181 8.1482 57.9372C8.0902 57.8351 8.02988 57.733 7.9626 57.6378L7.73059 57.2965L8.10876 57.1131L8.18532 57.1735C8.42514 57.3644 8.64581 57.5782 8.84422 57.8119C9.06287 58.0609 9.26001 58.3281 9.43351 58.6105C9.58311 58.8735 9.69702 59.1554 9.77224 59.4485C9.85016 59.7566 9.88913 60.0733 9.88824 60.3911C9.89281 60.7176 9.84903 61.0431 9.75832 61.3568C9.67937 61.6255 9.54235 61.8736 9.35695 62.0834C9.19733 62.258 9.0183 62.4138 8.82334 62.5477C8.63254 62.6753 8.42684 62.779 8.21084 62.8565C7.53726 63.0822 6.81409 63.1151 6.1228 62.9517C5.43373 62.8057 4.80137 62.4639 4.30155 61.9674C3.96999 61.6276 3.70551 61.2283 3.52202 60.7904C3.34569 60.3562 3.2566 59.8916 3.25985 59.423C3.25844 59.005 3.36985 58.5943 3.58234 58.2344C3.79919 57.8791 4.05864 57.5517 4.35492 57.2594L4.4686 57.1386L7.99972 60.8786ZM7.2573 61.1409L5.96503 59.7828C5.83387 59.6562 5.6724 59.5653 5.4961 59.519C5.3198 59.4727 5.13457 59.4724 4.95813 59.5182C4.84299 59.549 4.7381 59.6099 4.6542 59.6946C4.56538 59.7882 4.51133 59.9095 4.50108 60.0382C4.4855 60.1443 4.49584 60.2527 4.53124 60.3539C4.63691 60.5905 4.82849 60.778 5.06717 60.8786C5.37664 61.0217 5.70731 61.1134 6.04623 61.1502C6.44767 61.2105 6.85586 61.2105 7.2573 61.1502" fill="#A0222C"/>
<path fill-rule="evenodd" clip-rule="evenodd" d="M6.48161 51.6041L8.70886 52.8089L10.1009 53.5332L5.82968 55.8385L5.8436 55.8385L5.13366 56.2587L4.20564 56.9017L4.07572 56.7764C3.88994 56.6067 3.71773 56.4228 3.56067 56.2262C3.42375 56.0806 3.32632 55.9024 3.27762 55.7085C3.28544 55.6246 3.31001 55.5432 3.34986 55.469C3.38971 55.3949 3.44404 55.3295 3.50963 55.2767C3.67804 55.123 3.86511 54.9912 4.06644 54.8844C4.57453 54.5942 5.0919 54.3249 5.60927 54.0556C6.05472 53.8234 6.50249 53.5913 6.94099 53.3591C7.10689 53.2677 7.26655 53.1653 7.41892 53.0527C7.45836 53.0248 7.49548 52.9947 7.53028 52.9645L5.774 52.0359C5.57447 52.0916 4.76246 52.8113 4.65109 52.983C4.61397 53.0411 4.57453 53.1014 4.53277 53.1595L4.42605 53.3057L4.29613 53.1827C4.04263 52.9391 3.8018 52.6826 3.57459 52.4143C3.432 52.2671 3.32973 52.0856 3.27762 51.8873C3.28549 51.8038 3.31008 51.7227 3.34994 51.6489C3.38981 51.5751 3.44411 51.5101 3.50963 51.4578C3.67856 51.3042 3.86554 51.1717 4.06644 51.0632C4.57453 50.7753 5.0919 50.506 5.60927 50.2367C6.05472 50.0046 6.50249 49.7724 6.94098 49.5263C7.10735 49.4365 7.26707 49.3349 7.41891 49.2222C7.47332 49.1829 7.52523 49.1403 7.57436 49.0945C7.29431 48.9303 7.00187 48.7883 6.6997 48.6697C6.39177 48.5241 6.06554 48.4211 5.72992 48.3633C5.43123 48.3797 5.14364 48.4821 4.90166 48.6581C4.60678 48.8556 4.35888 49.1156 4.17548 49.4195L4.12908 49.5031L3.93652 49.5031L3.89012 49.4288C3.75898 49.262 3.61384 49.1067 3.45627 48.9645C3.27241 48.7953 3.10105 48.613 2.94353 48.419C2.89939 48.3651 2.85981 48.3076 2.82521 48.2472C2.79186 48.1907 2.77275 48.127 2.76953 48.0615C2.77262 48.0033 2.78763 47.9464 2.81361 47.8943C2.84011 47.8389 2.87034 47.7854 2.90409 47.7341C3.06118 47.4957 3.2677 47.2938 3.50963 47.1422C3.77134 46.9664 4.05962 46.8339 4.36341 46.7498L4.42141 46.7336L10.0893 49.7121L9.80625 49.8676L6.48161 51.6041Z" fill="#A0222C"/>
<path fill-rule="evenodd" clip-rule="evenodd" d="M9.50757 38.425C9.56326 38.5039 9.61662 38.5875 9.66534 38.6734C9.71017 38.7522 9.75045 38.8336 9.78598 38.9171C9.81888 38.9969 9.84526 39.0792 9.86486 39.1632C9.88243 39.2394 9.89176 39.3172 9.8927 39.3953C9.89574 39.5647 9.86169 39.7327 9.79294 39.8875C9.72607 40.0288 9.61759 40.1463 9.48205 40.2241C9.3513 40.2991 9.2096 40.3532 9.06212 40.3843C8.89436 40.4199 8.7232 40.437 8.55171 40.4354L2.62166 40.4354C2.24065 40.4398 1.86073 40.3938 1.49179 40.2984C1.1838 40.2218 0.894792 40.0827 0.642654 39.8898C0.387087 39.6805 0.205008 39.3951 0.122963 39.075C0.0433531 38.7555 0.00745116 38.4267 0.0162402 38.0976L-1.7493e-07 36.4401L0.232005 36.5747C0.556117 36.7447 0.820757 37.0095 0.990662 37.3339C1.13219 37.6377 1.21109 37.9669 1.22267 38.3019C1.22267 38.3623 1.22267 38.4203 1.24123 38.4784L1.25979 38.5944C1.27505 38.598 1.29093 38.598 1.30619 38.5944L8.21066 38.6455C8.24971 38.6482 8.28882 38.6411 8.32435 38.6246C8.34167 38.6113 8.35555 38.594 8.36483 38.5742C8.37412 38.5544 8.37853 38.5327 8.37771 38.5109C8.37894 38.4014 8.36248 38.2924 8.32899 38.1882C8.23596 37.9043 8.0998 37.6366 7.9253 37.3942L7.9021 37.364L7.92762 37.3362C8.03666 37.2062 8.1457 37.0762 8.24779 36.9415L8.27563 36.9044L8.40091 37.0274C8.5607 37.1921 8.71097 37.3657 8.851 37.5474C9.06908 37.826 9.28949 38.1139 9.49597 38.4041L9.50757 38.425Z" fill="#A0222C"/>
<path fill-rule="evenodd" clip-rule="evenodd" d="M8.00094 44.8228L8.0427 44.7949C8.23676 44.6322 8.38871 44.4251 8.48565 44.1911C8.58258 43.9571 8.62164 43.7031 8.59951 43.4508C8.57227 42.9007 8.41823 42.3644 8.14942 41.8837C8.09301 41.7806 8.03105 41.6807 7.96382 41.5843L7.73181 41.2407L8.10998 41.0596L8.18654 41.1177C8.42695 41.3087 8.64768 41.5234 8.84544 41.7584C9.06463 42.007 9.26181 42.2742 9.43473 42.557C9.58512 42.8197 9.69907 43.1016 9.77346 43.395C9.85153 43.7023 9.8905 44.0182 9.88946 44.3352C9.89417 44.6618 9.85038 44.9873 9.75954 45.301C9.68116 45.5699 9.54407 45.8181 9.35817 46.0276C9.19976 46.2035 9.02057 46.3594 8.82455 46.4919C8.63689 46.625 8.43251 46.7327 8.2167 46.8123C7.54334 47.0387 6.82016 47.0725 6.12866 46.9098C5.43995 46.7628 4.80786 46.4212 4.30741 45.9255C3.97585 45.5857 3.71137 45.1864 3.52788 44.7485C3.35154 44.3135 3.26246 43.8481 3.26571 43.3788C3.26532 42.9609 3.37667 42.5505 3.5882 42.1902C3.80384 41.8333 4.06253 41.5042 4.35845 41.2105L4.47214 41.0898L8.00094 44.8228ZM7.25852 45.0874L5.96625 43.7293C5.80413 43.5666 5.5913 43.4642 5.36304 43.4391C5.22815 43.4198 5.09072 43.4285 4.95935 43.4647C4.84386 43.4947 4.73876 43.5557 4.65542 43.6411C4.56708 43.7341 4.51306 43.8545 4.5023 43.9824C4.48671 44.0885 4.49706 44.1968 4.53246 44.2981C4.63734 44.5352 4.82918 44.723 5.06839 44.8228C5.37773 44.9666 5.70841 45.0591 6.04745 45.0967C6.44898 45.1559 6.857 45.1559 7.25852 45.0967" fill="#A0222C"/>
<path fill-rule="evenodd" clip-rule="evenodd" d="M7.98745 64.1771L1.5493 64.1771C1.42362 64.1854 1.29768 64.1653 1.18081 64.1182C1.06394 64.0712 0.959143 63.9985 0.874166 63.9055C0.722003 63.6939 0.605972 63.4586 0.530799 63.209L0.389276 62.8422L0.189751 62.8422L0.12711 63.0117C0.0933153 63.1035 0.0684529 63.1983 0.0528684 63.2949C0.0346741 63.4047 0.0245932 63.5156 0.0227077 63.6269C0.0168047 63.7484 0.01913 63.8702 0.0296678 63.9914C0.0389073 64.1098 0.0551761 64.2277 0.0783887 64.3442L0.0783887 64.3651C0.130643 64.6185 0.220579 64.8627 0.345195 65.0894C0.465173 65.3083 0.622169 65.5046 0.809205 65.6698C0.989032 65.8311 1.19654 65.9585 1.4217 66.0459C1.65329 66.1283 1.89742 66.17 2.14324 66.1689L8.62778 66.1689C8.99704 66.166 9.36338 66.2346 9.7066 66.3709C10.5766 66.8352 11.0082 67.9959 11.0012 69.1567C10.9873 71.7591 8.63706 72.7597 7.53272 70.8978L7.34711 70.9489L7.34711 71.246C7.34589 71.5575 7.45806 71.8587 7.66264 72.0934C7.89271 72.3519 8.18983 72.5415 8.52106 72.6413C8.67233 72.6898 8.82761 72.7247 8.98507 72.7457L9.68108 72.7457C9.78549 72.7318 9.88989 72.7132 9.98965 72.69C10.1601 72.6512 10.3263 72.596 10.4861 72.5252C11.0553 72.2762 11.5249 71.8439 11.8202 71.2971C12.139 70.6825 12.2986 69.9976 12.2842 69.3053L12.2842 69.2797C12.2827 68.5886 12.1779 67.9016 11.9733 67.2415C11.7877 66.6486 11.49 66.0969 11.0963 65.6164C10.7256 65.1679 10.2596 64.8078 9.73212 64.5624C9.19105 64.3178 8.60439 64.1904 8.01065 64.1887L7.98977 64.1887L7.98745 64.1771Z" fill="#A0222C"/>
<path fill-rule="evenodd" clip-rule="evenodd" d="M15.9946 72.2879C16.1343 72.2929 16.2735 72.2696 16.4038 72.2192C16.5342 72.1688 16.653 72.0924 16.753 71.9948C16.853 71.8971 16.9321 71.7801 16.9856 71.6509C17.0391 71.5218 17.0658 71.3831 17.0641 71.2432C17.0655 71.0151 16.9829 70.7945 16.8321 70.6234C16.8321 70.6234 16.8762 70.6234 16.918 70.6234L17.0177 70.6234L17.0177 70.2937L15.9412 70.2937L15.9412 70.9554L16.2684 70.9554L16.2684 70.628L16.5004 70.628C16.635 70.7737 16.7118 70.9636 16.7161 71.162C16.7198 71.2588 16.7033 71.3553 16.6676 71.4453C16.6319 71.5354 16.5778 71.617 16.5088 71.6849C16.4399 71.7529 16.3574 71.8057 16.2669 71.8399C16.1764 71.8742 16.0797 71.8892 15.983 71.884C15.8868 71.8885 15.7907 71.8726 15.7011 71.8371C15.6115 71.8017 15.5304 71.7476 15.4633 71.6785C15.3961 71.6093 15.3445 71.5267 15.3117 71.436C15.2789 71.3454 15.2657 71.2488 15.2731 71.1527C15.2739 70.9464 15.3432 70.7463 15.4703 70.5839L15.1919 70.3912C15.0105 70.6159 14.9173 70.899 14.9297 71.1875C14.9244 71.3304 14.948 71.4729 14.9992 71.6064C15.0504 71.7399 15.1282 71.8616 15.2277 71.9642C15.3272 72.0668 15.4465 72.1482 15.5783 72.2035C15.7101 72.2587 15.8517 72.2866 15.9946 72.2856M15.9946 69.8573C16.2869 69.8573 16.5672 69.7411 16.7739 69.5343C16.9805 69.3275 17.0966 69.047 17.0966 68.7546C17.0966 68.4621 16.9805 68.1816 16.7739 67.9748C16.5672 67.7681 16.2869 67.6519 15.9946 67.6519C15.7023 67.6519 15.422 67.7681 15.2154 67.9748C15.0087 68.1816 14.8926 68.4621 14.8926 68.7546C14.8926 69.047 15.0087 69.3275 15.2154 69.5343C15.422 69.7411 15.7023 69.8573 15.9946 69.8573ZM15.9946 69.458C15.8082 69.458 15.6294 69.3839 15.4975 69.252C15.3657 69.1201 15.2916 68.9411 15.2916 68.7546C15.2916 68.568 15.3657 68.3891 15.4975 68.2572C15.6294 68.1253 15.8082 68.0512 15.9946 68.0512C16.181 68.0512 16.3598 68.1253 16.4917 68.2572C16.6235 68.3891 16.6976 68.568 16.6976 68.7546C16.6976 68.9411 16.6235 69.1201 16.4917 69.252C16.3598 69.3839 16.181 69.458 15.9946 69.458ZM17.0409 67.1086L17.0409 65.7993L16.7069 65.7993L16.7069 66.7279L14.9645 66.7279L14.9645 67.1156L17.0409 67.1086ZM17.0409 65.342L17.0409 64.613C17.0409 63.9561 16.6581 63.5266 16.0062 63.5266C15.3543 63.5266 14.9761 63.9561 14.9761 64.613L14.9761 65.342L17.0409 65.342ZM16.7185 64.9543L15.287 64.9543L15.287 64.6339C15.287 64.4455 15.3618 64.2648 15.4949 64.1316C15.6281 63.9984 15.8086 63.9235 15.9969 63.9235C16.1852 63.9235 16.3658 63.9984 16.4989 64.1316C16.6321 64.2648 16.7069 64.4455 16.7069 64.6339L16.7185 64.9543ZM16.3728 62.2776L16.3728 61.3722L16.0364 61.3722L16.0364 62.2776L16.3728 62.2776ZM17.0409 59.9886L17.0409 59.262C17.0409 58.605 16.6581 58.1755 16.0062 58.1755C15.3543 58.1755 14.9761 58.605 14.9761 59.262L14.9761 59.9886L17.0409 59.9886ZM16.7185 59.6009L15.287 59.6009L15.287 59.2829C15.287 59.0945 15.3618 58.9138 15.4949 58.7806C15.6281 58.6473 15.8086 58.5725 15.9969 58.5725C16.1852 58.5725 16.3658 58.6473 16.4989 58.7806C16.6321 58.9138 16.7069 59.0945 16.7069 59.2829L16.7185 59.6009ZM17.0409 57.6207L17.0409 57.233L14.9761 57.233L14.9761 57.6207L17.0409 57.6207ZM17.0409 55.2992L17.0409 54.8999L14.9761 55.6521L14.9761 56.056L17.0409 56.8082L17.0409 56.4089L16.512 56.2278L16.512 55.4803L17.0409 55.2992ZM15.3334 55.8494C15.3334 55.8494 15.5376 55.803 15.6536 55.7658L16.2057 55.5754L16.2057 56.1349L15.6536 55.9446C15.5376 55.9028 15.3334 55.8563 15.3334 55.8563L15.3334 55.8494ZM17.0409 54.5447L17.0409 54.157L15.8809 54.0665C15.7464 54.0665 15.5584 54.0665 15.5584 54.0665C15.5584 54.0665 15.7626 53.9991 15.8809 53.9481L16.6813 53.6068L16.6813 53.2679L15.8809 52.922C15.7626 52.8709 15.5631 52.8082 15.5631 52.8082C15.5631 52.8082 15.7464 52.8082 15.8809 52.8082L17.0409 52.7177L17.0409 52.3323L14.9761 52.5041L14.9761 52.9197L15.9853 53.312C16.1083 53.3607 16.2869 53.4188 16.2869 53.4188C16.2869 53.4188 16.1083 53.4791 15.9853 53.5279L14.9645 53.9458L14.9645 54.359L17.0409 54.5447ZM15.9946 51.8378C16.2869 51.8378 16.5672 51.7217 16.7739 51.5149C16.9805 51.3081 17.0966 51.0276 17.0966 50.7351C17.0966 50.4427 16.9805 50.1622 16.7739 49.9554C16.5672 49.7486 16.2869 49.6324 15.9946 49.6324C15.7023 49.6324 15.422 49.7486 15.2154 49.9554C15.0087 50.1622 14.8926 50.4427 14.8926 50.7351C14.8926 51.0276 15.0087 51.3081 15.2154 51.5149C15.422 51.7217 15.7023 51.8378 15.9946 51.8378ZM15.9946 51.4385C15.8082 51.4385 15.6294 51.3644 15.4975 51.2325C15.3657 51.1006 15.2916 50.9217 15.2916 50.7351C15.2916 50.5486 15.3657 50.3696 15.4975 50.2377C15.6294 50.1058 15.8082 50.0317 15.9946 50.0317C16.181 50.0317 16.3598 50.1058 16.4917 50.2377C16.6235 50.3696 16.6976 50.5486 16.6976 50.7351C16.6976 50.9217 16.6235 51.1006 16.4917 51.2325C16.3598 51.3644 16.181 51.4385 15.9946 51.4385ZM17.0409 49.0892L17.0409 48.7015L15.8392 48.7015C15.7185 48.7015 15.5213 48.7224 15.5213 48.7224C15.6306 48.669 15.7367 48.6093 15.8392 48.5436L17.0293 47.7404L17.0293 47.3573L14.9645 47.3573L14.9645 47.7404L16.157 47.7404C16.28 47.7404 16.4772 47.7195 16.4772 47.7195C16.3668 47.7715 16.2599 47.8304 16.157 47.8959L14.9645 48.7038L14.9645 49.0915L17.0409 49.0892ZM17.0409 46.6586L17.0409 45.9296C17.0409 45.2726 16.6581 44.8432 16.0062 44.8432C15.3543 44.8432 14.9761 45.2726 14.9761 45.9296L14.9761 46.6586L17.0409 46.6586ZM16.7185 46.2709L15.287 46.2709L15.287 45.9505C15.287 45.7621 15.3618 45.5814 15.4949 45.4482C15.6281 45.315 15.8086 45.2401 15.9969 45.2401C16.1852 45.2401 16.3658 45.315 16.4989 45.4482C16.6321 45.5814 16.7069 45.7621 16.7069 45.9505L16.7185 46.2709ZM16.3728 43.5942L16.3728 42.6888L16.0364 42.6888L16.0364 43.5942L16.3728 43.5942ZM17.0409 41.3052L17.0409 40.9175L16.3171 40.9175L16.3171 40.4834C16.3225 40.3912 16.309 40.2989 16.2775 40.2121C16.2459 40.1253 16.197 40.0458 16.1336 39.9786C16.0703 39.9114 15.9939 39.8579 15.9092 39.8213C15.8244 39.7847 15.7331 39.7659 15.6408 39.7659C15.5485 39.7659 15.4572 39.7847 15.3724 39.8213C15.2877 39.8579 15.2113 39.9114 15.1479 39.9786C15.0846 40.0458 15.0357 40.1253 15.0041 40.2121C14.9726 40.2989 14.9591 40.3912 14.9645 40.4834L14.9645 41.3098L17.0409 41.3052ZM16.0039 40.9175L15.3079 40.9175L15.3079 40.5438C15.304 40.4967 15.3104 40.4494 15.3267 40.4052C15.3429 40.3609 15.3686 40.3207 15.4019 40.2873C15.4352 40.2539 15.4754 40.2283 15.5197 40.212C15.5639 40.1958 15.6112 40.1893 15.6582 40.1932C15.7059 40.1897 15.7538 40.1966 15.7986 40.2133C15.8434 40.2301 15.8841 40.2564 15.9178 40.2903C15.9515 40.3243 15.9775 40.3651 15.994 40.4101C16.0104 40.455 16.017 40.503 16.0132 40.5507L16.0039 40.9175ZM17.0409 39.311L17.0409 38.0017L16.7069 38.0017L16.7069 38.9303L14.9645 38.9303L14.9645 39.3157L17.0409 39.311ZM17.0409 36.2327L17.0409 35.8334L14.9645 36.5972L14.9645 37.0035L17.0293 37.7533L17.0293 37.354L16.5004 37.1729L16.5004 36.4254L17.0409 36.2327ZM15.3334 36.7829C15.3334 36.7829 15.5376 36.7388 15.6536 36.6994L16.2057 36.509L16.2057 37.0615L15.6536 36.8735C15.5376 36.8317 15.3334 36.7829 15.3334 36.7829ZM17.0409 35.0929L17.0409 34.7052L15.287 34.7052L15.287 34.0087L14.9645 34.0087L14.9645 35.7963L15.287 35.7963L15.287 35.0998L17.0409 35.0929ZM17.0409 33.5746L17.0409 33.1869L14.9761 33.1869L14.9761 33.5793L17.0409 33.5746ZM17.0409 32.4974L17.0409 32.1098L15.8392 32.1098C15.7185 32.1098 15.5213 32.1306 15.5213 32.1306C15.6308 32.0784 15.7369 32.0195 15.8392 31.9542L17.0293 31.1463L17.0293 30.761L14.9645 30.761L14.9645 31.1463L16.157 31.1463C16.28 31.1463 16.4772 31.1254 16.4772 31.1254C16.367 31.1786 16.2601 31.2383 16.157 31.3042L14.9645 32.1121L14.9645 32.4998L17.0409 32.4974ZM16.2869 30.097C16.7509 30.097 17.0641 29.7511 17.0641 29.2357C17.0641 28.7204 16.7509 28.3745 16.2869 28.3745L14.9645 28.3745L14.9645 28.7622L16.2846 28.7622C16.3472 28.7578 16.4099 28.7674 16.4683 28.7904C16.5267 28.8133 16.5792 28.849 16.6221 28.8948C16.665 28.9406 16.6971 28.9953 16.7162 29.0551C16.7353 29.1149 16.7408 29.1782 16.7324 29.2404C16.7387 29.3003 16.7321 29.361 16.713 29.4182C16.6939 29.4753 16.6627 29.5277 16.6215 29.5718C16.5804 29.6158 16.5302 29.6505 16.4745 29.6734C16.4188 29.6964 16.3587 29.707 16.2985 29.7047L14.9761 29.7047L14.9761 30.097L16.2869 30.097ZM17.0293 27.7755L17.0293 27.3878L15.8693 27.2973C15.7348 27.2973 15.5468 27.2973 15.5468 27.2973C15.5468 27.2973 15.751 27.2323 15.8693 27.1812L16.6744 26.8469L16.6744 26.508L15.874 26.1505C15.7556 26.0994 15.5561 26.0367 15.5561 26.0367C15.5561 26.0367 15.7394 26.0367 15.874 26.0367L17.034 25.9462L17.034 25.5608L14.9691 25.7326L14.9691 26.1505L15.99 26.5683C16.1129 26.6148 16.2916 26.6728 16.2916 26.6728C16.2916 26.6728 16.1129 26.7308 15.99 26.7796L14.9691 27.1975L14.9691 27.613L17.0293 27.7755ZM16.3612 24.2283L16.3612 23.3229L16.0364 23.3229L16.0364 24.2283L16.3612 24.2283ZM16.7811 22.1018C16.9675 21.9026 17.069 21.6387 17.0641 21.3659C17.0641 20.9201 16.7881 20.6694 16.4586 20.6694C15.7997 20.6694 15.8902 21.6723 15.5306 21.6723C15.3844 21.6723 15.2823 21.5307 15.2823 21.3519C15.291 21.1817 15.3545 21.0188 15.4633 20.8876L15.1571 20.7182C15.0025 20.8934 14.9196 21.1206 14.9251 21.3543C14.9251 21.7652 15.1803 22.0716 15.5236 22.0716C16.1593 22.0716 16.0944 21.0641 16.4517 21.0641C16.621 21.0641 16.7022 21.2103 16.7022 21.3728C16.6925 21.5698 16.6155 21.7575 16.4841 21.9044L16.7811 22.1018ZM17.0293 20.1262L17.0293 19.7385L14.9645 19.7385L14.9645 20.1262L17.0293 20.1262ZM17.0293 19.049L17.0293 17.7397L16.7069 17.7397L16.7069 18.6683L14.9645 18.6683L14.9645 19.056L17.0293 19.049ZM17.0293 16.9295L17.0293 16.5441L14.9645 15.7664L14.9645 16.1796L16.3101 16.6439C16.4308 16.6857 16.6141 16.7205 16.6141 16.7252C16.6141 16.7252 16.4308 16.7647 16.3101 16.8064L14.9645 17.2707L14.9645 17.6886L17.0293 16.9295ZM17.0293 15.3509L17.0293 14.0253L16.7069 14.0253L16.7069 14.9539L16.1524 14.9539L16.1524 14.2342L15.8276 14.2342L15.8276 14.9539L15.287 14.9539L15.287 14.0787L14.9645 14.0787L14.9645 15.3578L17.0293 15.3509ZM17.0293 13.4728L17.0293 13.0851L16.2684 13.0851L16.2684 12.7136L17.0386 12.2888L17.0386 11.857L16.2684 12.3051C16.2317 12.325 16.1974 12.3492 16.1663 12.377C16.1189 12.2672 16.0395 12.1741 15.9386 12.1099C15.8376 12.0458 15.7197 12.0134 15.6002 12.0172C15.482 12.011 15.3647 12.041 15.264 12.1033C15.1633 12.1655 15.0839 12.2569 15.0364 12.3654C14.9871 12.5029 14.9673 12.6492 14.9784 12.7949L14.9784 13.4913L17.0293 13.4728ZM15.9343 13.0851L15.287 13.0851L15.287 12.7903C15.287 12.4885 15.4099 12.4002 15.6072 12.4002C15.6518 12.397 15.6965 12.4035 15.7383 12.4194C15.7802 12.4353 15.818 12.4601 15.8492 12.4922C15.8803 12.5243 15.9041 12.5628 15.9188 12.6051C15.9335 12.6474 15.9388 12.6923 15.9343 12.7369L15.9343 13.0851Z" fill="#231F20"/>
<path fill-rule="evenodd" clip-rule="evenodd" d="M17.4531 84.0703C17.447 86.3771 16.5288 88.5877 14.8991 90.2193C13.2694 91.8509 11.0606 92.7708 8.75525 92.7782C6.44967 92.7715 4.24041 91.8522 2.6099 90.2211C0.97938 88.59 0.0600786 86.3796 0.052734 84.0726C0.0600784 81.7656 0.97938 79.5552 2.60989 77.9241C4.24041 76.293 6.44967 75.3737 8.75525 75.367C11.0598 75.3743 13.2679 76.2936 14.8975 77.9242C16.527 79.5548 17.4458 81.7643 17.4531 84.0703Z" fill="#9F212C"/>
<path fill-rule="evenodd" clip-rule="evenodd" d="M17.4514 84.0699C17.4562 86.091 16.7601 88.0512 15.4818 89.616C14.2035 91.1809 12.4223 92.2536 10.4419 92.6511C8.4615 93.0486 6.40463 92.7463 4.62209 91.7958C2.83956 90.8453 1.44178 89.3055 0.667167 87.4389C-0.107446 85.5723 -0.21091 83.4947 0.374419 81.5603C0.959749 79.6259 2.19762 77.9546 3.87689 76.8315C5.55616 75.7084 7.57282 75.203 9.58289 75.4016C11.593 75.6001 13.4719 76.4903 14.8994 77.9203C15.7078 78.7271 16.3494 79.6856 16.7873 80.7408C17.2252 81.7961 17.4509 82.9273 17.4514 84.0699ZM17.108 84.0699C17.1107 82.1274 16.4397 80.2442 15.2095 78.7416C13.9793 77.239 12.2662 76.2101 10.3624 75.8304C8.45856 75.4507 6.48207 75.7437 4.77014 76.6596C3.0582 77.5754 1.71689 79.0573 0.975065 80.8523C0.23324 82.6473 0.136867 84.6443 0.702389 86.5025C1.26791 88.3607 2.46029 89.965 4.07607 91.0417C5.69185 92.1183 7.63092 92.6006 9.56242 92.4062C11.4939 92.2118 13.2982 91.3528 14.6673 89.9758C15.443 89.2007 16.0581 88.2801 16.4773 87.2666C16.8966 86.2531 17.1117 85.1668 17.1104 84.0699" fill="#A0222C"/>
<mask id="mask0_1841_3280" style="mask-type:luminance" maskUnits="userSpaceOnUse" x="1" y="76" width="15" height="16">
<path d="M6.65743 88.643C6.65972 88.5346 6.69396 88.4293 6.75585 88.3403C6.81774 88.2513 6.90453 88.1826 7.00532 88.1428C7.1061 88.103 7.21639 88.0939 7.32234 88.1166C7.42829 88.1393 7.52517 88.1928 7.60081 88.2704C7.67646 88.3481 7.7275 88.4463 7.74753 88.5529C7.76757 88.6594 7.75569 88.7695 7.7134 88.8693C7.67111 88.9691 7.60029 89.0542 7.50983 89.1139C7.41937 89.1736 7.31331 89.2052 7.20496 89.2048C7.10344 89.2045 7.00393 89.1764 6.91728 89.1235C6.93953 89.1736 6.95363 89.2269 6.95904 89.2814C8.39747 89.5135 8.11906 88.0672 8.11906 88.0672C7.98682 87.5379 4.89883 84.8171 4.89883 84.8171L4.71091 85.0261C4.42786 85.3464 4.44642 85.1538 4.44642 85.1538L5.69461 83.7609L5.67141 84.188C7.55993 85.5368 8.15618 86.7649 8.33019 87.264C8.8406 89.5855 7.30472 89.5855 7.30472 89.5855L8.63411 91.2454C11.1862 87.9558 12.62 86.6859 13.3438 86.1961C13.2355 86.1947 13.13 86.1614 13.0405 86.1002C12.951 86.039 12.8817 85.9527 12.841 85.8522C12.8004 85.7517 12.7904 85.6414 12.8122 85.5352C12.834 85.429 12.8867 85.3316 12.9636 85.2553C13.0405 85.1789 13.1383 85.127 13.2446 85.1061C13.3509 85.0852 13.4611 85.0961 13.5612 85.1376C13.6613 85.1791 13.7469 85.2493 13.8073 85.3393C13.8677 85.4293 13.9002 85.5352 13.9006 85.6436C13.9012 85.745 13.8739 85.8446 13.8218 85.9315C13.8705 85.9079 13.9232 85.8937 13.9772 85.8897C14.193 84.448 12.7568 84.7428 12.7568 84.7428C12.2279 84.8798 9.52501 87.9929 9.52501 87.9929L9.73614 88.181C10.0609 88.4642 9.86606 88.4456 9.86606 88.4456L8.50187 87.1688L8.47171 87.1688L8.49259 87.069L8.90788 87.069C10.1885 85.3975 11.3184 84.7475 11.8659 84.5153C14.2022 83.9976 14.2022 85.5391 14.2022 85.5391L15.868 84.2182C12.5782 81.6529 11.2999 80.2206 10.8103 79.4963C10.8089 79.6047 10.7756 79.7103 10.7145 79.7998C10.6533 79.8893 10.5671 79.9587 10.4666 79.9994C10.3662 80.04 10.256 80.0501 10.1498 80.0282C10.0437 80.0064 9.94638 79.9537 9.87009 79.8767C9.79379 79.7997 9.74193 79.7019 9.72101 79.5955C9.70009 79.4891 9.71104 79.3789 9.7525 79.2788C9.79396 79.1786 9.86408 79.0929 9.95404 79.0325C10.044 78.9721 10.1498 78.9396 10.2581 78.9391C10.3589 78.9374 10.4579 78.9648 10.5435 79.018C10.5213 78.968 10.5072 78.9147 10.5018 78.8602C9.06332 78.6443 9.35797 80.0813 9.35797 80.0813C9.49485 80.6129 12.606 83.3151 12.606 83.3151L12.794 83.1062C13.0747 82.7812 13.0585 82.9762 13.0585 82.9762L11.9239 84.188L11.6919 84.2553L11.8335 84.0232C10.3162 82.9298 9.25589 81.191 9.13293 80.9797L9.119 80.9588C8.57611 78.5445 10.1468 78.5723 10.1468 78.5723L8.8406 76.8962C6.2607 80.1672 4.81995 81.4231 4.09145 81.9083C4.19978 81.9106 4.30501 81.9448 4.39395 82.0068C4.48288 82.0687 4.55154 82.1556 4.59131 82.2564C4.63109 82.3573 4.6402 82.4676 4.6175 82.5736C4.5948 82.6796 4.54131 82.7766 4.46374 82.8523C4.38617 82.928 4.28798 82.979 4.1815 82.9991C4.07501 83.0191 3.96499 83.0072 3.86523 82.9649C3.76548 82.9226 3.68044 82.8517 3.6208 82.7612C3.56115 82.6707 3.52957 82.5646 3.53 82.4562C3.52705 82.3406 3.55171 82.226 3.60192 82.1219C3.546 82.1388 3.49504 82.1691 3.45344 82.2101C3.22143 83.6494 4.66682 83.3708 4.66682 83.3708C5.1958 83.2385 7.9149 80.1486 7.9149 80.1486L7.70841 79.9606C7.38593 79.6773 7.57849 79.6959 7.57849 79.6959L8.9334 80.982L8.59235 81.0168C7.85576 82.1009 6.86583 82.9886 5.70853 83.603C3.53464 84.3691 3.24231 82.3749 3.24231 82.3749L1.64844 83.8816C4.92203 86.4724 6.17254 87.9024 6.65743 88.643Z" fill="white"/>
</mask>
<g mask="url(#mask0_1841_3280)">
<path d="M1.64844 76.8962L1.64844 91.2454L15.8564 91.2454L15.8564 76.8962L1.64844 76.8962Z" fill="url(#paint0_linear_1841_3280)"/>
</g>
<mask id="mask1_1841_3280" style="mask-type:luminance" maskUnits="userSpaceOnUse" x="5" y="80" width="7" height="8">
<path d="M8.29817 87.178C8.38618 87.1172 8.48601 87.0756 8.59114 87.056C8.69628 87.0364 8.80436 87.0392 8.90835 87.0642C8.90835 87.0642 10.2285 85.2488 11.8664 84.5106C11.8664 84.5106 11.5462 84.4479 11.8432 84.0184C10.7564 83.1884 9.8395 82.1566 9.14267 80.9796L8.60674 81.0121C7.84997 82.0846 6.85899 82.9707 5.709 83.6029L5.69044 83.7561L5.67187 84.1879C5.67187 84.1879 7.66248 85.5227 8.29817 87.1826" fill="white"/>
</mask>
<g mask="url(#mask1_1841_3280)">
<path d="M5.67187 80.9814L5.67188 87.1775L11.8664 87.1775L11.8664 80.9814L5.67187 80.9814Z" fill="url(#paint1_linear_1841_3280)"/>
</g>
<path d="M8.94303 82.5636C8.92368 82.5606 8.9039 82.5647 8.88735 82.5752C8.74752 82.6855 8.59084 82.7725 8.42334 82.8329C8.33285 82.8538 8.11709 82.863 8.08693 82.7284C8.05677 82.5937 8.22845 82.5287 8.34213 82.5566C8.45582 82.5845 8.49526 82.4173 8.38853 82.3918C8.32154 82.3626 8.24725 82.3545 8.17554 82.3686C8.10384 82.3827 8.03813 82.4183 7.98717 82.4707C7.95536 82.5179 7.93324 82.5709 7.92209 82.6267C7.91094 82.6825 7.91098 82.7399 7.9222 82.7957C7.88135 82.9554 7.82541 83.1109 7.75516 83.26C7.69716 83.3575 7.60668 83.4504 7.48603 83.4132C7.44577 83.4048 7.41046 83.3808 7.38785 83.3465C7.36524 83.3121 7.35716 83.2702 7.36539 83.2298C7.39323 83.1347 7.49995 83.1393 7.58348 83.1416C7.60411 83.1382 7.62287 83.1276 7.63641 83.1117C7.64995 83.0957 7.65738 83.0755 7.65738 83.0546C7.65738 83.0336 7.64995 83.0134 7.63641 82.9974C7.62287 82.9815 7.60411 82.9709 7.58348 82.9675C7.40251 82.9675 7.21227 83.0093 7.19139 83.2159C7.18477 83.2806 7.19649 83.3458 7.22521 83.4041C7.25394 83.4624 7.2985 83.5114 7.35379 83.5456L7.35379 83.5664C7.43615 83.7141 7.48004 83.8802 7.48139 84.0493C7.48583 84.1174 7.47223 84.1855 7.44195 84.2466C7.43161 84.2669 7.41682 84.2846 7.39867 84.2984C7.38053 84.3121 7.35951 84.3216 7.33718 84.3261C7.31486 84.3305 7.29182 84.3299 7.26979 84.3242C7.24775 84.3185 7.22729 84.3078 7.20995 84.2931C7.19139 84.1979 7.20995 84.1491 7.29115 84.1468C7.3133 84.1407 7.3321 84.126 7.34341 84.1059C7.34901 84.096 7.35261 84.0851 7.35399 84.0738C7.35537 84.0625 7.35452 84.051 7.35147 84.04C7.34842 84.0291 7.34325 84.0188 7.33624 84.0098C7.32922 84.0008 7.32051 83.9933 7.3106 83.9877C7.30069 83.9821 7.28978 83.9785 7.27848 83.9772C7.26718 83.9758 7.25572 83.9766 7.24475 83.9797C7.09163 84.0191 6.92458 84.1445 7.01274 84.3233C7.04624 84.382 7.09677 84.4293 7.15767 84.4587C7.21857 84.4881 7.28695 84.4984 7.35379 84.4881C7.46368 84.5998 7.58957 84.6944 7.72732 84.769C7.82757 84.8232 7.90437 84.9125 7.94308 85.0197C7.94865 85.0482 7.94779 85.0776 7.94056 85.1057C7.93334 85.1338 7.91993 85.1599 7.90132 85.1822C7.84605 85.2101 7.78249 85.2167 7.72268 85.2008C7.67164 85.2008 7.63916 85.159 7.62988 85.0917C7.71572 85.022 7.59508 84.9013 7.50923 84.971C7.20531 85.2147 7.82476 85.5583 8.04981 85.2704L8.07765 85.2333C8.24008 85.2112 8.40475 85.2112 8.56718 85.2333C8.67158 85.2542 8.79918 85.2983 8.78294 85.4283C8.78294 85.5095 8.6507 85.6604 8.57646 85.5583C8.50222 85.4561 8.36069 85.5583 8.42798 85.6442C8.61358 85.8926 8.96623 85.6837 8.95463 85.412L8.95463 85.3494C9.06852 85.2855 9.17853 85.215 9.28407 85.1381C9.36471 85.0759 9.46302 85.0409 9.5648 85.0383C9.62512 85.0383 9.72953 85.0847 9.7156 85.1706C9.7156 85.1961 9.61352 85.2797 9.59032 85.2263C9.54624 85.1265 9.39776 85.2124 9.44184 85.3145C9.48592 85.4167 9.704 85.4422 9.79681 85.3772C9.84782 85.3285 9.8812 85.2642 9.8917 85.1945C9.9022 85.1247 9.88922 85.0534 9.85481 84.9918C9.82586 84.944 9.78176 84.9073 9.72952 84.8874L9.72952 84.8735C9.72858 84.6881 9.77575 84.5058 9.86641 84.3442C9.90348 84.3009 9.95135 84.2682 10.0051 84.2494C10.0589 84.2307 10.1167 84.2265 10.1727 84.2374C10.2101 84.2369 10.2469 84.2465 10.2794 84.2652L10.3374 84.3767C10.3258 84.444 10.2051 84.4045 10.1703 84.3952C10.0659 84.3604 10.0195 84.5275 10.1263 84.5601C10.2747 84.6065 10.4534 84.6018 10.5021 84.4231C10.5097 84.3821 10.5087 84.3401 10.4991 84.2995C10.4895 84.259 10.4716 84.2209 10.4465 84.1877C10.4214 84.1545 10.3897 84.1269 10.3533 84.1067C10.3169 84.0865 10.2767 84.074 10.2353 84.0702C10.2075 84.0702 10.1796 84.0702 10.1541 84.0702C10.1498 84.0572 10.1427 84.0453 10.1332 84.0354C9.99188 83.8863 9.87799 83.7134 9.79681 83.5247C9.74809 83.4086 9.69704 83.2159 9.87569 83.1602C9.93709 83.1461 10.0015 83.1552 10.0567 83.1857C10.1564 83.2298 10.1634 83.2948 10.0799 83.3807C9.97081 83.3691 9.97081 83.5409 10.0799 83.5525C10.1191 83.5554 10.1584 83.5482 10.1941 83.5316C10.2298 83.515 10.2607 83.4897 10.284 83.4578C10.3072 83.426 10.3219 83.3888 10.3268 83.3498C10.3317 83.3107 10.3265 83.271 10.3119 83.2345C10.278 83.1508 10.2171 83.0808 10.1389 83.0358C10.0607 82.9908 9.96965 82.9733 9.88033 82.9861C9.84663 82.9904 9.81377 82.9998 9.78289 83.0139C9.77 83.0103 9.75634 83.0103 9.74345 83.0139C9.58318 83.0167 9.42442 82.9825 9.27943 82.9141C9.19823 82.8746 9.10311 82.8027 9.10311 82.7029C9.10284 82.6704 9.1147 82.639 9.13637 82.6149C9.15804 82.5907 9.18794 82.5756 9.22022 82.5724C9.25249 82.5692 9.28479 82.5782 9.31077 82.5976C9.33675 82.617 9.35454 82.6454 9.36064 82.6773C9.38384 82.7864 9.55088 82.74 9.52768 82.6309C9.52039 82.5627 9.49014 82.4991 9.4419 82.4505C9.39366 82.4018 9.33031 82.371 9.26227 82.3632C9.19423 82.3554 9.12555 82.3709 9.06753 82.4074C9.0095 82.4438 8.9656 82.4989 8.94303 82.5636ZM9.17503 83.0418C9.31461 83.1109 9.46552 83.1541 9.62048 83.1695C9.5878 83.2422 9.57576 83.3225 9.58568 83.4016C9.64161 83.6622 9.77316 83.9004 9.96385 84.0865C9.68544 84.1863 9.5996 84.5508 9.56944 84.8618C9.53341 84.8618 9.49752 84.8664 9.46272 84.8758C9.23071 84.9292 9.08223 85.1079 8.87807 85.2077C8.72262 85.0383 8.38389 85.0499 8.14261 85.0685C8.14261 84.7968 7.72732 84.6042 7.53244 84.4277C7.74124 84.2559 7.66468 83.8613 7.56492 83.6106C7.85724 83.6106 7.96861 83.2345 8.05445 82.9721C8.1639 83.0225 8.2851 83.0418 8.40477 83.0279C8.5973 82.9823 8.77723 82.8942 8.93143 82.7702C8.9474 82.8319 8.97635 82.8895 9.01636 82.9392C9.05637 82.9888 9.10651 83.0293 9.16343 83.058" fill="#9F212C"/>
<path d="M7.68524 82.6935C7.71144 82.6935 7.73706 82.7012 7.75885 82.7158C7.78064 82.7303 7.79762 82.751 7.80765 82.7752C7.81768 82.7993 7.8203 82.826 7.81519 82.8516C7.81008 82.8773 7.79746 82.9009 7.77893 82.9194C7.7604 82.9379 7.73679 82.9505 7.71108 82.9556C7.68538 82.9607 7.65874 82.9581 7.63453 82.9481C7.61032 82.938 7.58962 82.9211 7.57506 82.8993C7.56051 82.8776 7.55273 82.852 7.55273 82.8258C7.55333 82.7909 7.56748 82.7576 7.5922 82.7329C7.61692 82.7082 7.65028 82.6941 7.68524 82.6935Z" fill="#9F212C"/>
<path d="M8.78954 82.3058C8.80703 82.3054 8.8244 82.3086 8.84062 82.3152C8.85684 82.3217 8.87157 82.3315 8.88394 82.3438C8.8963 82.3562 8.90605 82.3709 8.9126 82.3871C8.91915 82.4033 8.92236 82.4206 8.92204 82.4381C8.92454 82.4568 8.923 82.4758 8.91755 82.4938C8.91209 82.5119 8.90283 82.5285 8.8904 82.5427C8.87796 82.5569 8.86263 82.5683 8.84544 82.5761C8.82824 82.5839 8.80958 82.5879 8.7907 82.5879C8.77182 82.5879 8.75316 82.5839 8.73597 82.5761C8.71878 82.5683 8.70345 82.5569 8.69101 82.5427C8.67858 82.5285 8.66932 82.5119 8.66386 82.4938C8.6584 82.4758 8.65687 82.4568 8.65937 82.4381C8.65906 82.4208 8.6622 82.4037 8.6686 82.3876C8.675 82.3716 8.68454 82.357 8.69666 82.3446C8.70878 82.3323 8.72324 82.3225 8.73918 82.3159C8.75513 82.3092 8.77225 82.3057 8.78954 82.3058Z" fill="#9F212C"/>
<path d="M9.84344 82.7113C9.87858 82.7113 9.91228 82.7252 9.93713 82.75C9.96198 82.7749 9.97594 82.8085 9.97594 82.8436C9.97625 82.8611 9.97304 82.8784 9.96649 82.8946C9.95995 82.9108 9.9502 82.9255 9.93783 82.9379C9.92547 82.9502 9.91073 82.96 9.89451 82.9665C9.8783 82.973 9.86093 82.9762 9.84344 82.9759C9.8083 82.9759 9.77459 82.962 9.74975 82.9372C9.7249 82.9124 9.71094 82.8787 9.71094 82.8436C9.71154 82.8087 9.72569 82.7754 9.75041 82.7507C9.77513 82.726 9.80848 82.7119 9.84344 82.7113Z" fill="#9F212C"/>
<path d="M10.4098 83.7075C10.4361 83.7075 10.4617 83.7153 10.4835 83.7298C10.5052 83.7444 10.5222 83.765 10.5323 83.7892C10.5423 83.8134 10.5449 83.84 10.5398 83.8657C10.5347 83.8913 10.5221 83.9149 10.5035 83.9334C10.485 83.9519 10.4614 83.9645 10.4357 83.9696C10.41 83.9747 10.3833 83.9721 10.3591 83.9621C10.3349 83.9521 10.3142 83.9351 10.2997 83.9134C10.2851 83.8916 10.2773 83.866 10.2773 83.8398C10.2773 83.8047 10.2913 83.7711 10.3162 83.7463C10.341 83.7215 10.3747 83.7075 10.4098 83.7075Z" fill="#9F212C"/>
<path d="M10.1813 84.8242C10.2165 84.8242 10.2502 84.8382 10.275 84.863C10.2999 84.8878 10.3138 84.9214 10.3138 84.9565C10.3138 84.9916 10.2999 85.0253 10.275 85.0501C10.2502 85.0749 10.2165 85.0889 10.1813 85.0889C10.1462 85.0889 10.1125 85.0749 10.0876 85.0501C10.0628 85.0253 10.0488 84.9916 10.0488 84.9565C10.0488 84.9214 10.0628 84.8878 10.0876 84.863C10.1125 84.8382 10.1462 84.8242 10.1813 84.8242Z" fill="#9F212C"/>
<path d="M9.33174 85.5812C9.35804 85.5812 9.38375 85.589 9.40559 85.6036C9.42743 85.6183 9.4444 85.6391 9.45436 85.6634C9.46432 85.6877 9.4668 85.7145 9.4615 85.7402C9.45619 85.7659 9.44334 85.7895 9.42458 85.8079C9.40581 85.8263 9.38199 85.8387 9.35614 85.8436C9.33028 85.8484 9.30357 85.8454 9.2794 85.8351C9.25524 85.8247 9.23471 85.8074 9.22043 85.7853C9.20615 85.7633 9.19878 85.7374 9.19924 85.7112C9.19985 85.6765 9.21408 85.6434 9.23886 85.6191C9.26364 85.5948 9.297 85.5812 9.33174 85.5812Z" fill="#9F212C"/>
<path d="M8.17156 85.5625C8.2067 85.5625 8.24041 85.5764 8.26526 85.6012C8.2901 85.626 8.30406 85.6597 8.30406 85.6948C8.30438 85.7123 8.30117 85.7296 8.29462 85.7458C8.28807 85.762 8.27832 85.7767 8.26596 85.7891C8.25359 85.8014 8.23886 85.8112 8.22264 85.8177C8.20642 85.8242 8.18905 85.8274 8.17156 85.8271C8.13642 85.8271 8.10272 85.8132 8.07787 85.7884C8.05302 85.7636 8.03906 85.7299 8.03906 85.6948C8.03966 85.6599 8.05381 85.6266 8.07853 85.6019C8.10325 85.5772 8.13661 85.5631 8.17156 85.5625Z" fill="#9F212C"/>
<path d="M7.2868 84.8147C7.313 84.8147 7.33862 84.8225 7.36041 84.837C7.3822 84.8515 7.39918 84.8722 7.40921 84.8964C7.41924 84.9206 7.42187 84.9472 7.41675 84.9728C7.41164 84.9985 7.39902 85.0221 7.38049 85.0406C7.36196 85.0591 7.33835 85.0717 7.31265 85.0768C7.28694 85.0819 7.2603 85.0793 7.23609 85.0693C7.21188 85.0593 7.19119 85.0423 7.17663 85.0205C7.16207 84.9988 7.1543 84.9732 7.1543 84.947C7.1543 84.9119 7.16826 84.8783 7.19311 84.8535C7.21795 84.8286 7.25166 84.8147 7.2868 84.8147Z" fill="#9F212C"/>
<path d="M7.0876 83.6772C7.12255 83.6778 7.15591 83.692 7.18063 83.7166C7.20535 83.7413 7.2195 83.7746 7.2201 83.8095C7.2201 83.8446 7.20614 83.8783 7.18129 83.9031C7.15644 83.9279 7.12274 83.9419 7.0876 83.9419C7.07011 83.9422 7.05274 83.939 7.03652 83.9324C7.02031 83.9259 7.00557 83.9162 6.99321 83.9038C6.98084 83.8915 6.97109 83.8768 6.96454 83.8606C6.958 83.8444 6.95478 83.827 6.9551 83.8095C6.9551 83.7745 6.96906 83.7408 6.99391 83.716C7.01876 83.6912 7.05246 83.6772 7.0876 83.6772Z" fill="#9F212C"/>
<defs>
<linearGradient id="paint0_linear_1841_3280" x1="9.14" y1="91.1784" x2="9.14" y2="76.8292" gradientUnits="userSpaceOnUse">
<stop stop-color="#C4843E"/>
<stop offset="0.18" stop-color="#E7B164"/>
<stop offset="0.32" stop-color="#FFD17F"/>
<stop offset="0.68" stop-color="#FCEB9E"/>
<stop offset="1" stop-color="#F9CE6E"/>
</linearGradient>
<linearGradient id="paint1_linear_1841_3280" x1="9.28524" y1="87.082" x2="9.28524" y2="80.8859" gradientUnits="userSpaceOnUse">
<stop stop-color="#ECBE62"/>
<stop offset="0.13" stop-color="#FFF7D1"/>
<stop offset="0.23" stop-color="#ECBE62"/>
<stop offset="0.35" stop-color="#FEE58B"/>
<stop offset="0.47" stop-color="#FFDAA6"/>
<stop offset="0.59" stop-color="#ECBE62"/>
<stop offset="0.73" stop-color="#FEE58B"/>
<stop offset="0.86" stop-color="#ECBE62"/>
<stop offset="1" stop-color="#FFF7D1"/>
</linearGradient>
</defs>
</svg>
