<svg width="53" height="28" viewBox="0 0 53 28" fill="none" xmlns="http://www.w3.org/2000/svg">
<rect width="53" height="28" rx="5.18184" fill="#A0222C"/>
<path d="M18.3869 7.8409L6.52227 13.0354C6.02354 13.2268 6.04979 13.4728 6.57478 13.5548L12.1134 14.8945C12.1641 14.9077 12.2104 14.935 12.2474 14.9736C12.2844 15.0121 12.3107 15.0603 12.3234 15.1132L13.8983 20.7178C14.0296 21.2646 14.2396 21.2646 14.3971 20.7451L18.7282 8.16897C18.8069 7.89557 18.6494 7.73154 18.3869 7.8409Z" fill="white"/>
<path d="M22.6573 9.71124H24.2346L26.9769 16.4072H27.0778L29.8202 9.71124H31.3974V18.3252H30.1609V12.0919H30.0809L27.5405 18.3126H26.5142L23.9738 12.0876H23.8939V18.3252H22.6573V9.71124ZM35.0661 18.4682C34.6568 18.4682 34.2866 18.3925 33.9558 18.2411C33.6249 18.0869 33.3627 17.8639 33.1692 17.5723C32.9786 17.2807 32.8832 16.9232 32.8832 16.4998C32.8832 16.1353 32.9533 15.8352 33.0935 15.5997C33.2337 15.3641 33.423 15.1777 33.6613 15.0403C33.8997 14.9029 34.1661 14.7991 34.4605 14.729C34.7549 14.6589 35.0549 14.6057 35.3606 14.5692C35.7475 14.5243 36.0616 14.4879 36.3027 14.4598C36.5439 14.429 36.7191 14.3799 36.8285 14.3126C36.9378 14.2453 36.9925 14.136 36.9925 13.9846V13.9551C36.9925 13.5878 36.8888 13.3032 36.6813 13.1013C36.4766 12.8994 36.1709 12.7985 35.7644 12.7985C35.3409 12.7985 35.0073 12.8924 34.7633 13.0803C34.5222 13.2653 34.3553 13.4714 34.2628 13.6986L33.0809 13.4294C33.2211 13.0368 33.4258 12.72 33.695 12.4788C33.967 12.2349 34.2796 12.0582 34.6329 11.9488C34.9862 11.8367 35.3578 11.7806 35.7475 11.7806C36.0055 11.7806 36.2789 11.8114 36.5677 11.8731C36.8593 11.932 37.1313 12.0414 37.3837 12.2012C37.6388 12.361 37.8477 12.5896 38.0104 12.8868C38.173 13.1812 38.2543 13.564 38.2543 14.035V18.3252H37.0262V17.4419H36.9757C36.8944 17.6046 36.7724 17.7644 36.6098 17.9214C36.4471 18.0784 36.2382 18.2088 35.9831 18.3126C35.7279 18.4163 35.4223 18.4682 35.0661 18.4682ZM35.3395 17.4588C35.6872 17.4588 35.9845 17.3901 36.2312 17.2527C36.4808 17.1153 36.6701 16.9358 36.799 16.7143C36.9308 16.49 36.9967 16.2502 36.9967 15.9951V15.1623C36.9519 15.2071 36.8649 15.2492 36.7359 15.2884C36.6098 15.3249 36.4654 15.3571 36.3027 15.3852C36.1401 15.4104 35.9817 15.4342 35.8274 15.4567C35.6732 15.4763 35.5442 15.4931 35.4405 15.5072C35.1965 15.538 34.9736 15.5899 34.7717 15.6628C34.5726 15.7357 34.4128 15.8408 34.2922 15.9782C34.1745 16.1128 34.1156 16.2923 34.1156 16.5166C34.1156 16.8278 34.2306 17.0634 34.4605 17.2232C34.6904 17.3802 34.9834 17.4588 35.3395 17.4588ZM39.9294 20.7479V11.8647H41.1575V12.912H41.2627C41.3356 12.7774 41.4407 12.6218 41.5781 12.4452C41.7155 12.2685 41.9062 12.1143 42.1502 11.9825C42.3941 11.8479 42.7166 11.7806 43.1176 11.7806C43.6391 11.7806 44.1046 11.9124 44.514 12.176C44.9233 12.4396 45.2444 12.8195 45.4771 13.3158C45.7127 13.8121 45.8304 14.4094 45.8304 15.1076C45.8304 15.8058 45.7141 16.4044 45.4813 16.9036C45.2486 17.3999 44.929 17.7826 44.5224 18.0518C44.1158 18.3182 43.6517 18.4514 43.1302 18.4514C42.7376 18.4514 42.4165 18.3855 42.167 18.2537C41.9202 18.1219 41.7268 17.9677 41.5866 17.791C41.4464 17.6144 41.3384 17.4574 41.2627 17.32H41.187V20.7479H39.9294ZM41.1617 15.095C41.1617 15.5492 41.2276 15.9474 41.3594 16.2895C41.4912 16.6316 41.6819 16.8993 41.9315 17.0928C42.181 17.2835 42.4866 17.3788 42.8484 17.3788C43.2241 17.3788 43.5382 17.2793 43.7905 17.0802C44.0429 16.8783 44.2336 16.6049 44.3625 16.26C44.4943 15.9151 44.5602 15.5268 44.5602 15.095C44.5602 14.6687 44.4957 14.286 44.3667 13.9467C44.2406 13.6074 44.0499 13.3396 43.7947 13.1434C43.5424 12.9471 43.2269 12.8489 42.8484 12.8489C42.4838 12.8489 42.1754 12.9429 41.923 13.1307C41.6735 13.3186 41.4842 13.5808 41.3552 13.9173C41.2262 14.2538 41.1617 14.6463 41.1617 15.095Z" fill="white"/>
</svg>
