<svg width="19" height="25" viewBox="0 0 19 25" fill="none" xmlns="http://www.w3.org/2000/svg">
<path d="M11.6445 7.51953L11.0195 7.03125L11.3662 7.75391C11.574 8.11376 11.702 8.51406 11.7416 8.92769C11.7812 9.34132 11.7314 9.75863 11.5957 10.1514C11.5559 10.2414 11.4831 10.3128 11.3923 10.3509C11.3015 10.3891 11.1996 10.391 11.1074 10.3564C11.0145 10.3163 10.9398 10.2433 10.8975 10.1514C10.877 10.1052 10.8664 10.0553 10.8664 10.0049C10.8664 9.95442 10.877 9.90453 10.8975 9.8584C11.2393 9.02832 10.6826 7.9834 10.3213 7.41699L10.0967 7.0752L9.98926 7.4707C9.74674 8.44064 9.20107 9.30789 8.43164 9.94629C8.37343 9.99093 8.30369 10.018 8.23061 10.0244C8.15753 10.0308 8.08414 10.0163 8.01905 9.98246C7.95396 9.94863 7.89986 9.89694 7.8631 9.83345C7.82634 9.76997 7.80845 9.69732 7.81152 9.62402C7.82454 9.52303 7.87509 9.43065 7.95312 9.36523C8.7014 8.7316 9.19559 7.84899 9.34473 6.87988L9.40332 6.50391L9.07129 6.68945C6.49316 8.11523 1.36133 13.6719 1.36133 17.1973C1.36133 21.4111 5.12598 24.834 9.75488 24.834C14.3838 24.834 18.1484 21.416 18.1484 17.1973C18.1484 14.1309 14.2666 9.60938 11.6445 7.51953Z" fill="#D99A26"/>
<path d="M11.2988 6.14258L10.9766 5.89844L11.3721 5.81543C11.4575 5.80061 11.535 5.75636 11.5912 5.69036C11.6474 5.62436 11.6787 5.54077 11.6797 5.4541C11.6795 5.37502 11.6544 5.29801 11.608 5.23401C11.5615 5.17002 11.496 5.1223 11.4209 5.09766L11.1621 5.00488L11.3428 4.80469C12.2363 3.79395 13.2959 2.14844 13.2959 0.830078C13.2812 0.0927735 12.2754 0 11.4014 0C10.9131 0 10.3662 0.0341797 9.93652 0.0585938C9.42477 0.102536 8.91019 0.102536 8.39844 0.0585938C7.96387 0.0585938 7.42188 0 6.93359 0C6.05957 0 5.05371 0.0927735 5.05371 0.830078C5.05371 2.11426 6.1377 3.70605 7.15332 4.76562L7.43652 5.05859H7.02637C6.93205 5.05904 6.84134 5.09492 6.77224 5.15912C6.70314 5.22331 6.66069 5.31114 6.65332 5.40517C6.64594 5.4992 6.67418 5.59257 6.73243 5.66675C6.79068 5.74094 6.87468 5.79052 6.96777 5.80566L7.36328 5.88379L7.04102 6.12793C4.18945 8.30078 0 13.1055 0 16.6016C0 21.2354 4.10645 25 9.16016 25C14.2139 25 18.3203 21.2354 18.3203 16.6016C18.3203 13.1201 14.1309 8.30078 11.2988 6.14258ZM5.81543 1.04492V0.883789L5.97168 0.844727C6.29351 0.784141 6.62087 0.757952 6.94824 0.766602C7.43652 0.766602 7.92481 0.795898 8.35449 0.825195C8.90556 0.864212 9.4587 0.864212 10.0098 0.825195C10.8051 0.741139 11.607 0.741139 12.4023 0.825195L12.5586 0.864258V1.02539C12.417 2.26562 11.1328 4.15527 10.0732 5.00977L10.0244 5.04883H8.65723L8.6084 5.00977C7.32422 4.07715 5.95703 2.28027 5.81543 1.04492ZM9.16016 24.2334C4.53125 24.2334 0.766602 20.8154 0.766602 16.6016C0.766602 13.0615 5.89355 7.51953 8.46191 6.08887L8.78906 5.9082L8.72559 6.2793C8.58037 7.25886 8.08195 8.15151 7.32422 8.78906C7.28439 8.82042 7.25131 8.85952 7.22698 8.90399C7.20264 8.94846 7.18755 8.9974 7.18262 9.04785C7.17244 9.14795 7.20228 9.248 7.26562 9.32617C7.33121 9.4036 7.42403 9.45286 7.52491 9.46376C7.62579 9.47467 7.727 9.44639 7.80762 9.38477C8.57525 8.74479 9.12052 7.87817 9.36523 6.90918L9.46777 6.51367L9.69238 6.85059C10.0586 7.40234 10.6152 8.44238 10.2686 9.29199C10.2297 9.38748 10.2297 9.49435 10.2686 9.58984C10.288 9.63636 10.3166 9.67849 10.3527 9.71372C10.3888 9.74895 10.4316 9.77656 10.4785 9.79492C10.5715 9.8257 10.6725 9.82134 10.7625 9.78265C10.8525 9.74396 10.9252 9.67362 10.9668 9.58496C11.0999 9.19156 11.1478 8.77436 11.1074 8.36103C11.067 7.94769 10.9392 7.54768 10.7324 7.1875L10.3906 6.46973L11.0107 6.95801C13.6719 9.01367 17.5781 13.5352 17.5781 16.6016C17.5781 20.8105 13.7891 24.2334 9.16016 24.2334Z" fill="#9F212C"/>
<path d="M8.55469 5.02935L8.60352 5.06841H9.9707L10.0195 5.02935C11.0791 4.17486 12.3633 2.28521 12.5049 1.04498V0.883843L12.3486 0.844781C11.5533 0.760724 10.7514 0.760724 9.95605 0.844781C9.40499 0.883798 8.85185 0.883798 8.30078 0.844781C7.86133 0.815484 7.36328 0.786187 6.89453 0.786187C6.56716 0.777537 6.2398 0.803726 5.91797 0.864312L5.76172 0.903375V1.06451C5.95703 2.28033 7.32422 4.0772 8.55469 5.02935Z" fill="white"/>
<path d="M12.4452 13.1836H6.83594V14.2502H8.81672C9.55374 14.3709 10.1046 14.6704 10.3298 15.0649H6.83594V16.1315H10.2577C10.2189 16.1845 10.1747 16.2333 10.1259 16.2771C9.5211 16.825 8.26247 16.8502 7.13105 16.8312L7.03086 16.8295V17.5634L10.7761 21.3282H12.2835L8.81793 17.8439C9.46827 17.7704 10.2827 17.5731 10.8402 17.0697C11.121 16.8193 11.3246 16.494 11.427 16.132H12.4452V15.0649H11.4636C11.3962 14.7656 11.259 14.4864 11.0632 14.2502H12.4446L12.4452 13.1836Z" fill="url(#paint0_linear_1694_1318)"/>
<path d="M12.4452 13.1836H6.83594V14.2502H8.81672C9.55374 14.3709 10.1046 14.6704 10.3298 15.0649H6.83594V16.1315H10.2577C10.2189 16.1845 10.1747 16.2333 10.1259 16.2771C9.5211 16.825 8.26247 16.8502 7.13105 16.8312L7.03086 16.8295V17.5634L10.7761 21.3282H12.2835L8.81793 17.8439C9.46827 17.7704 10.2827 17.5731 10.8402 17.0697C11.121 16.8193 11.3246 16.494 11.427 16.132H12.4452V15.0649H11.4636C11.3962 14.7656 11.259 14.4864 11.0632 14.2502H12.4446L12.4452 13.1836Z" fill="white"/>
<defs>
<linearGradient id="paint0_linear_1694_1318" x1="23.2639" y1="3.55189" x2="6.84732" y2="19.9683" gradientUnits="userSpaceOnUse">
<stop stop-color="#653000"/>
<stop offset="0.05" stop-color="#794C00"/>
<stop offset="0.1" stop-color="#876000"/>
<stop offset="0.15" stop-color="#8F6C00"/>
<stop offset="0.2" stop-color="#927000"/>
<stop offset="0.32" stop-color="#683C00"/>
<stop offset="0.34" stop-color="#633500"/>
<stop offset="0.36" stop-color="#5D3200"/>
<stop offset="0.41" stop-color="#512B00"/>
<stop offset="0.47" stop-color="#4D2900"/>
<stop offset="0.52" stop-color="#522C00"/>
<stop offset="0.58" stop-color="#613400"/>
<stop offset="0.65" stop-color="#7A4200"/>
<stop offset="0.68" stop-color="#894B00"/>
<stop offset="0.74" stop-color="#824700"/>
<stop offset="0.83" stop-color="#6F3C00"/>
<stop offset="0.87" stop-color="#633500"/>
<stop offset="1" stop-color="#894B00"/>
</linearGradient>
</defs>
</svg>
