<svg width="38" height="38" viewBox="0 0 38 38" fill="none" xmlns="http://www.w3.org/2000/svg">
<circle cx="19" cy="19" r="19" fill="#F4F0F0"/>
<path d="M19.5055 7C19.537 7.01294 19.5693 7.02384 19.6022 7.03264C19.916 7.10356 20.1965 7.27866 20.398 7.52942C20.5995 7.78018 20.7102 8.09181 20.7119 8.4135C20.7119 9.01104 20.7119 9.60732 20.7119 10.2036C20.7119 10.2375 20.7119 10.2726 20.7044 10.3291C19.7593 10.1879 18.7986 10.1879 17.8535 10.3291V8.53276C17.8535 7.73311 18.2678 7.20838 19.0436 7.02636C19.0585 7.02024 19.0722 7.01129 19.0837 7H19.5055Z" fill="url(#paint0_linear_1218_6877)"/>
<path d="M31.4519 15.9129C31.3515 16.0573 31.2373 16.1815 31.0377 16.1376C30.9627 16.1249 30.8941 16.0876 30.8425 16.0318C30.791 15.9759 30.7594 15.9045 30.7527 15.8288C30.6005 14.8954 30.2693 14.0003 29.7773 13.1926C29.1263 12.0914 28.2068 11.1732 27.1047 10.5238C26.9227 10.4171 26.8536 10.284 26.8838 10.1208C26.896 10.0483 26.9322 9.98205 26.9866 9.93264C27.041 9.88324 27.1105 9.85356 27.1838 9.84839C27.2826 9.84911 27.3795 9.8755 27.465 9.92496C28.7883 10.701 29.8684 11.8315 30.5832 13.1888C30.9978 13.9452 31.2837 14.7652 31.4293 15.6154C31.4354 15.634 31.4438 15.6517 31.4544 15.6681L31.4519 15.9129Z" fill="url(#paint1_linear_1218_6877)"/>
<path d="M19.2897 28.0898C16.3455 28.0898 13.4022 28.0898 10.4597 28.0898C10.0935 28.1121 9.7334 27.988 9.45867 27.7448C9.18393 27.5016 9.01706 27.1592 8.99475 26.793C8.97244 26.4268 9.09653 26.0667 9.33972 25.792C9.58291 25.5172 9.92528 25.3504 10.2915 25.328C10.5815 25.3017 10.6882 25.1862 10.6882 24.8924C10.6882 23.0383 10.6643 21.1817 10.6945 19.3276C10.7585 15.4109 13.5177 12.0692 17.2611 11.1579C18.3991 10.8658 19.5871 10.826 20.7421 11.0411C23.7461 11.6286 25.8953 13.3221 27.1732 16.1014C27.6635 17.1989 27.9069 18.3906 27.8862 19.5924C27.8862 21.3323 27.8862 23.0726 27.8862 24.8134C27.8862 25.2113 27.9389 25.2728 28.3369 25.3331C28.7031 25.3599 29.0437 25.5311 29.2837 25.809C29.5237 26.0869 29.6435 26.4488 29.6167 26.815C29.5899 27.1812 29.4187 27.5218 29.1408 27.7618C28.8629 28.0018 28.501 28.1216 28.1348 28.0948C25.1881 28.0914 22.2397 28.0898 19.2897 28.0898ZM19.2897 25.5892C20.4924 25.5874 21.6677 25.2295 22.6672 24.5605C23.6667 23.8916 24.4457 22.9416 24.9059 21.8304C25.3661 20.7192 25.4869 19.4966 25.253 18.3168C25.0191 17.1371 24.4411 16.053 23.5917 15.2014C22.7424 14.3499 21.6599 13.7689 20.4808 13.5319C19.3017 13.2948 18.0788 13.4123 16.9663 13.8696C15.8539 14.3268 14.9018 15.1032 14.2302 16.101C13.5586 17.0987 13.1975 18.273 13.1926 19.4757C13.1898 20.2775 13.3452 21.0719 13.65 21.8135C13.9548 22.5551 14.403 23.2292 14.9688 23.7973C15.5347 24.3653 16.2071 24.8161 16.9474 25.1238C17.6878 25.4315 18.4817 25.5901 19.2834 25.5904L19.2897 25.5892Z" fill="url(#paint2_linear_1218_6877)"/>
<path d="M16.8105 28.7952H21.7591C21.6687 29.6639 21.2695 30.3355 20.5201 30.7635C19.6539 31.2594 18.7714 31.2318 17.9316 30.6932C17.2549 30.2564 16.8934 29.6124 16.8105 28.7952Z" fill="url(#paint3_linear_1218_6877)"/>
<path d="M7.37084 16.1642C7.31606 16.1651 7.26183 16.1531 7.21249 16.1293C7.16314 16.1055 7.12004 16.0705 7.08662 16.0271C7.05321 15.9837 7.0304 15.9331 7.02003 15.8793C7.00966 15.8255 7.012 15.77 7.02688 15.7173C7.14967 15.0562 7.35814 14.4139 7.64701 13.8067C8.37646 12.2084 9.59506 10.8835 11.1268 10.0231C11.2364 9.96895 11.3601 9.95009 11.4808 9.96913C11.5456 9.98374 11.6035 10.0201 11.6449 10.0722C11.6862 10.1242 11.7085 10.1889 11.708 10.2553C11.7139 10.328 11.698 10.4008 11.6622 10.4644C11.6264 10.5279 11.5724 10.5793 11.5072 10.6119C11.126 10.8429 10.7577 11.0943 10.4037 11.3651C9.02016 12.4784 8.07447 14.0447 7.73363 15.7876C7.68342 16.0387 7.56667 16.1567 7.37084 16.1642Z" fill="url(#paint4_linear_1218_6877)"/>
<path d="M29.2266 15.383C29.2325 15.4713 29.2055 15.5587 29.1508 15.6282C29.0961 15.6978 29.0175 15.7446 28.9303 15.7596C28.8476 15.7722 28.763 15.7549 28.6919 15.7107C28.6208 15.6665 28.5678 15.5984 28.5424 15.5186C28.5111 15.4232 28.496 15.3227 28.4659 15.2286C28.1415 14.1418 27.4259 13.2138 26.4573 12.6238L26.3933 12.5836C26.3533 12.5597 26.3186 12.528 26.2912 12.4904C26.2637 12.4528 26.2442 12.4101 26.2336 12.3647C26.2231 12.3194 26.2218 12.2724 26.2298 12.2265C26.2378 12.1806 26.255 12.1369 26.2803 12.0978C26.3032 12.0585 26.3339 12.0243 26.3704 11.9972C26.4069 11.9701 26.4486 11.9507 26.4928 11.9401C26.537 11.9295 26.5829 11.9281 26.6278 11.9357C26.6726 11.9434 26.7154 11.9601 26.7536 11.9848C27.0423 12.1652 27.3179 12.3657 27.5783 12.5849C28.3881 13.2933 28.9582 14.2354 29.2103 15.2813C29.2153 15.319 29.2228 15.3642 29.2266 15.383Z" fill="url(#paint5_linear_1218_6877)"/>
<path d="M9.66907 15.7346C9.61371 15.737 9.55859 15.726 9.50846 15.7024C9.45833 15.6788 9.4147 15.6433 9.38134 15.5991C9.34797 15.5548 9.32588 15.5031 9.31696 15.4484C9.30803 15.3938 9.31255 15.3377 9.33013 15.2852C9.57334 14.3154 10.0974 13.439 10.8365 12.7657C11.1462 12.4967 11.4756 12.2512 11.822 12.0314C11.8612 11.9992 11.9071 11.9761 11.9563 11.9637C12.0056 11.9514 12.0569 11.9501 12.1067 11.9599C12.1565 11.9697 12.2035 11.9905 12.2444 12.0206C12.2852 12.0508 12.3189 12.0896 12.3429 12.1343C12.4459 12.3176 12.3768 12.5109 12.1659 12.6364C11.6413 12.9356 11.1814 13.336 10.8129 13.8144C10.4444 14.2928 10.1747 14.8397 10.0193 15.4233C9.9603 15.6329 9.84858 15.7321 9.66907 15.7346Z" fill="url(#paint6_linear_1218_6877)"/>
<path d="M19.2964 14.1165C20.3615 14.1189 21.402 14.4372 22.2862 15.031C23.1704 15.6249 23.8587 16.4675 24.264 17.4525C24.6693 18.4375 24.7735 19.5206 24.5632 20.5648C24.353 21.6089 23.8379 22.5673 23.083 23.3187C22.328 24.0701 21.3673 24.5808 20.3221 24.7861C19.277 24.9915 18.1944 24.8823 17.2113 24.4724C16.2282 24.0625 15.3888 23.3703 14.7991 22.4833C14.2094 21.5963 13.896 20.5544 13.8985 19.4893C13.9031 18.0614 14.4741 16.6937 15.4861 15.6864C16.4981 14.6791 17.8685 14.1145 19.2964 14.1165Z" fill="url(#paint7_linear_1218_6877)"/>
<path d="M19.4119 23.0002L17.7109 20.0302V19.6342H17.9089C18.3829 19.6342 18.7489 19.5652 19.0069 19.4272C19.2649 19.2892 19.4149 19.0402 19.4569 18.6802H17.7109V18.1042H19.4479C19.3879 17.7682 19.2289 17.5252 18.9709 17.3752C18.7189 17.2252 18.3649 17.1502 17.9089 17.1502H17.7109V16.5742H21.4369V17.1502H19.7359C20.0239 17.3842 20.1949 17.7022 20.2489 18.1042H21.4369V18.6802H20.2669C20.2249 19.1242 20.0569 19.4662 19.7629 19.7062C19.4749 19.9462 19.0909 20.0992 18.6109 20.1652L20.3299 23.0002H19.4119Z" fill="white"/>
<defs>
<linearGradient id="paint0_linear_1218_6877" x1="19.3723" y1="6.24078" x2="19.3723" y2="11.2102" gradientUnits="userSpaceOnUse">
<stop offset="0.17765" stop-color="#9F212C"/>
<stop offset="0.928841" stop-color="#FFBD38"/>
</linearGradient>
<linearGradient id="paint1_linear_1218_6877" x1="29.3092" y1="8.41206" x2="29.3092" y2="17.8135" gradientUnits="userSpaceOnUse">
<stop offset="0.17765" stop-color="#9F212C"/>
<stop offset="0.928841" stop-color="#FFBD38"/>
</linearGradient>
<linearGradient id="paint2_linear_1218_6877" x1="19.953" y1="6.98369" x2="19.953" y2="32.649" gradientUnits="userSpaceOnUse">
<stop offset="0.17765" stop-color="#9F212C"/>
<stop offset="0.928841" stop-color="#FFBD38"/>
</linearGradient>
<linearGradient id="paint3_linear_1218_6877" x1="19.4399" y1="28.2656" x2="19.4399" y2="31.7317" gradientUnits="userSpaceOnUse">
<stop offset="0.17765" stop-color="#9F212C"/>
<stop offset="0.928841" stop-color="#FFBD38"/>
</linearGradient>
<linearGradient id="paint4_linear_1218_6877" x1="9.50865" y1="8.54745" x2="9.50865" y2="17.8058" gradientUnits="userSpaceOnUse">
<stop offset="0.17765" stop-color="#9F212C"/>
<stop offset="0.928841" stop-color="#FFBD38"/>
</linearGradient>
<linearGradient id="paint5_linear_1218_6877" x1="27.8201" y1="11.0568" x2="27.8201" y2="16.778" gradientUnits="userSpaceOnUse">
<stop offset="0.17765" stop-color="#9F212C"/>
<stop offset="0.928841" stop-color="#FFBD38"/>
</linearGradient>
<linearGradient id="paint6_linear_1218_6877" x1="10.9477" y1="11.091" x2="10.9477" y2="16.7358" gradientUnits="userSpaceOnUse">
<stop offset="0.17765" stop-color="#9F212C"/>
<stop offset="0.928841" stop-color="#FFBD38"/>
</linearGradient>
<linearGradient id="paint7_linear_1218_6877" x1="19.6215" y1="11.6601" x2="19.6215" y2="27.7378" gradientUnits="userSpaceOnUse">
<stop offset="0.17765" stop-color="#9F212C"/>
<stop offset="0.928841" stop-color="#FFBD38"/>
</linearGradient>
</defs>
</svg>
