<svg width="63" height="63" viewBox="0 0 63 63" fill="none" xmlns="http://www.w3.org/2000/svg">
<g filter="url(#filter0_d_1916_8797)">
<circle cx="31.5" cy="31.75" r="20.5" fill="white"/>
<circle cx="31.5" cy="31.75" r="20" stroke="#E8DBD1"/>
</g>
<path d="M25.067 30.7086C25.067 35.2976 24.0217 36.6998 23.3843 37.1077C22.8489 37.4647 22.543 38.0765 22.543 38.6884C22.543 39.7592 23.4098 40.6005 24.4551 40.6005H28.7127C29.0186 42.0792 30.3189 43.15 31.8231 43.15C33.3273 43.15 34.6275 42.0792 34.9334 40.626H39.191C40.2363 40.626 41.1032 39.7592 41.1032 38.7139C41.1032 38.0765 40.7972 37.4902 40.2618 37.1332C39.6245 36.6998 38.5792 35.2976 38.5792 30.7341C38.5792 26.4509 35.9787 24.7428 34.0666 24.0289C34.0921 23.876 34.1176 23.6975 34.1176 23.5445C34.1176 22.2698 33.0978 21.25 31.8231 21.25C30.5483 21.25 29.5285 22.2698 29.5285 23.5445C29.5285 23.6975 29.554 23.876 29.5795 24.0289C27.6674 24.6918 25.067 26.4254 25.067 30.7086ZM31.8231 42.1302C30.8798 42.1302 30.0384 41.4928 29.758 40.626H33.8881C33.6077 41.4928 32.7664 42.1302 31.8231 42.1302ZM40.0834 38.7139C40.0834 39.1983 39.6755 39.6062 39.191 39.6062H24.4551C23.9707 39.6062 23.5628 39.1983 23.5628 38.7139C23.5628 38.459 23.6647 38.2295 23.8687 38.0511H39.8284C39.9814 38.2295 40.0834 38.459 40.0834 38.7139ZM31.8231 22.2443C32.5369 22.2443 33.0978 22.8052 33.0978 23.519C33.0978 23.5955 33.0978 23.6465 33.0723 23.723C32.027 23.4935 31.0582 23.621 30.5483 23.723C30.5483 23.6465 30.5228 23.5955 30.5228 23.519C30.5483 22.8052 31.1092 22.2443 31.8231 22.2443ZM30.4718 24.7938H30.4973C30.4973 24.7938 31.0582 24.6153 31.8486 24.6153C32.2565 24.6153 32.6899 24.6663 33.1743 24.8193H33.1998C35.1884 25.3802 37.5849 26.8588 37.5849 30.7341C37.5849 33.6914 37.9928 35.8075 38.8341 37.0568H24.8375C25.6533 35.782 26.0867 33.6659 26.0867 30.7341C26.0867 26.8334 28.4578 25.3547 30.4718 24.7938Z" fill="black"/>
<path d="M27.6682 29.8928C27.6937 29.8928 27.7192 29.8928 27.7447 29.8928C27.9997 29.8928 28.2036 29.7143 28.2546 29.4594C28.4586 27.9552 30.0138 27.0373 30.0393 27.0373C30.2942 26.9099 30.3707 26.5784 30.2177 26.349C30.0903 26.094 29.7588 26.0176 29.5294 26.1705C29.4529 26.2215 27.5153 27.3433 27.2348 29.3574C27.2093 29.5868 27.3878 29.8418 27.6682 29.8928Z" fill="black"/>
<circle cx="41.875" cy="14.125" r="8.125" fill="#9F212C"/>
<path d="M42.4478 18.25V10.879L40.9008 11.867L40.3548 10.918L42.7078 9.319H43.7738V18.25H42.4478Z" fill="white"/>
<defs>
<filter id="filter0_d_1916_8797" x="0.4" y="0.65" width="62.2" height="62.2" filterUnits="userSpaceOnUse" color-interpolation-filters="sRGB">
<feFlood flood-opacity="0" result="BackgroundImageFix"/>
<feColorMatrix in="SourceAlpha" type="matrix" values="0 0 0 0 0 0 0 0 0 0 0 0 0 0 0 0 0 0 127 0" result="hardAlpha"/>
<feOffset/>
<feGaussianBlur stdDeviation="5.3"/>
<feComposite in2="hardAlpha" operator="out"/>
<feColorMatrix type="matrix" values="0 0 0 0 0.611686 0 0 0 0 0.611686 0 0 0 0 0.611686 0 0 0 0.25 0"/>
<feBlend mode="normal" in2="BackgroundImageFix" result="effect1_dropShadow_1916_8797"/>
<feBlend mode="normal" in="SourceGraphic" in2="effect1_dropShadow_1916_8797" result="shape"/>
</filter>
</defs>
</svg>
