<svg width="25" height="25" viewBox="0 0 25 25" fill="none" xmlns="http://www.w3.org/2000/svg">
<path d="M12.1512 0.488281C5.41279 0.488281 0 5.90107 0 12.6394C0 19.3778 5.41279 24.7906 12.1512 24.7906C18.8895 24.7906 24.3023 19.3778 24.3023 12.6394C24.3023 5.90107 18.8895 0.488281 12.1512 0.488281ZM16.6802 19.4883C14.8023 19.9301 12.9244 19.2674 12.9244 19.2674C11.0465 17.9418 9.8314 16.3953 9.1686 15.2906L9.05814 15.1801L8.94768 15.0697C8.28488 13.965 7.06977 12.1976 6.51744 9.87782C6.51744 9.87782 6.73837 7.88944 7.84302 6.34293C9.16861 5.34875 9.8314 5.90107 9.8314 5.90107L11.5988 8.44177C11.8198 8.77316 11.7093 9.21503 11.3779 9.43596L10.1628 10.2092C10.1628 10.2092 9.05814 10.5406 11.157 13.7441C13.2558 16.8371 13.8081 15.8429 13.8081 15.8429L15.0233 15.0697C15.3547 14.8487 15.7965 14.9592 16.0174 15.2906L17.7849 17.8313C17.7849 17.7208 18.0058 18.6046 16.6802 19.4883Z" fill="#181818"/>
</svg>
