<svg width="17" height="21" viewBox="0 0 17 21" fill="none" xmlns="http://www.w3.org/2000/svg">
<path d="M3.14911 12.4923C3.41649 12.5988 3.6588 12.5005 3.734 12.2055C3.78413 12.0007 3.91782 11.4928 3.97631 11.2797C4.05151 10.993 4.02644 10.8865 3.8092 10.6407C3.33293 10.0918 3.03214 9.3872 3.03214 8.37948C3.03214 5.47102 5.2547 2.8657 8.81414 2.8657C11.9642 2.8657 13.7021 4.75824 13.7021 7.28164C13.7021 10.5997 12.2065 13.4017 9.97556 13.4017C8.7473 13.4017 7.82819 12.4022 8.12064 11.1814C8.47157 9.72311 9.15672 8.15008 9.15672 7.09321C9.15672 6.15103 8.63868 5.36452 7.56917 5.36452C6.31585 5.36452 5.30483 6.63441 5.30483 8.34671C5.30483 9.43636 5.68083 10.1655 5.68083 10.1655C5.68083 10.1655 4.39408 15.5072 4.16848 16.4412C3.71729 18.301 4.10164 20.5868 4.13506 20.8162C4.15177 20.9555 4.3356 20.9883 4.41079 20.8818C4.52777 20.7343 6.02341 18.9237 6.53309 17.113C6.67513 16.6051 7.36028 13.9506 7.36028 13.9506C7.7697 14.7125 8.96454 15.3844 10.2262 15.3844C14.0029 15.3844 16.5597 12.0089 16.5597 7.49465C16.5597 4.07824 13.6102 0.899414 9.12329 0.899414C3.54182 0.899414 0.734375 4.82379 0.734375 8.09273C0.74273 10.0754 1.50308 11.8369 3.14911 12.4923Z" fill="#9F212C"/>
</svg>
