<svg width="54" height="54" viewBox="0 0 54 54" fill="none" xmlns="http://www.w3.org/2000/svg">
<circle cx="27" cy="27" r="27" fill="#F4F0F0"/>
<rect x="30" y="21" width="8" height="3" rx="1.5" fill="#EEB64F"/>
<rect x="30" y="25" width="8" height="4" rx="2" fill="#EEB64F"/>
<rect x="30" y="30" width="8" height="4" rx="2" fill="#EEB64F"/>
<path d="M39 16H15C13.35 16 12 17.35 12 19V35C12 36.65 13.35 38 15 38H39C40.65 38 42 36.65 42 35V19C42 17.35 40.65 16 39 16ZM27.72 32.73C27.72 33.28 27.27 33.73 26.72 33.73H17.28C16.73 33.73 16.28 33.28 16.28 32.73V30.33C16.28 28.57 17.34 27.05 18.85 26.37C18.4 25.74 18.14 24.97 18.14 24.14C18.14 22.01 19.87 20.27 22 20.27C24.13 20.27 25.86 22.01 25.86 24.14C25.86 24.97 25.6 25.74 25.15 26.37C26.66 27.05 27.72 28.57 27.72 30.33V32.73ZM36.72 32.61H31.69C31.14 32.61 30.69 32.16 30.69 31.61C30.69 31.06 31.14 30.61 31.69 30.61H36.72C37.27 30.61 37.72 31.06 37.72 31.61C37.72 32.16 37.27 32.61 36.72 32.61ZM36.72 28H31.69C31.14 28 30.69 27.55 30.69 27C30.69 26.45 31.14 26 31.69 26H36.72C37.27 26 37.72 26.45 37.72 27C37.72 27.55 37.27 28 36.72 28ZM36.72 23.39H31.69C31.14 23.39 30.69 22.94 30.69 22.39C30.69 21.84 31.14 21.39 31.69 21.39H36.72C37.27 21.39 37.72 21.84 37.72 22.39C37.72 22.94 37.27 23.39 36.72 23.39Z" fill="#911A1D"/>
<path d="M22.0006 26C23.0306 26 23.8606 25.16 23.8606 24.14C23.8606 23.11 23.0306 22.27 22.0006 22.27C20.9706 22.27 20.1406 23.11 20.1406 24.14C20.1406 25.16 20.9706 26 22.0006 26Z" fill="#911A1D"/>
<path d="M23.3893 28H20.6093C19.3293 28 18.2793 29.04 18.2793 30.33V31.73H25.7193V30.33C25.7193 29.04 24.6693 28 23.3893 28Z" fill="#911A1D"/>
</svg>
