<svg width="54" height="54" viewBox="0 0 54 54" fill="none" xmlns="http://www.w3.org/2000/svg">
<circle cx="27" cy="27" r="27" fill="#F4F0F0"/>
<path d="M33.5921 28.939C32.6018 27.9542 31.3981 27.7201 30.0752 27.7386C27.4402 27.7743 24.8031 27.7559 22.166 27.7461C20.7954 27.7396 19.6339 28.2077 18.6751 29.185C18.2319 29.6357 17.7866 30.0832 17.3099 30.5642C16.8375 29.7064 16.5642 28.7532 16.5103 27.7754C16.4193 26.3723 16.8473 25.0787 17.363 23.81C18.3663 21.3548 19.9297 19.2844 21.7152 17.3623C21.9634 17.0947 22.2136 16.8282 22.4737 16.5735C22.8399 16.2149 23.1389 15.8726 23.1952 15.2907C23.2733 14.4944 24.0685 13.8822 24.8887 13.8747C27.0924 13.8595 29.2955 13.8595 31.4978 13.8747C32.4003 13.8833 33.137 14.6547 33.2313 15.5583C33.258 15.7892 33.357 16.0057 33.5141 16.177C35.3235 17.995 36.9909 19.9225 38.2195 22.1902C38.5597 22.8175 38.8523 23.4708 39.1946 24.161C38.0093 24.4319 37.2715 25.2553 36.5033 26.0321C35.6496 26.8989 34.7861 27.757 33.9269 28.6183C33.824 28.7223 33.7156 28.8209 33.5921 28.939Z" fill="black"/>
<path d="M33.5921 28.939C32.6018 27.9542 31.3981 27.7201 30.0752 27.7386C27.4402 27.7743 24.8031 27.7559 22.166 27.7461C20.7954 27.7396 19.6339 28.2077 18.6751 29.185C18.2319 29.6357 17.7866 30.0832 17.3099 30.5642C16.8375 29.7064 16.5642 28.7532 16.5103 27.7754C16.4193 26.3723 16.8473 25.0787 17.363 23.81C18.3663 21.3548 19.9297 19.2844 21.7152 17.3623C21.9634 17.0947 22.2136 16.8282 22.4737 16.5735C22.8399 16.2149 23.1389 15.8726 23.1952 15.2907C23.2733 14.4944 24.0685 13.8822 24.8887 13.8747C27.0924 13.8595 29.2955 13.8595 31.4978 13.8747C32.4003 13.8833 33.137 14.6547 33.2313 15.5583C33.258 15.7892 33.357 16.0057 33.5141 16.177C35.3235 17.995 36.9909 19.9225 38.2195 22.1902C38.5597 22.8175 38.8523 23.4708 39.1946 24.161C38.0093 24.4319 37.2715 25.2553 36.5033 26.0321C35.6496 26.8989 34.7861 27.757 33.9269 28.6183C33.824 28.7223 33.7156 28.8209 33.5921 28.939Z" fill="#911A1D"/>
<path d="M28.0611 37.8439C28.1077 33.7799 31.539 30.4385 35.6193 30.4851C39.6487 30.5317 42.9706 33.872 42.9305 37.8374C42.8871 42.1095 39.5772 45.4075 35.3885 45.3523C31.3516 45.2992 28.0102 41.8798 28.0611 37.8439ZM34.6702 38.6262C34.3202 38.2621 33.9811 37.897 33.6279 37.5427C33.2747 37.1884 32.915 37.1733 32.6301 37.455C32.3451 37.7367 32.3635 38.105 32.7037 38.4528C33.1566 38.9166 33.6182 39.3716 34.0776 39.8288C34.5369 40.286 34.8425 40.298 35.3127 39.8288C36.2878 38.8566 37.2629 37.8815 38.238 36.9035C38.2857 36.8558 38.3366 36.8103 38.38 36.7583C38.6367 36.456 38.6378 36.1082 38.38 35.8493C38.1221 35.5903 37.7591 35.5925 37.4699 35.8439C37.3485 35.9522 37.238 36.0692 37.1231 36.183L34.6702 38.6262Z" fill="#EEB64F"/>
<path d="M27.4103 34.6481C26.6793 36.51 26.5912 38.5627 27.16 40.4803C26.1145 40.6223 25.1015 40.7653 24.0852 40.8899C24.0007 40.9007 23.8793 40.8065 23.8132 40.7285C23.563 40.4294 23.3571 40.0903 23.0841 39.8151C21.019 37.7327 18.9467 35.6568 16.8672 33.5874C16.7589 33.4725 16.6169 33.3805 16.6343 33.3241C17.7177 32.1778 18.7806 31.0055 19.902 29.8961C20.4762 29.3272 21.2368 29.1246 22.0613 29.129C24.8869 29.1441 27.7115 29.1344 30.5372 29.1344C31.2013 29.1344 31.8091 29.3002 32.2989 29.6945C31.5502 30.1648 30.7539 30.5613 30.0897 31.1139C29.4255 31.6664 28.8502 32.3837 28.2749 33.0641C28.0972 33.2721 27.9499 33.3664 27.679 33.3599C26.9628 33.3447 26.2467 33.3534 25.5294 33.3599C25.0473 33.3599 24.758 33.6036 24.7504 33.9948C24.7428 34.3859 25.0365 34.6448 25.5435 34.6524C26.1481 34.6503 26.7527 34.6481 27.4103 34.6481Z" fill="black"/>
<path d="M27.4103 34.6481C26.6793 36.51 26.5912 38.5627 27.16 40.4803C26.1145 40.6223 25.1015 40.7653 24.0852 40.8899C24.0007 40.9007 23.8793 40.8065 23.8132 40.7285C23.563 40.4294 23.3571 40.0903 23.0841 39.8151C21.019 37.7327 18.9467 35.6568 16.8672 33.5874C16.7589 33.4725 16.6169 33.3805 16.6343 33.3241C17.7177 32.1778 18.7806 31.0055 19.902 29.8961C20.4762 29.3272 21.2368 29.1246 22.0613 29.129C24.8869 29.1441 27.7115 29.1344 30.5372 29.1344C31.2013 29.1344 31.8091 29.3002 32.2989 29.6945C31.5502 30.1648 30.7539 30.5613 30.0897 31.1139C29.4255 31.6664 28.8502 32.3837 28.2749 33.0641C28.0972 33.2721 27.9499 33.3664 27.679 33.3599C26.9628 33.3447 26.2467 33.3534 25.5294 33.3599C25.0473 33.3599 24.758 33.6036 24.7504 33.9948C24.7428 34.3859 25.0365 34.6448 25.5435 34.6524C26.1481 34.6503 26.7527 34.6481 27.4103 34.6481Z" fill="#911A1D"/>
<path d="M14.5439 33.4753C14.8884 33.6639 15.2308 33.7657 15.454 33.9867C17.7086 36.2241 19.9427 38.4809 22.1833 40.7312C22.9558 41.507 22.958 42.1105 22.192 42.8797C21.5332 43.5392 20.8741 44.2012 20.2147 44.8657C19.5516 45.5266 18.8972 45.531 18.2439 44.8776C15.9903 42.6212 13.7371 40.3636 11.4842 38.105C10.8417 37.4549 10.8395 36.8048 11.4723 36.1634C12.1765 35.4526 12.8667 34.7278 13.5969 34.0452C13.8472 33.8047 14.1972 33.6769 14.5439 33.4753Z" fill="black"/>
<path d="M14.5439 33.4753C14.8884 33.6639 15.2308 33.7657 15.454 33.9867C17.7086 36.2241 19.9427 38.4809 22.1833 40.7312C22.9558 41.507 22.958 42.1105 22.192 42.8797C21.5332 43.5392 20.8741 44.2012 20.2147 44.8657C19.5516 45.5266 18.8972 45.531 18.2439 44.8776C15.9903 42.6212 13.7371 40.3636 11.4842 38.105C10.8417 37.4549 10.8395 36.8048 11.4723 36.1634C12.1765 35.4526 12.8667 34.7278 13.5969 34.0452C13.8472 33.8047 14.1972 33.6769 14.5439 33.4753Z" fill="#911A1D"/>
<path d="M32.9537 12.9894C32.295 12.6102 31.6308 12.5615 30.945 12.5669C29.0533 12.5799 27.1615 12.5506 25.2698 12.582C24.662 12.5929 24.0564 12.7391 23.4507 12.8226L23.442 12.9537C23.4079 12.9037 23.3799 12.8499 23.3586 12.7933C23.1246 11.8366 22.8873 10.8799 22.6663 9.91999C22.5374 9.36201 22.8093 9.03048 23.3846 9.02289C24.3261 9.01097 25.1929 9.27859 26.025 9.69789C26.9338 10.1671 27.9732 10.3196 28.9785 10.1313C29.4357 10.0468 29.8702 9.83982 30.3177 9.69789C31.0219 9.47144 31.7261 9.24283 32.4347 9.03589C32.6203 8.9964 32.8113 8.98943 32.9992 9.01531C33.5615 9.05973 33.8183 9.37177 33.6959 9.91349C33.4673 10.9276 33.2105 11.9341 32.9537 12.9894Z" fill="#911A1D"/>
<path d="M35.2695 29.1893C35.3681 29.0679 35.4169 28.9943 35.4786 28.9325C36.3541 28.0495 37.2263 27.1621 38.1104 26.2889C38.5064 25.8857 39.0148 25.6114 39.5692 25.5018C40.1235 25.3922 40.6981 25.4524 41.2177 25.6745C41.7427 25.8992 42.1884 26.276 42.4974 26.7562C42.8063 27.2364 42.9644 27.7982 42.9512 28.3691C42.9356 28.9429 42.7172 29.4926 42.3347 29.9206C41.9631 30.3648 41.5547 30.7776 41.1321 31.237C39.4203 29.8632 37.4971 29.1557 35.2695 29.1893Z" fill="black"/>
<path d="M35.2695 29.1893C35.3681 29.0679 35.4169 28.9943 35.4786 28.9325C36.3541 28.0495 37.2263 27.1621 38.1104 26.2889C38.5064 25.8857 39.0148 25.6114 39.5692 25.5018C40.1235 25.3922 40.6981 25.4524 41.2177 25.6745C41.7427 25.8992 42.1884 26.276 42.4974 26.7562C42.8063 27.2364 42.9644 27.7982 42.9512 28.3691C42.9356 28.9429 42.7172 29.4926 42.3347 29.9206C41.9631 30.3648 41.5547 30.7776 41.1321 31.237C39.4203 29.8632 37.4971 29.1557 35.2695 29.1893Z" fill="#911A1D"/>
</svg>
