<svg width="54" height="54" viewBox="0 0 54 54" fill="none" xmlns="http://www.w3.org/2000/svg">
<circle cx="27" cy="27" r="27" fill="#F4F0F0"/>
<path d="M17.3965 21.2272H28.6791C28.5875 21.348 28.5242 21.4364 28.455 21.5205C27.5585 22.6036 26.6579 23.6759 25.7689 24.7623C25.6133 24.9555 25.4849 25.1691 25.3873 25.3972C24.7783 26.7961 24.1809 28.2008 23.5827 29.6038C23.1953 30.512 23.3702 31.3735 24.0626 31.9858C24.7549 32.5982 25.6456 32.6748 26.4929 32.1941C27.9726 31.3526 29.4531 30.5103 30.9245 29.6521C31.1836 29.5003 31.4157 29.3063 31.611 29.0781C33.7584 26.5386 35.8982 23.9922 38.0305 21.4389C38.0875 21.3611 38.1632 21.2989 38.2506 21.2581C38.3379 21.2173 38.4342 21.1993 38.5304 21.2056C39.2053 21.2197 39.8818 21.2056 40.5575 21.2114C41.1549 21.2114 41.3632 21.4205 41.3632 22.0221C41.3632 24.3099 41.3632 26.5975 41.3632 28.8848C41.3632 32.669 41.3632 36.4535 41.3632 40.2383C41.3632 40.9923 41.1799 41.1756 40.4234 41.1756C32.4928 41.1756 24.5614 41.1728 16.6291 41.1672C16.0786 41.1756 15.5295 41.1089 14.997 40.969C13.2473 40.4691 12.3725 39.1968 12.1376 37.453C11.8093 35.0194 13.3548 32.9348 15.7752 32.5615C16.2917 32.4782 16.8308 32.5499 17.3948 32.5499L17.3965 21.2272Z" fill="#911A1D"/>
<path d="M27.3242 24.9321C28.3498 23.7082 29.3496 22.516 30.3511 21.3212C32.374 18.9101 34.3975 16.4992 36.4215 14.0886C36.4948 14.0011 36.5665 13.9119 36.6423 13.8261C37.5654 12.7905 38.8385 12.7213 39.8591 13.6595C40.0188 13.8083 40.169 13.9669 40.309 14.1344C41.0064 14.9559 41.0247 15.884 40.3373 16.708C39.2959 17.9628 38.2394 19.2075 37.188 20.4522C35.1923 22.8156 33.1963 25.1807 31.2001 27.5474C31.1534 27.6016 31.1034 27.6532 31.0409 27.7207L27.3242 24.9321Z" fill="#EEB64F"/>
<path d="M16.0503 31.1799C14.5914 31.5215 13.1692 31.9215 12.0786 33.1495V32.8671C12.0775 27.9092 12.0783 22.9511 12.0811 17.9927C12.0836 16.1747 13.3425 14.4668 14.993 14.0294C15.3263 13.9402 15.6795 13.9144 16.0519 13.8552L16.0503 31.1799Z" fill="#911A1D"/>
<path d="M26.5873 26.062L30.0324 28.6448C29.9408 28.7073 29.8791 28.754 29.8116 28.7931C28.5191 29.5413 27.2263 30.2886 25.9333 31.0351C25.5367 31.2643 25.2776 31.2376 24.9393 30.9518C24.7302 30.776 24.6677 30.5611 24.7727 30.312C25.3692 28.9131 25.9683 27.5125 26.5873 26.062Z" fill="#EEB64F"/>
</svg>
