<svg width="147" height="167" viewBox="0 0 147 167" fill="none" xmlns="http://www.w3.org/2000/svg">
<circle cx="141.116" cy="78.399" r="4.98905" stroke="#BE6DB7" stroke-width="1.42544"/>
<circle cx="18.5317" cy="143.257" r="5.70177" stroke="#539165" stroke-width="1.42544"/>
<circle cx="6.41449" cy="59.8686" r="5.70177" stroke="#F7C04A" stroke-width="1.42544"/>
<circle cx="90.8706" cy="160.718" r="6.05813" fill="#262A56"/>
<circle cx="74.1222" cy="15.6798" r="3.56361" fill="#262A56"/>
<circle cx="74.8353" cy="154.66" r="2.85088" fill="#539165"/>
<circle cx="57.733" cy="5.70177" r="5.70177" fill="#539165"/>
<circle cx="72.4076" cy="86.6625" r="56.7279" fill="#9F212C" fill-opacity="0.2"/>
<circle cx="72.4087" cy="86.6626" r="42.3462" fill="#9F212C" fill-opacity="0.4"/>
<circle cx="72.4073" cy="86.6627" r="28.4971" fill="#9F212C"/>
<path d="M110.758 48.5537C112.356 49.4738 116.031 50.3939 117.949 46.7134" stroke="#FFBB02" stroke-width="2.13816" stroke-linecap="round"/>
<circle cx="133.661" cy="110.632" r="1.8643" fill="#F43500"/>
<circle cx="63.0873" cy="95.4516" r="0.532656" fill="white"/>
<path d="M67.1574 98.2747C66.9714 99.1876 66.6524 99.4453 65.75 99.4459C63.9484 99.4459 62.1469 99.4466 60.3453 99.4459C59.5054 99.4453 59.0914 99.0364 59.0908 98.1995C59.0895 93.4649 59.0895 88.7304 59.0908 83.9959C59.0908 83.1775 59.506 82.7705 60.3281 82.7705C62.1405 82.7698 63.9523 82.7839 65.7646 82.7628C66.4085 82.7552 66.8791 82.9516 67.0911 83.5659C69.0672 82.6454 69.8855 80.9378 70.244 78.9303C70.3179 78.5156 70.3287 78.0857 70.3313 77.6628C70.3414 76.1873 70.3332 74.7118 70.3357 73.2363C70.337 72.439 70.7617 72.0001 71.5488 72.0148C72.299 72.0288 73.0664 71.9841 73.7936 72.1296C75.5264 72.4747 76.7134 73.9935 76.7255 75.7644C76.7364 77.3138 76.7281 78.8639 76.7281 80.4141C76.7281 80.5295 76.7281 80.645 76.7281 80.8096C76.8701 80.8096 76.9917 80.8096 77.114 80.8096C79.3607 80.8096 81.6074 80.8025 83.8541 80.8115C85.9797 80.8198 87.7622 82.2008 88.2761 84.2083C88.4824 85.014 88.3576 85.8088 88.2309 86.6068C87.7915 89.3715 87.3515 92.1355 86.9191 94.9015C86.6045 96.9141 85.0277 98.2722 82.9663 98.2735C77.8374 98.2773 72.7085 98.2747 67.5789 98.2747C67.4439 98.2747 67.307 98.2747 67.1574 98.2747ZM67.1223 96.1403C67.2452 96.1403 67.3185 96.1403 67.3911 96.1403C72.5932 96.1403 77.796 96.1416 82.9982 96.139C83.9572 96.1384 84.6558 95.512 84.8074 94.5551C85.2468 91.7802 85.6951 89.0073 86.1294 86.2317C86.1975 85.7948 86.2899 85.3399 86.2377 84.9094C86.102 83.7867 85.0946 82.9631 83.9203 82.9599C81.2291 82.9535 78.5379 82.958 75.8467 82.9574C74.9934 82.9574 74.5871 82.5472 74.5865 81.6848C74.5858 79.7213 74.5928 77.7578 74.5833 75.7943C74.5775 74.6755 73.5911 73.9361 72.478 74.2143C72.478 75.3963 72.4811 76.5834 72.4773 77.7712C72.4697 80.039 71.7514 82.0586 70.3421 83.8288C70.1606 84.0571 69.9332 84.26 69.6951 84.429C68.9347 84.9687 68.1648 85.495 67.386 86.0066C67.1822 86.1405 67.1166 86.2828 67.1172 86.5207C67.1255 89.5986 67.1223 92.6765 67.1223 95.7544C67.1223 95.8686 67.1223 95.984 67.1223 96.1403ZM61.2464 84.9298C61.2464 89.0564 61.2464 93.1658 61.2464 97.27C62.501 97.27 63.7332 97.27 64.9559 97.27C64.9559 93.1415 64.9559 89.0392 64.9559 84.9298C63.7103 84.9298 62.4857 84.9298 61.2464 84.9298Z" fill="white"/>
<path d="M68.6797 68.0933L70.4108 69.9576" stroke="#FFBB02" stroke-width="1.42544" stroke-linecap="round"/>
<path d="M72.4688 66.4219L72.4756 68.966" stroke="#FFBB02" stroke-width="1.42544" stroke-linecap="round"/>
<path d="M76.1133 68.1426L74.4357 70.0552" stroke="#FFBB02" stroke-width="1.42544" stroke-linecap="round"/>
</svg>
