<svg width="38" height="38" viewBox="0 0 38 38" fill="none" xmlns="http://www.w3.org/2000/svg">
<circle cx="19" cy="19" r="19" fill="#F4F0F0"/>
<path d="M19.8295 20.7119H18.3092C17.3384 20.7119 16.5508 21.4995 16.5508 22.4703V28.0387H21.5879V22.4703C21.5879 21.4995 20.8003 20.7119 19.8295 20.7119Z" fill="black"/>
<path d="M19.8295 20.7119H18.3092C17.3384 20.7119 16.5508 21.4995 16.5508 22.4703V28.0387H21.5879V22.4703C21.5879 21.4995 20.8003 20.7119 19.8295 20.7119Z" fill="url(#paint0_linear_1218_6879)"/>
<path d="M26.5022 14.1449L20.7026 10.6006C19.6952 9.98469 18.4451 9.98469 17.4376 10.6006L11.638 14.1449C10.7153 14.7105 10.1406 15.7339 10.1406 16.8169V24.9061C10.1406 26.6325 11.5465 28.0383 13.2728 28.0383H15.1778V22.47C15.1778 20.7436 16.5836 19.3378 18.31 19.3378H19.8303C21.5567 19.3378 22.9625 20.7436 22.9625 22.47V28.0383H24.8675C26.5938 28.0383 27.9997 26.6325 27.9997 24.9061V16.8169C27.9997 15.7339 27.425 14.7105 26.5022 14.1449Z" fill="black"/>
<path d="M26.5022 14.1449L20.7026 10.6006C19.6952 9.98469 18.4451 9.98469 17.4376 10.6006L11.638 14.1449C10.7153 14.7105 10.1406 15.7339 10.1406 16.8169V24.9061C10.1406 26.6325 11.5465 28.0383 13.2728 28.0383H15.1778V22.47C15.1778 20.7436 16.5836 19.3378 18.31 19.3378H19.8303C21.5567 19.3378 22.9625 20.7436 22.9625 22.47V28.0383H24.8675C26.5938 28.0383 27.9997 26.6325 27.9997 24.9061V16.8169C27.9997 15.7339 27.425 14.7105 26.5022 14.1449Z" fill="url(#paint1_linear_1218_6879)"/>
<defs>
<linearGradient id="paint0_linear_1218_6879" x1="19.3316" y1="19.2225" x2="19.0347" y2="29.2462" gradientUnits="userSpaceOnUse">
<stop offset="0.144475" stop-color="#9F212C"/>
<stop offset="0.696506" stop-color="#EEB64F"/>
</linearGradient>
<linearGradient id="paint1_linear_1218_6879" x1="19.9998" y1="6.50005" x2="19.4998" y2="30.9997" gradientUnits="userSpaceOnUse">
<stop offset="0.144475" stop-color="#9F212C"/>
<stop offset="0.696506" stop-color="#EEB64F"/>
</linearGradient>
</defs>
</svg>
