<svg width="55" height="55" viewBox="0 0 55 55" fill="none" xmlns="http://www.w3.org/2000/svg">
<g filter="url(#filter0_d_1667_1075)">
<ellipse cx="27.5397" cy="27.5719" rx="16.5397" ry="16.5719" fill="white"/>
<path d="M43.5794 27.5719C43.5794 36.4492 36.3973 43.6439 27.5397 43.6439C18.6821 43.6439 11.5 36.4492 11.5 27.5719C11.5 18.6947 18.6821 11.5 27.5397 11.5C36.3973 11.5 43.5794 18.6947 43.5794 27.5719Z" stroke="#E8DBD1"/>
</g>
<g filter="url(#filter1_d_1667_1075)">
<circle cx="27.5728" cy="27.572" r="13.3384" stroke="#D99A26" shape-rendering="crispEdges"/>
</g>
<path d="M33.033 24.6601C32.9413 22.1464 30.978 20.1098 28.4643 19.9079C27.0699 19.7978 25.6754 20.2749 24.6662 21.2106C23.6754 22.1281 23.125 23.3941 23.125 24.7702H25.3268C25.3268 24.0179 25.6203 23.339 26.1708 22.8253C26.7396 22.2932 27.4919 22.0363 28.2992 22.1097C29.6569 22.2198 30.7762 23.3757 30.8312 24.7518C30.8679 25.7793 30.3358 26.7151 29.4368 27.1921C27.9139 27.9995 26.9781 29.6141 26.9781 31.3755H29.1799C29.1799 30.4214 29.6753 29.5591 30.4826 29.1187C32.1156 28.238 33.1064 26.5316 33.033 24.6601Z" fill="black"/>
<path d="M28.0795 35.3211C28.8903 35.3211 29.5477 34.6638 29.5477 33.8529C29.5477 33.0421 28.8903 32.3848 28.0795 32.3848C27.2687 32.3848 26.6113 33.0421 26.6113 33.8529C26.6113 34.6638 27.2687 35.3211 28.0795 35.3211Z" fill="black"/>
<defs>
<filter id="filter0_d_1667_1075" x="0.4" y="0.4" width="54.2801" height="54.3438" filterUnits="userSpaceOnUse" color-interpolation-filters="sRGB">
<feFlood flood-opacity="0" result="BackgroundImageFix"/>
<feColorMatrix in="SourceAlpha" type="matrix" values="0 0 0 0 0 0 0 0 0 0 0 0 0 0 0 0 0 0 127 0" result="hardAlpha"/>
<feOffset/>
<feGaussianBlur stdDeviation="5.3"/>
<feComposite in2="hardAlpha" operator="out"/>
<feColorMatrix type="matrix" values="0 0 0 0 0.611686 0 0 0 0 0.611686 0 0 0 0 0.611686 0 0 0 0.25 0"/>
<feBlend mode="normal" in2="BackgroundImageFix" result="effect1_dropShadow_1667_1075"/>
<feBlend mode="normal" in="SourceGraphic" in2="effect1_dropShadow_1667_1075" result="shape"/>
</filter>
<filter id="filter1_d_1667_1075" x="3.13437" y="3.13364" width="48.8777" height="48.8768" filterUnits="userSpaceOnUse" color-interpolation-filters="sRGB">
<feFlood flood-opacity="0" result="BackgroundImageFix"/>
<feColorMatrix in="SourceAlpha" type="matrix" values="0 0 0 0 0 0 0 0 0 0 0 0 0 0 0 0 0 0 127 0" result="hardAlpha"/>
<feOffset/>
<feGaussianBlur stdDeviation="5.3"/>
<feComposite in2="hardAlpha" operator="out"/>
<feColorMatrix type="matrix" values="0 0 0 0 0.611686 0 0 0 0 0.611686 0 0 0 0 0.611686 0 0 0 0.25 0"/>
<feBlend mode="normal" in2="BackgroundImageFix" result="effect1_dropShadow_1667_1075"/>
<feBlend mode="normal" in="SourceGraphic" in2="effect1_dropShadow_1667_1075" result="shape"/>
</filter>
</defs>
</svg>
