<svg width="38" height="38" viewBox="0 0 38 38" fill="none" xmlns="http://www.w3.org/2000/svg">
<circle cx="19" cy="19" r="19" fill="#F4F0F0"/>
<path d="M19.4023 22.4248C20.7679 22.4248 21.875 21.3178 21.875 19.9521C21.875 18.5865 20.7679 17.4795 19.4023 17.4795C18.0367 17.4795 16.9297 18.5865 16.9297 19.9521C16.9297 21.3178 18.0367 22.4248 19.4023 22.4248Z" fill="url(#paint0_linear_1218_6869)"/>
<path d="M29.3197 13.1919L29.0829 11.9818L27.7414 12.0345C26.8996 12.0345 22.5593 11.8766 20.6128 8.69375L19.4028 6.7998L18.1664 8.72005C16.2199 11.8766 11.8796 12.0345 11.0378 12.0345L9.69628 11.9818L9.45954 13.1919C9.40693 13.5338 8.85453 16.6904 9.64367 20.452C10.4328 24.1084 12.6424 29.0274 18.7977 31.7368L19.4028 31.9998L19.9815 31.7368C26.1631 29.0274 28.3727 24.1084 29.1618 20.452C29.951 16.6378 29.3986 13.5338 29.3197 13.1919ZM24.3481 20.5835C24.3481 20.715 24.2428 20.8203 24.1113 20.8203H23.3222C23.2169 21.2674 23.0591 21.662 22.8224 22.0566L23.3748 22.609C23.4274 22.6616 23.4537 22.7142 23.4537 22.7931C23.4537 22.872 23.4274 22.9246 23.3748 22.9773L22.5067 23.8453C22.4541 23.8979 22.4015 23.9242 22.3226 23.9242C22.27 23.9242 22.1911 23.8979 22.1385 23.8453L21.6124 23.3192C21.2178 23.5823 20.7706 23.7664 20.2971 23.8716V24.6082C20.2971 24.7397 20.1919 24.8449 20.0604 24.8449H18.824C18.6925 24.8449 18.5873 24.7397 18.5873 24.6082V23.8979C18.0875 23.7927 17.6403 23.6086 17.2195 23.3192L16.6144 23.9242C16.5618 23.9768 16.5092 24.0031 16.4303 24.0031C16.3777 24.0031 16.2988 23.9768 16.2462 23.9242L15.3518 23.0299C15.2992 22.9773 15.2729 22.9246 15.2729 22.8457C15.2729 22.7668 15.2992 22.7142 15.3518 22.6616L15.9831 22.0303C15.7464 21.662 15.5886 21.2411 15.4833 20.8203H14.6942C14.5627 20.8203 14.4574 20.715 14.4574 20.5835V19.3472C14.4574 19.2157 14.5627 19.1104 14.6942 19.1104H15.4833C15.5886 18.637 15.7727 18.1635 16.062 17.7689L15.3781 17.085C15.3255 17.0324 15.2992 16.9798 15.2992 16.9008C15.2992 16.8219 15.3255 16.7693 15.3781 16.7167L16.2725 15.8487C16.3777 15.7434 16.5355 15.7434 16.6144 15.8487L17.3247 16.5589C17.6929 16.3221 18.1138 16.1643 18.561 16.0591V15.2173C18.561 15.0858 18.6662 14.9806 18.7977 14.9806H20.0341C20.1656 14.9806 20.2708 15.0858 20.2708 15.2173V16.0591C20.6917 16.1643 21.1126 16.3221 21.4808 16.5589L22.1385 15.9013C22.2437 15.796 22.4015 15.796 22.4804 15.9013L23.3748 16.7693C23.4274 16.8219 23.4537 16.8745 23.4537 16.9535C23.4537 17.0324 23.4274 17.085 23.3748 17.1376L22.7172 17.7952C22.9802 18.1898 23.1643 18.637 23.2696 19.1104H24.0587C24.1902 19.1104 24.2954 19.2157 24.2954 19.3472V20.5835H24.3481Z" fill="url(#paint1_linear_1218_6869)"/>
<defs>
<linearGradient id="paint0_linear_1218_6869" x1="19.4023" y1="17.4795" x2="19.4023" y2="22.4248" gradientUnits="userSpaceOnUse">
<stop stop-color="#9F212C"/>
<stop offset="1" stop-color="#FFBD38"/>
</linearGradient>
<linearGradient id="paint1_linear_1218_6869" x1="19.4019" y1="6.7998" x2="19.4019" y2="31.9998" gradientUnits="userSpaceOnUse">
<stop stop-color="#9F212C"/>
<stop offset="1" stop-color="#FFBD38"/>
</linearGradient>
</defs>
</svg>
