<svg width="38" height="38" viewBox="0 0 38 38" fill="none" xmlns="http://www.w3.org/2000/svg">
<circle cx="19" cy="19" r="19" fill="#F4F0F0"/>
<path d="M9.7789 20.4038L20.3525 25.7794V29H9.37248C8.71676 29 8.22154 28.3989 8.34791 27.7534L9.7789 20.4038Z" fill="url(#paint0_linear_1218_6865)"/>
<path d="M11.2061 15.5063C11.6638 17.1525 12.9137 19.2631 14.1091 21.039L10.0586 18.9797L10.5845 16.2714C10.6563 15.9196 10.8953 15.6395 11.2061 15.5063Z" fill="url(#paint1_linear_1218_6865)"/>
<path d="M21.6103 16.8901L20.5038 24.291L17.8672 22.9488C19.025 21.3846 20.6848 18.9734 21.6103 16.8901Z" fill="url(#paint2_linear_1218_6865)"/>
<path d="M29.0036 21.8108L21.9102 24.3074L23.2387 15.4243H26.9033C27.4019 15.4243 27.8322 15.7795 27.9278 16.2713L29.0036 21.8108Z" fill="url(#paint3_linear_1218_6865)"/>
<path d="M29.1406 29.0002H21.75V25.8412L29.2772 23.1978L30.1652 27.7537C30.295 28.3992 29.7998 29.0002 29.1406 29.0002Z" fill="url(#paint4_linear_1218_6865)"/>
<path d="M16.6628 9.39746C13.9278 9.39746 11.707 11.6154 11.707 14.359C11.707 16.4985 14.7397 20.8286 16.0603 22.6128C16.3605 23.0183 16.9652 23.0183 17.2654 22.6128C18.586 20.8286 21.6186 16.4985 21.6186 14.359C21.6186 11.6154 19.3979 9.39746 16.6628 9.39746ZM16.6628 16.6542C15.3932 16.6542 14.3647 15.6257 14.3647 14.356C14.3647 13.0838 15.3932 12.0552 16.6628 12.0552C17.9325 12.0552 18.961 13.0838 18.961 14.356C18.961 15.6257 17.9325 16.6542 16.6628 16.6542Z" fill="url(#paint5_linear_1218_6865)"/>
<defs>
<linearGradient id="paint0_linear_1218_6865" x1="14.7494" y1="19.1332" x2="14.3996" y2="30.76" gradientUnits="userSpaceOnUse">
<stop stop-color="#9F212C"/>
<stop offset="0.949212" stop-color="#FFBD38"/>
</linearGradient>
<linearGradient id="paint1_linear_1218_6865" x1="12.2216" y1="14.6886" x2="11.7926" y2="22.1539" gradientUnits="userSpaceOnUse">
<stop stop-color="#9F212C"/>
<stop offset="0.949212" stop-color="#FFBD38"/>
</linearGradient>
<linearGradient id="paint2_linear_1218_6865" x1="19.8661" y1="15.7962" x2="19.0383" y2="25.7465" gradientUnits="userSpaceOnUse">
<stop stop-color="#9F212C"/>
<stop offset="0.949212" stop-color="#FFBD38"/>
</linearGradient>
<linearGradient id="paint3_linear_1218_6865" x1="25.6982" y1="14.1113" x2="25.0663" y2="26.1037" gradientUnits="userSpaceOnUse">
<stop stop-color="#9F212C"/>
<stop offset="0.949212" stop-color="#FFBD38"/>
</linearGradient>
<linearGradient id="paint4_linear_1218_6865" x1="26.2549" y1="22.3401" x2="26.0278" y2="30.1888" gradientUnits="userSpaceOnUse">
<stop stop-color="#9F212C"/>
<stop offset="0.949212" stop-color="#FFBD38"/>
</linearGradient>
<linearGradient id="paint5_linear_1218_6865" x1="17" y1="7.39916" x2="15.9531" y2="25.6414" gradientUnits="userSpaceOnUse">
<stop stop-color="#9F212C"/>
<stop offset="0.949212" stop-color="#FFBD38"/>
</linearGradient>
</defs>
</svg>
