<svg width="24" height="24" viewBox="0 0 24 24" fill="none" xmlns="http://www.w3.org/2000/svg">
<path d="M12 0C9.62663 0 7.30655 0.703787 5.33316 2.02236C3.35977 3.34094 1.8217 5.21508 0.913451 7.4078C0.00519943 9.60051 -0.232441 12.0133 0.230582 14.3411C0.693604 16.6689 1.83649 18.807 3.51472 20.4853C5.19295 22.1635 7.33115 23.3064 9.65892 23.7694C11.9867 24.2324 14.3995 23.9948 16.5922 23.0865C18.7849 22.1783 20.6591 20.6402 21.9776 18.6668C23.2962 16.6934 24 14.3734 24 12C24 8.8174 22.7357 5.76515 20.4853 3.51472C18.2348 1.26428 15.1826 0 12 0ZM13.1173 18.6667H10.776V16.36H13.1173V18.6667ZM16.2667 10.7093C15.952 11.2071 15.2782 11.8853 14.2453 12.744C13.8491 13.0332 13.5115 13.3952 13.2507 13.8107C13.0902 14.2773 13.0275 14.7721 13.0667 15.264H10.776C10.776 14.9333 10.776 14.7324 10.776 14.6613C10.752 14.0284 10.8781 13.3988 11.144 12.824C11.5213 12.1915 12.0197 11.6396 12.6107 11.2C13.0861 10.8436 13.532 10.4494 13.944 10.0213C14.1609 9.74331 14.2782 9.40059 14.2773 9.048C14.2768 8.80673 14.2231 8.56855 14.1198 8.3505C14.0165 8.13245 13.8663 7.93991 13.68 7.78666C13.2335 7.41259 12.6616 7.22197 12.08 7.25333C11.4977 7.23618 10.929 7.43143 10.48 7.80266C10.0087 8.24977 9.69922 8.84067 9.6 9.48266H7.27734C7.33224 8.33397 7.82343 7.24953 8.65067 6.45066C9.49156 5.70578 10.6018 5.33333 11.9813 5.33333C13.4338 5.33333 14.5893 5.71289 15.448 6.472C15.8452 6.79119 16.1667 7.19446 16.3895 7.65279C16.6122 8.11112 16.7305 8.61312 16.736 9.12266C16.736 9.68576 16.573 10.2368 16.2667 10.7093Z" fill="url(#paint0_linear_1852_4519)"/>
<defs>
<linearGradient id="paint0_linear_1852_4519" x1="12" y1="0" x2="12" y2="24" gradientUnits="userSpaceOnUse">
<stop stop-color="#9F212C"/>
<stop offset="1" stop-color="#D99A26"/>
</linearGradient>
</defs>
</svg>
