<svg width="25" height="25" viewBox="0 0 25 25" fill="none" xmlns="http://www.w3.org/2000/svg">
<path d="M23.2366 24.5909H1.21499C0.556869 24.5909 0 24.0846 0 23.4265V12.2891C0 11.6563 0.531557 11.1248 1.21499 11.1248C1.89842 11.1248 2.42997 11.631 2.42997 12.2891V22.2874H22.0469V12.2891C22.0469 11.6563 22.5785 11.1248 23.2619 11.1248C23.9454 11.1248 24.4769 11.631 24.4769 12.2891V23.4265C24.4263 24.0593 23.8947 24.5909 23.2366 24.5909Z" fill="#9F212C"/>
<path d="M17.7946 5.02448L13.1118 0.341715C12.6562 -0.113905 11.8968 -0.113905 11.4159 0.341715L6.6825 5.02448C6.45469 5.25229 6.32812 5.55603 6.32812 5.88509C6.32812 6.21415 6.45469 6.49258 6.6825 6.72039C6.91031 6.9482 7.21405 7.07476 7.5178 7.07476C7.84686 7.07476 8.1506 6.9482 8.37841 6.72039L10.9603 4.16386V16.1872C10.9603 16.8959 11.5171 17.4528 12.2259 17.4528C12.9346 17.4528 13.4915 16.8959 13.4915 16.1872V4.11324L16.0986 6.72039C16.5543 7.17601 17.3136 7.17601 17.7946 6.72039C18.0224 6.49258 18.1489 6.18884 18.1489 5.88509C18.1489 5.55603 18.0224 5.25229 17.7946 5.02448Z" fill="#9F212C"/>
</svg>
