<svg width="77" height="79" viewBox="0 0 77 79" fill="none" xmlns="http://www.w3.org/2000/svg">
<path d="M5.84863 24.5435C5.19476 24.5429 4.54723 24.6716 3.94324 24.9221C3.33925 25.1725 2.79069 25.5398 2.32908 26.0029C1.86747 26.466 1.5019 27.0158 1.25338 27.6206C1.00485 28.2254 0.878271 28.8733 0.880899 29.5271C0.88407 30.8422 1.40898 32.1023 2.34038 33.0307C3.27178 33.9591 4.53354 34.48 5.84863 34.4789H67.8315C69.1466 34.48 70.4083 33.9591 71.3397 33.0307C72.2711 32.1023 72.7961 30.8422 72.7992 29.5271C72.7998 28.8746 72.6716 28.2284 72.4221 27.6255C72.1727 27.0225 71.8068 26.4747 71.3454 26.0133C70.884 25.5519 70.3361 25.186 69.7332 24.9365C69.1302 24.687 68.484 24.5589 67.8315 24.5594L5.84863 24.5435Z" fill="#9A5F3B"/>
<path d="M7.12112 34.4785H72.7989V29.9258H11.6539C11.0571 29.9263 10.4663 30.0446 9.9153 30.2738C9.36429 30.503 8.86392 30.8387 8.44285 31.2616C8.02179 31.6845 7.6883 32.1864 7.46149 32.7384C7.23469 33.2904 7.11902 33.8817 7.12112 34.4785Z" fill="#FFFAD1"/>
<path d="M25.0539 42.0839L22.3047 41.3657L28.3737 20.2459L29.1318 19.2324C29.8261 18.2628 30.7279 17.2373 31.6775 16.1001C32.1364 15.5295 32.703 14.9829 33.2457 14.4003L34.0836 13.5225C34.3629 13.2272 34.6861 12.9479 34.9933 12.6526C36.2791 11.4275 37.6311 10.274 39.0433 9.19715C39.8015 8.66248 40.5357 8.09189 41.3337 7.57716L42.5307 6.81504C42.9297 6.55967 43.3288 6.30829 43.7637 6.08085C44.6136 5.62199 45.4395 5.13519 46.3253 4.74017L47.6341 4.12568C48.077 3.93815 48.5279 3.76258 48.9708 3.58302C50.7348 2.88331 52.5454 2.30733 54.3894 1.85928C55.2992 1.66776 56.185 1.44032 57.0788 1.31263C57.5217 1.24081 57.9606 1.16101 58.3995 1.10116L59.7043 0.94953C60.1352 0.893668 60.5622 0.861747 60.9851 0.833816C61.4081 0.805885 61.8271 0.773964 62.238 0.754013C63.068 0.754013 63.87 0.698151 64.6321 0.726082C66.0896 0.741871 67.5452 0.832433 68.9933 0.997412C70.9802 1.23409 72.9418 1.64806 74.8549 2.23436C75.4509 2.38936 76.0319 2.59769 76.5906 2.85682H75.218C71.7845 2.88559 68.369 3.35494 65.0551 4.25337C64.3608 4.42494 63.6625 4.65238 62.9483 4.87982C62.5972 4.99953 62.242 5.1312 61.8829 5.25888C61.5238 5.38657 61.1687 5.51425 60.8136 5.6579L59.7442 6.09681L58.6868 6.59558C57.9726 6.90681 57.2903 7.31381 56.592 7.67691C55.2215 8.45715 53.9069 9.33178 52.6577 10.2944L51.736 11.0127L50.8621 11.7828C50.2676 12.2736 49.7409 12.8402 49.2022 13.3788C48.93 13.6391 48.6716 13.9135 48.4282 14.2008L47.69 15.0307C47.2032 15.5814 46.7762 16.1839 46.3333 16.7305C45.5162 17.8279 44.7621 18.971 44.0749 20.1541C43.9113 20.4334 43.7357 20.6928 43.5921 20.98C43.4485 21.2673 43.3008 21.5387 43.1612 21.81C42.8858 22.3646 42.5866 22.8554 42.3631 23.4061C41.9043 24.4475 41.3696 25.8919 41.0663 26.7737L47.9773 29.9658L25.0539 42.0839Z" fill="#D99A26"/>
<path d="M22.3045 41.3658L18.0391 15.9885L25.6203 19.5517L26.3825 18.5342C27.0727 17.5686 27.9785 16.5391 28.9242 15.4059C29.383 14.8354 29.9536 14.2887 30.4923 13.7061L31.3302 12.8283C31.6095 12.529 31.9327 12.2537 32.24 11.9585C33.5252 10.7313 34.8787 9.5776 36.294 8.50299C37.0481 7.96432 37.7823 7.39373 38.5803 6.883L39.7774 6.12088C40.1764 5.86152 40.5754 5.61014 41.0143 5.38669C41.8602 4.92783 42.6862 4.44103 43.572 4.04601L44.8807 3.43152C45.3237 3.24 45.7745 3.06842 46.2214 2.88886C47.9805 2.18587 49.7873 1.60851 51.6281 1.16113C52.5378 0.969605 53.4236 0.762117 54.3174 0.618472C54.7643 0.54665 55.2032 0.466847 55.6382 0.403004L56.9469 0.255369C57.3739 0.199507 57.8008 0.167586 58.2278 0.139655C58.6547 0.111724 59.0657 0.0798029 59.4767 0.0598521C60.3346 0.0239409 61.1326 0 61.9027 0C63.3602 0.017022 64.8159 0.108916 66.2639 0.27532C68.3974 0.509183 70.5093 0.909416 72.5803 1.47236C73.3579 1.67677 74.1238 1.92319 74.8747 2.21054C74.0787 2.14025 73.2795 2.11228 72.4806 2.12675C70.4157 2.15247 68.356 2.3379 66.3198 2.68138C64.9757 2.90123 63.6439 3.19023 62.3296 3.54724C61.6314 3.71881 60.9331 3.94625 60.2228 4.17369C59.8677 4.29339 59.5126 4.42507 59.1575 4.55275C58.8024 4.68044 58.4393 4.80812 58.0881 4.95177L57.0188 5.39467L55.9454 5.89743C55.2312 6.21265 54.5489 6.61965 53.8506 6.97876C52.4804 7.75899 51.167 8.63501 49.9203 9.60028L48.9986 10.3185L48.1207 11.0886C47.5302 11.5754 46.9995 12.146 46.4608 12.6847C46.1899 12.945 45.9329 13.2193 45.6908 13.5066L44.9486 14.3366C44.4658 14.8872 44.0348 15.4857 43.5919 16.0364C42.7776 17.1344 42.0236 18.2759 41.3335 19.4559C41.1699 19.7392 40.9944 19.9986 40.8507 20.2819L40.4198 21.1158C40.1444 21.6665 39.8452 22.1613 39.6217 22.7119C39.1669 23.7533 38.724 24.6711 38.4247 25.5529L45.7945 29.0004L22.3045 41.3658Z" fill="#EBC15E"/>
<path d="M0.880861 29.5273V73.9696C0.880336 74.6221 1.00847 75.2683 1.25794 75.8712C1.5074 76.4742 1.8733 77.022 2.3347 77.4834C2.7961 77.9448 3.34395 78.3107 3.9469 78.5602C4.54985 78.8097 5.19607 78.9378 5.84859 78.9373H67.8315C68.484 78.9378 69.1302 78.8097 69.7331 78.5602C70.3361 78.3107 70.8839 77.9448 71.3453 77.4834C71.8067 77.022 72.1726 76.4742 72.4221 75.8712C72.6716 75.2683 72.7997 74.6221 72.7992 73.9696V34.4671H5.84859C4.53589 34.4672 3.27654 33.9476 2.34571 33.022C1.41488 32.0964 0.888242 30.84 0.880861 29.5273Z" fill="#B06C45"/>
<path d="M74.1559 50.8667H66.6344C65.8925 50.8667 65.1578 51.0128 64.4723 51.2968C63.7868 51.5807 63.1639 51.9969 62.6393 52.5216C62.1146 53.0462 61.6984 53.6691 61.4145 54.3546C61.1306 55.0401 60.9844 55.7748 60.9844 56.5167V58.1726C60.9818 58.9163 61.126 59.6532 61.4088 60.341C61.6915 61.0288 62.1073 61.654 62.6322 62.1807C63.1571 62.7075 63.7809 63.1255 64.4677 63.4107C65.1545 63.6958 65.8908 63.8426 66.6344 63.8426H74.1559C74.8303 63.8426 75.4773 63.575 75.9545 63.0984C76.4318 62.6219 76.7005 61.9754 76.7016 61.3009V53.4084C76.7005 52.7339 76.4318 52.0875 75.9545 51.6109C75.4773 51.1344 74.8303 50.8667 74.1559 50.8667Z" fill="#9A5F3B"/>
<path d="M70.397 57.3425C70.3978 57.9331 70.2233 58.5107 69.8957 59.0021C69.568 59.4936 69.1019 59.8767 68.5564 60.1031C68.0108 60.3295 67.4104 60.3889 66.8311 60.2739C66.2517 60.1589 65.7196 59.8745 65.3019 59.4569C64.8843 59.0392 64.5999 58.5071 64.4849 57.9277C64.3699 57.3484 64.4293 56.748 64.6557 56.2024C64.8821 55.6569 65.2653 55.1908 65.7567 54.8632C66.2481 54.5355 66.8257 54.361 67.4164 54.3618C68.2069 54.3618 68.965 54.6758 69.524 55.2348C70.083 55.7938 70.397 56.5519 70.397 57.3425Z" fill="#FFFAD1"/>
<path d="M67.8297 76.7984H65.4835V75.8807H67.8297C68.0258 75.88 68.2208 75.8504 68.4083 75.7929L68.6876 76.6668C68.4101 76.7544 68.1207 76.7989 67.8297 76.7984ZM62.4191 76.7984H59.3506V75.8807H62.4191V76.7984ZM56.2862 76.7984H53.2218V75.8807H56.2862V76.7984ZM50.1573 76.7984H47.0969V75.8807H50.1573V76.7984ZM44.0325 76.7984H40.972V75.8807H44.0325V76.7984ZM37.9076 76.7984H34.8472V75.8807H37.9076V76.7984ZM31.7827 76.7984H28.7183V75.8807H31.7827V76.7984ZM25.6579 76.7984H22.5934V75.8807H25.6579V76.7984ZM19.533 76.7984H16.4686V75.8807H19.533V76.7984ZM13.4041 76.7984H10.3397V75.8807H13.4041V76.7984ZM7.27528 76.7984H4.21484V75.8807H7.26331L7.27528 76.7984ZM70.6587 73.9056H69.741V70.8491H70.6587V73.9056Z" fill="#FFFAD1"/>
<path d="M70.6619 66.4199H69.7441V67.9481H70.6619V66.4199Z" fill="#FFFAD1"/>
<path d="M70.6619 46.7368H69.7441V48.265H70.6619V46.7368Z" fill="#FFFAD1"/>
<path d="M70.6619 41.3179H69.7441V44.0272H70.6619V41.3179Z" fill="#FFFAD1"/>
<path d="M70.6609 38.6042H69.7432V37.5348H68.6738V36.6211H70.6609V38.6042Z" fill="#FFFAD1"/>
<path d="M65.7241 37.5348H62.7754V36.6211H65.7241V37.5348ZM59.8227 37.5348H56.874V36.6211H59.8227V37.5348ZM53.9253 37.5348H50.9766V36.6211H53.9253V37.5348ZM48.0279 37.5348H45.0752V36.6211H48.0279V37.5348ZM42.1264 37.5348H39.1857V36.6211H42.1344L42.1264 37.5348ZM36.229 37.5348H33.2803V36.6211H36.229V37.5348ZM30.3276 37.5348H27.3789V36.6211H30.3276V37.5348ZM24.4222 37.5348H21.4814V36.6211H24.4222V37.5348ZM18.5247 37.5348H15.572V36.6211H18.5247V37.5348ZM12.6233 37.5348H9.68259V36.6211H12.6313L12.6233 37.5348ZM6.72589 37.5348H3.78516V36.6211H6.73387L6.72589 37.5348Z" fill="#FFFAD1"/>
</svg>
