<svg width="77" height="81" viewBox="0 0 77 81" fill="none" xmlns="http://www.w3.org/2000/svg">
<path d="M5.13629 24.8936C4.47309 24.893 3.81633 25.0235 3.20372 25.2776C2.59111 25.5316 2.03473 25.9042 1.56653 26.3739C1.09834 26.8436 0.727558 27.4011 0.475489 28.0145C0.22342 28.628 0.0950311 29.2851 0.0976969 29.9483C0.100913 31.2822 0.633312 32.5602 1.578 33.5019C2.52268 34.4435 3.80244 34.9718 5.13629 34.9707H68.0033C69.3371 34.9718 70.6169 34.4435 71.5616 33.5019C72.5063 32.5602 73.0387 31.2822 73.0419 29.9483C73.0424 29.2865 72.9125 28.6311 72.6594 28.0195C72.4064 27.408 72.0353 26.8523 71.5673 26.3843C71.0993 25.9163 70.5437 25.5452 69.9321 25.2922C69.3206 25.0392 68.6651 24.9092 68.0033 24.9097L5.13629 24.8936Z" fill="#9A5F3B"/>
<path d="M6.42581 34.9702H73.0404V30.3525H11.0233C10.418 30.3531 9.81872 30.473 9.25985 30.7055C8.70098 30.938 8.19347 31.2785 7.76639 31.7074C7.33932 32.1364 7.00108 32.6454 6.77104 33.2053C6.541 33.7652 6.42368 34.3649 6.42581 34.9702Z" fill="#FFFAD1"/>
<path d="M24.6166 42.6847L21.8281 41.9562L27.9837 20.5352L28.7526 19.5072C29.4568 18.5238 30.3715 17.4837 31.3347 16.3303C31.8001 15.7515 32.3748 15.1971 32.9252 14.6062L33.775 13.7159C34.0583 13.4164 34.3862 13.1331 34.6978 12.8336C36.0018 11.591 37.3731 10.421 38.8055 9.32884C39.5745 8.78654 40.3191 8.20781 41.1286 7.68574L42.3427 6.91275C42.7474 6.65374 43.1521 6.39877 43.5932 6.16809C44.4552 5.70268 45.293 5.20894 46.1914 4.80828L47.5189 4.18503C47.9681 3.99482 48.4254 3.81675 48.8746 3.63463C50.6638 2.92493 52.5002 2.34074 54.3705 1.8863C55.2933 1.69204 56.1917 1.46136 57.0982 1.33185C57.5475 1.25901 57.9926 1.17807 58.4378 1.11736L59.7612 0.963571C60.1983 0.906913 60.6313 0.874536 61.0603 0.846207C61.4893 0.817877 61.9142 0.785501 62.3311 0.765266C63.1729 0.765266 63.9863 0.708607 64.7593 0.736936C66.2375 0.75295 67.714 0.844804 69.1828 1.01214C71.1979 1.25219 73.1876 1.67206 75.1279 2.26672C75.7325 2.42394 76.3217 2.63524 76.8884 2.89807H75.4962C72.0138 2.92725 68.5495 3.40329 65.1883 4.31454C64.4841 4.48856 63.7759 4.71924 63.0515 4.94992C62.6953 5.07134 62.3351 5.20489 61.9709 5.3344C61.6067 5.4639 61.2465 5.59341 60.8863 5.7391L59.8017 6.18428L58.7292 6.69016C58.0048 7.00583 57.3127 7.41863 56.6045 7.78691C55.2144 8.57829 53.8811 9.46538 52.6141 10.4418L51.6792 11.1703L50.7929 11.9513C50.1899 12.4491 49.6557 13.0238 49.1094 13.5702C48.8333 13.8341 48.5712 14.1124 48.3242 14.4039L47.5755 15.2456C47.0818 15.8041 46.6487 16.4152 46.1995 16.9697C45.3707 18.0827 44.6059 19.2421 43.9089 20.4421C43.743 20.7254 43.5649 20.9884 43.4192 21.2798C43.2735 21.5712 43.1238 21.8464 42.9821 22.1216C42.7029 22.6841 42.3993 23.1819 42.1727 23.7404C41.7073 24.7967 41.165 26.2617 40.8574 27.1561L47.8669 30.3938L24.6166 42.6847Z" fill="#D99A26"/>
<path d="M21.8263 41.9559L17.5 16.2166L25.1894 19.8306L25.9624 18.7986C26.6625 17.8192 27.5812 16.7751 28.5404 15.6257C29.0058 15.047 29.5845 14.4925 30.1309 13.9016L30.9808 13.0113C31.264 12.7078 31.5919 12.4285 31.9035 12.129C33.207 10.8843 34.5798 9.71422 36.0153 8.62428C36.7802 8.07793 37.5248 7.4992 38.3343 6.98118L39.5484 6.20819C39.9531 5.94513 40.3578 5.69017 40.803 5.46353C41.6609 4.99812 42.4987 4.50438 43.3971 4.10372L44.7246 3.48047C45.1738 3.28621 45.6311 3.11219 46.0844 2.93007C47.8686 2.21705 49.7011 1.63146 51.5681 1.17769C52.4909 0.983435 53.3893 0.772988 54.2959 0.627294C54.7491 0.554447 55.1943 0.473506 55.6354 0.408753L56.9629 0.259012C57.3959 0.202353 57.8289 0.169976 58.262 0.141647C58.695 0.113318 59.1119 0.0809412 59.5287 0.0607059C60.3988 0.0242824 61.2082 0 61.9893 0C63.4676 0.0172648 64.944 0.11047 66.4128 0.279247C68.5766 0.516446 70.7186 0.922388 72.8192 1.49336C73.6079 1.70069 74.3847 1.95063 75.1463 2.24207C74.339 2.17078 73.5284 2.14241 72.7181 2.15708C70.6238 2.18317 68.5347 2.37125 66.4694 2.71962C65.1062 2.94261 63.7554 3.23574 62.4224 3.59784C61.7141 3.77186 61.0059 4.00254 60.2855 4.23322C59.9253 4.35464 59.5651 4.48819 59.2049 4.61769C58.8448 4.7472 58.4765 4.87671 58.1203 5.0224L57.0357 5.47162L55.9471 5.98155C55.2226 6.30127 54.5306 6.71407 53.8224 7.07831C52.4326 7.86966 51.1005 8.75818 49.836 9.73722L48.9011 10.4657L48.0108 11.2468C47.4118 11.7405 46.8736 12.3192 46.3272 12.8656C46.0524 13.1296 45.7917 13.4079 45.5461 13.6993L44.7934 14.5411C44.3037 15.0996 43.8666 15.7066 43.4174 16.2651C42.5914 17.3788 41.8267 18.5366 41.1267 19.7335C40.9608 20.0208 40.7827 20.2839 40.637 20.5712L40.2 21.417C39.9207 21.9755 39.6172 22.4774 39.3905 23.0359C38.9292 24.0921 38.48 25.023 38.1764 25.9174L45.6513 29.414L21.8263 41.9559Z" fill="#EBC15E"/>
<path d="M0.0976579 29.9482V75.0244C0.0971256 75.6862 0.227089 76.3417 0.480114 76.9532C0.733138 77.5648 1.10426 78.1204 1.57224 78.5884C2.04022 79.0564 2.59588 79.4275 3.20743 79.6805C3.81898 79.9335 4.47442 80.0635 5.13625 80.063H68.0033C68.6651 80.0635 69.3205 79.9335 69.9321 79.6805C70.5436 79.4275 71.0993 79.0564 71.5673 78.5884C72.0352 78.1204 72.4064 77.5648 72.6594 76.9532C72.9124 76.3417 73.0424 75.6862 73.0418 75.0244V34.9585H5.13625C3.80482 34.9585 2.52751 34.4316 1.5834 33.4928C0.639296 32.554 0.105144 31.2796 0.0976579 29.9482Z" fill="#B06C45"/>
<path d="M74.418 51.5925H66.7893C66.0367 51.5925 65.2915 51.7408 64.5962 52.0287C63.901 52.3167 63.2692 52.7389 62.7371 53.271C62.205 53.8031 61.7828 54.4349 61.4948 55.1301C61.2069 55.8254 61.0586 56.5706 61.0586 57.3232V59.0027C61.056 59.757 61.2022 60.5043 61.489 61.2019C61.7758 61.8995 62.1975 62.5337 62.7299 63.068C63.2623 63.6022 63.895 64.0262 64.5916 64.3154C65.2882 64.6047 66.035 64.7536 66.7893 64.7536H74.418C75.1021 64.7536 75.7582 64.4821 76.2423 63.9987C76.7264 63.5154 76.9989 62.8597 77 62.1756V54.1705C76.9989 53.4864 76.7264 52.8307 76.2423 52.3474C75.7582 51.864 75.1021 51.5925 74.418 51.5925Z" fill="#9A5F3B"/>
<path d="M70.6052 58.1606C70.606 58.7597 70.429 59.3455 70.0967 59.844C69.7644 60.3424 69.2916 60.731 68.7383 60.9606C68.185 61.1903 67.576 61.2506 66.9884 61.1339C66.4008 61.0172 65.861 60.7288 65.4374 60.3052C65.0138 59.8816 64.7254 59.3418 64.6088 58.7542C64.4921 58.1666 64.5524 57.5576 64.782 57.0043C65.0116 56.451 65.4002 55.9783 65.8987 55.6459C66.3971 55.3136 66.983 55.1367 67.582 55.1375C68.3838 55.1375 69.1528 55.456 69.7197 56.0229C70.2867 56.5899 70.6052 57.3588 70.6052 58.1606Z" fill="#FFFAD1"/>
<path d="M68.0027 77.8938H65.6231V76.963H68.0027C68.2017 76.9623 68.3994 76.9323 68.5896 76.8739L68.8728 77.7602C68.5914 77.8492 68.2979 77.8942 68.0027 77.8938ZM62.5149 77.8938H59.4027V76.963H62.5149V77.8938ZM56.2946 77.8938H53.1864V76.963H56.2946V77.8938ZM50.0783 77.8938H46.9742V76.963H50.0783V77.8938ZM43.8661 77.8938H40.762V76.963H43.8661V77.8938ZM37.6538 77.8938H34.5497V76.963H37.6538V77.8938ZM31.4416 77.8938H28.3335V76.963H31.4416V77.8938ZM25.2294 77.8938H22.1212V76.963H25.2294V77.8938ZM19.0171 77.8938H15.909V76.963H19.0171V77.8938ZM12.8008 77.8938H9.6927V76.963H12.8008V77.8938ZM6.58456 77.8938H3.48047V76.963H6.57242L6.58456 77.8938ZM70.8721 74.9597H69.9413V71.8596H70.8721V74.9597Z" fill="#FFFAD1"/>
<path d="M70.8722 67.3672H69.9414V68.9172H70.8722V67.3672Z" fill="#FFFAD1"/>
<path d="M70.8722 47.4033H69.9414V48.9533H70.8722V47.4033Z" fill="#FFFAD1"/>
<path d="M70.8722 41.9072H69.9414V44.6552H70.8722V41.9072Z" fill="#FFFAD1"/>
<path d="M70.8709 39.1547H69.9401V38.0701H68.8555V37.1433H70.8709V39.1547Z" fill="#FFFAD1"/>
<path d="M65.8655 38.0701H62.8747V37.1433H65.8655V38.0701ZM59.8799 38.0701H56.8891V37.1433H59.8799V38.0701ZM53.8983 38.0701H50.9075V37.1433H53.8983V38.0701ZM47.9168 38.0701H44.9219V37.1433H47.9168V38.0701ZM41.9312 38.0701H38.9485V37.1433H41.9393L41.9312 38.0701ZM35.9496 38.0701H32.9588V37.1433H35.9496V38.0701ZM29.964 38.0701H26.9732V37.1433H29.964V38.0701ZM23.9744 38.0701H20.9917V37.1433H23.9744V38.0701ZM17.9928 38.0701H14.998V37.1433H17.9928V38.0701ZM12.0072 38.0701H9.02452V37.1433H12.0153L12.0072 38.0701ZM6.02565 38.0701H3.04297V37.1433H6.03375L6.02565 38.0701Z" fill="#FFFAD1"/>
</svg>
