<svg width="22" height="23" viewBox="0 0 22 23" fill="none" xmlns="http://www.w3.org/2000/svg">
<path d="M20.5026 0.844727C20.3509 1.02798 20.1999 1.21181 20.0471 1.39427C18.7502 2.94303 17.453 4.49164 16.1557 6.04009C15.0007 7.419 13.8453 8.79765 12.6896 10.176C12.6566 10.2148 12.6566 10.2381 12.6851 10.28C13.6635 11.7397 14.641 13.2002 15.6175 14.6614L18.6928 19.2572C19.5155 20.4867 20.3382 21.7164 21.1607 22.9462C21.1698 22.9598 21.1777 22.9745 21.1903 22.9956C21.1676 22.997 21.1506 22.9989 21.1336 22.9989C19.0763 22.9989 17.019 22.9992 14.9617 22.9998C14.9458 23.0011 14.9298 22.9977 14.9156 22.9901C14.9015 22.9825 14.8897 22.9709 14.8816 22.9567C14.1025 21.79 13.3227 20.6238 12.5421 19.458C11.8449 18.416 11.1477 17.374 10.4507 16.3319C10.0307 15.704 9.61065 15.0759 9.19037 14.4478C9.18025 14.4327 9.16914 14.4184 9.15495 14.399C9.05729 14.5151 8.96292 14.6271 8.869 14.7394L2.55599 22.2775C2.36605 22.5043 2.17556 22.7305 1.98661 22.958C1.97626 22.9719 1.96277 22.9829 1.94732 22.9902C1.93187 22.9974 1.91493 23.0007 1.89796 22.9997C1.30266 22.9984 0.707287 22.9981 0.11184 22.9988C0.104581 22.9988 0.0973226 22.9997 0.0898438 23.0002V22.9889C0.103416 22.977 0.116375 22.9644 0.128668 22.9511C1.42991 21.3987 2.73075 19.846 4.03119 18.293C5.44908 16.6004 6.8672 14.9082 8.28554 13.2163C8.31986 13.1754 8.32382 13.1495 8.29258 13.1033C8.08581 12.7995 7.88278 12.4932 7.67844 12.1881C6.8661 10.9736 6.05377 9.75931 5.24144 8.54513C4.44575 7.35588 3.65021 6.16648 2.85481 4.97693C2.00508 3.70701 1.15532 2.43713 0.30552 1.16729C0.235241 1.06244 0.161772 0.959742 0.0898438 0.856025C0.0917135 0.852409 0.0933632 0.845517 0.0953429 0.845291C0.109971 0.844727 0.124708 0.844727 0.139336 0.844727H6.37756C6.38856 0.862239 6.39824 0.88009 6.40967 0.89715C7.10235 1.93289 7.79524 2.96856 8.48835 4.00416C9.51911 5.54553 10.55 7.08672 11.5811 8.62772C11.6607 8.7468 11.7407 8.86498 11.823 8.98926C11.8583 8.94769 11.8897 8.91119 11.9206 8.87436C13.5591 6.91819 15.1976 4.96194 16.8359 3.00562L18.6453 0.844727H20.5026ZM18.6439 21.624C18.6273 21.5977 18.6189 21.5834 18.6095 21.5696C17.4172 19.8178 16.2248 18.0661 15.0325 16.3142L10.7212 9.98147C8.98532 7.43102 7.24965 4.88026 5.51419 2.3292C5.48967 2.29316 5.46393 2.2831 5.42368 2.2831C4.51309 2.28416 3.60255 2.28442 2.69204 2.28389H2.62539C2.64155 2.30976 2.65079 2.3257 2.66113 2.34038C4.13791 4.51039 5.61476 6.68017 7.09168 8.84973L11.8495 15.8398C13.1511 17.7521 14.4525 19.6644 15.7539 21.5768C15.7798 21.6148 15.8069 21.6248 15.8488 21.6248C16.7575 21.6239 17.6662 21.6236 18.575 21.624H18.6439Z" fill="#9F212C"/>
</svg>
