<svg width="22" height="15" viewBox="0 0 22 15" fill="none" xmlns="http://www.w3.org/2000/svg">
<path d="M21.1741 2.36924C20.9285 1.45729 20.2164 0.748909 19.3079 0.504637C17.6628 0.0649483 11.0658 0.0649414 11.0658 0.0649414C11.0658 0.0649414 4.46888 0.0649483 2.82374 0.504637C1.91523 0.748909 1.20315 1.46543 0.957604 2.36924C0.515625 4.014 0.515625 7.45009 0.515625 7.45009C0.515625 7.45009 0.515625 10.8862 0.957604 12.5309C1.20315 13.4429 1.91523 14.1513 2.82374 14.3955C4.46888 14.8352 11.0658 14.8352 11.0658 14.8352C11.0658 14.8352 17.6628 14.8352 19.3079 14.3955C20.2164 14.1513 20.9285 13.4348 21.1741 12.5309C21.616 10.8862 21.616 7.45009 21.616 7.45009C21.616 7.45009 21.616 4.014 21.1741 2.36924ZM8.91323 10.5686V4.33156L14.4216 7.45009L8.91323 10.5686Z" fill="#9F212C"/>
</svg>
